<svg width="512" height="512" viewBox="0 0 512 512" fill="none" xmlns="http://www.w3.org/2000/svg">
<circle cx="256" cy="256" r="256" fill="white"/>
<path d="M256 3.36842C116.475 3.36842 3.36841 116.475 3.36841 256C3.36841 395.525 116.475 508.632 256 508.632C395.525 508.632 508.632 395.525 508.632 256C508.632 116.475 395.525 3.36842 256 3.36842ZM256 24.4211C362.078 24.4211 451.498 95.7461 478.921 193.053C455.302 241.77 421.693 285.634 380.763 321.079C361.101 338.107 339.634 353.286 315.921 363.974C292.208 374.662 266.126 380.726 240.158 379.237C220.648 378.118 201.375 372.683 184.289 363.211C229.57 338.675 270.425 305.961 303.868 266.789C325.82 241.078 345.026 211.857 352.421 178.868C356.119 162.374 356.745 145.099 353.289 128.553C349.834 112.006 342.183 96.2374 330.605 83.9211C319.294 71.8888 304.446 63.3656 288.526 58.9737C272.607 54.5817 255.666 54.2418 239.421 57.2105C206.931 63.1481 177.923 82.0308 154.658 105.474C113.649 146.795 88.2969 205.101 92.9474 263.132C95.2726 292.147 104.996 320.658 121.658 344.526C125.377 349.854 129.466 354.928 133.842 359.737C109.569 368.232 84.4369 374.279 58.9474 377.684C37.0629 342.322 24.421 300.642 24.421 256C24.421 128.102 128.102 24.4211 256 24.4211ZM257.474 71.2105C273.753 71.2326 290.142 76.1609 303.132 85.9737C314.834 94.8146 323.505 107.392 328.421 121.211C333.337 135.029 334.598 150.035 332.921 164.605C329.567 193.746 314.866 220.471 297.105 243.816C265.658 285.151 223.857 318.235 177.368 341.395C172.61 343.765 167.776 346.018 162.921 348.184C152.805 339.332 144.135 328.833 137.526 317.132C123.717 292.681 119.163 263.637 121.842 235.684C124.521 207.732 134.114 180.791 147 155.842C161.941 126.914 182.306 99.5138 210.816 83.7895C225.07 75.9273 241.195 71.1885 257.474 71.2105ZM485.5 225C486.857 235.141 487.579 245.488 487.579 256C487.579 383.898 383.898 487.579 256 487.579C184.171 487.579 119.977 454.88 77.5 403.553C103.718 397.598 129.342 389.045 153.921 378.158C164.669 386.344 176.54 393.057 189.158 397.895C225.496 411.826 266.751 409.81 303.526 397.079C340.302 384.348 372.913 361.497 401.342 334.921C435.209 303.262 463.762 265.947 485.5 225Z" fill="black"/>
<g clip-path="url(#clip0_2:10)">
<path d="M417.569 344.547C374.691 344.547 340 379.099 340 421.7C340 464.3 374.691 498.853 417.569 498.853C431.585 498.853 444.628 495.176 456.007 488.709L460.045 498.853H491.267L479.042 468.602C489.061 455.614 495 439.323 495 421.7C495 379.099 460.309 344.547 417.569 344.547V344.547Z" fill="url(#paint0_radial_2:10)"/>
<path d="M416.876 432.071C445.362 432.071 468.454 412.356 468.454 388.035C468.454 363.715 445.362 344 416.876 344C388.389 344 365.297 363.715 365.297 388.035C365.297 412.356 388.389 432.071 416.876 432.071Z" fill="url(#paint1_linear_2:10)"/>
<path d="M425.437 384.33C430.472 384.33 434.554 380.249 434.554 375.214C434.554 370.179 430.472 366.097 425.437 366.097C420.402 366.097 416.32 370.179 416.32 375.214C416.32 380.249 420.402 384.33 425.437 384.33Z" fill="black"/>
<path d="M459.986 388.225L408.332 380.764L406.882 388.258L458.535 395.719L459.986 388.225Z" fill="black"/>
<path d="M464.153 390.478H455.036V394.502H464.153V390.478Z" fill="black"/>
<path d="M396.755 357.174C396.676 360.213 391.385 357.567 391.163 361.032C385.307 358.423 391.619 365.014 391.032 365.625H390.989L390.556 365.582C390.273 365.481 389.862 365.306 389.255 364.931C385.161 368.192 385.064 374.964 380.846 378.724C378.084 384.705 377.404 391.185 375.378 397.457C374.382 403.424 373.505 409.391 374.988 415.358C375.434 420.215 374.032 426.82 378.457 430.206C385.021 435.59 390.474 442.417 395.942 448.939C404.573 459.554 412.177 471.003 418.977 482.798C419.426 479.856 420.517 488.709 422.487 489.306C421.805 484.879 420.919 477.844 420.489 472.376C418.297 458.084 411.261 445.178 408.611 431.024C408.529 430.428 408.433 429.814 408.35 429.207V427.43H408.134C407.265 420.437 406.954 412.86 412.033 407.448C417.223 402.217 424.952 400.899 431.182 397.263C432.57 396.443 434.027 395.778 435.512 395.306C435.524 395.302 435.543 395.311 435.555 395.306C439.885 393.97 444.505 394.012 449.001 394.743C449.068 394.754 449.151 394.775 449.218 394.786C449.627 394.855 450.07 394.924 450.475 395.003C453.764 395.296 460.383 396.585 461.576 394.309C457.039 390.438 450.489 390.715 444.924 389.189C444.049 389.029 442.968 388.856 441.886 388.756L436.46 387.541L435.115 387.195V387.238L415.688 383.463C415.38 383.183 415.044 382.896 414.733 382.684L433.605 385.029V384.942C434.272 385.09 434.932 385.211 435.604 385.289V385.332L448.953 387.802C451.256 388.663 453.712 389.301 456.016 389.454C459.818 390.007 464.661 395.684 465.896 395.962C465.284 389.981 459.319 387.303 454.365 385.554C448.578 382.737 439.933 382.848 438.962 375.064C438.718 374.521 438.477 373.98 438.182 373.454L435.934 370.457L436.021 370.413C432.94 366.778 428.611 364.141 424.004 363.128C419.438 361.546 414.304 359.978 409.433 359.354C407.796 364.183 405.964 355.524 402.023 358.097C398.568 358.506 399.04 359.419 396.473 357.229L396.755 357.174ZM421.594 371.328C422.845 371.295 424.272 371.525 425.715 372.022C429.545 373.346 432.043 376.143 431.307 378.266C430.572 380.39 426.853 381.028 423.023 379.696C419.193 378.364 416.695 375.63 417.431 373.493C417.89 372.162 419.512 371.384 421.594 371.328Z" fill="#FF6600"/>
</g>
<defs>
<radialGradient id="paint0_radial_2:10" cx="0" cy="0" r="1" gradientUnits="userSpaceOnUse" gradientTransform="translate(408.382 405.398) rotate(57.1766) scale(139.383 77.1999)">
<stop/>
<stop offset="1" stop-opacity="0.897"/>
</radialGradient>
<linearGradient id="paint1_linear_2:10" x1="418.333" y1="345.074" x2="418.333" y2="429.207" gradientUnits="userSpaceOnUse">
<stop stop-color="white"/>
<stop offset="1" stop-color="white" stop-opacity="0"/>
</linearGradient>
<clipPath id="clip0_2:10">
<rect width="155" height="155" fill="white" transform="translate(340 344)"/>
</clipPath>
</defs>
</svg>
