<svg width="512" height="512" viewBox="0 0 512 512" fill="none" xmlns="http://www.w3.org/2000/svg">
<circle cx="256" cy="256" r="256" fill="white"/>
<path d="M511.282 256.012C511.282 115.02 396.986 0.720693 255.996 0.720693C115.069 0.720693 0.817635 114.924 0.717651 255.832V453.385C0.793493 485.379 26.7418 511.279 58.7559 511.279H256.1C397.043 511.224 511.282 396.966 511.282 256.012Z" fill="#294172"/>
<path d="M147.898 272.487H239.645V364.234C239.645 414.878 198.542 455.981 147.898 455.981C97.253 455.981 56.1503 414.878 56.1503 364.234C56.1503 313.59 97.253 272.487 147.898 272.487Z" stroke="#3C6EB4" stroke-width="29.21"/>
<path d="M267.712 244.55V364.106C267.712 430.271 214.066 483.917 147.899 483.917C137.86 483.917 130.724 482.784 121.431 480.355C107.881 476.809 96.8082 465.7 96.8036 452.778C96.8036 437.159 108.141 425.797 125.089 425.797C133.155 425.797 136.082 427.346 147.899 427.346C182.783 427.346 211.079 399.09 211.14 364.206V309.254C211.14 304.33 207.139 300.34 202.207 300.34L160.661 300.332C145.182 300.332 132.676 287.986 132.676 272.464C132.668 256.846 145.311 244.55 160.957 244.55" fill="white"/>
<path d="M467.233 467.098L467.233 456.491L462.384 467.609L457.664 456.491L457.665 467.098H454.945V450.348H457.797L462.464 461.049L467.061 450.348H469.948V467.098H467.233ZM447.418 453.153V467.098H444.576V453.153H439.811V450.348H452.178V453.153" fill="#3C6EB4"/>
<g clip-path="url(#clip0_2:43)">
<path d="M425.371 382.145C430.387 382.145 434.453 378.553 434.453 374.122C434.453 369.691 430.387 366.1 425.371 366.1C420.355 366.1 416.289 369.691 416.289 374.122C416.289 378.553 420.355 382.145 425.371 382.145Z" fill="black"/>
<path d="M397.76 356.995L397.787 355.954L396.563 356.193L396.281 356.248L394.247 356.645L395.448 357.669C395.12 357.814 394.647 357.867 393.912 357.948L393.902 357.949C393.257 358.021 392.371 358.12 391.642 358.516C391.252 358.727 390.888 359.031 390.616 359.465C390.57 359.538 390.529 359.612 390.49 359.688C390.189 359.587 389.917 359.513 389.673 359.47C389.242 359.395 388.518 359.345 388.02 359.884C387.516 360.43 387.653 361.129 387.738 361.441C387.844 361.828 388.043 362.237 388.246 362.605C388.465 363 388.74 363.436 389.007 363.85L388.632 364.149C386.367 365.953 385.234 368.691 384.2 371.192L384.173 371.258C383.092 373.872 382.089 376.276 380.18 377.978L380.025 378.116L379.938 378.305C378.515 381.387 377.636 384.58 376.865 387.745C376.689 388.465 376.519 389.181 376.35 389.895C375.771 392.344 375.199 394.757 374.427 397.15L374.404 397.22L374.392 397.293C373.402 403.219 372.485 409.355 373.999 415.523C374.095 416.626 374.096 417.83 374.096 419.121L374.096 419.251C374.096 420.601 374.101 422.034 374.235 423.429C374.503 426.212 375.307 429.046 377.836 430.989C383.633 435.748 388.557 441.651 393.47 447.54C394.037 448.22 394.603 448.899 395.17 449.576C403.76 460.14 411.333 471.54 418.11 483.297L419.319 485.394C419.583 486.259 419.896 487.218 420.257 488.03C420.465 488.496 420.706 488.955 420.988 489.333C421.257 489.692 421.65 490.097 422.198 490.263L423.718 490.723L423.476 489.153C422.796 484.746 421.914 477.735 421.486 472.298L421.483 472.261L421.478 472.225C420.366 464.975 418.028 458.095 415.666 451.319C415.55 450.987 415.435 450.656 415.319 450.325C413.067 443.872 410.844 437.503 409.598 430.864C409.558 430.568 409.514 430.269 409.471 429.974L409.47 429.97C409.429 429.69 409.388 429.413 409.35 429.138V427.43V426.43H409.021C408.245 419.701 408.232 412.969 412.753 408.143C415.204 405.675 418.281 404.102 421.611 402.677C422.438 402.322 423.287 401.976 424.144 401.625C426.685 400.587 429.304 399.517 431.686 398.127L431.691 398.124C432.983 397.36 434.333 396.741 435.701 396.296C435.745 396.289 435.798 396.278 435.855 396.261C439.987 394.986 444.44 395.014 448.841 395.73L449.001 394.743L448.837 395.729L448.837 395.729C448.838 395.73 448.839 395.73 448.841 395.73L448.854 395.733L448.899 395.742C448.931 395.749 448.992 395.763 449.053 395.773C449.154 395.79 449.255 395.806 449.355 395.823C449.676 395.875 449.988 395.927 450.283 395.984L450.335 395.994L450.386 395.999C450.889 396.044 451.512 396.118 452.201 396.2C453.602 396.368 455.279 396.568 456.778 396.619C457.916 396.657 459.06 396.617 460.026 396.393C460.965 396.175 461.96 395.731 462.462 394.773L462.53 394.643C462.62 394.722 462.709 394.799 462.797 394.875C463.117 395.153 463.422 395.417 463.721 395.67C464.069 395.964 464.401 396.233 464.695 396.441C464.952 396.623 465.307 396.854 465.677 396.937L467.032 397.242L466.891 395.86C466.548 392.513 464.696 390.119 462.357 388.37C460.058 386.65 457.229 385.507 454.75 384.63C453.239 383.901 451.564 383.366 449.949 382.866C449.815 382.825 449.682 382.784 449.549 382.743C448.033 382.275 446.58 381.826 445.254 381.254C443.819 380.634 442.606 379.899 441.701 378.914C440.81 377.945 440.172 376.688 439.954 374.94L439.935 374.79L439.874 374.653L439.83 374.557C439.603 374.052 439.356 373.502 439.054 372.964L439.021 372.907L438.982 372.854L437.453 370.816L437.607 370.739L436.784 369.767C433.577 365.983 429.08 363.235 424.276 362.164C419.71 360.584 414.517 358.997 409.561 358.362L408.749 358.258L408.486 359.033C408.366 359.387 408.261 359.61 408.183 359.744C408.15 359.719 408.113 359.688 408.07 359.65C407.859 359.464 407.626 359.214 407.327 358.893L407.324 358.89L407.294 358.858C406.746 358.269 405.985 357.453 405.06 356.992C404.565 356.745 403.996 356.583 403.362 356.611C402.797 356.636 402.236 356.809 401.684 357.131C400.884 357.235 400.294 357.363 399.839 357.466L399.835 357.467C399.304 357.587 399.089 357.636 398.906 357.638C398.742 357.639 398.55 357.62 397.76 356.995ZM445.104 388.205C444.231 388.046 443.143 387.87 442.042 387.766L436.694 386.569L436.444 386.505L448.685 388.77C449.068 388.912 449.456 389.048 449.847 389.177C449.699 389.152 449.55 389.127 449.403 389.102C447.941 388.854 446.529 388.592 445.189 388.224L445.147 388.213L445.104 388.205ZM435.403 396.298C435.401 396.298 435.4 396.297 435.402 396.298L435.403 396.298ZM421.62 372.328C422.736 372.298 424.043 372.504 425.389 372.967C427.174 373.584 428.6 374.53 429.478 375.511C430.381 376.521 430.557 377.376 430.362 377.939C430.169 378.498 429.5 379.06 428.156 379.291C426.851 379.516 425.137 379.372 423.351 378.751C421.56 378.128 420.133 377.193 419.256 376.225C418.357 375.232 418.18 374.39 418.376 373.819C418.624 373.101 419.663 372.38 421.62 372.328Z" fill="#FF6600" stroke="white" stroke-width="2"/>
</g>
<defs>
<clipPath id="clip0_2:43">
<rect width="155" height="155" fill="white" transform="translate(340 344)"/>
</clipPath>
</defs>
</svg>
