<svg width="512" height="512" viewBox="0 0 512 512" fill="none" xmlns="http://www.w3.org/2000/svg">
<circle cx="256" cy="256" r="256" fill="white"/>
<path d="M511.282 256.012C511.282 115.02 396.986 0.720693 255.996 0.720693C115.069 0.720693 0.817635 114.924 0.717651 255.832V453.385C0.793493 485.379 26.7418 511.279 58.7559 511.279H256.1C397.043 511.224 511.282 396.966 511.282 256.012Z" fill="#294172"/>
<path d="M147.898 272.487H239.645V364.234C239.645 414.878 198.542 455.981 147.898 455.981C97.253 455.981 56.1503 414.878 56.1503 364.234C56.1503 313.59 97.253 272.487 147.898 272.487Z" stroke="#3C6EB4" stroke-width="29.21"/>
<path d="M267.712 244.55V364.106C267.712 430.271 214.066 483.917 147.899 483.917C137.86 483.917 130.724 482.784 121.431 480.355C107.881 476.809 96.8082 465.7 96.8036 452.778C96.8036 437.159 108.141 425.797 125.089 425.797C133.155 425.797 136.082 427.346 147.899 427.346C182.783 427.346 211.079 399.09 211.14 364.206V309.254C211.14 304.33 207.139 300.34 202.207 300.34L160.661 300.332C145.182 300.332 132.676 287.986 132.676 272.464C132.668 256.846 145.311 244.55 160.957 244.55" fill="white"/>
<path d="M467.233 467.098L467.233 456.491L462.384 467.609L457.664 456.491L457.665 467.098H454.945V450.348H457.797L462.464 461.049L467.061 450.348H469.948V467.098H467.233ZM447.418 453.153V467.098H444.576V453.153H439.811V450.348H452.178V453.153" fill="#3C6EB4"/>
<g clip-path="url(#clip0_2:43)">
<path d="M417.569 344.547C374.691 344.547 340 379.099 340 421.7C340 464.3 374.691 498.853 417.569 498.853C431.585 498.853 444.628 495.176 456.007 488.709L460.045 498.853H491.267L479.042 468.602C489.061 455.614 495 439.323 495 421.7C495 379.099 460.309 344.547 417.569 344.547V344.547Z" fill="url(#paint0_radial_2:43)"/>
<path d="M416.876 432.071C445.362 432.071 468.454 412.356 468.454 388.035C468.454 363.715 445.362 344 416.876 344C388.389 344 365.297 363.715 365.297 388.035C365.297 412.356 388.389 432.071 416.876 432.071Z" fill="url(#paint1_linear_2:43)"/>
<path d="M425.437 384.33C430.472 384.33 434.554 380.249 434.554 375.214C434.554 370.179 430.472 366.097 425.437 366.097C420.402 366.097 416.321 370.179 416.321 375.214C416.321 380.249 420.402 384.33 425.437 384.33Z" fill="black"/>
<path d="M459.985 388.225L408.332 380.764L406.882 388.258L458.535 395.719L459.985 388.225Z" fill="black"/>
<path d="M464.153 390.478H455.036V394.502H464.153V390.478Z" fill="black"/>
<path d="M396.755 357.174C396.676 360.213 391.385 357.567 391.163 361.032C385.307 358.423 391.619 365.014 391.032 365.625H390.989L390.556 365.582C390.273 365.481 389.862 365.306 389.255 364.931C385.161 368.192 385.064 374.964 380.846 378.724C378.084 384.705 377.404 391.185 375.378 397.457C374.382 403.424 373.505 409.391 374.988 415.358C375.434 420.215 374.032 426.82 378.457 430.206C385.021 435.59 390.474 442.417 395.942 448.939C404.573 459.554 412.177 471.003 418.977 482.798C419.426 479.856 420.517 488.709 422.487 489.306C421.805 484.879 420.919 477.844 420.489 472.376C418.297 458.084 411.261 445.178 408.611 431.024C408.529 430.428 408.433 429.814 408.35 429.207V427.43H408.134C407.265 420.437 406.954 412.86 412.033 407.448C417.223 402.217 424.952 400.899 431.182 397.263C432.57 396.443 434.027 395.778 435.512 395.306C435.524 395.302 435.543 395.311 435.555 395.306C439.885 393.97 444.505 394.012 449.001 394.743C449.068 394.754 449.151 394.775 449.218 394.786C449.627 394.855 450.07 394.924 450.475 395.003C453.764 395.296 460.383 396.585 461.576 394.309C457.039 390.438 450.489 390.715 444.924 389.189C444.049 389.029 442.968 388.856 441.886 388.756L436.46 387.541L435.115 387.195V387.238L415.688 383.463C415.38 383.183 415.044 382.896 414.733 382.684L433.605 385.029V384.942C434.272 385.09 434.932 385.211 435.604 385.289V385.332L448.953 387.802C451.256 388.663 453.712 389.301 456.016 389.454C459.818 390.007 464.661 395.684 465.896 395.962C465.284 389.981 459.319 387.303 454.365 385.554C448.578 382.737 439.933 382.848 438.962 375.064C438.718 374.521 438.477 373.98 438.182 373.454L435.934 370.457L436.021 370.413C432.94 366.778 428.611 364.141 424.004 363.128C419.438 361.546 414.304 359.978 409.433 359.354C407.796 364.183 405.964 355.524 402.023 358.097C398.568 358.506 399.04 359.419 396.473 357.229L396.755 357.174ZM421.594 371.328C422.845 371.295 424.272 371.525 425.715 372.022C429.545 373.346 432.043 376.143 431.307 378.266C430.572 380.39 426.853 381.028 423.023 379.696C419.193 378.364 416.695 375.63 417.431 373.493C417.89 372.162 419.512 371.384 421.594 371.328Z" fill="#FF6600"/>
</g>
<defs>
<radialGradient id="paint0_radial_2:43" cx="0" cy="0" r="1" gradientUnits="userSpaceOnUse" gradientTransform="translate(408.382 405.398) rotate(57.1766) scale(139.383 77.1999)">
<stop/>
<stop offset="1" stop-opacity="0.897"/>
</radialGradient>
<linearGradient id="paint1_linear_2:43" x1="418.333" y1="345.074" x2="418.333" y2="429.207" gradientUnits="userSpaceOnUse">
<stop stop-color="white"/>
<stop offset="1" stop-color="white" stop-opacity="0"/>
</linearGradient>
<clipPath id="clip0_2:43">
<rect width="155" height="155" fill="white" transform="translate(340 344)"/>
</clipPath>
</defs>
</svg>
