<svg width="512" height="512" viewBox="0 0 512 512" fill="none" xmlns="http://www.w3.org/2000/svg">
<circle cx="256" cy="256" r="256" fill="white"/>
<g clip-path="url(#clip0_2:81)">
<path fill-rule="evenodd" clip-rule="evenodd" d="M236.32 52.6579C224.597 54.7584 210.18 58.3885 202.451 61.184L200.582 61.8598L200.798 64.4493C201.38 71.4598 202.395 76.8845 205.941 91.9232C207.259 97.5142 208.828 104.57 209.427 107.603C211.276 116.951 215.971 138.339 216.232 138.6C216.369 138.735 217.331 138.566 218.372 138.223C273.758 119.945 338.241 146.284 365.31 198.24C371.093 209.341 376.672 226.072 377.805 235.711C378.046 237.757 377.658 237.7 383.093 236.492C385.44 235.969 389.664 235.041 392.48 234.428C395.296 233.816 400.625 232.652 404.32 231.841C408.015 231.032 413.344 229.864 416.16 229.247C418.976 228.63 426.104 227.064 432 225.769C437.896 224.472 445.207 222.867 448.247 222.202L453.774 220.991L454.246 219.397C455.185 216.242 454.803 212.013 453.064 206.24C450.628 198.164 450.226 196.52 449.628 192.209C448.163 181.635 444.681 177.12 438.08 177.238C436.76 177.261 423.784 177.357 409.243 177.449L382.805 177.618L382.39 176.614C381.56 174.612 378.88 170.543 374.798 165.088C364.602 151.462 363.232 144.887 368.888 136.716C369.222 136.234 370.083 134.112 370.799 132C371.518 129.888 373.503 124.416 375.213 119.84C378.71 110.477 381.944 100.828 383.077 96.3802L383.836 93.4003L383.039 92.777C375.063 86.5395 350.322 71.6749 347.928 71.6813C346.89 71.6851 336.659 81.3376 320.879 97.2045L305.28 112.891L302.945 111.985C299.844 110.78 295.255 109.875 288.379 109.11C280.097 108.188 278.231 107.892 275.072 107.003C267.772 104.947 263.848 101.116 262.111 94.3462C261.779 93.056 260.292 89.4797 258.803 86.4C257.316 83.3203 255.268 78.9286 254.253 76.64C248.865 64.4979 242.22 52.0384 241.084 51.9565C240.753 51.9322 238.607 52.247 236.32 52.6579ZM120.27 106.685C117.052 107.835 114.528 110.051 106.446 118.816C104.535 120.888 101.871 123.421 100.526 124.445C91.6378 131.212 89.714 138.445 95.1758 144.554C96.6874 146.245 97.0087 146.744 104.074 158.4C106.794 162.888 112.067 171.572 115.79 177.697C119.514 183.823 122.56 188.902 122.56 188.984C122.56 189.066 122.181 189.732 121.719 190.465C120.227 192.829 118.213 197.151 116.009 202.72C109.921 218.103 105.027 222.724 95.2001 222.362C94.3002 222.328 90.5166 222.952 86.5601 223.784C82.6881 224.598 76.1358 225.923 72.0001 226.728C64.5761 228.173 55.2641 230.429 51.8401 231.611L50.0801 232.219L49.6897 237.149C48.9383 246.648 49.3044 272.835 50.2068 274.157C50.7802 274.998 69.3786 280.041 84.3201 283.406C85.5527 283.684 91.2999 285.083 97.0945 286.515L107.628 289.12L108.182 291.84C108.931 295.514 110.259 299.123 113.153 305.341C121.051 322.316 121.302 327.799 114.523 335.29C108.284 342.181 88.0897 374.346 89.0855 375.802C92.5607 380.882 116.737 404.8 118.399 404.8C119.927 404.8 128.373 396.524 136.16 387.395C139.297 383.717 143.181 379.324 144.791 377.635C146.4 375.944 151.232 370.671 155.528 365.92C159.825 361.169 165.324 355.092 167.749 352.42C170.175 349.746 172.159 347.37 172.156 347.14C172.155 346.909 170.244 344.776 167.91 342.4C121.773 295.416 120.14 223.881 164.062 173.76C168.004 169.261 174.066 163.359 177.701 160.48C179.035 159.424 180.134 158.461 180.143 158.341C180.159 158.14 174.728 153.16 144.64 125.779C138.744 120.415 131.518 113.823 128.58 111.132C122.835 105.869 122.724 105.81 120.27 106.685ZM375.871 286.644C366.584 324.191 335.791 358.369 298.88 372.104C272.92 381.763 242.866 382.246 217.335 373.418C214.753 372.525 212.397 371.718 212.099 371.625C211.445 371.42 211.94 369.75 205.971 392.32C203.434 401.912 199.166 418.038 196.484 428.155L191.607 446.55L193.238 448.049C196.024 450.611 198.884 451.715 207.2 453.434C213.81 454.799 215.423 455.242 218.56 456.547C229.427 461.066 236.522 459.118 239.054 450.92C239.405 449.783 240.617 447.186 241.747 445.147C242.878 443.108 248.254 433.336 253.696 423.43L263.589 405.422L267.715 405.294C270.067 405.22 274.729 404.726 278.56 404.143C294.693 401.69 301.135 403.465 305.916 411.681C306.531 412.737 308.835 415.622 311.036 418.094C313.238 420.567 317.842 425.823 321.267 429.774C327.584 437.065 336.629 446.4 337.374 446.4C339.296 446.4 361.306 434.103 369.92 428.215L373.6 425.7L373.5 424.451C373.233 421.12 370.001 409.073 363.894 388.64C361.79 381.6 359.599 374.161 359.027 372.109L357.985 368.379L360.942 365.564C363.817 362.829 366.546 359.398 371.607 352.16C379.918 340.273 386.345 336.847 395.359 339.501C396.727 339.904 398.532 340.163 399.999 340.166C401.32 340.17 405.135 340.385 408.48 340.645C424.801 341.91 441.353 342.435 442.077 341.71C443.398 340.388 450.15 316.498 452.147 306.08C452.518 304.145 452.891 302.239 452.975 301.846C453.146 301.053 452.826 300.873 448.188 299.15C444.095 297.628 439.314 296.44 429.032 294.388C423.712 293.327 417.992 292.097 416.32 291.654C414.648 291.213 407.52 289.565 400.48 287.994C393.44 286.423 385.448 284.63 382.72 284.012C379.992 283.392 377.544 282.885 377.28 282.886C376.933 282.888 376.541 283.935 375.871 286.644Z" fill="#FBFBFB"/>
<path fill-rule="evenodd" clip-rule="evenodd" d="M242.08 0.19712C217.743 1.79968 201.958 4.57216 180.96 10.9312C179.727 11.3037 178.017 11.8771 177.157 12.2048C176.298 12.5325 175.418 12.8 175.2 12.8C174.982 12.8 174.102 13.0739 173.243 13.4093C171.745 13.9942 169.896 14.6829 166.08 16.0742C163.507 17.0138 155.645 20.2547 153.44 21.2864C152.913 21.5334 151.328 22.2566 149.92 22.8954C145.646 24.8307 135.616 29.9238 132.081 31.9514C130.916 32.6195 129.939 33.1776 127.441 34.6048C126.78 34.9824 125.807 35.5546 125.28 35.8771C124.753 36.1997 123.816 36.759 123.2 37.1213C120.6 38.647 114.959 42.3091 112.367 44.1536C111.25 44.9485 110.011 45.8163 109.615 46.08C107.818 47.2781 106.901 47.927 104.96 49.3747C100.511 52.6938 95.538 56.5018 95.058 56.96C94.7802 57.2237 93.4029 58.3757 91.9962 59.5187C84.6567 65.4848 71.8221 77.7702 65.2647 85.1059C63.7773 86.7699 62.3437 88.3533 62.08 88.6259C61.8164 88.8986 60.3764 90.6317 58.88 92.48C57.3837 94.3283 55.9245 96.0755 55.6365 96.3635C54.5639 97.4362 46.8532 107.771 44.8 110.886C44.5364 111.287 43.6365 112.572 42.8007 113.742C41.9661 114.911 41.0292 116.312 40.7207 116.855C39.9821 118.156 39.8234 118.41 37.7357 121.6C36.7578 123.096 35.8618 124.536 35.7453 124.8C35.6288 125.064 35.1744 125.856 34.7354 126.56C34.2964 127.264 33.6704 128.344 33.3428 128.96C33.0164 129.576 32.4352 130.62 32.0538 131.281C31.6724 131.94 31.0503 133.02 30.6727 133.681C28.8973 136.782 24.384 145.948 22.3629 150.56C18.1581 160.152 18.0288 160.476 14.72 169.76C14.3437 170.816 13.7575 172.403 13.4183 173.286C13.0778 174.17 12.8 175.05 12.8 175.244C12.8 175.437 12.53 176.298 12.1997 177.157C11.3421 179.392 10.0813 183.542 8.37252 189.76C4.71044 203.084 2.40132 215.853 0.737322 232C0.0141222 239.013 -0.116438 270.79 0.556842 275.681C0.775722 277.266 1.08932 280.218 1.25572 282.241C1.93156 290.472 4.56068 305.778 7.02596 315.84C8.681 322.592 11.0631 331.11 12.0845 333.92C12.3392 334.624 12.7335 335.848 12.9588 336.64C13.184 337.432 13.5501 338.584 13.7728 339.2C13.9943 339.816 14.4525 341.112 14.7904 342.08C15.7645 344.872 16.6388 347.238 17.3044 348.881C17.6423 349.716 18.208 351.121 18.56 352C18.912 352.881 19.474 354.284 19.808 355.121C22.802 362.597 29.3466 376.101 33.225 382.801C34.1338 384.37 35.04 385.956 35.8759 387.441C36.2471 388.1 36.9677 389.26 37.4759 390.016C37.984 390.773 38.4 391.453 38.4 391.528C38.4 391.602 39.5162 393.359 40.8794 395.432C42.2439 397.504 43.5034 399.438 43.68 399.73C44.5543 401.175 48.2215 406.328 51.506 410.726C62.313 425.198 82.1543 445.551 95.6416 456C96.2087 456.44 97.0074 457.1 97.4157 457.467C97.824 457.833 99.5802 459.187 101.318 460.476C103.058 461.765 105.272 463.416 106.24 464.146C108.051 465.51 111.282 467.733 112.351 468.348C112.684 468.54 113.22 468.936 113.542 469.229C113.866 469.521 114.277 469.76 114.455 469.76C114.634 469.76 115.041 470.048 115.36 470.4C115.679 470.752 116.07 471.04 116.232 471.04C116.393 471.04 117.198 471.506 118.022 472.074C119.677 473.219 124.502 476.16 124.722 476.16C124.799 476.16 125.243 476.426 125.71 476.751C126.177 477.077 127.424 477.818 128.48 478.399C129.536 478.98 131.407 480.013 132.64 480.694C133.873 481.376 137.544 483.238 140.8 484.832C144.056 486.427 146.981 487.871 147.3 488.041C148.198 488.52 153.585 490.898 155.279 491.564C156.117 491.891 157.519 492.448 158.4 492.8C159.279 493.152 160.757 493.742 161.679 494.111C169.267 497.138 183.642 501.78 191.36 503.695C192.856 504.067 194.801 504.563 195.68 504.799C196.561 505.034 197.784 505.317 198.4 505.427C199.016 505.537 200.744 505.896 202.24 506.222C211.3 508.205 224.09 510.205 231.1 510.737C233.226 510.899 236.566 511.21 238.523 511.43C244.323 512.083 269.65 511.976 277.76 511.265C300.472 509.274 322.616 504.543 340.96 497.763C342.191 497.307 343.776 496.737 344.48 496.497C345.184 496.255 346.516 495.757 347.441 495.389C348.364 495.021 349.804 494.449 350.641 494.117C351.476 493.786 352.736 493.269 353.44 492.966C354.144 492.666 355.151 492.234 355.68 492.009C364.635 488.178 375.91 482.76 380.64 480.015C381.344 479.607 382.856 478.771 384 478.157C385.144 477.544 386.308 476.844 386.586 476.6C386.863 476.358 387.194 476.16 387.32 476.16C387.447 476.16 388.419 475.584 389.478 474.88C390.538 474.176 391.47 473.6 391.549 473.6C391.716 473.6 400.399 467.832 402.56 466.286C403.352 465.72 404.504 464.919 405.12 464.507C405.736 464.093 406.816 463.313 407.52 462.769C408.224 462.226 409.088 461.569 409.44 461.309C420.388 453.226 436.22 438.697 445.565 428.16C446.423 427.192 447.579 425.896 448.132 425.28C451.57 421.45 457.731 413.892 460 410.721C460.584 409.905 462.417 407.446 463.936 405.44C464.654 404.492 469.138 397.955 469.603 397.179C469.779 396.882 470.752 395.382 471.762 393.843C472.773 392.305 473.6 390.982 473.6 390.906C473.6 390.829 474.152 389.928 474.825 388.902C475.498 387.878 476.154 386.824 476.28 386.56C476.407 386.296 476.828 385.554 477.215 384.911C477.603 384.269 478.488 382.757 479.183 381.551C483.777 373.583 490.212 360.383 493.472 352.241C493.806 351.404 494.359 350.036 494.701 349.201C495.043 348.364 495.697 346.671 496.156 345.44C496.616 344.209 497.179 342.696 497.411 342.08C499.059 337.673 502.048 328.25 503.7 322.24C513.391 287.014 514.77 245.03 507.475 207.36C506.451 202.074 505.574 198.1 504.922 195.79C504.59 194.619 504.32 193.388 504.32 193.052C504.32 192.718 504.05 191.588 503.72 190.542C503.389 189.496 502.794 187.488 502.397 186.08C501.262 182.061 499.205 175.373 498.51 173.44C498.161 172.472 497.603 170.922 497.27 169.996C494.732 162.934 492.682 157.755 490.721 153.44C490.481 152.913 489.734 151.259 489.062 149.766C487.707 146.756 481.318 133.971 479.771 131.171C478.413 128.71 476.463 125.368 474.844 122.72C474.52 122.193 473.929 121.201 473.528 120.517C472.605 118.941 472.362 118.557 471.194 116.835C470.669 116.061 470.093 115.197 469.914 114.915C469.583 114.395 468.086 112.168 467.2 110.88C466.936 110.496 466.341 109.619 465.878 108.931C465.149 107.85 461.015 102.212 460.262 101.274C460.118 101.093 459.29 100.014 458.42 98.8736C457.134 97.184 453.423 92.6298 452 90.9914C451.825 90.7891 450.24 88.969 448.48 86.9466C446.72 84.9229 442.04 80.0435 438.08 76.1024C431.685 69.737 429.779 67.9168 425.567 64.1472C424.668 63.3421 419.535 59.0566 418.4 58.1619C418.225 58.0237 417.702 57.5757 417.242 57.1686C415.443 55.5789 405.843 48.4006 402.412 46.08C399.473 44.0922 398.817 43.6544 398.349 43.3664C398.056 43.1872 397.148 42.5715 396.332 41.9994C395.516 41.4285 394.798 40.96 394.737 40.96C394.677 40.96 393.349 40.1318 391.786 39.1206C388.324 36.8755 388.361 36.8998 384.8 34.8864C383.215 33.9917 381.704 33.1213 381.44 32.9536C381.176 32.7859 380.456 32.3827 379.84 32.0589C379.224 31.7338 377.856 30.9901 376.8 30.4064C372.387 27.9654 364.891 24.3034 359.2 21.8061C353.452 19.2845 352.164 18.7405 348.32 17.207C347.441 16.8563 346.216 16.3494 345.6 16.0806C344.984 15.8131 344.049 15.4778 343.52 15.337C342.991 15.1962 341.336 14.6266 339.84 14.071C338.344 13.5155 336.689 12.9485 336.16 12.8115C335.631 12.6746 334.624 12.3443 333.92 12.0794C332.658 11.6032 330.148 10.8237 326.08 9.6448C310.781 5.21216 297.577 2.67904 279.68 0.7424C275.077 0.24448 247.45 -0.15616 242.08 0.19712ZM243.425 54.88C245.376 58.1158 251.447 70.3181 254.253 76.64C255.268 78.9286 257.316 83.3203 258.803 86.4C260.292 89.4797 261.779 93.056 262.111 94.3463C263.848 101.116 267.772 104.947 275.072 107.003C278.231 107.892 280.097 108.188 288.379 109.11C295.255 109.875 299.844 110.78 302.945 111.985L305.28 112.891L320.879 97.2045C336.659 81.3376 346.89 71.6851 347.928 71.6813C350.322 71.6749 375.063 86.5395 383.039 92.777L383.836 93.4003L383.077 96.3802C381.944 100.828 378.71 110.477 375.213 119.84C373.503 124.416 371.517 129.888 370.799 132C370.083 134.112 369.222 136.234 368.888 136.716C363.232 144.887 364.602 151.462 374.798 165.088C378.88 170.543 381.56 174.612 382.39 176.614L382.805 177.618L409.243 177.449C423.784 177.357 436.76 177.261 438.08 177.238C444.681 177.12 448.163 181.635 449.628 192.209C450.226 196.52 450.628 198.164 453.064 206.24C454.803 212.013 455.185 216.242 454.246 219.397L453.774 220.991L448.247 222.202C445.207 222.867 437.896 224.472 432 225.769C426.104 227.064 418.976 228.63 416.16 229.247C413.344 229.864 408.015 231.032 404.32 231.841C400.625 232.652 395.296 233.816 392.48 234.428C389.664 235.041 385.44 235.969 383.092 236.492C377.658 237.7 378.045 237.757 377.805 235.711C376.672 226.072 371.093 209.341 365.309 198.24C338.241 146.284 273.757 119.945 218.372 138.223C217.331 138.566 216.369 138.735 216.232 138.6C215.971 138.339 211.276 116.951 209.427 107.603C208.828 104.57 207.259 97.5143 205.941 91.9232C202.395 76.8845 201.38 71.4598 200.797 64.4493L200.582 61.8598L202.451 61.184C210.18 58.3885 224.597 54.7584 236.32 52.6579C241.85 51.6659 241.404 51.5277 243.425 54.88ZM128.58 111.132C131.517 113.823 138.744 120.415 144.64 125.779C174.728 153.16 180.159 158.14 180.143 158.341C180.134 158.461 179.035 159.424 177.701 160.48C174.066 163.359 168.004 169.261 164.061 173.76C120.14 223.881 121.773 295.416 167.91 342.4C170.244 344.776 172.155 346.909 172.156 347.14C172.159 347.37 170.175 349.746 167.749 352.42C165.324 355.092 159.825 361.169 155.528 365.92C151.232 370.671 146.4 375.944 144.791 377.635C143.181 379.324 139.297 383.717 136.16 387.395C128.373 396.524 119.927 404.8 118.399 404.8C116.737 404.8 92.5607 380.882 89.0855 375.802C88.0896 374.346 108.284 342.181 114.523 335.29C121.302 327.799 121.051 322.316 113.153 305.341C110.259 299.123 108.931 295.514 108.182 291.84L107.628 289.12L97.0944 286.515C91.2999 285.083 85.5527 283.684 84.32 283.406C69.3786 280.041 50.7802 274.998 50.2068 274.157C49.3044 272.835 48.9383 246.648 49.6896 237.149L50.08 232.219L51.84 231.611C55.264 230.429 64.576 228.173 72 226.728C76.1357 225.923 82.688 224.598 86.56 223.784C90.5165 222.952 94.3002 222.328 95.2 222.362C105.027 222.724 109.921 218.103 116.009 202.72C118.213 197.151 120.227 192.829 121.719 190.465C122.181 189.732 122.56 189.066 122.56 188.984C122.56 188.902 119.514 183.823 115.79 177.697C112.067 171.573 106.794 162.888 104.074 158.4C97.0087 146.744 96.6874 146.245 95.1757 144.554C89.714 138.445 91.6378 131.212 100.526 124.445C101.871 123.421 104.535 120.888 106.446 118.816C114.528 110.051 117.052 107.835 120.27 106.685C122.724 105.81 122.835 105.869 128.58 111.132ZM382.72 284.012C385.448 284.63 393.44 286.423 400.48 287.994C407.52 289.565 414.648 291.213 416.32 291.654C417.992 292.097 423.712 293.327 429.032 294.389C439.314 296.44 444.095 297.628 448.188 299.15C452.826 300.873 453.146 301.053 452.975 301.846C452.891 302.239 452.518 304.145 452.147 306.08C450.819 313.015 449.239 319.332 446.706 327.84C444.891 333.937 442.406 341.38 442.077 341.71C441.353 342.435 424.801 341.91 408.48 340.645C405.135 340.385 401.32 340.17 399.999 340.166C398.532 340.163 396.727 339.904 395.359 339.501C386.345 336.847 379.918 340.273 371.607 352.16C366.546 359.398 363.817 362.829 360.942 365.564L357.985 368.379L359.027 372.109C359.599 374.161 361.789 381.6 363.894 388.64C370.001 409.073 373.233 421.12 373.5 424.451L373.6 425.7L369.92 428.215C361.306 434.103 339.296 446.4 337.373 446.4C336.628 446.4 327.584 437.065 321.267 429.774C317.842 425.823 313.238 420.567 311.036 418.094C308.835 415.622 306.531 412.737 305.916 411.681C301.135 403.465 294.693 401.69 278.56 404.143C274.729 404.726 270.067 405.22 267.715 405.294L263.589 405.422L253.696 423.43C248.253 433.336 242.877 443.108 241.747 445.147C240.617 447.186 239.405 449.783 239.054 450.92C236.522 459.118 229.427 461.066 218.56 456.547C215.423 455.242 213.81 454.799 207.2 453.434C198.884 451.715 196.024 450.611 193.238 448.049L191.607 446.55L196.484 428.155C199.165 418.038 203.434 401.912 205.971 392.32C211.94 369.75 211.445 371.42 212.099 371.625C212.397 371.718 214.753 372.525 217.335 373.418C242.866 382.246 272.92 381.763 298.88 372.104C335.791 358.369 366.584 324.191 375.871 286.644C376.541 283.935 376.933 282.888 377.28 282.886C377.544 282.885 379.992 283.392 382.72 284.012Z" fill="#047BC3"/>
</g>
<g clip-path="url(#clip1_2:81)">
<path d="M417.569 344.547C374.691 344.547 340 379.099 340 421.7C340 464.3 374.691 498.853 417.569 498.853C431.585 498.853 444.628 495.176 456.007 488.709L460.045 498.853H491.267L479.042 468.602C489.061 455.614 495 439.323 495 421.7C495 379.099 460.309 344.547 417.569 344.547V344.547Z" fill="url(#paint0_radial_2:81)"/>
<path d="M416.876 432.071C445.362 432.071 468.454 412.356 468.454 388.035C468.454 363.715 445.362 344 416.876 344C388.389 344 365.297 363.715 365.297 388.035C365.297 412.356 388.389 432.071 416.876 432.071Z" fill="url(#paint1_linear_2:81)"/>
<path d="M425.437 384.33C430.472 384.33 434.554 380.249 434.554 375.214C434.554 370.179 430.472 366.097 425.437 366.097C420.402 366.097 416.321 370.179 416.321 375.214C416.321 380.249 420.402 384.33 425.437 384.33Z" fill="black"/>
<path d="M459.985 388.225L408.332 380.764L406.882 388.258L458.535 395.719L459.985 388.225Z" fill="black"/>
<path d="M464.153 390.478H455.036V394.502H464.153V390.478Z" fill="black"/>
<path d="M396.755 357.174C396.676 360.213 391.385 357.567 391.163 361.032C385.307 358.423 391.619 365.014 391.032 365.625H390.989L390.556 365.582C390.273 365.481 389.862 365.306 389.255 364.931C385.161 368.192 385.064 374.964 380.846 378.724C378.084 384.705 377.404 391.185 375.378 397.457C374.382 403.424 373.505 409.391 374.988 415.358C375.434 420.215 374.032 426.82 378.457 430.206C385.021 435.59 390.474 442.417 395.942 448.939C404.573 459.554 412.177 471.003 418.977 482.798C419.426 479.856 420.517 488.709 422.487 489.306C421.805 484.879 420.919 477.844 420.489 472.376C418.297 458.084 411.261 445.178 408.611 431.024C408.529 430.428 408.433 429.814 408.35 429.207V427.43H408.134C407.265 420.437 406.954 412.86 412.033 407.448C417.223 402.217 424.952 400.899 431.182 397.263C432.57 396.443 434.027 395.778 435.512 395.306C435.524 395.302 435.543 395.311 435.555 395.306C439.885 393.97 444.505 394.012 449.001 394.743C449.068 394.754 449.151 394.775 449.218 394.786C449.627 394.855 450.07 394.924 450.475 395.003C453.764 395.296 460.383 396.585 461.576 394.309C457.039 390.438 450.489 390.715 444.924 389.189C444.049 389.029 442.968 388.856 441.886 388.756L436.46 387.541L435.115 387.195V387.238L415.688 383.463C415.38 383.183 415.044 382.896 414.733 382.684L433.605 385.029V384.942C434.272 385.09 434.932 385.211 435.604 385.289V385.332L448.953 387.802C451.256 388.663 453.712 389.301 456.016 389.454C459.818 390.007 464.661 395.684 465.896 395.962C465.284 389.981 459.319 387.303 454.365 385.554C448.578 382.737 439.933 382.848 438.962 375.064C438.718 374.521 438.477 373.98 438.182 373.454L435.934 370.457L436.021 370.413C432.94 366.778 428.611 364.141 424.004 363.128C419.438 361.546 414.304 359.978 409.433 359.354C407.796 364.183 405.964 355.524 402.023 358.097C398.568 358.506 399.04 359.419 396.473 357.229L396.755 357.174ZM421.594 371.328C422.845 371.295 424.272 371.525 425.715 372.022C429.545 373.346 432.043 376.143 431.307 378.266C430.572 380.39 426.853 381.028 423.023 379.696C419.193 378.364 416.695 375.63 417.431 373.493C417.89 372.162 419.512 371.384 421.594 371.328Z" fill="#FF6600"/>
</g>
<defs>
<radialGradient id="paint0_radial_2:81" cx="0" cy="0" r="1" gradientUnits="userSpaceOnUse" gradientTransform="translate(408.382 405.398) rotate(57.1766) scale(139.383 77.1999)">
<stop/>
<stop offset="1" stop-opacity="0.897"/>
</radialGradient>
<linearGradient id="paint1_linear_2:81" x1="418.333" y1="345.074" x2="418.333" y2="429.207" gradientUnits="userSpaceOnUse">
<stop stop-color="white"/>
<stop offset="1" stop-color="white" stop-opacity="0"/>
</linearGradient>
<clipPath id="clip0_2:81">
<rect width="512" height="512" fill="white"/>
</clipPath>
<clipPath id="clip1_2:81">
<rect width="155" height="155" fill="white" transform="translate(340 344)"/>
</clipPath>
</defs>
</svg>
