<svg width="512" height="512" viewBox="0 0 512 512" fill="none" xmlns="http://www.w3.org/2000/svg">
<circle cx="256" cy="256" r="256" fill="white"/>
<path d="M256 0C114.621 0 0 114.621 0 256C0 397.401 114.621 512 256 512C397.401 512 512 397.401 512 256C512 114.621 397.401 0 256 0ZM256 43.6522C373.293 43.6522 468.348 138.707 468.348 256C468.348 274.04 465.887 291.449 461.652 308.174L360.652 195.913L231.522 342.826L293.826 218.174L262.696 162.522L79.1304 373.478C56.7363 339.827 43.6522 299.446 43.6522 256C43.6522 138.707 138.707 43.6522 256 43.6522Z" fill="#DC682E"/>
<g clip-path="url(#clip0_2:148)">
<path d="M417.569 344.547C374.691 344.547 340 379.099 340 421.7C340 464.3 374.691 498.853 417.569 498.853C431.585 498.853 444.628 495.176 456.007 488.709L460.045 498.853H491.267L479.042 468.602C489.061 455.614 495 439.323 495 421.7C495 379.099 460.309 344.547 417.569 344.547V344.547Z" fill="url(#paint0_radial_2:148)"/>
<path d="M416.876 432.071C445.362 432.071 468.454 412.356 468.454 388.035C468.454 363.715 445.362 344 416.876 344C388.389 344 365.297 363.715 365.297 388.035C365.297 412.356 388.389 432.071 416.876 432.071Z" fill="url(#paint1_linear_2:148)"/>
<path d="M425.437 384.33C430.472 384.33 434.554 380.249 434.554 375.214C434.554 370.179 430.472 366.097 425.437 366.097C420.402 366.097 416.321 370.179 416.321 375.214C416.321 380.249 420.402 384.33 425.437 384.33Z" fill="black"/>
<path d="M459.985 388.225L408.332 380.764L406.882 388.258L458.535 395.719L459.985 388.225Z" fill="black"/>
<path d="M464.153 390.478H455.036V394.502H464.153V390.478Z" fill="black"/>
<path d="M396.755 357.174C396.676 360.213 391.384 357.567 391.162 361.032C385.307 358.423 391.619 365.014 391.032 365.625H390.989L390.556 365.582C390.273 365.481 389.862 365.306 389.255 364.931C385.161 368.192 385.064 374.964 380.845 378.724C378.084 384.705 377.404 391.185 375.378 397.457C374.382 403.424 373.505 409.391 374.988 415.358C375.434 420.215 374.032 426.82 378.457 430.206C385.021 435.59 390.474 442.417 395.942 448.939C404.573 459.554 412.177 471.003 418.976 482.798C419.426 479.856 420.517 488.709 422.487 489.306C421.805 484.879 420.919 477.844 420.489 472.376C418.297 458.084 411.261 445.178 408.611 431.024C408.529 430.428 408.433 429.814 408.35 429.207V427.43H408.133C407.265 420.437 406.954 412.86 412.033 407.448C417.223 402.217 424.952 400.899 431.182 397.263C432.57 396.443 434.027 395.778 435.512 395.306C435.524 395.302 435.543 395.311 435.555 395.306C439.884 393.97 444.505 394.012 449.001 394.743C449.068 394.754 449.151 394.775 449.218 394.786C449.627 394.855 450.07 394.924 450.475 395.003C453.764 395.296 460.383 396.585 461.576 394.309C457.039 390.438 450.489 390.715 444.924 389.189C444.049 389.029 442.968 388.856 441.885 388.756L436.46 387.541L435.115 387.195V387.238L415.688 383.463C415.38 383.183 415.044 382.896 414.733 382.684L433.605 385.029V384.942C434.271 385.09 434.932 385.211 435.604 385.289V385.332L448.953 387.802C451.256 388.663 453.712 389.301 456.016 389.454C459.818 390.007 464.661 395.684 465.896 395.962C465.284 389.981 459.318 387.303 454.365 385.554C448.578 382.737 439.933 382.848 438.962 375.064C438.717 374.521 438.477 373.98 438.182 373.454L435.934 370.457L436.021 370.413C432.94 366.778 428.611 364.141 424.004 363.128C419.438 361.546 414.304 359.978 409.433 359.354C407.796 364.183 405.964 355.524 402.023 358.097C398.568 358.506 399.04 359.419 396.473 357.229L396.755 357.174ZM421.593 371.328C422.845 371.295 424.272 371.525 425.715 372.022C429.545 373.346 432.042 376.143 431.307 378.266C430.572 380.39 426.853 381.028 423.023 379.696C419.193 378.364 416.695 375.63 417.431 373.493C417.89 372.162 419.512 371.384 421.593 371.328Z" fill="#FF6600"/>
</g>
<defs>
<radialGradient id="paint0_radial_2:148" cx="0" cy="0" r="1" gradientUnits="userSpaceOnUse" gradientTransform="translate(408.382 405.398) rotate(57.1766) scale(139.383 77.1999)">
<stop/>
<stop offset="1" stop-opacity="0.897"/>
</radialGradient>
<linearGradient id="paint1_linear_2:148" x1="418.333" y1="345.074" x2="418.333" y2="429.207" gradientUnits="userSpaceOnUse">
<stop stop-color="white"/>
<stop offset="1" stop-color="white" stop-opacity="0"/>
</linearGradient>
<clipPath id="clip0_2:148">
<rect width="155" height="155" fill="white" transform="translate(340 344)"/>
</clipPath>
</defs>
</svg>
