<svg width="512" height="512" viewBox="0 0 512 512" fill="none" xmlns="http://www.w3.org/2000/svg">
<circle cx="256" cy="256" r="256" fill="white"/>
<g clip-path="url(#clip0_2:167)">
<path d="M512 256.008C512 114.629 397.382 0 255.995 0C114.613 0 -0.000366211 114.629 -0.000366211 256.008C-0.000366211 397.389 114.613 512 255.995 512C397.382 512 512 397.389 512 256.008Z" fill="#0068C8"/>
<path d="M240.72 211.746C231.62 201.883 225.621 189.203 223.771 175.916C221.921 162.629 224.228 148.794 230.288 136.824C236.349 124.854 246.137 114.801 257.945 108.419C269.754 102.036 283.531 99.3528 296.874 100.836C318.334 103.221 338.237 116.785 348.292 135.878L469.204 152.543H331.397C322.799 141.547 309.811 134.079 295.976 132.176C286.096 130.817 275.848 132.245 266.716 136.251C257.584 140.257 249.597 146.83 243.911 155.017C238.225 163.204 234.859 172.981 234.299 182.931C233.739 192.881 235.988 202.973 240.72 211.746Z" fill="white"/>
<path d="M257.72 256.953L72.6523 123.992C63.786 141.489 60.277 161.652 62.7115 181.112C65.1459 200.572 73.5139 219.251 86.4176 234.029C103.341 253.41 128.065 265.787 153.733 267.729C141.616 263.817 130.516 256.802 121.786 247.539C113.056 238.277 106.714 226.785 103.532 214.465C99.8872 200.352 100.425 185.188 105.061 171.369L257.72 256.953Z" fill="white"/>
<path d="M247.447 292.869L84.8374 247.147C83.5267 262.345 86.511 277.889 93.3569 291.523C100.203 305.157 110.89 316.84 123.866 324.875C143.116 336.795 167.356 340.359 189.226 334.485C167.316 334.632 145.61 323.754 132.624 306.12C125.293 296.165 120.684 284.228 119.425 271.932L247.447 292.869Z" fill="white"/>
<path d="M321.606 190.823C318.585 197.089 316.484 203.797 315.392 210.667C312.006 231.974 318.342 253.495 324.657 274.125C330.972 294.756 337.409 316.224 334.224 337.562C331.845 353.499 324.068 368.417 313.183 380.305C302.299 392.194 288.405 401.134 273.475 407.222C248.881 417.25 221.217 419.606 195.28 413.882V484.812L216.609 434.18C244.252 440.484 273.847 437.934 300.002 426.994C318.734 419.159 335.824 406.96 348.147 390.831C360.469 374.703 367.82 354.551 367.299 334.267C366.673 309.882 355.149 287.282 343.995 265.585C332.841 243.887 321.539 221.114 321.415 196.721C321.399 194.754 321.468 192.786 321.606 190.823Z" fill="white"/>
</g>
<g clip-path="url(#clip1_2:167)">
<path d="M425.371 382.145C430.387 382.145 434.453 378.553 434.453 374.122C434.453 369.691 430.387 366.1 425.371 366.1C420.355 366.1 416.289 369.691 416.289 374.122C416.289 378.553 420.355 382.145 425.371 382.145Z" fill="black"/>
<path d="M397.76 356.995L397.787 355.954L396.563 356.193L396.281 356.248L394.247 356.645L395.447 357.669C395.12 357.814 394.647 357.867 393.912 357.948L393.901 357.949C393.257 358.021 392.371 358.12 391.642 358.516C391.252 358.727 390.888 359.031 390.616 359.465C390.57 359.538 390.529 359.612 390.49 359.688C390.189 359.587 389.917 359.513 389.672 359.47C389.242 359.395 388.518 359.345 388.02 359.884C387.516 360.43 387.653 361.129 387.738 361.441C387.844 361.828 388.043 362.237 388.246 362.605C388.464 363 388.739 363.436 389.006 363.85L388.631 364.149C386.367 365.953 385.234 368.691 384.2 371.192L384.173 371.258C383.091 373.872 382.089 376.276 380.18 377.978L380.025 378.116L379.937 378.305C378.514 381.387 377.636 384.58 376.864 387.745C376.689 388.465 376.519 389.181 376.35 389.895C375.771 392.344 375.199 394.757 374.426 397.15L374.404 397.22L374.392 397.293C373.402 403.219 372.485 409.355 373.999 415.523C374.095 416.626 374.096 417.83 374.096 419.121L374.096 419.251C374.096 420.601 374.1 422.034 374.235 423.429C374.503 426.212 375.307 429.046 377.836 430.989C383.633 435.748 388.557 441.651 393.47 447.54C394.036 448.22 394.603 448.899 395.17 449.576C403.759 460.14 411.333 471.54 418.11 483.297L419.319 485.394C419.583 486.259 419.896 487.218 420.257 488.03C420.465 488.496 420.706 488.955 420.988 489.333C421.257 489.692 421.65 490.097 422.197 490.263L423.718 490.723L423.476 489.153C422.796 484.746 421.914 477.735 421.486 472.298L421.483 472.261L421.477 472.225C420.365 464.975 418.028 458.095 415.666 451.319C415.55 450.987 415.435 450.656 415.319 450.325C413.067 443.872 410.844 437.503 409.598 430.864C409.558 430.568 409.514 430.269 409.47 429.974L409.47 429.97C409.429 429.69 409.388 429.413 409.35 429.138V427.43V426.43H409.021C408.245 419.701 408.232 412.969 412.752 408.143C415.204 405.675 418.281 404.102 421.611 402.677C422.438 402.322 423.287 401.976 424.144 401.625C426.685 400.587 429.304 399.517 431.686 398.127L431.691 398.124C432.983 397.36 434.332 396.741 435.7 396.296C435.745 396.289 435.798 396.278 435.854 396.261C439.987 394.986 444.44 395.014 448.841 395.73L449.001 394.743L448.837 395.729L448.837 395.729C448.837 395.73 448.839 395.73 448.84 395.73L448.853 395.733L448.899 395.742C448.93 395.749 448.992 395.763 449.053 395.773C449.154 395.79 449.255 395.806 449.355 395.823C449.676 395.875 449.988 395.927 450.283 395.984L450.334 395.994L450.386 395.999C450.889 396.044 451.511 396.118 452.201 396.2C453.602 396.368 455.279 396.568 456.778 396.619C457.916 396.657 459.06 396.617 460.026 396.393C460.965 396.175 461.96 395.731 462.462 394.773L462.53 394.643C462.62 394.722 462.709 394.799 462.797 394.875C463.117 395.153 463.422 395.417 463.721 395.67C464.069 395.964 464.401 396.233 464.694 396.441C464.952 396.623 465.307 396.854 465.677 396.937L467.032 397.242L466.891 395.86C466.548 392.513 464.696 390.119 462.357 388.37C460.058 386.65 457.229 385.507 454.75 384.63C453.239 383.901 451.564 383.366 449.949 382.866C449.815 382.825 449.682 382.784 449.549 382.743C448.033 382.275 446.58 381.826 445.254 381.254C443.818 380.634 442.606 379.899 441.701 378.914C440.81 377.945 440.172 376.688 439.954 374.94L439.935 374.79L439.874 374.653L439.83 374.557C439.603 374.052 439.356 373.502 439.054 372.964L439.021 372.907L438.982 372.854L437.453 370.816L437.607 370.739L436.783 369.767C433.577 365.983 429.08 363.235 424.276 362.164C419.71 360.584 414.517 358.997 409.56 358.362L408.749 358.258L408.486 359.033C408.366 359.387 408.261 359.61 408.183 359.744C408.15 359.719 408.113 359.688 408.07 359.65C407.859 359.464 407.626 359.214 407.326 358.893L407.324 358.89L407.294 358.858C406.746 358.269 405.985 357.453 405.059 356.992C404.565 356.745 403.996 356.583 403.362 356.611C402.797 356.636 402.236 356.809 401.684 357.131C400.884 357.235 400.294 357.363 399.839 357.466L399.835 357.467C399.304 357.587 399.088 357.636 398.906 357.638C398.742 357.639 398.549 357.62 397.76 356.995ZM445.104 388.205C444.231 388.046 443.143 387.87 442.042 387.766L436.694 386.569L436.444 386.505L448.685 388.77C449.068 388.912 449.456 389.048 449.847 389.177C449.698 389.152 449.55 389.127 449.403 389.102C447.94 388.854 446.529 388.592 445.189 388.224L445.147 388.213L445.104 388.205ZM435.403 396.298C435.401 396.298 435.4 396.297 435.402 396.298L435.403 396.298ZM421.62 372.328C422.736 372.298 424.043 372.504 425.389 372.967C427.173 373.584 428.6 374.53 429.478 375.511C430.381 376.521 430.557 377.376 430.362 377.939C430.168 378.498 429.5 379.06 428.156 379.291C426.851 379.516 425.137 379.372 423.351 378.751C421.56 378.128 420.133 377.193 419.256 376.225C418.357 375.232 418.18 374.39 418.376 373.819C418.624 373.101 419.663 372.38 421.62 372.328Z" fill="#FF6600" stroke="white" stroke-width="2"/>
</g>
<defs>
<clipPath id="clip0_2:167">
<rect width="512" height="512" fill="white"/>
</clipPath>
<clipPath id="clip1_2:167">
<rect width="155" height="155" fill="white" transform="translate(340 344)"/>
</clipPath>
</defs>
</svg>
