<svg width="512" height="512" viewBox="0 0 512 512" fill="none" xmlns="http://www.w3.org/2000/svg">
<circle cx="256" cy="256" r="256" fill="white"/>
<g clip-path="url(#clip0_2:167)">
<path d="M512 256.008C512 114.629 397.382 0 255.995 0C114.613 0 -0.000371967 114.629 -0.000371967 256.008C-0.000371967 397.389 114.613 512 255.995 512C397.382 512 512 397.389 512 256.008Z" fill="#0068C8"/>
<path d="M240.72 211.746C231.62 201.883 225.621 189.203 223.771 175.916C221.921 162.629 224.228 148.794 230.288 136.824C236.349 124.854 246.137 114.801 257.945 108.419C269.754 102.036 283.531 99.3528 296.874 100.836C318.334 103.221 338.237 116.785 348.292 135.878L469.204 152.543H331.397C322.799 141.547 309.811 134.079 295.976 132.176C286.096 130.817 275.848 132.245 266.716 136.251C257.584 140.257 249.597 146.83 243.911 155.017C238.225 163.204 234.859 172.981 234.299 182.931C233.739 192.881 235.988 202.973 240.72 211.746V211.746Z" fill="white"/>
<path d="M257.72 256.953L72.6523 123.992C63.786 141.489 60.277 161.652 62.7115 181.112C65.1459 200.572 73.5139 219.251 86.4176 234.029C103.341 253.41 128.065 265.787 153.733 267.729C141.616 263.817 130.516 256.802 121.786 247.539C113.056 238.277 106.714 226.785 103.532 214.465C99.8872 200.352 100.425 185.188 105.061 171.369L257.72 256.953Z" fill="white"/>
<path d="M247.447 292.869L84.8374 247.147C83.5267 262.345 86.511 277.889 93.3569 291.523C100.203 305.157 110.89 316.84 123.866 324.875C143.116 336.795 167.356 340.359 189.226 334.485C167.316 334.632 145.61 323.754 132.624 306.12C125.293 296.165 120.684 284.228 119.425 271.932L247.447 292.869Z" fill="white"/>
<path d="M321.606 190.823C318.585 197.089 316.484 203.797 315.392 210.667C312.006 231.974 318.342 253.495 324.657 274.125C330.972 294.756 337.409 316.224 334.224 337.562C331.845 353.499 324.068 368.417 313.183 380.305C302.299 392.194 288.405 401.134 273.475 407.222C248.881 417.25 221.217 419.606 195.28 413.882V484.812L216.609 434.18C244.252 440.484 273.847 437.934 300.002 426.994C318.734 419.159 335.824 406.96 348.147 390.831C360.469 374.703 367.82 354.551 367.299 334.267C366.673 309.882 355.149 287.282 343.995 265.585C332.841 243.887 321.539 221.114 321.415 196.721C321.399 194.754 321.468 192.786 321.606 190.823V190.823Z" fill="white"/>
</g>
<g clip-path="url(#clip1_2:167)">
<path d="M417.569 344.547C374.691 344.547 340 379.099 340 421.7C340 464.3 374.691 498.853 417.569 498.853C431.585 498.853 444.628 495.176 456.007 488.709L460.045 498.853H491.267L479.042 468.602C489.061 455.614 495 439.323 495 421.7C495 379.099 460.309 344.547 417.569 344.547V344.547Z" fill="url(#paint0_radial_2:167)"/>
<path d="M416.876 432.071C445.362 432.071 468.454 412.356 468.454 388.035C468.454 363.715 445.362 344 416.876 344C388.389 344 365.297 363.715 365.297 388.035C365.297 412.356 388.389 432.071 416.876 432.071Z" fill="url(#paint1_linear_2:167)"/>
<path d="M425.437 384.33C430.472 384.33 434.554 380.249 434.554 375.214C434.554 370.179 430.472 366.097 425.437 366.097C420.402 366.097 416.321 370.179 416.321 375.214C416.321 380.249 420.402 384.33 425.437 384.33Z" fill="black"/>
<path d="M459.985 388.225L408.332 380.764L406.882 388.258L458.535 395.719L459.985 388.225Z" fill="black"/>
<path d="M464.153 390.478H455.036V394.502H464.153V390.478Z" fill="black"/>
<path d="M396.755 357.174C396.676 360.213 391.384 357.567 391.162 361.032C385.307 358.423 391.619 365.014 391.032 365.625H390.989L390.556 365.582C390.273 365.481 389.862 365.306 389.255 364.931C385.161 368.192 385.064 374.964 380.845 378.724C378.084 384.705 377.404 391.185 375.378 397.457C374.382 403.424 373.505 409.391 374.988 415.358C375.434 420.215 374.032 426.82 378.457 430.206C385.021 435.59 390.474 442.417 395.942 448.939C404.573 459.554 412.177 471.003 418.976 482.798C419.426 479.856 420.517 488.709 422.487 489.306C421.805 484.879 420.919 477.844 420.489 472.376C418.297 458.084 411.261 445.178 408.611 431.024C408.529 430.428 408.433 429.814 408.35 429.207V427.43H408.133C407.265 420.437 406.954 412.86 412.033 407.448C417.223 402.217 424.952 400.899 431.182 397.263C432.57 396.443 434.027 395.778 435.512 395.306C435.524 395.302 435.543 395.311 435.555 395.306C439.884 393.97 444.505 394.012 449.001 394.743C449.068 394.754 449.151 394.775 449.218 394.786C449.627 394.855 450.07 394.924 450.475 395.003C453.764 395.296 460.383 396.585 461.576 394.309C457.039 390.438 450.489 390.715 444.924 389.189C444.049 389.029 442.968 388.856 441.885 388.756L436.46 387.541L435.115 387.195V387.238L415.688 383.463C415.38 383.183 415.044 382.896 414.733 382.684L433.605 385.029V384.942C434.271 385.09 434.932 385.211 435.604 385.289V385.332L448.953 387.802C451.256 388.663 453.712 389.301 456.016 389.454C459.818 390.007 464.661 395.684 465.896 395.962C465.284 389.981 459.318 387.303 454.365 385.554C448.578 382.737 439.933 382.848 438.962 375.064C438.717 374.521 438.477 373.98 438.182 373.454L435.934 370.457L436.021 370.413C432.94 366.778 428.611 364.141 424.004 363.128C419.438 361.546 414.304 359.978 409.433 359.354C407.796 364.183 405.964 355.524 402.023 358.097C398.568 358.506 399.04 359.419 396.473 357.229L396.755 357.174ZM421.593 371.328C422.845 371.295 424.272 371.525 425.715 372.022C429.545 373.346 432.042 376.143 431.307 378.266C430.572 380.39 426.853 381.028 423.023 379.696C419.193 378.364 416.695 375.63 417.431 373.493C417.89 372.162 419.512 371.384 421.593 371.328Z" fill="#FF6600"/>
</g>
<defs>
<radialGradient id="paint0_radial_2:167" cx="0" cy="0" r="1" gradientUnits="userSpaceOnUse" gradientTransform="translate(408.382 405.398) rotate(57.1766) scale(139.383 77.1999)">
<stop/>
<stop offset="1" stop-opacity="0.897"/>
</radialGradient>
<linearGradient id="paint1_linear_2:167" x1="418.333" y1="345.074" x2="418.333" y2="429.207" gradientUnits="userSpaceOnUse">
<stop stop-color="white"/>
<stop offset="1" stop-color="white" stop-opacity="0"/>
</linearGradient>
<clipPath id="clip0_2:167">
<rect width="512" height="512" fill="white"/>
</clipPath>
<clipPath id="clip1_2:167">
<rect width="155" height="155" fill="white" transform="translate(340 344)"/>
</clipPath>
</defs>
</svg>
