<svg width="512" height="512" viewBox="0 0 512 512" fill="none" xmlns="http://www.w3.org/2000/svg">
<circle cx="256" cy="256" r="256" fill="white"/>
<path d="M281.49 170.886V166.717L268.532 167.607C264.862 167.838 262.107 168.619 260.254 169.935C258.402 171.264 257.475 173.105 257.475 175.458C257.475 177.749 258.389 179.578 260.23 180.931C262.059 182.296 264.521 182.967 267.593 182.967C269.556 182.967 271.397 182.662 273.091 182.065C274.786 181.467 276.273 180.626 277.516 179.554C278.76 178.493 279.735 177.225 280.43 175.75C281.137 174.275 281.49 172.654 281.49 170.886ZM256 3.04762C114.846 3.04762 3.04761 114.846 3.04761 256C3.04761 397.166 114.846 508.952 256 508.952C397.154 508.952 508.952 397.166 508.952 256C508.952 114.846 397.166 3.04762 256 3.04762ZM305.103 152.978C306.298 149.626 307.98 146.749 310.162 144.36C312.344 141.97 314.965 140.13 318.037 138.837C321.109 137.545 324.535 136.899 328.302 136.899C331.703 136.899 334.775 137.411 337.506 138.423C340.248 139.435 342.589 140.8 344.552 142.519C346.514 144.238 348.075 146.237 349.221 148.529C350.366 150.821 351.049 153.246 351.281 155.794H341.126C340.87 154.392 340.407 153.076 339.749 151.869C339.09 150.662 338.225 149.614 337.152 148.724C336.067 147.834 334.799 147.139 333.349 146.639C331.886 146.127 330.252 145.883 328.411 145.883C326.254 145.883 324.291 146.322 322.548 147.188C320.792 148.053 319.293 149.285 318.05 150.869C316.806 152.454 315.843 154.392 315.16 156.66C314.466 158.939 314.124 161.463 314.124 164.242C314.124 167.119 314.466 169.704 315.16 171.971C315.843 174.251 316.818 176.165 318.086 177.737C319.342 179.31 320.866 180.517 322.633 181.346C324.401 182.174 326.351 182.601 328.472 182.601C331.947 182.601 334.775 181.784 336.969 180.151C339.163 178.517 340.578 176.128 341.236 172.983H351.403C351.11 175.762 350.342 178.298 349.099 180.59C347.855 182.882 346.246 184.832 344.271 186.453C342.284 188.075 339.956 189.33 337.274 190.208C334.592 191.086 331.642 191.537 328.436 191.537C324.632 191.537 321.207 190.903 318.123 189.647C315.051 188.392 312.405 186.575 310.211 184.222C308.017 181.87 306.322 179.005 305.128 175.628C303.933 172.251 303.336 168.46 303.336 164.23C303.311 160.098 303.909 156.343 305.103 152.978ZM160.61 137.594H170.776V146.627H170.971C171.593 145.128 172.41 143.774 173.41 142.604C174.409 141.422 175.555 140.422 176.872 139.581C178.176 138.74 179.627 138.106 181.187 137.667C182.76 137.228 184.418 137.009 186.149 137.009C189.879 137.009 193.036 137.899 195.596 139.678C198.168 141.458 199.997 144.018 201.07 147.358H201.326C202.008 145.749 202.91 144.311 204.02 143.043C205.129 141.775 206.409 140.678 207.848 139.776C209.286 138.874 210.871 138.191 212.59 137.716C214.309 137.24 216.113 137.009 218.014 137.009C220.635 137.009 223.013 137.423 225.158 138.264C227.304 139.106 229.132 140.276 230.656 141.8C232.18 143.323 233.35 145.176 234.167 147.346C234.984 149.516 235.398 151.93 235.398 154.587V190.927H224.792V157.135C224.792 153.637 223.89 150.918 222.086 149.004C220.294 147.09 217.722 146.127 214.382 146.127C212.748 146.127 211.249 146.42 209.883 146.993C208.53 147.566 207.348 148.37 206.373 149.406C205.385 150.43 204.617 151.674 204.069 153.112C203.508 154.551 203.227 156.123 203.227 157.83V190.927H192.768V156.258C192.768 154.722 192.524 153.332 192.049 152.088C191.573 150.845 190.903 149.784 190.013 148.894C189.135 148.005 188.05 147.334 186.795 146.859C185.527 146.383 184.113 146.139 182.54 146.139C180.907 146.139 179.395 146.444 177.993 147.054C176.603 147.663 175.409 148.504 174.409 149.577C173.41 150.662 172.629 151.93 172.081 153.405C171.544 154.868 170.667 156.477 170.667 158.208V190.915H160.61V137.594ZM183.686 392.85C137.058 392.85 107.813 360.448 107.813 308.736C107.813 257.024 137.058 224.512 183.686 224.512C230.315 224.512 259.45 257.024 259.45 308.736C259.45 360.436 230.315 392.85 183.686 392.85ZM270.019 190.793C268.3 191.232 266.545 191.451 264.741 191.451C262.083 191.451 259.657 191.074 257.451 190.318C255.232 189.562 253.342 188.501 251.758 187.124C250.173 185.746 248.93 184.088 248.052 182.138C247.162 180.187 246.723 178.018 246.723 175.628C246.723 170.947 248.466 167.29 251.953 164.657C255.439 162.024 260.486 160.488 267.105 160.061L281.49 159.232V155.112C281.49 152.04 280.515 149.687 278.565 148.09C276.614 146.493 273.859 145.688 270.287 145.688C268.849 145.688 267.496 145.871 266.252 146.225C265.009 146.59 263.912 147.102 262.961 147.773C262.01 148.443 261.218 149.248 260.608 150.187C259.986 151.113 259.56 152.162 259.328 153.307H249.356C249.417 150.955 250.002 148.773 251.099 146.773C252.197 144.774 253.684 143.043 255.573 141.568C257.463 140.093 259.669 138.947 262.229 138.13C264.789 137.314 267.569 136.899 270.58 136.899C273.822 136.899 276.76 137.301 279.394 138.13C282.027 138.959 284.282 140.117 286.147 141.641C288.012 143.165 289.451 144.994 290.462 147.139C291.474 149.285 291.986 151.686 291.986 154.331V190.915H281.832V182.028H281.576C280.82 183.467 279.869 184.771 278.711 185.929C277.541 187.087 276.236 188.087 274.786 188.904C273.323 189.72 271.738 190.354 270.019 190.793ZM337.103 392.85C301.544 392.85 277.37 374.223 275.688 344.978H298.837C300.642 361.691 316.794 372.76 338.92 372.76C360.143 372.76 375.394 361.691 375.394 346.563C375.394 333.471 366.129 325.559 344.686 320.146L323.791 314.953C293.754 307.505 280.101 293.839 280.101 271.372C280.101 243.712 304.262 224.512 338.7 224.512C372.346 224.512 395.825 243.822 396.727 271.592H373.809C372.224 254.878 358.571 244.602 338.237 244.602C318.025 244.602 304.03 254.988 304.03 270.007C304.03 281.856 312.832 288.866 334.287 294.278L351.902 298.679C385.438 306.81 399.214 320.024 399.214 343.735C399.202 373.992 375.272 392.85 337.103 392.85ZM183.686 245.272C151.735 245.272 131.755 269.775 131.755 308.724C131.755 347.563 151.735 372.066 183.686 372.066C215.528 372.066 235.618 347.563 235.618 308.724C235.63 269.775 215.528 245.272 183.686 245.272Z" fill="black"/>
<g clip-path="url(#clip0_2:208)">
<path d="M425.371 382.145C430.387 382.145 434.453 378.553 434.453 374.122C434.453 369.691 430.387 366.1 425.371 366.1C420.355 366.1 416.289 369.691 416.289 374.122C416.289 378.553 420.355 382.145 425.371 382.145Z" fill="black"/>
<path d="M397.76 356.995L397.787 355.954L396.563 356.193L396.281 356.248L394.247 356.645L395.448 357.669C395.12 357.814 394.647 357.867 393.913 357.948L393.902 357.949C393.257 358.021 392.371 358.12 391.642 358.516C391.252 358.727 390.888 359.031 390.616 359.465C390.571 359.538 390.529 359.612 390.49 359.688C390.19 359.587 389.917 359.513 389.673 359.47C389.242 359.395 388.518 359.345 388.02 359.884C387.516 360.43 387.653 361.129 387.738 361.441C387.844 361.828 388.043 362.237 388.246 362.605C388.465 363 388.74 363.436 389.007 363.85L388.632 364.149C386.367 365.953 385.235 368.691 384.2 371.192L384.173 371.258C383.092 373.872 382.089 376.276 380.18 377.978L380.025 378.116L379.938 378.305C378.515 381.387 377.636 384.58 376.865 387.745C376.689 388.465 376.519 389.181 376.35 389.895C375.771 392.344 375.2 394.757 374.427 397.15L374.404 397.22L374.392 397.293C373.402 403.219 372.486 409.355 373.999 415.523C374.096 416.626 374.096 417.83 374.096 419.121L374.096 419.251C374.096 420.601 374.101 422.034 374.235 423.429C374.503 426.212 375.307 429.046 377.836 430.989C383.634 435.748 388.557 441.651 393.47 447.54C394.037 448.22 394.603 448.899 395.171 449.576C403.76 460.14 411.333 471.54 418.11 483.297L419.319 485.394C419.583 486.259 419.896 487.218 420.257 488.03C420.465 488.496 420.706 488.955 420.988 489.333C421.257 489.692 421.65 490.097 422.198 490.263L423.718 490.723L423.476 489.153C422.796 484.746 421.914 477.735 421.486 472.298L421.483 472.261L421.478 472.225C420.366 464.975 418.028 458.095 415.666 451.319C415.551 450.987 415.435 450.656 415.319 450.325C413.067 443.872 410.844 437.503 409.598 430.864C409.558 430.568 409.514 430.269 409.471 429.974L409.47 429.97C409.429 429.69 409.388 429.413 409.35 429.138V427.43V426.43H409.021C408.245 419.701 408.232 412.969 412.753 408.143C415.204 405.675 418.281 404.102 421.611 402.677C422.438 402.322 423.287 401.976 424.144 401.625C426.685 400.587 429.304 399.517 431.686 398.127L431.691 398.124C432.983 397.36 434.333 396.741 435.701 396.296C435.746 396.289 435.798 396.278 435.855 396.261C439.987 394.986 444.44 395.014 448.841 395.73L449.001 394.743L448.837 395.729L448.837 395.729C448.838 395.73 448.839 395.73 448.841 395.73L448.854 395.733L448.899 395.742C448.931 395.749 448.992 395.763 449.053 395.773C449.154 395.79 449.255 395.806 449.356 395.823C449.676 395.875 449.989 395.927 450.284 395.984L450.335 395.994L450.387 395.999C450.889 396.044 451.512 396.118 452.201 396.2C453.602 396.368 455.279 396.568 456.778 396.619C457.916 396.657 459.06 396.617 460.027 396.393C460.966 396.175 461.96 395.731 462.462 394.773L462.53 394.643C462.621 394.722 462.71 394.799 462.798 394.875C463.117 395.153 463.422 395.417 463.721 395.67C464.069 395.964 464.401 396.233 464.695 396.441C464.952 396.623 465.308 396.854 465.677 396.937L467.032 397.242L466.891 395.86C466.548 392.513 464.696 390.119 462.358 388.37C460.058 386.65 457.229 385.507 454.751 384.63C453.239 383.901 451.564 383.366 449.949 382.866C449.815 382.825 449.682 382.784 449.55 382.743C448.034 382.275 446.58 381.826 445.254 381.254C443.819 380.634 442.607 379.899 441.701 378.914C440.81 377.945 440.172 376.688 439.954 374.94L439.936 374.79L439.874 374.653L439.831 374.557C439.603 374.052 439.356 373.502 439.054 372.964L439.022 372.907L438.982 372.854L437.453 370.816L437.607 370.739L436.784 369.767C433.577 365.983 429.08 363.235 424.276 362.164C419.71 360.584 414.518 358.997 409.561 358.362L408.749 358.258L408.486 359.033C408.366 359.387 408.261 359.61 408.183 359.744C408.151 359.719 408.113 359.688 408.07 359.65C407.859 359.464 407.626 359.214 407.327 358.893L407.324 358.89L407.295 358.858C406.746 358.269 405.986 357.453 405.06 356.992C404.565 356.745 403.996 356.583 403.362 356.611C402.798 356.636 402.237 356.809 401.684 357.131C400.885 357.235 400.294 357.363 399.839 357.466L399.835 357.467C399.304 357.587 399.089 357.636 398.906 357.638C398.742 357.639 398.55 357.62 397.76 356.995ZM445.104 388.205C444.231 388.046 443.144 387.87 442.042 387.766L436.694 386.569L436.444 386.505L448.686 388.77C449.068 388.912 449.456 389.048 449.847 389.177C449.699 389.152 449.551 389.127 449.403 389.102C447.941 388.854 446.529 388.592 445.189 388.224L445.147 388.213L445.104 388.205ZM435.403 396.298C435.401 396.298 435.4 396.297 435.402 396.298L435.403 396.298ZM421.62 372.328C422.736 372.298 424.043 372.504 425.389 372.967C427.174 373.584 428.6 374.53 429.478 375.511C430.381 376.521 430.557 377.376 430.362 377.939C430.169 378.498 429.5 379.06 428.156 379.291C426.851 379.516 425.137 379.372 423.351 378.751C421.561 378.128 420.133 377.193 419.256 376.225C418.357 375.232 418.18 374.39 418.376 373.819C418.624 373.101 419.663 372.38 421.62 372.328Z" fill="#FF6600" stroke="white" stroke-width="2"/>
</g>
<defs>
<clipPath id="clip0_2:208">
<rect width="155" height="155" fill="white" transform="translate(340 344)"/>
</clipPath>
</defs>
</svg>
