<svg width="512" height="512" viewBox="0 0 512 512" fill="none" xmlns="http://www.w3.org/2000/svg">
<circle cx="256" cy="256" r="256" fill="white"/>
<path d="M281.49 170.886V166.717L268.532 167.607C264.862 167.838 262.107 168.619 260.254 169.935C258.402 171.264 257.475 173.105 257.475 175.458C257.475 177.749 258.389 179.578 260.23 180.931C262.059 182.296 264.521 182.967 267.593 182.967C269.556 182.967 271.397 182.662 273.091 182.065C274.786 181.467 276.273 180.626 277.516 179.554C278.76 178.493 279.735 177.225 280.43 175.75C281.137 174.275 281.49 172.654 281.49 170.886ZM256 3.04762C114.846 3.04762 3.04761 114.846 3.04761 256C3.04761 397.166 114.846 508.952 256 508.952C397.154 508.952 508.952 397.166 508.952 256C508.952 114.846 397.166 3.04762 256 3.04762ZM305.103 152.978C306.298 149.626 307.98 146.749 310.162 144.36C312.344 141.97 314.965 140.13 318.037 138.837C321.109 137.545 324.535 136.899 328.302 136.899C331.703 136.899 334.775 137.411 337.506 138.423C340.248 139.435 342.589 140.8 344.552 142.519C346.514 144.238 348.075 146.237 349.221 148.529C350.366 150.821 351.049 153.246 351.281 155.794H341.126C340.87 154.392 340.407 153.076 339.749 151.869C339.09 150.662 338.225 149.614 337.152 148.724C336.067 147.834 334.799 147.139 333.349 146.639C331.886 146.127 330.252 145.883 328.411 145.883C326.254 145.883 324.291 146.322 322.548 147.188C320.792 148.053 319.293 149.285 318.05 150.869C316.806 152.454 315.843 154.392 315.16 156.66C314.466 158.939 314.124 161.463 314.124 164.242C314.124 167.119 314.466 169.704 315.16 171.971C315.843 174.251 316.818 176.165 318.086 177.737C319.342 179.31 320.866 180.517 322.633 181.346C324.401 182.174 326.351 182.601 328.472 182.601C331.947 182.601 334.775 181.784 336.969 180.151C339.163 178.517 340.578 176.128 341.236 172.983H351.403C351.11 175.762 350.342 178.298 349.099 180.59C347.855 182.882 346.246 184.832 344.271 186.453C342.284 188.075 339.956 189.33 337.274 190.208C334.592 191.086 331.642 191.537 328.436 191.537C324.632 191.537 321.207 190.903 318.123 189.647C315.051 188.392 312.405 186.575 310.211 184.222C308.017 181.87 306.322 179.005 305.128 175.628C303.933 172.251 303.336 168.46 303.336 164.23C303.311 160.098 303.909 156.343 305.103 152.978V152.978ZM160.61 137.594H170.776V146.627H170.971C171.593 145.128 172.41 143.774 173.41 142.604C174.409 141.422 175.555 140.422 176.872 139.581C178.176 138.74 179.627 138.106 181.187 137.667C182.76 137.228 184.418 137.009 186.149 137.009C189.879 137.009 193.036 137.899 195.596 139.678C198.168 141.458 199.997 144.018 201.07 147.358H201.326C202.008 145.749 202.91 144.311 204.02 143.043C205.129 141.775 206.409 140.678 207.848 139.776C209.286 138.874 210.871 138.191 212.59 137.716C214.309 137.24 216.113 137.009 218.014 137.009C220.635 137.009 223.013 137.423 225.158 138.264C227.304 139.106 229.132 140.276 230.656 141.8C232.18 143.323 233.35 145.176 234.167 147.346C234.984 149.516 235.398 151.93 235.398 154.587V190.927H224.792V157.135C224.792 153.637 223.89 150.918 222.086 149.004C220.294 147.09 217.722 146.127 214.382 146.127C212.748 146.127 211.249 146.42 209.883 146.993C208.53 147.566 207.348 148.37 206.373 149.406C205.385 150.43 204.617 151.674 204.069 153.112C203.508 154.551 203.227 156.123 203.227 157.83V190.927H192.768V156.258C192.768 154.722 192.524 153.332 192.049 152.088C191.573 150.845 190.903 149.784 190.013 148.894C189.135 148.005 188.05 147.334 186.795 146.859C185.527 146.383 184.113 146.139 182.54 146.139C180.907 146.139 179.395 146.444 177.993 147.054C176.603 147.663 175.409 148.504 174.409 149.577C173.41 150.662 172.629 151.93 172.081 153.405C171.544 154.868 170.667 156.477 170.667 158.208V190.915H160.61V137.594V137.594ZM183.686 392.85C137.058 392.85 107.813 360.448 107.813 308.736C107.813 257.024 137.058 224.512 183.686 224.512C230.315 224.512 259.45 257.024 259.45 308.736C259.45 360.436 230.315 392.85 183.686 392.85V392.85ZM270.019 190.793C268.3 191.232 266.545 191.451 264.741 191.451C262.083 191.451 259.657 191.074 257.451 190.318C255.232 189.562 253.342 188.501 251.758 187.124C250.173 185.746 248.93 184.088 248.052 182.138C247.162 180.187 246.723 178.018 246.723 175.628C246.723 170.947 248.466 167.29 251.953 164.657C255.439 162.024 260.486 160.488 267.106 160.061L281.49 159.232V155.112C281.49 152.04 280.515 149.687 278.565 148.09C276.614 146.493 273.859 145.688 270.287 145.688C268.849 145.688 267.496 145.871 266.252 146.225C265.009 146.59 263.912 147.102 262.961 147.773C262.01 148.443 261.218 149.248 260.608 150.187C259.986 151.113 259.56 152.162 259.328 153.307H249.356C249.417 150.955 250.002 148.773 251.099 146.773C252.197 144.774 253.684 143.043 255.573 141.568C257.463 140.093 259.669 138.947 262.229 138.13C264.789 137.314 267.569 136.899 270.58 136.899C273.822 136.899 276.76 137.301 279.394 138.13C282.027 138.959 284.282 140.117 286.147 141.641C288.012 143.165 289.451 144.994 290.462 147.139C291.474 149.285 291.986 151.686 291.986 154.331V190.915H281.832V182.028H281.576C280.82 183.467 279.869 184.771 278.711 185.929C277.541 187.087 276.236 188.087 274.786 188.904C273.323 189.72 271.738 190.354 270.019 190.793V190.793ZM337.103 392.85C301.544 392.85 277.37 374.223 275.688 344.978H298.837C300.642 361.691 316.794 372.76 338.92 372.76C360.143 372.76 375.394 361.691 375.394 346.563C375.394 333.47 366.129 325.559 344.686 320.146L323.791 314.953C293.754 307.505 280.101 293.839 280.101 271.372C280.101 243.712 304.262 224.512 338.7 224.512C372.346 224.512 395.825 243.822 396.727 271.592H373.809C372.224 254.878 358.571 244.602 338.237 244.602C318.025 244.602 304.03 254.988 304.03 270.007C304.03 281.856 312.832 288.866 334.287 294.278L351.902 298.679C385.438 306.81 399.214 320.024 399.214 343.735C399.202 373.992 375.272 392.85 337.103 392.85V392.85ZM183.686 245.272C151.735 245.272 131.755 269.775 131.755 308.724C131.755 347.563 151.735 372.066 183.686 372.066C215.528 372.066 235.618 347.563 235.618 308.724C235.63 269.775 215.528 245.272 183.686 245.272V245.272Z" fill="black"/>
<g clip-path="url(#clip0_2:208)">
<path d="M417.569 344.547C374.691 344.547 340 379.099 340 421.7C340 464.3 374.691 498.853 417.569 498.853C431.585 498.853 444.628 495.176 456.007 488.709L460.045 498.853H491.267L479.042 468.602C489.061 455.614 495 439.323 495 421.7C495 379.099 460.309 344.547 417.569 344.547V344.547Z" fill="url(#paint0_radial_2:208)"/>
<path d="M416.876 432.071C445.362 432.071 468.454 412.356 468.454 388.035C468.454 363.715 445.362 344 416.876 344C388.389 344 365.297 363.715 365.297 388.035C365.297 412.356 388.389 432.071 416.876 432.071Z" fill="url(#paint1_linear_2:208)"/>
<path d="M425.437 384.33C430.472 384.33 434.554 380.249 434.554 375.214C434.554 370.179 430.472 366.097 425.437 366.097C420.402 366.097 416.32 370.179 416.32 375.214C416.32 380.249 420.402 384.33 425.437 384.33Z" fill="black"/>
<path d="M459.986 388.225L408.332 380.764L406.882 388.258L458.536 395.719L459.986 388.225Z" fill="black"/>
<path d="M464.152 390.478H455.036V394.502H464.152V390.478Z" fill="black"/>
<path d="M396.755 357.174C396.676 360.213 391.385 357.567 391.163 361.032C385.307 358.423 391.619 365.014 391.033 365.625H390.989L390.556 365.582C390.273 365.481 389.863 365.306 389.255 364.931C385.161 368.192 385.064 374.964 380.846 378.724C378.084 384.705 377.404 391.185 375.378 397.457C374.382 403.424 373.505 409.391 374.988 415.358C375.434 420.215 374.032 426.82 378.457 430.206C385.021 435.59 390.475 442.417 395.942 448.939C404.573 459.554 412.177 471.003 418.977 482.798C419.426 479.856 420.517 488.709 422.487 489.306C421.805 484.879 420.919 477.844 420.489 472.376C418.297 458.084 411.261 445.178 408.611 431.024C408.53 430.428 408.433 429.814 408.35 429.207V427.43H408.134C407.265 420.437 406.954 412.86 412.033 407.448C417.223 402.217 424.952 400.899 431.182 397.263C432.57 396.443 434.027 395.778 435.512 395.306C435.524 395.302 435.544 395.311 435.555 395.306C439.885 393.97 444.506 394.012 449.002 394.743C449.068 394.754 449.151 394.775 449.218 394.786C449.627 394.855 450.07 394.924 450.475 395.003C453.764 395.296 460.383 396.585 461.576 394.309C457.039 390.438 450.489 390.715 444.925 389.189C444.049 389.029 442.968 388.856 441.886 388.756L436.46 387.541L435.115 387.195V387.238L415.688 383.463C415.38 383.183 415.044 382.896 414.734 382.684L433.606 385.029V384.942C434.272 385.09 434.932 385.211 435.604 385.289V385.332L448.953 387.802C451.256 388.663 453.713 389.301 456.016 389.454C459.818 390.007 464.661 395.684 465.896 395.962C465.284 389.981 459.319 387.303 454.365 385.554C448.578 382.737 439.933 382.848 438.962 375.064C438.718 374.521 438.478 373.98 438.182 373.454L435.934 370.457L436.021 370.413C432.94 366.778 428.611 364.141 424.004 363.128C419.438 361.546 414.304 359.978 409.433 359.354C407.796 364.183 405.964 355.524 402.023 358.097C398.568 358.506 399.04 359.419 396.473 357.229L396.755 357.174ZM421.594 371.328C422.845 371.295 424.272 371.525 425.715 372.022C429.545 373.346 432.043 376.143 431.307 378.266C430.572 380.39 426.853 381.028 423.023 379.696C419.193 378.364 416.695 375.63 417.431 373.493C417.89 372.162 419.512 371.384 421.594 371.328Z" fill="#FF6600"/>
</g>
<defs>
<radialGradient id="paint0_radial_2:208" cx="0" cy="0" r="1" gradientUnits="userSpaceOnUse" gradientTransform="translate(408.382 405.398) rotate(57.1766) scale(139.383 77.1999)">
<stop/>
<stop offset="1" stop-opacity="0.897"/>
</radialGradient>
<linearGradient id="paint1_linear_2:208" x1="418.333" y1="345.074" x2="418.333" y2="429.207" gradientUnits="userSpaceOnUse">
<stop stop-color="white"/>
<stop offset="1" stop-color="white" stop-opacity="0"/>
</linearGradient>
<clipPath id="clip0_2:208">
<rect width="155" height="155" fill="white" transform="translate(340 344)"/>
</clipPath>
</defs>
</svg>
