<svg width="512" height="512" viewBox="0 0 512 512" fill="none" xmlns="http://www.w3.org/2000/svg">
<circle cx="256" cy="256" r="256" fill="white"/>
<path fill-rule="evenodd" clip-rule="evenodd" d="M156.206 261.569L280.911 477.641L223.601 478.178L190.308 420.128L156.777 477.868L128.302 477.857L113.718 452.655L161.489 370.492L127.578 311.466L156.206 261.569Z" fill="#5277C3"/>
<path fill-rule="evenodd" clip-rule="evenodd" d="M201.217 172.567L76.4913 388.626L47.3709 339.251L80.9853 281.387L14.2275 281.211L0 256.539L14.5285 231.305L109.551 231.605L143.702 172.716L201.217 172.567Z" fill="#7EBAE4"/>
<path fill-rule="evenodd" clip-rule="evenodd" d="M210.786 345.281L460.216 345.294L432.027 395.206L365.12 395.021L398.347 452.936L384.099 477.596L354.986 477.629L307.735 395.167L239.673 395.029L210.786 345.281Z" fill="#7EBAE4"/>
<path fill-rule="evenodd" clip-rule="evenodd" d="M355.963 250.609L231.258 34.5377L288.568 34L321.861 92.0504L355.392 34.3102L383.867 34.3214L398.451 59.5239L350.68 141.686L384.591 200.713L355.963 250.609Z" fill="#7EBAE4"/>
<path fill-rule="evenodd" clip-rule="evenodd" d="M156.206 261.569L280.911 477.641L223.601 478.178L190.308 420.128L156.777 477.868L128.302 477.857L113.718 452.655L161.489 370.492L127.578 311.466L156.206 261.569Z" fill="#5277C3"/>
<path fill-rule="evenodd" clip-rule="evenodd" d="M301.052 166.351L51.6216 166.339L79.8108 116.426L146.718 116.612L113.491 58.6961L127.739 34.0358L156.852 34.0036L204.103 116.466L272.165 116.604L301.052 166.351Z" fill="#5277C3"/>
<path fill-rule="evenodd" clip-rule="evenodd" d="M310.783 339.566L435.509 123.506L464.629 172.881L431.015 230.746L497.772 230.921L512 255.593L497.471 280.828L402.449 280.527L368.298 339.416L310.783 339.566Z" fill="#5277C3"/>
<path fill-rule="evenodd" clip-rule="evenodd" d="M156.354 261.43L281.059 477.502L223.749 478.039L190.456 419.989L156.925 477.729L128.45 477.718L113.866 452.516L161.637 370.354L127.726 311.327L156.354 261.43Z" fill="url(#paint0_linear_2:234)"/>
<path fill-rule="evenodd" clip-rule="evenodd" d="M156.354 261.43L281.059 477.502L223.749 478.039L190.456 419.989L156.925 477.729L128.45 477.718L113.866 452.516L161.637 370.354L127.726 311.327L156.354 261.43Z" fill="url(#paint1_linear_2:234)"/>
<g clip-path="url(#clip0_2:234)">
<path d="M417.569 344.547C374.691 344.547 340 379.099 340 421.7C340 464.3 374.691 498.853 417.569 498.853C431.585 498.853 444.628 495.176 456.007 488.709L460.045 498.853H491.267L479.042 468.602C489.061 455.614 495 439.323 495 421.7C495 379.099 460.309 344.547 417.569 344.547V344.547Z" fill="url(#paint2_radial_2:234)"/>
<path d="M416.876 432.071C445.362 432.071 468.454 412.356 468.454 388.035C468.454 363.715 445.362 344 416.876 344C388.389 344 365.297 363.715 365.297 388.035C365.297 412.356 388.389 432.071 416.876 432.071Z" fill="url(#paint3_linear_2:234)"/>
<path d="M425.437 384.33C430.472 384.33 434.554 380.249 434.554 375.214C434.554 370.179 430.472 366.097 425.437 366.097C420.402 366.097 416.32 370.179 416.32 375.214C416.32 380.249 420.402 384.33 425.437 384.33Z" fill="black"/>
<path d="M459.986 388.225L408.332 380.764L406.882 388.258L458.536 395.719L459.986 388.225Z" fill="black"/>
<path d="M464.152 390.478H455.036V394.502H464.152V390.478Z" fill="black"/>
<path d="M396.755 357.174C396.676 360.213 391.385 357.567 391.163 361.032C385.307 358.423 391.619 365.014 391.033 365.625H390.989L390.556 365.582C390.273 365.481 389.863 365.306 389.255 364.931C385.161 368.192 385.064 374.964 380.846 378.724C378.084 384.705 377.404 391.185 375.378 397.457C374.382 403.424 373.505 409.391 374.988 415.358C375.434 420.215 374.032 426.82 378.457 430.206C385.021 435.59 390.475 442.417 395.942 448.939C404.573 459.554 412.177 471.003 418.977 482.798C419.426 479.856 420.517 488.709 422.487 489.306C421.805 484.879 420.919 477.844 420.489 472.376C418.297 458.084 411.261 445.178 408.611 431.024C408.53 430.428 408.433 429.814 408.35 429.207V427.43H408.134C407.265 420.437 406.954 412.86 412.033 407.448C417.223 402.217 424.952 400.899 431.182 397.263C432.57 396.443 434.027 395.778 435.512 395.306C435.524 395.302 435.544 395.311 435.555 395.306C439.885 393.97 444.506 394.012 449.002 394.743C449.068 394.754 449.151 394.775 449.218 394.786C449.627 394.855 450.07 394.924 450.475 395.003C453.764 395.296 460.383 396.585 461.576 394.309C457.039 390.438 450.489 390.715 444.925 389.189C444.049 389.029 442.968 388.856 441.886 388.756L436.46 387.541L435.115 387.195V387.238L415.688 383.463C415.38 383.183 415.044 382.896 414.734 382.684L433.606 385.029V384.942C434.272 385.09 434.932 385.211 435.604 385.289V385.332L448.953 387.802C451.256 388.663 453.713 389.301 456.016 389.454C459.818 390.007 464.661 395.684 465.896 395.962C465.284 389.981 459.319 387.303 454.365 385.554C448.578 382.737 439.933 382.848 438.962 375.064C438.718 374.521 438.478 373.98 438.182 373.454L435.934 370.457L436.021 370.413C432.94 366.778 428.611 364.141 424.004 363.128C419.438 361.546 414.304 359.978 409.433 359.354C407.796 364.183 405.964 355.524 402.023 358.097C398.568 358.506 399.04 359.419 396.473 357.229L396.755 357.174ZM421.594 371.328C422.845 371.295 424.272 371.525 425.715 372.022C429.545 373.346 432.043 376.143 431.307 378.266C430.572 380.39 426.853 381.028 423.023 379.696C419.193 378.364 416.695 375.63 417.431 373.493C417.89 372.162 419.512 371.384 421.594 371.328Z" fill="#FF6600"/>
</g>
<defs>
<linearGradient id="paint0_linear_2:234" x1="117.266" y1="268.216" x2="208.626" y2="426.189" gradientUnits="userSpaceOnUse">
<stop stop-color="#699AD7"/>
<stop offset="0.243452" stop-color="#7EB1DD"/>
<stop offset="1" stop-color="#7EBAE4"/>
</linearGradient>
<linearGradient id="paint1_linear_2:234" x1="126.706" y1="262.842" x2="216.445" y2="421.429" gradientUnits="userSpaceOnUse">
<stop stop-color="#415E9A"/>
<stop offset="0.231686" stop-color="#4A6BAF"/>
<stop offset="1" stop-color="#5277C3"/>
</linearGradient>
<radialGradient id="paint2_radial_2:234" cx="0" cy="0" r="1" gradientUnits="userSpaceOnUse" gradientTransform="translate(408.382 405.398) rotate(57.1766) scale(139.383 77.1999)">
<stop/>
<stop offset="1" stop-opacity="0.897"/>
</radialGradient>
<linearGradient id="paint3_linear_2:234" x1="418.333" y1="345.074" x2="418.333" y2="429.207" gradientUnits="userSpaceOnUse">
<stop stop-color="white"/>
<stop offset="1" stop-color="white" stop-opacity="0"/>
</linearGradient>
<clipPath id="clip0_2:234">
<rect width="155" height="155" fill="white" transform="translate(340 344)"/>
</clipPath>
</defs>
</svg>
