<svg width="512" height="512" viewBox="0 0 512 512" fill="none" xmlns="http://www.w3.org/2000/svg">
<circle cx="256" cy="256" r="256" fill="white"/>
<mask id="mask0_2:324" style="mask-type:alpha" maskUnits="userSpaceOnUse" x="11" y="11" width="490" height="490">
<circle cx="256" cy="256" r="245" fill="white"/>
</mask>
<g mask="url(#mask0_2:324)">
<path d="M246.14 224.845C246.811 206.74 254.406 189.936 267.662 177.611C280.927 165.244 298.235 158.855 316.388 159.43C353.808 160.765 383.208 192.306 381.943 229.63C381.237 247.735 373.647 264.539 360.421 276.826C347.156 289.266 329.89 295.658 311.657 295.045C274.283 293.671 244.914 262.204 246.179 224.845H246.14ZM427.662 291.601C430.749 289.564 433.014 287.88 433.969 287.505L435 285.901C432.389 269.518 407.935 190.093 389.457 170.993C384.362 165.787 380.279 160.658 372.017 155.831C305.082 116.904 146.37 93.4015 138.933 92.3297L137.668 92.678L137.192 93.8263C137.192 93.8263 136.579 126.668 136.487 130.339C120.275 124.9 2.42509 86.8943 -108.06 83.0666C-201.754 79.7786 -338.193 67.6792 -519.025 178.683L-524.373 182.005C-609.441 234.981 -668.172 300.32 -698.88 376.224C-708.51 400.109 -721.46 454.003 -708.625 504.72C-703.097 526.886 -692.788 549.16 -678.891 569.102C-647.478 614.155 -594.781 644.049 -538.005 649.102C-457.882 656.259 -397.196 620.321 -375.613 553.026C-360.773 506.596 -375.613 438.462 -432.504 403.707C-478.776 375.416 -528.536 381.847 -557.403 400.912C-582.445 417.49 -596.621 443.247 -596.391 471.534C-595.812 521.715 -552.535 548.394 -521.406 548.471C-512.362 548.471 -503.28 546.902 -493.041 543.571C-489.395 542.461 -485.968 541.087 -482.188 538.752L-481.003 538.06L-480.259 537.562L-480.508 537.711C-473.412 532.884 -469.146 525.034 -469.146 516.617C-469.146 514.32 -469.468 511.993 -470.127 509.65C-473.803 496.942 -486.378 489.252 -499.408 491.622L-501.168 492.039L-503.549 492.766L-507.003 493.953C-514.172 495.713 -519.539 495.867 -520.685 495.905C-524.331 495.671 -542.249 490.313 -542.249 470.719V470.451C-542.249 463.254 -539.358 458.206 -537.764 455.446C-532.19 446.719 -516.928 438.152 -496.322 439.944C-469.261 442.282 -449.744 456.139 -436.824 482.278C-424.829 506.58 -427.969 536.479 -444.913 558.373C-461.743 580.073 -491.683 589.293 -531.553 585.01C-571.73 580.574 -605.696 557.489 -624.71 521.547C-643.326 486.416 -644.342 444.763 -627.336 412.763C-586.662 336.094 -509.836 336.898 -467.704 344.17C-405.369 354.968 -334.447 412.38 -309.299 478.676C-305.235 489.245 -303.165 497.62 -301.355 505.283L-298.641 516.728L-228.217 551.058L-227.297 551.751L-225.588 551.594L-225.277 549.569C-225.714 547.996 -226.738 546.549 -228.363 526.871C-229.701 509.409 -232.427 461.609 -208.321 437.915C-198.963 428.656 -184.702 420.392 -173.439 417.747C-127.282 406.489 -73.1511 414.256 -21.9721 473.402C4.52206 503.951 17.4376 517.88 23.9164 524.119L26.1782 526.155L28.8387 528.142C30.9626 529.294 116.859 568.792 116.859 568.792L118.626 568.371L118.661 566.538C118.089 565.887 64.2232 496.376 73.8072 439.151C81.3556 393.563 117.702 397.697 167.961 403.362C184.369 405.276 203.046 407.42 222.399 407.848C276.376 408.189 334.532 398.237 370.377 382.582C393.566 372.515 408.364 365.816 417.645 357.399C420.981 354.639 422.706 350.161 424.511 345.342L425.773 342.161C427.271 338.253 429.48 330.023 430.446 325.51C430.837 323.524 431.067 321.422 429.645 320.308L424.684 321.227C408.943 330.685 369.594 348.595 332.83 349.361C287.172 350.283 195.203 303.505 185.619 298.529L184.695 297.461C182.437 291.949 168.632 259.379 165.68 252.485C231.887 296.045 286.784 320.121 328.839 323.834C375.648 327.994 412.106 302.498 427.709 291.597H427.705L427.662 291.601ZM323.579 231.123C311.96 231.123 302.575 224.845 302.575 217.151C302.575 209.385 311.96 203.142 323.579 203.142C335.199 203.142 344.611 209.385 344.611 217.151C344.603 224.845 335.192 231.123 323.579 231.123V231.123ZM315.832 179.41C303.139 178.955 291.105 183.433 281.904 192.046C272.707 200.658 267.283 212.325 266.899 224.96C266.018 251.069 286.493 273.036 312.596 273.993C325.282 274.376 337.377 269.897 346.631 261.285C355.866 252.631 361.18 240.956 361.582 228.371C362.464 202.269 341.996 180.333 315.847 179.414L315.832 179.41Z" fill="#73BA25"/>
</g>
<g clip-path="url(#clip0_2:324)">
<path d="M417.569 344.547C374.691 344.547 340 379.099 340 421.7C340 464.3 374.691 498.853 417.569 498.853C431.585 498.853 444.628 495.176 456.007 488.709L460.045 498.853H491.267L479.042 468.602C489.061 455.614 495 439.323 495 421.7C495 379.099 460.309 344.547 417.569 344.547V344.547Z" fill="url(#paint0_radial_2:324)"/>
<path d="M416.876 432.071C445.362 432.071 468.454 412.356 468.454 388.035C468.454 363.715 445.362 344 416.876 344C388.389 344 365.297 363.715 365.297 388.035C365.297 412.356 388.389 432.071 416.876 432.071Z" fill="url(#paint1_linear_2:324)"/>
<path d="M425.437 384.33C430.472 384.33 434.554 380.249 434.554 375.214C434.554 370.179 430.472 366.097 425.437 366.097C420.402 366.097 416.32 370.179 416.32 375.214C416.32 380.249 420.402 384.33 425.437 384.33Z" fill="black"/>
<path d="M459.986 388.225L408.332 380.764L406.882 388.258L458.536 395.719L459.986 388.225Z" fill="black"/>
<path d="M464.152 390.478H455.036V394.502H464.152V390.478Z" fill="black"/>
<path d="M396.755 357.174C396.676 360.213 391.385 357.567 391.163 361.032C385.307 358.423 391.619 365.014 391.033 365.625H390.989L390.556 365.582C390.273 365.481 389.863 365.306 389.255 364.931C385.161 368.192 385.064 374.964 380.846 378.724C378.084 384.705 377.404 391.185 375.378 397.457C374.382 403.424 373.505 409.391 374.988 415.358C375.434 420.215 374.032 426.82 378.457 430.206C385.021 435.59 390.475 442.417 395.942 448.939C404.573 459.554 412.177 471.003 418.977 482.798C419.426 479.856 420.517 488.709 422.487 489.306C421.805 484.879 420.919 477.844 420.489 472.376C418.297 458.084 411.261 445.178 408.611 431.024C408.53 430.428 408.433 429.814 408.35 429.207V427.43H408.134C407.265 420.437 406.954 412.86 412.033 407.448C417.223 402.217 424.952 400.899 431.182 397.263C432.57 396.443 434.027 395.778 435.512 395.306C435.524 395.302 435.544 395.311 435.555 395.306C439.885 393.97 444.506 394.012 449.002 394.743C449.068 394.754 449.151 394.775 449.218 394.786C449.627 394.855 450.07 394.924 450.475 395.003C453.764 395.296 460.383 396.585 461.576 394.309C457.039 390.438 450.489 390.715 444.925 389.189C444.049 389.029 442.968 388.856 441.886 388.756L436.46 387.541L435.115 387.195V387.238L415.688 383.463C415.38 383.183 415.044 382.896 414.734 382.684L433.606 385.029V384.942C434.272 385.09 434.932 385.211 435.604 385.289V385.332L448.953 387.802C451.256 388.663 453.713 389.301 456.016 389.454C459.818 390.007 464.661 395.684 465.896 395.962C465.284 389.981 459.319 387.303 454.365 385.554C448.578 382.737 439.933 382.848 438.962 375.064C438.718 374.521 438.478 373.98 438.182 373.454L435.934 370.457L436.021 370.413C432.94 366.778 428.611 364.141 424.004 363.128C419.438 361.546 414.304 359.978 409.433 359.354C407.796 364.183 405.964 355.524 402.023 358.097C398.568 358.506 399.04 359.419 396.473 357.229L396.755 357.174ZM421.594 371.328C422.845 371.295 424.272 371.525 425.715 372.022C429.545 373.346 432.043 376.143 431.307 378.266C430.572 380.39 426.853 381.028 423.023 379.696C419.193 378.364 416.695 375.63 417.431 373.493C417.89 372.162 419.512 371.384 421.594 371.328Z" fill="#FF6600"/>
</g>
<defs>
<radialGradient id="paint0_radial_2:324" cx="0" cy="0" r="1" gradientUnits="userSpaceOnUse" gradientTransform="translate(408.382 405.398) rotate(57.1766) scale(139.383 77.1999)">
<stop/>
<stop offset="1" stop-opacity="0.897"/>
</radialGradient>
<linearGradient id="paint1_linear_2:324" x1="418.333" y1="345.074" x2="418.333" y2="429.207" gradientUnits="userSpaceOnUse">
<stop stop-color="white"/>
<stop offset="1" stop-color="white" stop-opacity="0"/>
</linearGradient>
<clipPath id="clip0_2:324">
<rect width="155" height="155" fill="white" transform="translate(340 344)"/>
</clipPath>
</defs>
</svg>
