<svg width="512" height="512" viewBox="0 0 512 512" fill="none" xmlns="http://www.w3.org/2000/svg">
<circle cx="256" cy="256" r="256" fill="white"/>
<mask id="mask0_2:324" style="mask-type:alpha" maskUnits="userSpaceOnUse" x="11" y="11" width="490" height="490">
<circle cx="256" cy="256" r="245" fill="white"/>
</mask>
<g mask="url(#mask0_2:324)">
<path d="M246.14 224.845C246.811 206.74 254.406 189.936 267.662 177.611C280.927 165.244 298.235 158.855 316.388 159.43C353.808 160.765 383.208 192.306 381.943 229.63C381.237 247.735 373.647 264.539 360.421 276.826C347.156 289.266 329.89 295.658 311.657 295.046C274.283 293.671 244.914 262.204 246.179 224.845H246.14ZM427.662 291.601C430.749 289.564 433.014 287.88 433.969 287.505L435 285.901C432.389 269.518 407.935 190.093 389.457 170.993C384.362 165.787 380.279 160.658 372.017 155.831C305.082 116.904 146.37 93.4015 138.933 92.3297L137.668 92.678L137.192 93.8263C137.192 93.8263 136.579 126.668 136.487 130.339C120.275 124.9 2.42511 86.8943 -108.06 83.0666C-201.754 79.7786 -338.193 67.6792 -519.025 178.683L-524.373 182.005C-609.441 234.981 -668.172 300.32 -698.88 376.224C-708.51 400.109 -721.46 454.003 -708.625 504.72C-703.097 526.886 -692.788 549.16 -678.891 569.102C-647.478 614.155 -594.781 644.049 -538.005 649.102C-457.882 656.259 -397.196 620.321 -375.613 553.026C-360.773 506.596 -375.613 438.462 -432.504 403.707C-478.776 375.416 -528.536 381.847 -557.403 400.912C-582.445 417.49 -596.621 443.247 -596.391 471.534C-595.812 521.715 -552.535 548.394 -521.406 548.471C-512.362 548.471 -503.28 546.902 -493.041 543.571C-489.395 542.461 -485.968 541.087 -482.188 538.752L-481.003 538.06L-480.259 537.562L-480.508 537.711C-473.412 532.884 -469.146 525.034 -469.146 516.617C-469.146 514.32 -469.468 511.993 -470.127 509.65C-473.803 496.942 -486.378 489.252 -499.408 491.622L-501.168 492.039L-503.549 492.766L-507.003 493.953C-514.172 495.714 -519.539 495.867 -520.685 495.905C-524.331 495.671 -542.249 490.313 -542.249 470.719V470.451C-542.249 463.254 -539.358 458.206 -537.764 455.446C-532.19 446.719 -516.928 438.152 -496.322 439.944C-469.261 442.282 -449.744 456.139 -436.824 482.278C-424.829 506.58 -427.969 536.479 -444.913 558.373C-461.743 580.073 -491.683 589.293 -531.553 585.01C-571.73 580.574 -605.696 557.489 -624.71 521.547C-643.326 486.416 -644.342 444.763 -627.336 412.763C-586.662 336.094 -509.836 336.898 -467.704 344.17C-405.369 354.968 -334.447 412.38 -309.299 478.676C-305.235 489.245 -303.165 497.62 -301.355 505.283L-298.641 516.728L-228.217 551.058L-227.297 551.751L-225.588 551.594L-225.277 549.569C-225.714 547.996 -226.738 546.549 -228.363 526.871C-229.701 509.409 -232.427 461.609 -208.321 437.915C-198.963 428.656 -184.702 420.392 -173.439 417.747C-127.282 406.489 -73.1511 414.256 -21.9722 473.402C4.52203 503.951 17.4376 517.88 23.9164 524.119L26.1782 526.155L28.8387 528.142C30.9626 529.294 116.859 568.792 116.859 568.792L118.626 568.371L118.661 566.538C118.089 565.887 64.2231 496.376 73.8073 439.151C81.3557 393.563 117.702 397.697 167.961 403.362C184.369 405.276 203.046 407.42 222.399 407.848C276.376 408.189 334.532 398.237 370.377 382.582C393.566 372.515 408.364 365.816 417.645 357.399C420.98 354.639 422.706 350.161 424.511 345.342L425.773 342.161C427.271 338.253 429.48 330.023 430.446 325.51C430.837 323.524 431.067 321.422 429.645 320.308L424.684 321.227C408.943 330.685 369.594 348.595 332.83 349.361C287.172 350.283 195.203 303.505 185.619 298.529L184.695 297.461C182.437 291.949 168.632 259.379 165.68 252.485C231.887 296.045 286.784 320.121 328.839 323.834C375.648 327.994 412.106 302.498 427.708 291.597H427.705L427.662 291.601ZM323.579 231.123C311.96 231.123 302.575 224.845 302.575 217.151C302.575 209.385 311.96 203.142 323.579 203.142C335.199 203.142 344.611 209.385 344.611 217.151C344.603 224.845 335.192 231.123 323.579 231.123ZM315.832 179.41C303.139 178.955 291.105 183.433 281.904 192.046C272.707 200.658 267.283 212.325 266.899 224.96C266.018 251.069 286.493 273.036 312.596 273.993C325.282 274.376 337.377 269.897 346.631 261.285C355.866 252.631 361.18 240.956 361.582 228.371C362.464 202.269 341.996 180.333 315.847 179.414L315.832 179.41Z" fill="#73BA25"/>
</g>
<g clip-path="url(#clip0_2:324)">
<path d="M425.371 382.145C430.387 382.145 434.453 378.553 434.453 374.122C434.453 369.691 430.387 366.1 425.371 366.1C420.355 366.1 416.289 369.691 416.289 374.122C416.289 378.553 420.355 382.145 425.371 382.145Z" fill="black"/>
<path d="M397.76 356.995L397.787 355.954L396.563 356.193L396.281 356.248L394.247 356.645L395.448 357.669C395.12 357.814 394.647 357.867 393.913 357.948L393.902 357.949C393.257 358.021 392.371 358.12 391.642 358.516C391.252 358.727 390.888 359.031 390.616 359.465C390.571 359.538 390.529 359.612 390.49 359.688C390.19 359.587 389.917 359.513 389.673 359.47C389.242 359.395 388.518 359.345 388.02 359.884C387.516 360.43 387.653 361.129 387.738 361.441C387.844 361.828 388.043 362.237 388.246 362.605C388.465 363 388.74 363.436 389.007 363.85L388.632 364.149C386.367 365.953 385.235 368.691 384.2 371.192L384.173 371.258C383.092 373.872 382.089 376.276 380.18 377.978L380.025 378.116L379.938 378.305C378.515 381.387 377.636 384.58 376.865 387.745C376.689 388.465 376.519 389.181 376.35 389.895C375.771 392.344 375.2 394.757 374.427 397.15L374.404 397.22L374.392 397.293C373.402 403.219 372.486 409.355 373.999 415.523C374.096 416.626 374.096 417.83 374.096 419.121L374.096 419.251C374.096 420.601 374.101 422.034 374.235 423.429C374.503 426.212 375.307 429.046 377.836 430.989C383.634 435.748 388.557 441.651 393.47 447.54C394.037 448.22 394.603 448.899 395.171 449.576C403.76 460.14 411.333 471.54 418.11 483.297L419.319 485.394C419.583 486.259 419.896 487.218 420.257 488.03C420.465 488.496 420.706 488.955 420.988 489.333C421.257 489.692 421.65 490.097 422.198 490.263L423.718 490.723L423.476 489.153C422.796 484.746 421.914 477.735 421.486 472.298L421.483 472.261L421.478 472.225C420.366 464.975 418.028 458.095 415.666 451.319C415.551 450.987 415.435 450.656 415.319 450.325C413.067 443.872 410.844 437.503 409.598 430.864C409.558 430.568 409.514 430.269 409.471 429.974L409.47 429.97C409.429 429.69 409.388 429.413 409.35 429.138V427.43V426.43H409.021C408.245 419.701 408.232 412.969 412.753 408.143C415.204 405.675 418.281 404.102 421.611 402.677C422.438 402.322 423.287 401.976 424.144 401.625C426.685 400.587 429.304 399.517 431.686 398.127L431.691 398.124C432.983 397.36 434.333 396.741 435.701 396.296C435.746 396.289 435.798 396.278 435.855 396.261C439.987 394.986 444.44 395.014 448.841 395.73L449.001 394.743L448.837 395.729L448.837 395.729C448.838 395.73 448.839 395.73 448.841 395.73L448.854 395.733L448.899 395.742C448.931 395.749 448.992 395.763 449.053 395.773C449.154 395.79 449.255 395.806 449.356 395.823C449.676 395.875 449.989 395.927 450.284 395.984L450.335 395.994L450.387 395.999C450.889 396.044 451.512 396.118 452.201 396.2C453.602 396.368 455.279 396.568 456.778 396.619C457.916 396.657 459.06 396.617 460.027 396.393C460.966 396.175 461.96 395.731 462.462 394.773L462.53 394.643C462.621 394.722 462.71 394.799 462.798 394.875C463.117 395.153 463.422 395.417 463.721 395.67C464.069 395.964 464.401 396.233 464.695 396.441C464.952 396.623 465.308 396.854 465.677 396.937L467.032 397.242L466.891 395.86C466.548 392.513 464.696 390.119 462.358 388.37C460.058 386.65 457.229 385.507 454.751 384.63C453.239 383.901 451.564 383.366 449.949 382.866C449.815 382.825 449.682 382.784 449.55 382.743C448.034 382.275 446.58 381.826 445.254 381.254C443.819 380.634 442.607 379.899 441.701 378.914C440.81 377.945 440.172 376.688 439.954 374.94L439.936 374.79L439.874 374.653L439.831 374.557C439.603 374.052 439.356 373.502 439.054 372.964L439.022 372.907L438.982 372.854L437.453 370.816L437.607 370.739L436.784 369.767C433.577 365.983 429.08 363.235 424.276 362.164C419.71 360.584 414.518 358.997 409.561 358.362L408.749 358.258L408.486 359.033C408.366 359.387 408.261 359.61 408.183 359.744C408.151 359.719 408.113 359.688 408.07 359.65C407.859 359.464 407.626 359.214 407.327 358.893L407.324 358.89L407.295 358.858C406.746 358.269 405.986 357.453 405.06 356.992C404.565 356.745 403.996 356.583 403.362 356.611C402.798 356.636 402.237 356.809 401.684 357.131C400.885 357.235 400.294 357.363 399.839 357.466L399.835 357.467C399.304 357.587 399.089 357.636 398.906 357.638C398.742 357.639 398.55 357.62 397.76 356.995ZM445.104 388.205C444.231 388.046 443.144 387.87 442.042 387.766L436.694 386.569L436.444 386.505L448.686 388.77C449.068 388.912 449.456 389.048 449.847 389.177C449.699 389.152 449.551 389.127 449.403 389.102C447.941 388.854 446.529 388.592 445.189 388.224L445.147 388.213L445.104 388.205ZM435.403 396.298C435.401 396.298 435.4 396.297 435.402 396.298L435.403 396.298ZM421.62 372.328C422.736 372.298 424.043 372.504 425.389 372.967C427.174 373.584 428.6 374.53 429.478 375.511C430.381 376.521 430.557 377.376 430.362 377.939C430.169 378.498 429.5 379.06 428.156 379.291C426.851 379.516 425.137 379.372 423.351 378.751C421.561 378.128 420.133 377.193 419.256 376.225C418.357 375.232 418.18 374.39 418.376 373.819C418.624 373.101 419.663 372.38 421.62 372.328Z" fill="#FF6600" stroke="white" stroke-width="2"/>
</g>
<defs>
<clipPath id="clip0_2:324">
<rect width="155" height="155" fill="white" transform="translate(340 344)"/>
</clipPath>
</defs>
</svg>
