<svg width="512" height="512" viewBox="0 0 512 512" fill="none" xmlns="http://www.w3.org/2000/svg">
<circle cx="256" cy="256" r="256" fill="white"/>
<g clip-path="url(#clip0_2:411)">
<path d="M400.975 234.085C400.303 236.945 398.851 239.478 396.372 241.071C392.478 243.568 387.733 242.844 384.37 239.804C381.218 236.981 380.156 232.203 381.148 228.077C382.174 223.77 385.432 219.969 389.61 218.775C398.922 216.132 402.781 226.484 400.975 234.085ZM395.275 204.695C389.504 202.342 391.486 171.395 396.762 133.825C398.249 123.328 400.798 118.369 403.666 115.836C407.773 112.252 415.244 112.108 420.307 112.868C426.114 113.736 431.673 116.487 435.886 120.65C439.604 124.342 440.029 128.106 438.754 132.992C436.665 140.774 433.089 148.23 429.655 155.506C428.84 157.279 421.724 171.069 420.768 172.771C403.595 203.681 400.161 206.685 395.275 204.695Z" fill="#6CC7D2"/>
<path d="M278.787 190.76C282.186 205.6 281.832 221.887 278.928 233.615C276.202 244.69 268.802 254.608 257.047 257.938C246.744 260.87 234.741 258.734 227.376 251.495C215.267 239.623 208.186 211.753 211.337 191.52C213.886 175.268 222.455 154.456 241.256 153.551C242.459 153.479 243.663 153.515 244.867 153.623C264.022 155.397 274.467 171.902 278.787 190.76ZM244.159 224.53C245.221 224.711 246.283 224.711 247.346 224.385C250.922 223.335 252.975 219.535 253.931 215.843C255.383 210.233 255.17 204.188 253.294 198.686C252.338 195.899 250.922 193.185 248.762 191.158C241.149 184.027 233.537 191.447 232.227 199.881C231.2 206.468 232.687 214.105 236.723 219.426C238.6 221.887 241.291 224.023 244.159 224.53Z" fill="#BBB5B3"/>
<path d="M320.248 222.213C320.213 249.613 322.904 270.57 311.113 273.067C301.553 275.058 301.872 266.48 301.129 259.277C298.296 231.371 295.711 185.005 294.614 156.953C295.393 144.9 303.288 137.517 311.503 135.707C324.178 132.92 337.704 133.716 348.928 140.81C371.128 154.854 372.898 180.625 359.443 201.654C352.079 213.128 329.808 221.453 320.248 220.729V222.213ZM323.081 160.79C321.7 161.007 319.434 161.659 318.797 163.034C317.274 166.255 317.38 186.706 320.036 195.284C320.461 196.696 321.417 198.035 322.797 198.542C327.825 200.424 332.357 194.126 334.411 190.325C337.279 185.041 338.199 178.815 336.394 173.024C334.694 167.631 329.419 159.813 323.081 160.79Z" fill="#99918D"/>
<path d="M193.28 174.399C184.959 192.388 171.15 206.685 152.031 213.743C157.519 228.403 163.113 242.881 168.566 257.503C171.611 265.394 174.514 274.045 171.859 281.827C169.097 289.789 158.333 291.997 150.508 283.528C135.46 267.167 84.5811 163.505 80.828 155.723C77.6414 149.027 72.8614 141.86 73.0031 134.114C73.2509 122.459 90.8835 110.66 99.3457 104.615C111.171 96.1817 124.838 90.4267 139.461 90.3905C150.862 90.3905 160.599 93.5756 169.238 99.2221C182.481 107.909 191.686 121.772 195.085 137.444C198.06 151.234 197.422 165.351 193.28 174.399ZM154.509 154.709C151.535 143.67 144.808 133.499 136.346 126.368C134.504 124.812 132.522 123.364 130.22 122.568C114.358 117.247 121.227 144.357 123.812 151.198C127.388 160.79 132.805 172.915 140.063 180.154C141.657 181.747 143.533 183.159 145.693 183.593C148.986 184.281 152.031 181.928 153.695 179.177C155.076 176.897 155.607 174.182 155.926 171.54C156.527 165.93 155.996 160.211 154.509 154.709Z" fill="#48B9C7"/>
<path d="M382.966 312.184C382.895 328.074 373.406 343.963 352.481 343.963C331.555 343.963 321.818 328.327 321.818 312.365C321.818 292.458 335.379 280.151 352.905 280.151C373.229 280.332 383.143 295.751 382.966 312.184ZM352.905 290.177C339.77 290.177 332.405 299.516 332.334 312.256C332.334 323.332 338.389 333.72 352.658 333.72C366.926 333.72 372.379 322.463 372.379 312.148C372.556 301.434 366.997 290.431 352.905 290.177ZM391.747 335.819C391.747 338.172 391.817 324.635 391.747 322.572H401.377L402.05 330.861C405.201 332.707 410.087 334.082 414.088 334.082C421.524 334.082 429.278 332.164 429.278 324.744C429.03 318.011 420.391 316.636 413.415 315.912C401.554 314.681 391.994 311.713 391.994 298.104C391.994 285.979 405.414 279.934 415.398 279.934C423.436 279.753 429.136 281.056 436.394 286.992C436.394 291.878 436.324 294.774 436.324 299.66H427.012L426.41 291.625C422.657 289.779 418.797 289.272 415.823 289.345C409.415 289.417 402.581 292.494 402.581 297.995C402.581 303.389 407.007 304.873 414.867 306.031C427.684 307.768 440.041 310.736 440.041 324.707C439.97 339.982 425.949 343.999 413.911 343.999C404.741 344.036 399.005 342.298 391.747 335.819Z" fill="#554741"/>
<path d="M308.824 338.751C308.824 341.538 306.629 343.782 303.903 343.782H247.004C244.278 343.782 242.083 341.538 242.083 338.751V338.317C242.083 335.53 244.278 333.286 247.004 333.286H303.903C306.629 333.286 308.824 335.53 308.824 338.317V338.751Z" fill="#FAA41A"/>
</g>
<g clip-path="url(#clip1_2:411)">
<path d="M425.371 382.145C430.387 382.145 434.453 378.553 434.453 374.122C434.453 369.691 430.387 366.1 425.371 366.1C420.355 366.1 416.289 369.691 416.289 374.122C416.289 378.553 420.355 382.145 425.371 382.145Z" fill="black"/>
<path d="M397.76 356.995L397.787 355.954L396.563 356.193L396.281 356.248L394.247 356.645L395.448 357.669C395.12 357.814 394.647 357.867 393.913 357.948L393.902 357.949C393.257 358.021 392.371 358.12 391.642 358.516C391.252 358.727 390.888 359.031 390.616 359.465C390.571 359.538 390.529 359.612 390.49 359.688C390.19 359.587 389.917 359.513 389.673 359.47C389.242 359.395 388.518 359.345 388.02 359.884C387.516 360.43 387.653 361.129 387.738 361.441C387.844 361.828 388.043 362.237 388.246 362.605C388.465 363 388.74 363.436 389.007 363.85L388.632 364.149C386.367 365.953 385.235 368.691 384.2 371.192L384.173 371.258C383.092 373.872 382.089 376.276 380.18 377.978L380.025 378.116L379.938 378.305C378.515 381.387 377.636 384.58 376.865 387.745C376.689 388.465 376.519 389.181 376.35 389.895C375.771 392.344 375.2 394.757 374.427 397.15L374.404 397.22L374.392 397.293C373.402 403.219 372.486 409.355 373.999 415.523C374.096 416.626 374.096 417.83 374.096 419.121L374.096 419.251C374.096 420.601 374.101 422.034 374.235 423.429C374.503 426.212 375.307 429.046 377.836 430.989C383.634 435.748 388.557 441.651 393.47 447.54C394.037 448.22 394.603 448.899 395.171 449.576C403.76 460.14 411.333 471.54 418.11 483.297L419.319 485.394C419.583 486.259 419.896 487.218 420.257 488.03C420.465 488.496 420.706 488.955 420.988 489.333C421.257 489.692 421.65 490.097 422.198 490.263L423.718 490.723L423.476 489.153C422.796 484.746 421.914 477.735 421.486 472.298L421.483 472.261L421.478 472.225C420.366 464.975 418.028 458.095 415.666 451.319C415.551 450.987 415.435 450.656 415.319 450.325C413.067 443.872 410.844 437.503 409.598 430.864C409.558 430.568 409.514 430.269 409.471 429.974L409.47 429.97C409.429 429.69 409.388 429.413 409.35 429.138V427.43V426.43H409.021C408.245 419.701 408.232 412.969 412.753 408.143C415.204 405.675 418.281 404.102 421.611 402.677C422.438 402.322 423.287 401.976 424.144 401.625C426.685 400.587 429.304 399.517 431.686 398.127L431.691 398.124C432.983 397.36 434.333 396.741 435.701 396.296C435.746 396.289 435.798 396.278 435.855 396.261C439.987 394.986 444.44 395.014 448.841 395.73L449.001 394.743L448.837 395.729L448.837 395.729C448.838 395.73 448.839 395.73 448.841 395.73L448.854 395.733L448.899 395.742C448.931 395.749 448.992 395.763 449.053 395.773C449.154 395.79 449.255 395.806 449.356 395.823C449.676 395.875 449.989 395.927 450.284 395.984L450.335 395.994L450.387 395.999C450.889 396.044 451.512 396.118 452.201 396.2C453.602 396.368 455.279 396.568 456.778 396.619C457.916 396.657 459.06 396.617 460.027 396.393C460.966 396.175 461.96 395.731 462.462 394.773L462.53 394.643C462.621 394.722 462.71 394.799 462.798 394.875C463.117 395.153 463.422 395.417 463.721 395.67C464.069 395.964 464.401 396.233 464.695 396.441C464.952 396.623 465.308 396.854 465.677 396.937L467.032 397.242L466.891 395.86C466.548 392.513 464.696 390.119 462.358 388.37C460.058 386.65 457.229 385.507 454.751 384.63C453.239 383.901 451.564 383.366 449.949 382.866C449.815 382.825 449.682 382.784 449.55 382.743C448.034 382.275 446.58 381.826 445.254 381.254C443.819 380.634 442.607 379.899 441.701 378.914C440.81 377.945 440.172 376.688 439.954 374.94L439.936 374.79L439.874 374.653L439.831 374.557C439.603 374.052 439.356 373.502 439.054 372.964L439.022 372.907L438.982 372.854L437.453 370.816L437.607 370.739L436.784 369.767C433.577 365.983 429.08 363.235 424.276 362.164C419.71 360.584 414.518 358.997 409.561 358.362L408.749 358.258L408.486 359.033C408.366 359.387 408.261 359.61 408.183 359.744C408.151 359.719 408.113 359.688 408.07 359.65C407.859 359.464 407.626 359.214 407.327 358.893L407.324 358.89L407.295 358.858C406.746 358.269 405.986 357.453 405.06 356.992C404.565 356.745 403.996 356.583 403.362 356.611C402.798 356.636 402.237 356.809 401.684 357.131C400.885 357.235 400.294 357.363 399.839 357.466L399.835 357.467C399.304 357.587 399.089 357.636 398.906 357.638C398.742 357.639 398.55 357.62 397.76 356.995ZM445.104 388.205C444.231 388.046 443.144 387.87 442.042 387.766L436.694 386.569L436.444 386.505L448.686 388.77C449.068 388.912 449.456 389.048 449.847 389.177C449.699 389.152 449.551 389.127 449.403 389.102C447.941 388.854 446.529 388.592 445.189 388.224L445.147 388.213L445.104 388.205ZM435.403 396.298C435.401 396.298 435.4 396.297 435.402 396.298L435.403 396.298ZM421.62 372.328C422.736 372.298 424.043 372.504 425.389 372.967C427.174 373.584 428.6 374.53 429.478 375.511C430.381 376.521 430.557 377.376 430.362 377.939C430.169 378.498 429.5 379.06 428.156 379.291C426.851 379.516 425.137 379.372 423.351 378.751C421.561 378.128 420.133 377.193 419.256 376.225C418.357 375.232 418.18 374.39 418.376 373.819C418.624 373.101 419.663 372.38 421.62 372.328Z" fill="#FF6600" stroke="white" stroke-width="2"/>
</g>
<defs>
<clipPath id="clip0_2:411">
<rect width="367" height="254" fill="white" transform="translate(73 90)"/>
</clipPath>
<clipPath id="clip1_2:411">
<rect width="155" height="155" fill="white" transform="translate(340 344)"/>
</clipPath>
</defs>
</svg>
