<svg width="512" height="512" viewBox="0 0 512 512" fill="none" xmlns="http://www.w3.org/2000/svg">
<circle cx="256" cy="256" r="256" fill="white"/>
<g clip-path="url(#clip0_2:411)">
<path d="M400.975 234.085C400.303 236.945 398.851 239.478 396.372 241.071C392.478 243.568 387.733 242.844 384.37 239.804C381.218 236.981 380.156 232.203 381.148 228.077C382.174 223.77 385.432 219.969 389.61 218.775C398.922 216.132 402.781 226.484 400.975 234.085V234.085ZM395.275 204.695C389.504 202.342 391.486 171.395 396.762 133.825C398.249 123.328 400.798 118.369 403.666 115.836C407.773 112.252 415.244 112.108 420.307 112.868C426.114 113.736 431.673 116.487 435.886 120.65C439.604 124.342 440.029 128.106 438.754 132.992C436.665 140.774 433.089 148.23 429.655 155.506C428.84 157.279 421.724 171.069 420.768 172.771C403.595 203.681 400.161 206.685 395.275 204.695Z" fill="#6CC7D2"/>
<path d="M278.787 190.76C282.186 205.6 281.832 221.887 278.928 233.615C276.202 244.69 268.802 254.608 257.047 257.938C246.744 260.87 234.741 258.734 227.376 251.495C215.267 239.623 208.186 211.753 211.337 191.52C213.886 175.268 222.455 154.456 241.256 153.551C242.459 153.479 243.663 153.515 244.867 153.623C264.022 155.397 274.467 171.902 278.787 190.76ZM244.159 224.53C245.221 224.711 246.283 224.711 247.346 224.385C250.922 223.335 252.975 219.535 253.931 215.843C255.383 210.233 255.17 204.188 253.294 198.686C252.338 195.899 250.922 193.185 248.762 191.158C241.149 184.027 233.537 191.447 232.227 199.881C231.2 206.468 232.687 214.105 236.723 219.426C238.6 221.887 241.291 224.023 244.159 224.53Z" fill="#BBB5B3"/>
<path d="M320.248 222.213C320.213 249.613 322.904 270.57 311.113 273.067C301.553 275.058 301.872 266.48 301.129 259.277C298.296 231.371 295.711 185.005 294.614 156.953C295.393 144.9 303.288 137.517 311.503 135.707C324.178 132.92 337.704 133.716 348.928 140.81C371.128 154.854 372.898 180.625 359.443 201.654C352.079 213.128 329.808 221.453 320.248 220.729V222.213ZM323.081 160.79C321.7 161.007 319.434 161.659 318.797 163.034C317.274 166.255 317.38 186.706 320.036 195.284C320.461 196.696 321.417 198.035 322.797 198.542C327.825 200.424 332.357 194.126 334.411 190.325C337.279 185.041 338.199 178.815 336.394 173.024C334.694 167.631 329.419 159.813 323.081 160.79Z" fill="#99918D"/>
<path d="M193.28 174.399C184.959 192.388 171.15 206.685 152.031 213.743C157.519 228.403 163.113 242.881 168.566 257.503C171.611 265.394 174.514 274.045 171.859 281.827C169.097 289.789 158.333 291.997 150.508 283.528C135.46 267.167 84.5811 163.505 80.828 155.723C77.6414 149.027 72.8614 141.86 73.0031 134.114C73.2509 122.459 90.8835 110.66 99.3457 104.615C111.171 96.1817 124.838 90.4267 139.461 90.3905C150.862 90.3905 160.599 93.5756 169.238 99.2221C182.481 107.909 191.686 121.772 195.085 137.444C198.06 151.234 197.422 165.351 193.28 174.399V174.399ZM154.509 154.709C151.535 143.67 144.808 133.499 136.346 126.368C134.504 124.812 132.522 123.364 130.22 122.568C114.358 117.247 121.227 144.357 123.812 151.198C127.388 160.79 132.805 172.915 140.063 180.154C141.657 181.747 143.533 183.159 145.693 183.593C148.986 184.281 152.031 181.928 153.695 179.177C155.076 176.897 155.607 174.182 155.926 171.54C156.527 165.93 155.996 160.211 154.509 154.709V154.709Z" fill="#48B9C7"/>
<path d="M382.966 312.184C382.895 328.074 373.406 343.963 352.481 343.963C331.555 343.963 321.818 328.327 321.818 312.365C321.818 292.458 335.379 280.151 352.905 280.151C373.229 280.332 383.143 295.751 382.966 312.184ZM352.905 290.177C339.77 290.177 332.405 299.516 332.334 312.256C332.334 323.332 338.389 333.72 352.658 333.72C366.926 333.72 372.379 322.463 372.379 312.148C372.556 301.434 366.997 290.431 352.905 290.177ZM391.747 335.819C391.747 338.172 391.817 324.635 391.747 322.572H401.377L402.05 330.861C405.201 332.707 410.087 334.082 414.088 334.082C421.524 334.082 429.278 332.164 429.278 324.744C429.03 318.011 420.391 316.636 413.415 315.912C401.554 314.681 391.994 311.713 391.994 298.104C391.994 285.979 405.414 279.934 415.398 279.934C423.436 279.753 429.136 281.056 436.394 286.992C436.394 291.878 436.324 294.774 436.324 299.66H427.012L426.41 291.625C422.657 289.779 418.797 289.272 415.823 289.345C409.415 289.417 402.581 292.494 402.581 297.995C402.581 303.389 407.007 304.873 414.867 306.031C427.684 307.768 440.041 310.736 440.041 324.707C439.97 339.982 425.949 343.999 413.911 343.999C404.741 344.036 399.005 342.298 391.747 335.819V335.819Z" fill="#554741"/>
<path d="M308.824 338.751C308.824 341.538 306.629 343.782 303.903 343.782H247.004C244.278 343.782 242.083 341.538 242.083 338.751V338.317C242.083 335.53 244.278 333.286 247.004 333.286H303.903C306.629 333.286 308.824 335.53 308.824 338.317V338.751Z" fill="#FAA41A"/>
</g>
<g clip-path="url(#clip1_2:411)">
<path d="M417.569 344.547C374.691 344.547 340 379.099 340 421.7C340 464.3 374.691 498.853 417.569 498.853C431.585 498.853 444.628 495.176 456.007 488.709L460.045 498.853H491.267L479.042 468.602C489.061 455.614 495 439.323 495 421.7C495 379.099 460.309 344.547 417.569 344.547V344.547Z" fill="url(#paint0_radial_2:411)"/>
<path d="M416.876 432.071C445.362 432.071 468.454 412.356 468.454 388.035C468.454 363.715 445.362 344 416.876 344C388.389 344 365.297 363.715 365.297 388.035C365.297 412.356 388.389 432.071 416.876 432.071Z" fill="url(#paint1_linear_2:411)"/>
<path d="M425.437 384.33C430.472 384.33 434.554 380.249 434.554 375.214C434.554 370.179 430.472 366.097 425.437 366.097C420.402 366.097 416.32 370.179 416.32 375.214C416.32 380.249 420.402 384.33 425.437 384.33Z" fill="black"/>
<path d="M459.986 388.225L408.332 380.764L406.882 388.258L458.536 395.719L459.986 388.225Z" fill="black"/>
<path d="M464.152 390.478H455.036V394.502H464.152V390.478Z" fill="black"/>
<path d="M396.755 357.174C396.676 360.213 391.385 357.567 391.163 361.032C385.307 358.423 391.619 365.014 391.033 365.625H390.989L390.556 365.582C390.273 365.481 389.863 365.306 389.255 364.931C385.161 368.192 385.064 374.964 380.846 378.724C378.084 384.705 377.404 391.185 375.378 397.457C374.382 403.424 373.505 409.391 374.988 415.358C375.434 420.215 374.032 426.82 378.457 430.206C385.021 435.59 390.475 442.417 395.942 448.939C404.573 459.554 412.177 471.003 418.977 482.798C419.426 479.856 420.517 488.709 422.487 489.306C421.805 484.879 420.919 477.844 420.489 472.376C418.297 458.084 411.261 445.178 408.611 431.024C408.53 430.428 408.433 429.814 408.35 429.207V427.43H408.134C407.265 420.437 406.954 412.86 412.033 407.448C417.223 402.217 424.952 400.899 431.182 397.263C432.57 396.443 434.027 395.778 435.512 395.306C435.524 395.302 435.544 395.311 435.555 395.306C439.885 393.97 444.506 394.012 449.002 394.743C449.068 394.754 449.151 394.775 449.218 394.786C449.627 394.855 450.07 394.924 450.475 395.003C453.764 395.296 460.383 396.585 461.576 394.309C457.039 390.438 450.489 390.715 444.925 389.189C444.049 389.029 442.968 388.856 441.886 388.756L436.46 387.541L435.115 387.195V387.238L415.688 383.463C415.38 383.183 415.044 382.896 414.734 382.684L433.606 385.029V384.942C434.272 385.09 434.932 385.211 435.604 385.289V385.332L448.953 387.802C451.256 388.663 453.713 389.301 456.016 389.454C459.818 390.007 464.661 395.684 465.896 395.962C465.284 389.981 459.319 387.303 454.365 385.554C448.578 382.737 439.933 382.848 438.962 375.064C438.718 374.521 438.478 373.98 438.182 373.454L435.934 370.457L436.021 370.413C432.94 366.778 428.611 364.141 424.004 363.128C419.438 361.546 414.304 359.978 409.433 359.354C407.796 364.183 405.964 355.524 402.023 358.097C398.568 358.506 399.04 359.419 396.473 357.229L396.755 357.174ZM421.594 371.328C422.845 371.295 424.272 371.525 425.715 372.022C429.545 373.346 432.043 376.143 431.307 378.266C430.572 380.39 426.853 381.028 423.023 379.696C419.193 378.364 416.695 375.63 417.431 373.493C417.89 372.162 419.512 371.384 421.594 371.328Z" fill="#FF6600"/>
</g>
<defs>
<radialGradient id="paint0_radial_2:411" cx="0" cy="0" r="1" gradientUnits="userSpaceOnUse" gradientTransform="translate(408.382 405.398) rotate(57.1766) scale(139.383 77.1999)">
<stop/>
<stop offset="1" stop-opacity="0.897"/>
</radialGradient>
<linearGradient id="paint1_linear_2:411" x1="418.333" y1="345.074" x2="418.333" y2="429.207" gradientUnits="userSpaceOnUse">
<stop stop-color="white"/>
<stop offset="1" stop-color="white" stop-opacity="0"/>
</linearGradient>
<clipPath id="clip0_2:411">
<rect width="367" height="254" fill="white" transform="translate(73 90)"/>
</clipPath>
<clipPath id="clip1_2:411">
<rect width="155" height="155" fill="white" transform="translate(340 344)"/>
</clipPath>
</defs>
</svg>
