<?xml version="1.0" encoding="UTF-8"?>
<svg inkscape:version="1.0.2 (e86c870879, 2021-01-15, custom)" sodipodi:docname="Kew the Angry Emu.svg" version="1.1" viewBox="0 0 352 112" xmlns="http://www.w3.org/2000/svg" xmlns:cc="http://creativecommons.org/ns#" xmlns:dc="http://purl.org/dc/elements/1.1/" xmlns:inkscape="http://www.inkscape.org/namespaces/inkscape" xmlns:rdf="http://www.w3.org/1999/02/22-rdf-syntax-ns#" xmlns:sodipodi="http://sodipodi.sourceforge.net/DTD/sodipodi-0.dtd" xmlns:xlink="http://www.w3.org/1999/xlink">
 <title>Kew the Angry Emu</title>
 <defs>
  <linearGradient id="cvfb" x1="143" x2="143" y1="832" y2="879" gradientUnits="userSpaceOnUse" inkscape:collect="always">
   <stop style="stop-color:#fff" offset="0"/>
   <stop style="stop-color:#fff;stop-opacity:0" offset="1"/>
  </linearGradient>
  <radialGradient id="cvfa" cx="117" cy="98.3" r="55.9" gradientTransform="matrix(.974 1.51 -.836 .54 79.6 -130)" gradientUnits="userSpaceOnUse" inkscape:collect="always">
   <stop offset="0"/>
   <stop style="stop-opacity:.897" offset="1"/>
  </radialGradient>
 </defs>
 <metadata>
  <rdf:RDF>
   <cc:Work rdf:about="">
    <dc:format>image/svg+xml</dc:format>
    <dc:type rdf:resource="http://purl.org/dc/dcmitype/StillImage"/>
    <dc:title>Kew the Angry Emu</dc:title>
    <dc:creator>
     <cc:Agent>
      <dc:title>Benoît Canet</dc:title>
     </cc:Agent>
    </dc:creator>
    <dc:rights>
     <cc:Agent>
      <dc:title>CC BY 3.0</dc:title>
     </cc:Agent>
    </dc:rights>
    <dc:publisher>
     <cc:Agent>
      <dc:title>QEMU Community</dc:title>
     </cc:Agent>
    </dc:publisher>
    <dc:date>2012-02-15</dc:date>
    <cc:license rdf:resource="http://creativecommons.org/licenses/by/3.0/"/>
    <dc:subject>
     <rdf:Bag>
      <rdf:li>QEMU logo</rdf:li>
      <rdf:li>QEMU mascot</rdf:li>
     </rdf:Bag>
    </dc:subject>
    <dc:source>http://lists.gnu.org/archive/html/qemu-devel/2012-02/msg01961.html</dc:source>
   </cc:Work>
   <cc:License rdf:about="http://creativecommons.org/licenses/by/3.0/">
    <cc:permits rdf:resource="http://creativecommons.org/ns#Reproduction"/>
    <cc:permits rdf:resource="http://creativecommons.org/ns#Distribution"/>
    <cc:requires rdf:resource="http://creativecommons.org/ns#Notice"/>
    <cc:requires rdf:resource="http://creativecommons.org/ns#Attribution"/>
    <cc:permits rdf:resource="http://creativecommons.org/ns#DerivativeWorks"/>
   </cc:License>
  </rdf:RDF>
 </metadata>
 <g transform="translate(-62.3 -55.9)" inkscape:groupmode="layer" inkscape:label="Layer 1">
  <path d="m118 55.9c-30.9 0-55.9 24.9-55.9 55.6 0 30.7 25 55.6 55.9 55.6 10.1 0 19.5-2.65 27.7-7.31l2.91 7.31h22.5l-8.81-21.8c7.22-9.36 11.5-21.1 11.5-33.8 0-30.7-25-55.6-55.8-55.6z" style="fill:url(#cvfa)" inkscape:connector-curvature="0"/>
  <ellipse transform="matrix(1.05 0 0 1.29 -31.6 -1017)" cx="142" cy="856" rx="35.4" ry="24.6" style="fill:url(#cvfb)"/>
  <circle transform="translate(7.67 -778)" cx="116" cy="856" r="6.57"/>
  <rect transform="matrix(.99 .143 -.19 .982 0 0)" x="125" y="65.3" width="37.6" height="5.5"/>
  <rect x="145" y="89" width="6.57" height="2.9"/>
  <path d="m103 65c-0.057 2.19-3.87 0.283-4.03 2.78-4.22-1.88 0.329 2.87-0.0937 3.31h-0.0312l-0.312-0.0312c-0.204-0.0728-0.5-0.199-0.938-0.469-2.95 2.35-3.02 7.23-6.06 9.94-1.99 4.31-2.48 8.98-3.94 13.5-0.718 4.3-1.35 8.6-0.281 12.9 0.321 3.5-0.689 8.26 2.5 10.7 4.73 3.88 8.66 8.8 12.6 13.5 6.22 7.65 11.7 15.9 16.6 24.4 0.324-2.12 1.11 4.26 2.53 4.69-0.492-3.19-1.13-8.26-1.44-12.2-1.58-10.3-6.65-19.6-8.56-29.8-0.0587-0.43-0.128-0.872-0.188-1.31v-1.28h-0.156c-0.626-5.04-0.85-10.5 2.81-14.4 3.74-3.77 9.31-4.72 13.8-7.34 1-0.591 2.05-1.07 3.12-1.41 9e-3 -3e-3 0.0228 3e-3 0.0312 0 3.12-0.963 6.45-0.933 9.69-0.406 0.0479 8e-3 0.108 0.0233 0.156 0.0312 0.295 0.0493 0.614 0.099 0.906 0.156 2.37 0.211 7.14 1.14 8-0.5-3.27-2.79-7.99-2.59-12-3.69-0.631-0.115-1.41-0.24-2.19-0.312l-3.91-0.875-0.969-0.25v0.0312l-14-2.72c-0.222-0.202-0.464-0.409-0.688-0.562l13.6 1.69v-0.0625c0.48 0.107 0.956 0.194 1.44 0.25v0.0312l9.62 1.78c1.66 0.62 3.43 1.08 5.09 1.19 2.74 0.399 6.23 4.49 7.12 4.69-0.441-4.31-4.74-6.24-8.31-7.5-4.17-2.03-10.4-1.95-11.1-7.56-0.176-0.391-0.349-0.781-0.562-1.16l-1.62-2.16 0.0625-0.0312c-2.22-2.62-5.34-4.52-8.66-5.25-3.29-1.14-6.99-2.27-10.5-2.72-1.18 3.48-2.5-2.76-5.34-0.906-2.49 0.295-2.15 0.953-4-0.625zm17.9 10.2c0.902-0.0238 1.93 0.142 2.97 0.5 2.76 0.954 4.56 2.97 4.03 4.5s-3.21 1.99-5.97 1.03-4.56-2.93-4.03-4.47c0.331-0.959 1.5-1.52 3-1.56z" style="fill:#f60" inkscape:connector-curvature="0"/>
  <text x="184.89412" y="166.37402" style="fill:#000000;font-family:sans-serif;font-weight:bold;letter-spacing:0px;line-height:0%;word-spacing:0px" xml:space="preserve"><tspan x="184.89412" y="166.37402" style="fill:#000000;font-family:sans-serif;font-size:95.5px;line-height:1.25" sodipodi:role="line">EMU</tspan></text>
 </g>
</svg>
