<svg width="512" height="512" viewBox="0 0 512 512" fill="none" xmlns="http://www.w3.org/2000/svg">
<circle cx="256" cy="256" r="256" fill="white"/>
<path fill-rule="evenodd" clip-rule="evenodd" d="M248.81 0.0703967C110.489 3.37588 0.108937 116.526 8.63529e-05 255.124C-0.144589 436.778 181.527 560.415 350.496 493.656C468.098 447.191 534.117 319.986 504.756 196.428C502.982 188.961 501.666 184.246 498.912 175.484C482.012 121.731 441.252 69.9361 391.266 38.6945C385.347 34.995 382.367 33.3264 370.22 26.9083C336.412 9.04714 291.216 -0.943707 248.81 0.0703967ZM317.978 80.5773C333.797 89.9302 335.525 90.9512 364.825 108.246C389.273 122.678 393.227 125.015 395.591 126.43C398.31 128.057 399.904 126.877 375.848 141.038C352.368 154.859 319.181 174.415 308.315 180.833C304.212 183.255 300.306 185.533 299.635 185.893L298.412 186.546V127.776V69.0046L300.479 70.2296C301.616 70.9033 309.49 75.5591 317.978 80.5773ZM269.934 100.037C278.066 100.777 277.453 99.8356 277.453 111.552C277.453 123.717 278.248 122.776 268.892 121.684C213.207 115.189 157.397 147.011 132.892 199.229L130.037 205.312L125.078 202.337C122.35 200.7 118.32 198.319 116.122 197.044C111.321 194.259 111.364 194.821 115.354 186.711C122.658 171.871 138.693 149.79 146.736 143.493C147.556 142.852 149.59 141.036 151.257 139.46C181.027 111.298 226.754 96.1085 269.934 100.037ZM270.58 153.699C273.308 154.174 275.85 154.674 276.229 154.811C276.748 154.997 276.918 157.724 276.918 165.89V176.724L275.127 176.356C232.886 167.681 192.732 189.267 179.071 227.996C177.158 233.416 177.589 233.305 171.849 229.878C169.163 228.274 165.051 225.859 162.713 224.51C157.848 221.703 157.965 221.995 159.85 217.356C177.737 173.333 225.547 145.848 270.58 153.699ZM384.033 166.253C416.972 212.496 421.43 275.045 395.434 326.209C389.016 338.842 381.18 350.563 379.567 349.944C374.841 348.131 361.817 339.496 362.462 338.603C382.653 310.666 390.205 287.975 390.156 255.4C390.11 225.521 378.98 191.54 363.846 175.074C362.425 173.528 361.941 173.956 371.887 167.942C381.904 161.883 381.01 162.007 384.033 166.253ZM336.556 191.881C338.665 194.125 343.632 201.633 346.516 206.931C365.641 242.071 362.491 285.382 338.478 317.444L334.178 323.186L332.373 322.223C327.073 319.397 315.512 312.381 315.506 311.987C315.502 311.735 316.952 309.751 318.728 307.578C343.313 277.486 343.427 233.339 318.995 204.331C315.855 200.603 315.389 201.258 325.281 195.471C335.137 189.704 334.656 189.857 336.556 191.881ZM86.1204 203.948C92.0879 207.477 100.194 212.278 104.134 214.617C108.075 216.955 115.64 221.415 120.944 224.528C126.249 227.64 131.705 230.87 133.069 231.704C134.434 232.537 140.386 236.067 146.297 239.549C170.064 253.545 173.303 255.505 173.303 255.875C173.303 256.087 171.009 257.609 168.205 259.255C165.401 260.903 160.751 263.646 157.871 265.354C148.405 270.964 131.38 281.001 116.811 289.56C108.929 294.191 101.365 298.659 100.001 299.49C93.6366 303.37 75.6955 313.878 74.9418 314.166C74.0558 314.506 73.5805 198.781 74.4651 197.898C75.0162 197.345 74.5367 197.096 86.1204 203.948ZM178.24 281.441C189.643 319.508 233.996 344.914 272.784 335.598C274.603 335.161 276.277 334.795 276.505 334.784C277.51 334.737 276.966 356.721 275.953 357.035C269.641 358.989 251.765 359.576 241.632 358.162C205.182 353.079 173.417 328.392 160.06 294.768C157.936 289.421 157.262 290.363 167.527 284.324C177.77 278.299 177.333 278.417 178.24 281.441ZM132.748 312.177C157.221 366.002 214.509 397.307 274.3 389.526L276.918 389.186V399.968C276.918 409.757 276.83 410.774 275.953 411.039C275.423 411.197 271.269 411.617 266.722 411.97C204.499 416.797 143.649 381.977 115.578 325.481C111.196 316.661 110.708 317.857 121.22 311.615C131.014 305.801 129.823 305.743 132.748 312.177ZM325.694 343.047C338.729 350.712 352.617 358.892 356.558 361.226C360.499 363.56 367.939 367.952 373.092 370.986C378.246 374.02 385.748 378.439 389.765 380.806C396.808 384.959 398.028 386.086 396.223 386.779C395.758 386.956 390.488 389.996 384.511 393.532C378.534 397.069 367.567 403.55 360.141 407.936C352.714 412.321 341.925 418.697 336.166 422.104C330.406 425.51 321.354 430.854 316.049 433.977C310.744 437.099 304.807 440.607 302.856 441.773C300.905 442.937 299.107 443.891 298.86 443.891C298.614 443.891 298.412 417.581 298.412 385.424V326.959L300.204 328.035C301.189 328.626 312.66 335.382 325.694 343.047Z" fill="#84A454"/>
<g clip-path="url(#clip0_2:483)">
<path d="M417.569 344.547C374.691 344.547 340 379.099 340 421.7C340 464.3 374.691 498.853 417.569 498.853C431.585 498.853 444.628 495.176 456.007 488.709L460.045 498.853H491.267L479.042 468.602C489.061 455.614 495 439.323 495 421.7C495 379.099 460.309 344.547 417.569 344.547V344.547Z" fill="url(#paint0_radial_2:483)"/>
<path d="M416.876 432.071C445.362 432.071 468.454 412.356 468.454 388.035C468.454 363.715 445.362 344 416.876 344C388.389 344 365.297 363.715 365.297 388.035C365.297 412.356 388.389 432.071 416.876 432.071Z" fill="url(#paint1_linear_2:483)"/>
<path d="M425.437 384.33C430.472 384.33 434.554 380.249 434.554 375.214C434.554 370.179 430.472 366.097 425.437 366.097C420.402 366.097 416.32 370.179 416.32 375.214C416.32 380.249 420.402 384.33 425.437 384.33Z" fill="black"/>
<path d="M459.986 388.225L408.332 380.764L406.882 388.258L458.536 395.719L459.986 388.225Z" fill="black"/>
<path d="M464.152 390.478H455.036V394.502H464.152V390.478Z" fill="black"/>
<path d="M396.755 357.174C396.676 360.213 391.385 357.567 391.163 361.032C385.307 358.423 391.619 365.014 391.033 365.625H390.989L390.556 365.582C390.273 365.481 389.863 365.306 389.255 364.931C385.161 368.192 385.064 374.964 380.846 378.724C378.084 384.705 377.404 391.185 375.378 397.457C374.382 403.424 373.505 409.391 374.988 415.358C375.434 420.215 374.032 426.82 378.457 430.206C385.021 435.59 390.475 442.417 395.942 448.939C404.573 459.554 412.177 471.003 418.977 482.798C419.426 479.856 420.517 488.709 422.487 489.306C421.805 484.879 420.919 477.844 420.489 472.376C418.297 458.084 411.261 445.178 408.611 431.024C408.53 430.428 408.433 429.814 408.35 429.207V427.43H408.134C407.265 420.437 406.954 412.86 412.033 407.448C417.223 402.217 424.952 400.899 431.182 397.263C432.57 396.443 434.027 395.778 435.512 395.306C435.524 395.302 435.544 395.311 435.555 395.306C439.885 393.97 444.506 394.012 449.002 394.743C449.068 394.754 449.151 394.775 449.218 394.786C449.627 394.855 450.07 394.924 450.475 395.003C453.764 395.296 460.383 396.585 461.576 394.309C457.039 390.438 450.489 390.715 444.925 389.189C444.049 389.029 442.968 388.856 441.886 388.756L436.46 387.541L435.115 387.195V387.238L415.688 383.463C415.38 383.183 415.044 382.896 414.734 382.684L433.606 385.029V384.942C434.272 385.09 434.932 385.211 435.604 385.289V385.332L448.953 387.802C451.256 388.663 453.713 389.301 456.016 389.454C459.818 390.007 464.661 395.684 465.896 395.962C465.284 389.981 459.319 387.303 454.365 385.554C448.578 382.737 439.933 382.848 438.962 375.064C438.718 374.521 438.478 373.98 438.182 373.454L435.934 370.457L436.021 370.413C432.94 366.778 428.611 364.141 424.004 363.128C419.438 361.546 414.304 359.978 409.433 359.354C407.796 364.183 405.964 355.524 402.023 358.097C398.568 358.506 399.04 359.419 396.473 357.229L396.755 357.174ZM421.594 371.328C422.845 371.295 424.272 371.525 425.715 372.022C429.545 373.346 432.043 376.143 431.307 378.266C430.572 380.39 426.853 381.028 423.023 379.696C419.193 378.364 416.695 375.63 417.431 373.493C417.89 372.162 419.512 371.384 421.594 371.328Z" fill="#FF6600"/>
</g>
<defs>
<radialGradient id="paint0_radial_2:483" cx="0" cy="0" r="1" gradientUnits="userSpaceOnUse" gradientTransform="translate(408.382 405.398) rotate(57.1766) scale(139.383 77.1999)">
<stop/>
<stop offset="1" stop-opacity="0.897"/>
</radialGradient>
<linearGradient id="paint1_linear_2:483" x1="418.333" y1="345.074" x2="418.333" y2="429.207" gradientUnits="userSpaceOnUse">
<stop stop-color="white"/>
<stop offset="1" stop-color="white" stop-opacity="0"/>
</linearGradient>
<clipPath id="clip0_2:483">
<rect width="155" height="155" fill="white" transform="translate(340 344)"/>
</clipPath>
</defs>
</svg>
