<svg width="512" height="512" viewBox="0 0 512 512" fill="none" xmlns="http://www.w3.org/2000/svg">
<circle cx="256" cy="256" r="256" fill="white"/>
<path fill-rule="evenodd" clip-rule="evenodd" d="M248.81 0.0703967C110.489 3.37588 0.108937 116.526 8.63529e-05 255.124C-0.144589 436.778 181.527 560.415 350.496 493.656C468.098 447.191 534.117 319.986 504.756 196.428C502.982 188.961 501.666 184.246 498.912 175.484C482.012 121.731 441.252 69.9361 391.266 38.6945C385.347 34.995 382.367 33.3264 370.22 26.9083C336.412 9.04714 291.216 -0.943707 248.81 0.0703967ZM317.978 80.5773C333.797 89.9302 335.525 90.9512 364.825 108.246C389.273 122.678 393.227 125.015 395.591 126.43C398.31 128.057 399.904 126.877 375.848 141.038C352.368 154.859 319.181 174.415 308.315 180.833C304.212 183.255 300.306 185.533 299.635 185.893L298.413 186.546V127.776V69.0046L300.479 70.2296C301.616 70.9033 309.49 75.5591 317.978 80.5773ZM269.934 100.037C278.066 100.777 277.453 99.8356 277.453 111.552C277.453 123.717 278.248 122.776 268.892 121.684C213.207 115.189 157.397 147.011 132.892 199.229L130.037 205.312L125.078 202.337C122.35 200.7 118.32 198.319 116.122 197.044C111.321 194.259 111.364 194.821 115.354 186.711C122.658 171.871 138.693 149.79 146.736 143.493C147.556 142.852 149.59 141.036 151.257 139.46C181.027 111.298 226.754 96.1085 269.934 100.037ZM270.58 153.699C273.308 154.174 275.85 154.674 276.229 154.811C276.748 154.997 276.918 157.724 276.918 165.89V176.724L275.127 176.356C232.886 167.681 192.732 189.267 179.071 227.996C177.158 233.416 177.589 233.305 171.849 229.878C169.163 228.274 165.051 225.859 162.713 224.51C157.848 221.703 157.965 221.995 159.85 217.356C177.737 173.333 225.547 145.848 270.58 153.699ZM384.033 166.253C416.972 212.496 421.43 275.045 395.434 326.209C389.016 338.842 381.18 350.563 379.567 349.944C374.841 348.131 361.817 339.496 362.462 338.603C382.653 310.666 390.205 287.975 390.156 255.4C390.11 225.521 378.98 191.54 363.846 175.074C362.425 173.528 361.941 173.956 371.887 167.942C381.904 161.883 381.01 162.007 384.033 166.253ZM336.556 191.881C338.665 194.125 343.632 201.633 346.516 206.931C365.641 242.071 362.491 285.382 338.478 317.444L334.178 323.186L332.373 322.223C327.073 319.397 315.512 312.381 315.506 311.987C315.502 311.735 316.952 309.751 318.728 307.578C343.313 277.486 343.427 233.339 318.995 204.331C315.855 200.603 315.389 201.258 325.281 195.471C335.137 189.704 334.656 189.857 336.556 191.881ZM86.1204 203.948C92.0879 207.477 100.194 212.278 104.134 214.617C108.075 216.955 115.64 221.415 120.944 224.528C126.249 227.64 131.705 230.87 133.07 231.704C134.434 232.537 140.386 236.067 146.297 239.549C170.064 253.545 173.303 255.505 173.303 255.875C173.303 256.087 171.009 257.609 168.205 259.255C165.401 260.903 160.751 263.646 157.871 265.354C148.405 270.964 131.38 281.001 116.811 289.56C108.929 294.191 101.365 298.659 100.001 299.49C93.6366 303.37 75.6955 313.878 74.9418 314.166C74.0558 314.506 73.5805 198.781 74.4651 197.898C75.0162 197.345 74.5367 197.096 86.1204 203.948ZM178.24 281.441C189.643 319.508 233.996 344.914 272.784 335.598C274.603 335.161 276.277 334.795 276.505 334.784C277.51 334.737 276.966 356.721 275.953 357.035C269.641 358.989 251.765 359.576 241.632 358.162C205.182 353.079 173.417 328.392 160.06 294.768C157.936 289.421 157.262 290.363 167.527 284.324C177.77 278.299 177.333 278.417 178.24 281.441ZM132.748 312.177C157.221 366.002 214.509 397.307 274.3 389.526L276.918 389.186V399.968C276.918 409.757 276.83 410.774 275.953 411.039C275.423 411.197 271.269 411.617 266.722 411.97C204.499 416.797 143.649 381.977 115.578 325.481C111.196 316.661 110.708 317.857 121.22 311.615C131.014 305.801 129.823 305.743 132.748 312.177ZM325.694 343.047C338.729 350.712 352.617 358.892 356.558 361.226C360.499 363.56 367.939 367.952 373.092 370.986C378.246 374.02 385.748 378.439 389.765 380.806C396.808 384.959 398.028 386.086 396.223 386.779C395.758 386.956 390.488 389.996 384.511 393.532C378.534 397.069 367.567 403.55 360.141 407.936C352.714 412.321 341.925 418.697 336.166 422.104C330.406 425.51 321.354 430.854 316.049 433.977C310.744 437.099 304.807 440.607 302.856 441.773C300.905 442.937 299.107 443.891 298.86 443.891C298.614 443.891 298.413 417.581 298.413 385.424V326.959L300.204 328.035C301.189 328.626 312.66 335.382 325.694 343.047Z" fill="#84A454"/>
<g clip-path="url(#clip0_2:483)">
<path d="M425.371 382.145C430.387 382.145 434.453 378.553 434.453 374.122C434.453 369.691 430.387 366.1 425.371 366.1C420.355 366.1 416.289 369.691 416.289 374.122C416.289 378.553 420.355 382.145 425.371 382.145Z" fill="black"/>
<path d="M397.76 356.995L397.787 355.954L396.563 356.193L396.281 356.248L394.247 356.645L395.448 357.669C395.12 357.814 394.647 357.867 393.913 357.948L393.902 357.949C393.257 358.021 392.371 358.12 391.642 358.516C391.252 358.727 390.888 359.031 390.616 359.465C390.571 359.538 390.529 359.612 390.49 359.688C390.19 359.587 389.917 359.513 389.673 359.47C389.242 359.395 388.518 359.345 388.02 359.884C387.516 360.43 387.653 361.129 387.738 361.441C387.844 361.828 388.043 362.237 388.246 362.605C388.465 363 388.74 363.436 389.007 363.85L388.632 364.149C386.367 365.953 385.235 368.691 384.2 371.192L384.173 371.258C383.092 373.872 382.089 376.276 380.18 377.978L380.025 378.116L379.938 378.305C378.515 381.387 377.636 384.58 376.865 387.745C376.689 388.465 376.519 389.181 376.35 389.895C375.771 392.344 375.2 394.757 374.427 397.15L374.404 397.22L374.392 397.293C373.402 403.219 372.486 409.355 373.999 415.523C374.096 416.626 374.096 417.83 374.096 419.121L374.096 419.251C374.096 420.601 374.101 422.034 374.235 423.429C374.503 426.212 375.307 429.046 377.836 430.989C383.634 435.748 388.557 441.651 393.47 447.54C394.037 448.22 394.603 448.899 395.171 449.576C403.76 460.14 411.333 471.54 418.11 483.297L419.319 485.394C419.583 486.259 419.896 487.218 420.257 488.03C420.465 488.496 420.706 488.955 420.988 489.333C421.257 489.692 421.65 490.097 422.198 490.263L423.718 490.723L423.476 489.153C422.796 484.746 421.914 477.735 421.486 472.298L421.483 472.261L421.478 472.225C420.366 464.975 418.028 458.095 415.666 451.319C415.551 450.987 415.435 450.656 415.319 450.325C413.067 443.872 410.844 437.503 409.598 430.864C409.558 430.568 409.514 430.269 409.471 429.974L409.47 429.97C409.429 429.69 409.388 429.413 409.35 429.138V427.43V426.43H409.021C408.245 419.701 408.232 412.969 412.753 408.143C415.204 405.675 418.281 404.102 421.611 402.677C422.438 402.322 423.287 401.976 424.144 401.625C426.685 400.587 429.304 399.517 431.686 398.127L431.691 398.124C432.983 397.36 434.333 396.741 435.701 396.296C435.746 396.289 435.798 396.278 435.855 396.261C439.987 394.986 444.44 395.014 448.841 395.73L449.001 394.743L448.837 395.729L448.837 395.729C448.838 395.73 448.839 395.73 448.841 395.73L448.854 395.733L448.899 395.742C448.931 395.749 448.992 395.763 449.053 395.773C449.154 395.79 449.255 395.806 449.356 395.823C449.676 395.875 449.989 395.927 450.284 395.984L450.335 395.994L450.387 395.999C450.889 396.044 451.512 396.118 452.201 396.2C453.602 396.368 455.279 396.568 456.778 396.619C457.916 396.657 459.06 396.617 460.027 396.393C460.966 396.175 461.96 395.731 462.462 394.773L462.53 394.643C462.621 394.722 462.71 394.799 462.798 394.875C463.117 395.153 463.422 395.417 463.721 395.67C464.069 395.964 464.401 396.233 464.695 396.441C464.952 396.623 465.308 396.854 465.677 396.937L467.032 397.242L466.891 395.86C466.548 392.513 464.696 390.119 462.358 388.37C460.058 386.65 457.229 385.507 454.751 384.63C453.239 383.901 451.564 383.366 449.949 382.866C449.815 382.825 449.682 382.784 449.55 382.743C448.034 382.275 446.58 381.826 445.254 381.254C443.819 380.634 442.607 379.899 441.701 378.914C440.81 377.945 440.172 376.688 439.954 374.94L439.936 374.79L439.874 374.653L439.831 374.557C439.603 374.052 439.356 373.502 439.054 372.964L439.022 372.907L438.982 372.854L437.453 370.816L437.607 370.739L436.784 369.767C433.577 365.983 429.08 363.235 424.276 362.164C419.71 360.584 414.518 358.997 409.561 358.362L408.749 358.258L408.486 359.033C408.366 359.387 408.261 359.61 408.183 359.744C408.151 359.719 408.113 359.688 408.07 359.65C407.859 359.464 407.626 359.214 407.327 358.893L407.324 358.89L407.295 358.858C406.746 358.269 405.986 357.453 405.06 356.992C404.565 356.745 403.996 356.583 403.362 356.611C402.798 356.636 402.237 356.809 401.684 357.131C400.885 357.235 400.294 357.363 399.839 357.466L399.835 357.467C399.304 357.587 399.089 357.636 398.906 357.638C398.742 357.639 398.55 357.62 397.76 356.995ZM445.104 388.205C444.231 388.046 443.144 387.87 442.042 387.766L436.694 386.569L436.444 386.505L448.686 388.77C449.068 388.912 449.456 389.048 449.847 389.177C449.699 389.152 449.551 389.127 449.403 389.102C447.941 388.854 446.529 388.592 445.189 388.224L445.147 388.213L445.104 388.205ZM435.403 396.298C435.401 396.298 435.4 396.297 435.402 396.298L435.403 396.298ZM421.62 372.328C422.736 372.298 424.043 372.504 425.389 372.967C427.174 373.584 428.6 374.53 429.478 375.511C430.381 376.521 430.557 377.376 430.362 377.939C430.169 378.498 429.5 379.06 428.156 379.291C426.851 379.516 425.137 379.372 423.351 378.751C421.561 378.128 420.133 377.193 419.256 376.225C418.357 375.232 418.18 374.39 418.376 373.819C418.624 373.101 419.663 372.38 421.62 372.328Z" fill="#FF6600" stroke="white" stroke-width="2"/>
</g>
<defs>
<clipPath id="clip0_2:483">
<rect width="155" height="155" fill="white" transform="translate(340 344)"/>
</clipPath>
</defs>
</svg>
