<svg width="512" height="512" viewBox="0 0 512 512" fill="none" xmlns="http://www.w3.org/2000/svg">
<circle cx="256" cy="256" r="256" fill="white"/>
<path d="M512 256.002C512 397.381 397.382 511.998 255.995 511.998C114.611 511.998 0 397.381 0 256.002C0 114.613 114.611 0 255.995 0C397.382 0 512 114.613 512 256.002Z" fill="#F47421"/>
<path d="M325.947 134.832C342.293 144.272 363.19 138.673 372.623 122.332C382.061 105.984 376.467 85.0892 360.119 75.6509C343.775 66.2159 322.88 71.8135 313.442 88.1614C304.007 104.503 309.604 125.397 325.947 134.832ZM255.997 355.838C240.968 355.838 226.725 352.496 213.94 346.549L190.192 389.107C210.029 398.929 232.362 404.479 255.997 404.479C269.743 404.479 283.033 402.574 295.664 399.077C297.898 385.35 306.049 372.698 319.044 365.194C332.016 357.705 347.029 356.963 360.024 361.874C385.296 337.024 401.741 303.215 404.135 265.563L355.425 264.854C350.942 315.855 308.156 355.838 255.997 355.838ZM255.997 156.159C308.156 156.159 350.942 196.15 355.425 247.145L404.135 246.434C401.738 208.786 385.293 174.976 360.017 150.128C347.024 155.036 332.013 154.292 319.039 146.801C306.046 139.3 297.897 126.65 295.662 112.921C283.033 109.427 269.743 107.521 255.997 107.521C232.362 107.521 210.031 113.069 190.195 122.895L213.942 165.448C226.725 159.5 240.968 156.159 255.997 156.159V156.159ZM156.16 255.998C156.16 222.22 172.946 192.387 198.612 174.321L173.626 132.463C143.716 152.448 121.465 182.996 112.224 218.779C123.02 227.578 129.918 240.979 129.918 256.002C129.918 271.023 123.019 284.423 112.222 293.221C121.462 329.006 143.713 359.554 173.624 379.539L198.612 337.679C172.946 319.615 156.16 289.781 156.16 255.998ZM325.952 377.163C309.604 386.601 304.007 407.494 313.443 423.835C322.882 440.183 343.774 445.784 360.122 436.346C376.465 426.909 382.065 406.015 372.626 389.668C363.191 373.329 342.295 367.728 325.952 377.163ZM81.9208 221.825C63.0408 221.825 47.7422 237.122 47.7422 256.002C47.7422 274.877 63.0408 290.175 81.9208 290.175C100.794 290.175 116.094 274.877 116.094 256.002C116.094 237.122 100.794 221.825 81.9208 221.825Z" fill="white"/>
<g clip-path="url(#clip0_2:572)">
<path d="M425.371 382.145C430.387 382.145 434.453 378.553 434.453 374.122C434.453 369.691 430.387 366.1 425.371 366.1C420.355 366.1 416.289 369.691 416.289 374.122C416.289 378.553 420.355 382.145 425.371 382.145Z" fill="black"/>
<path d="M397.759 356.995L397.786 355.954L396.563 356.193L396.281 356.248L394.247 356.645L395.447 357.669C395.12 357.814 394.646 357.867 393.912 357.948L393.901 357.949C393.257 358.021 392.371 358.12 391.642 358.516C391.252 358.727 390.887 359.031 390.615 359.465C390.57 359.538 390.528 359.612 390.49 359.688C390.189 359.587 389.917 359.513 389.672 359.47C389.241 359.395 388.518 359.345 388.019 359.884C387.515 360.43 387.652 361.129 387.738 361.441C387.843 361.828 388.042 362.237 388.246 362.605C388.464 363 388.739 363.436 389.006 363.85L388.631 364.149C386.367 365.953 385.234 368.691 384.2 371.192L384.172 371.258C383.091 373.872 382.088 376.276 380.18 377.978L380.024 378.116L379.937 378.305C378.514 381.387 377.636 384.58 376.864 387.745C376.689 388.465 376.519 389.181 376.35 389.895C375.77 392.344 375.199 394.757 374.426 397.15L374.404 397.22L374.391 397.293C373.402 403.219 372.485 409.355 373.999 415.523C374.095 416.626 374.095 417.83 374.096 419.121L374.096 419.251C374.096 420.601 374.1 422.034 374.235 423.429C374.503 426.212 375.307 429.046 377.835 430.989C383.633 435.748 388.557 441.651 393.47 447.54C394.036 448.22 394.603 448.899 395.17 449.576C403.759 460.14 411.333 471.54 418.11 483.297L419.319 485.394C419.583 486.259 419.895 487.218 420.257 488.03C420.464 488.496 420.706 488.955 420.988 489.333C421.256 489.692 421.649 490.097 422.197 490.263L423.717 490.723L423.475 489.153C422.796 484.746 421.914 477.735 421.486 472.298L421.483 472.261L421.477 472.225C420.365 464.975 418.028 458.095 415.666 451.319C415.55 450.987 415.434 450.656 415.319 450.325C413.066 443.872 410.844 437.503 409.598 430.864C409.557 430.568 409.513 430.269 409.47 429.974L409.47 429.97C409.428 429.69 409.388 429.413 409.35 429.138V427.43V426.43H409.02C408.244 419.701 408.232 412.969 412.752 408.143C415.204 405.675 418.281 404.102 421.61 402.677C422.438 402.322 423.287 401.976 424.144 401.625C426.685 400.587 429.303 399.517 431.686 398.127L431.691 398.124C432.983 397.36 434.332 396.741 435.7 396.296C435.745 396.289 435.797 396.278 435.854 396.261C439.987 394.986 444.439 395.014 448.84 395.73L449.001 394.743L448.836 395.729L448.837 395.729C448.837 395.73 448.838 395.73 448.84 395.73L448.853 395.733L448.899 395.742C448.93 395.749 448.991 395.763 449.053 395.773C449.154 395.79 449.255 395.806 449.355 395.823C449.675 395.875 449.988 395.927 450.283 395.984L450.334 395.994L450.386 395.999C450.888 396.044 451.511 396.118 452.2 396.2C453.602 396.368 455.278 396.568 456.777 396.619C457.916 396.657 459.06 396.617 460.026 396.393C460.965 396.175 461.96 395.731 462.461 394.773L462.53 394.643C462.62 394.722 462.709 394.799 462.797 394.875C463.116 395.153 463.421 395.417 463.721 395.67C464.069 395.964 464.4 396.233 464.694 396.441C464.952 396.623 465.307 396.854 465.676 396.937L467.032 397.242L466.89 395.86C466.548 392.513 464.696 390.119 462.357 388.37C460.057 386.65 457.229 385.507 454.75 384.63C453.239 383.901 451.564 383.366 449.949 382.866C449.815 382.825 449.682 382.784 449.549 382.743C448.033 382.275 446.579 381.826 445.253 381.254C443.818 380.634 442.606 379.899 441.7 378.914C440.809 377.945 440.172 376.688 439.954 374.94L439.935 374.79L439.873 374.653L439.83 374.557C439.603 374.052 439.356 373.502 439.053 372.964L439.021 372.907L438.982 372.854L437.453 370.816L437.607 370.739L436.783 369.767C433.577 365.983 429.08 363.235 424.276 362.164C419.709 360.584 414.517 358.997 409.56 358.362L408.749 358.258L408.486 359.033C408.366 359.387 408.261 359.61 408.182 359.744C408.15 359.719 408.112 359.688 408.07 359.65C407.858 359.464 407.626 359.214 407.326 358.893L407.323 358.89L407.294 358.858C406.745 358.269 405.985 357.453 405.059 356.992C404.565 356.745 403.995 356.583 403.362 356.611C402.797 356.636 402.236 356.809 401.684 357.131C400.884 357.235 400.294 357.363 399.838 357.466L399.834 357.467C399.303 357.587 399.088 357.636 398.906 357.638C398.741 357.639 398.549 357.62 397.759 356.995ZM445.103 388.205C444.23 388.046 443.143 387.87 442.042 387.766L436.694 386.569L436.444 386.505L448.685 388.77C449.068 388.912 449.456 389.048 449.847 389.177C449.698 389.152 449.55 389.127 449.403 389.102C447.94 388.854 446.529 388.592 445.189 388.224L445.146 388.213L445.103 388.205ZM435.403 396.298C435.401 396.298 435.4 396.297 435.401 396.298L435.403 396.298ZM421.62 372.328C422.736 372.298 424.042 372.504 425.389 372.967C427.173 373.584 428.6 374.53 429.477 375.511C430.381 376.521 430.557 377.376 430.362 377.939C430.168 378.498 429.5 379.06 428.155 379.291C426.851 379.516 425.137 379.372 423.351 378.751C421.56 378.128 420.132 377.193 419.256 376.225C418.357 375.232 418.18 374.39 418.376 373.819C418.624 373.101 419.663 372.38 421.62 372.328Z" fill="#FF6600" stroke="white" stroke-width="2"/>
</g>
<defs>
<clipPath id="clip0_2:572">
<rect width="155" height="155" fill="white" transform="translate(340 344)"/>
</clipPath>
</defs>
</svg>
