<svg width="512" height="512" viewBox="0 0 512 512" fill="none" xmlns="http://www.w3.org/2000/svg">
<circle cx="256" cy="256" r="256" fill="white"/>
<path d="M256 456C366.457 456 456 366.457 456 256C456 145.543 366.457 56 256 56C145.543 56 56 145.543 56 256C56 366.457 145.543 456 256 456Z" fill="#404552"/>
<path d="M324.75 290.375C297.319 290.375 274.258 309.862 266.938 335.687C265.393 341.139 264.329 343.006 262.25 346.625C259.57 351.291 254.128 358.029 246.625 362.25C240.522 365.684 235.262 368.605 227.402 367.421C225.356 367.113 221.731 366.543 218.104 364.456C212.322 361.128 210.416 358.206 205.994 349.753C206.625 358.775 205.462 362.066 209.9 377.878C218.735 409.353 252.683 434.128 292.713 434.128C322.386 434.128 349.888 421.761 365.363 402.881C371.023 395.976 375.284 390.528 379.425 381.006C383.193 372.342 384.116 361.236 384.119 351.316C384.129 317.634 357.536 290.378 324.744 290.378L324.75 290.375Z" fill="white"/>
<g clip-path="url(#clip0_2:439)">
<path d="M434.569 356.547C391.691 356.547 357 391.099 357 433.7C357 476.3 391.691 510.853 434.569 510.853C448.585 510.853 461.628 507.176 473.007 500.709L477.045 510.853H508.267L496.042 480.602C506.061 467.614 512 451.323 512 433.7C512 391.099 477.309 356.547 434.569 356.547V356.547Z" fill="url(#paint0_radial_2:439)"/>
<path d="M433.876 444.071C462.362 444.071 485.454 424.356 485.454 400.035C485.454 375.715 462.362 356 433.876 356C405.389 356 382.297 375.715 382.297 400.035C382.297 424.356 405.389 444.071 433.876 444.071Z" fill="url(#paint1_linear_2:439)"/>
<path d="M442.437 396.33C447.472 396.33 451.554 392.249 451.554 387.214C451.554 382.179 447.472 378.097 442.437 378.097C437.402 378.097 433.32 382.179 433.32 387.214C433.32 392.249 437.402 396.33 442.437 396.33Z" fill="black"/>
<path d="M476.986 400.225L425.332 392.764L423.882 400.258L475.536 407.719L476.986 400.225Z" fill="black"/>
<path d="M481.152 402.478H472.036V406.502H481.152V402.478Z" fill="black"/>
<path d="M413.755 369.174C413.676 372.213 408.385 369.567 408.163 373.032C402.307 370.423 408.619 377.014 408.033 377.625H407.989L407.556 377.582C407.273 377.481 406.863 377.306 406.255 376.931C402.161 380.192 402.064 386.964 397.846 390.724C395.084 396.705 394.404 403.185 392.378 409.457C391.382 415.424 390.505 421.391 391.988 427.358C392.434 432.215 391.032 438.82 395.457 442.206C402.021 447.59 407.475 454.417 412.942 460.939C421.573 471.554 429.177 483.003 435.977 494.798C436.426 491.856 437.517 500.709 439.487 501.306C438.805 496.879 437.919 489.844 437.489 484.376C435.297 470.084 428.261 457.178 425.611 443.024C425.53 442.428 425.433 441.814 425.35 441.207V439.43H425.134C424.265 432.437 423.954 424.86 429.033 419.448C434.223 414.217 441.952 412.899 448.182 409.263C449.57 408.443 451.027 407.778 452.512 407.306C452.524 407.302 452.544 407.311 452.555 407.306C456.885 405.97 461.506 406.012 466.002 406.743C466.068 406.754 466.151 406.775 466.218 406.786C466.627 406.855 467.07 406.924 467.475 407.003C470.764 407.296 477.383 408.585 478.576 406.309C474.039 402.438 467.489 402.715 461.925 401.189C461.049 401.029 459.968 400.856 458.886 400.756L453.46 399.541L452.115 399.195V399.238L432.688 395.463C432.38 395.183 432.044 394.896 431.734 394.684L450.606 397.029V396.942C451.272 397.09 451.932 397.211 452.604 397.289V397.332L465.953 399.802C468.256 400.663 470.713 401.301 473.016 401.454C476.818 402.007 481.661 407.684 482.896 407.962C482.284 401.981 476.319 399.303 471.365 397.554C465.578 394.737 456.933 394.848 455.962 387.064C455.718 386.521 455.478 385.98 455.182 385.454L452.934 382.457L453.021 382.413C449.94 378.778 445.611 376.141 441.004 375.128C436.438 373.546 431.304 371.978 426.433 371.354C424.796 376.183 422.964 367.524 419.023 370.097C415.568 370.506 416.04 371.419 413.473 369.229L413.755 369.174ZM438.594 383.328C439.845 383.295 441.272 383.525 442.715 384.022C446.545 385.346 449.043 388.143 448.307 390.266C447.572 392.39 443.853 393.028 440.023 391.696C436.193 390.364 433.695 387.63 434.431 385.493C434.89 384.162 436.512 383.384 438.594 383.328Z" fill="#FF6600"/>
</g>
<defs>
<radialGradient id="paint0_radial_2:439" cx="0" cy="0" r="1" gradientUnits="userSpaceOnUse" gradientTransform="translate(425.382 417.398) rotate(57.1766) scale(139.383 77.1999)">
<stop/>
<stop offset="1" stop-opacity="0.897"/>
</radialGradient>
<linearGradient id="paint1_linear_2:439" x1="435.333" y1="357.074" x2="435.333" y2="441.207" gradientUnits="userSpaceOnUse">
<stop stop-color="white"/>
<stop offset="1" stop-color="white" stop-opacity="0"/>
</linearGradient>
<clipPath id="clip0_2:439">
<rect width="155" height="155" fill="white" transform="translate(357 356)"/>
</clipPath>
</defs>
</svg>
