<svg width="512" height="512" viewBox="0 0 512 512" fill="none" xmlns="http://www.w3.org/2000/svg">
<circle cx="256" cy="256" r="256" fill="white"/>
<path d="M512 256.002C512 397.381 397.382 511.998 255.995 511.998C114.611 511.998 0 397.381 0 256.002C0 114.613 114.611 0 255.995 0C397.382 0 512 114.613 512 256.002Z" fill="#F47421"/>
<path d="M325.947 134.832C342.293 144.272 363.19 138.673 372.623 122.332C382.061 105.984 376.467 85.0892 360.119 75.6509C343.775 66.2159 322.88 71.8135 313.442 88.1614C304.007 104.503 309.604 125.397 325.947 134.832V134.832ZM255.997 355.838C240.968 355.838 226.725 352.496 213.94 346.549L190.192 389.107C210.029 398.929 232.362 404.479 255.997 404.479C269.743 404.479 283.033 402.574 295.664 399.077C297.898 385.35 306.049 372.698 319.044 365.194C332.016 357.705 347.029 356.963 360.024 361.874C385.296 337.024 401.741 303.215 404.135 265.563L355.425 264.854C350.942 315.855 308.156 355.838 255.997 355.838ZM255.997 156.159C308.156 156.159 350.942 196.15 355.425 247.145L404.135 246.434C401.738 208.786 385.293 174.976 360.017 150.128C347.024 155.036 332.013 154.292 319.039 146.801C306.046 139.3 297.897 126.65 295.662 112.921C283.033 109.427 269.743 107.521 255.997 107.521C232.362 107.521 210.031 113.069 190.195 122.895L213.942 165.448C226.725 159.5 240.968 156.159 255.997 156.159V156.159ZM156.16 255.998C156.16 222.22 172.946 192.387 198.612 174.321L173.626 132.463C143.716 152.448 121.465 182.996 112.224 218.779C123.02 227.578 129.918 240.979 129.918 256.002C129.918 271.023 123.019 284.423 112.222 293.221C121.462 329.006 143.713 359.554 173.624 379.539L198.612 337.679C172.946 319.615 156.16 289.781 156.16 255.998V255.998ZM325.952 377.163C309.604 386.601 304.007 407.494 313.443 423.835C322.882 440.183 343.774 445.784 360.122 436.346C376.465 426.909 382.065 406.014 372.626 389.668C363.191 373.329 342.295 367.728 325.952 377.163ZM81.9208 221.825C63.0408 221.825 47.7422 237.122 47.7422 256.002C47.7422 274.877 63.0408 290.175 81.9208 290.175C100.794 290.175 116.094 274.877 116.094 256.002C116.094 237.122 100.794 221.825 81.9208 221.825Z" fill="white"/>
<g clip-path="url(#clip0_2:572)">
<path d="M417.569 344.547C374.691 344.547 340 379.099 340 421.7C340 464.3 374.691 498.853 417.569 498.853C431.585 498.853 444.628 495.176 456.007 488.709L460.045 498.853H491.267L479.042 468.602C489.061 455.614 495 439.323 495 421.7C495 379.099 460.309 344.547 417.569 344.547V344.547Z" fill="url(#paint0_radial_2:572)"/>
<path d="M416.876 432.071C445.362 432.071 468.454 412.356 468.454 388.035C468.454 363.715 445.362 344 416.876 344C388.389 344 365.297 363.715 365.297 388.035C365.297 412.356 388.389 432.071 416.876 432.071Z" fill="url(#paint1_linear_2:572)"/>
<path d="M425.437 384.33C430.472 384.33 434.554 380.249 434.554 375.214C434.554 370.179 430.472 366.097 425.437 366.097C420.402 366.097 416.32 370.179 416.32 375.214C416.32 380.249 420.402 384.33 425.437 384.33Z" fill="black"/>
<path d="M459.986 388.225L408.332 380.764L406.882 388.258L458.536 395.719L459.986 388.225Z" fill="black"/>
<path d="M464.153 390.478H455.036V394.502H464.153V390.478Z" fill="black"/>
<path d="M396.754 357.174C396.675 360.213 391.384 357.567 391.162 361.032C385.306 358.423 391.619 365.014 391.032 365.625H390.989L390.556 365.582C390.273 365.481 389.862 365.306 389.254 364.931C385.161 368.192 385.064 374.964 380.845 378.724C378.084 384.705 377.404 391.185 375.378 397.457C374.381 403.424 373.505 409.391 374.988 415.358C375.433 420.215 374.032 426.82 378.457 430.206C385.021 435.59 390.474 442.417 395.941 448.939C404.572 459.554 412.177 471.003 418.976 482.798C419.426 479.856 420.517 488.709 422.487 489.306C421.804 484.879 420.919 477.844 420.489 472.376C418.296 458.084 411.261 445.178 408.611 431.024C408.529 430.428 408.433 429.814 408.35 429.207V427.43H408.133C407.265 420.437 406.954 412.86 412.032 407.448C417.222 402.217 424.951 400.899 431.182 397.263C432.57 396.443 434.027 395.778 435.511 395.306C435.524 395.302 435.543 395.311 435.555 395.306C439.884 393.97 444.505 394.012 449.001 394.743C449.067 394.754 449.151 394.775 449.217 394.786C449.627 394.855 450.07 394.924 450.475 395.003C453.763 395.296 460.382 396.585 461.576 394.309C457.038 390.438 450.489 390.715 444.924 389.189C444.049 389.029 442.968 388.856 441.885 388.756L436.459 387.541L435.115 387.195V387.238L415.688 383.463C415.38 383.183 415.044 382.896 414.733 382.684L433.605 385.029V384.942C434.271 385.09 434.932 385.211 435.603 385.289V385.332L448.952 387.802C451.256 388.663 453.712 389.301 456.016 389.454C459.818 390.007 464.661 395.684 465.896 395.962C465.284 389.981 459.318 387.303 454.364 385.554C448.578 382.737 439.933 382.848 438.961 375.064C438.717 374.521 438.477 373.98 438.182 373.454L435.934 370.457L436.02 370.413C432.94 366.778 428.61 364.141 424.003 363.128C419.438 361.546 414.304 359.978 409.433 359.354C407.796 364.183 405.964 355.524 402.023 358.097C398.568 358.506 399.04 359.419 396.472 357.229L396.754 357.174ZM421.593 371.328C422.845 371.295 424.271 371.525 425.715 372.022C429.544 373.346 432.042 376.143 431.307 378.266C430.571 380.39 426.852 381.028 423.022 379.696C419.193 378.364 416.695 375.63 417.43 373.493C417.89 372.162 419.512 371.384 421.593 371.328Z" fill="#FF6600"/>
</g>
<defs>
<radialGradient id="paint0_radial_2:572" cx="0" cy="0" r="1" gradientUnits="userSpaceOnUse" gradientTransform="translate(408.382 405.398) rotate(57.1766) scale(139.383 77.1999)">
<stop/>
<stop offset="1" stop-opacity="0.897"/>
</radialGradient>
<linearGradient id="paint1_linear_2:572" x1="418.333" y1="345.074" x2="418.333" y2="429.207" gradientUnits="userSpaceOnUse">
<stop stop-color="white"/>
<stop offset="1" stop-color="white" stop-opacity="0"/>
</linearGradient>
<clipPath id="clip0_2:572">
<rect width="155" height="155" fill="white" transform="translate(340 344)"/>
</clipPath>
</defs>
</svg>
