<svg width="512" height="512" viewBox="0 0 512 512" fill="none" xmlns="http://www.w3.org/2000/svg">
<circle cx="256" cy="256" r="256" fill="white"/>
<path d="M256 512C397.385 512 512 397.385 512 256C512 114.615 397.385 0 256 0C114.615 0 0 114.615 0 256C0 397.385 114.615 512 256 512Z" fill="#404552"/>
<path d="M344 300C308.888 300 279.37 324.944 270 358C268.022 364.978 266.661 367.368 264 372C260.569 377.972 253.603 386.598 244 392C236.188 396.395 229.455 400.135 219.394 398.619C216.775 398.225 212.135 397.495 207.492 394.824C200.092 390.564 197.652 386.824 191.992 376.004C192.8 387.552 191.311 391.765 196.992 412.004C208.3 452.292 251.754 484.004 302.992 484.004C340.974 484.004 376.176 468.174 395.984 444.008C403.229 435.17 408.684 428.196 413.984 416.008C418.807 404.918 419.989 390.702 419.992 378.004C420.004 334.892 385.966 300.004 343.992 300.004L344 300Z" fill="white"/>
<g clip-path="url(#clip0_2:439)">
<path d="M425.371 382.145C430.387 382.145 434.453 378.553 434.453 374.122C434.453 369.691 430.387 366.1 425.371 366.1C420.355 366.1 416.289 369.691 416.289 374.122C416.289 378.553 420.355 382.145 425.371 382.145Z" fill="black"/>
<path d="M397.76 356.995L397.787 355.954L396.563 356.193L396.281 356.248L394.247 356.645L395.448 357.669C395.12 357.814 394.647 357.867 393.913 357.948L393.902 357.949C393.257 358.021 392.371 358.12 391.642 358.516C391.252 358.727 390.888 359.031 390.616 359.465C390.571 359.538 390.529 359.612 390.49 359.688C390.19 359.587 389.917 359.513 389.673 359.47C389.242 359.395 388.518 359.345 388.02 359.884C387.516 360.43 387.653 361.129 387.738 361.441C387.844 361.828 388.043 362.237 388.246 362.605C388.465 363 388.74 363.436 389.007 363.85L388.632 364.149C386.367 365.953 385.235 368.691 384.2 371.192L384.173 371.258C383.092 373.872 382.089 376.276 380.18 377.978L380.025 378.116L379.938 378.305C378.515 381.387 377.636 384.58 376.865 387.745C376.689 388.465 376.519 389.181 376.35 389.895C375.771 392.344 375.2 394.757 374.427 397.15L374.404 397.22L374.392 397.293C373.402 403.219 372.486 409.355 373.999 415.523C374.096 416.626 374.096 417.83 374.096 419.121L374.096 419.251C374.096 420.601 374.101 422.034 374.235 423.429C374.503 426.212 375.307 429.046 377.836 430.989C383.634 435.748 388.557 441.651 393.47 447.54C394.037 448.22 394.603 448.899 395.171 449.576C403.76 460.14 411.333 471.54 418.11 483.297L419.319 485.394C419.583 486.259 419.896 487.218 420.257 488.03C420.465 488.496 420.706 488.955 420.988 489.333C421.257 489.692 421.65 490.097 422.198 490.263L423.718 490.723L423.476 489.153C422.796 484.746 421.914 477.735 421.486 472.298L421.483 472.261L421.478 472.225C420.366 464.975 418.028 458.095 415.666 451.319C415.551 450.987 415.435 450.656 415.319 450.325C413.067 443.872 410.844 437.503 409.598 430.864C409.558 430.568 409.514 430.269 409.471 429.974L409.47 429.97C409.429 429.69 409.388 429.413 409.35 429.138V427.43V426.43H409.021C408.245 419.701 408.232 412.969 412.753 408.143C415.204 405.675 418.281 404.102 421.611 402.677C422.438 402.322 423.287 401.976 424.144 401.625C426.685 400.587 429.304 399.517 431.686 398.127L431.691 398.124C432.983 397.36 434.333 396.741 435.701 396.296C435.746 396.289 435.798 396.278 435.855 396.261C439.987 394.986 444.44 395.014 448.841 395.73L449.001 394.743L448.837 395.729L448.837 395.729C448.838 395.73 448.839 395.73 448.841 395.73L448.854 395.733L448.899 395.742C448.931 395.749 448.992 395.763 449.053 395.773C449.154 395.79 449.255 395.806 449.356 395.823C449.676 395.875 449.989 395.927 450.284 395.984L450.335 395.994L450.387 395.999C450.889 396.044 451.512 396.118 452.201 396.2C453.602 396.368 455.279 396.568 456.778 396.619C457.916 396.657 459.06 396.617 460.027 396.393C460.966 396.175 461.96 395.731 462.462 394.773L462.53 394.643C462.621 394.722 462.71 394.799 462.798 394.875C463.117 395.153 463.422 395.417 463.721 395.67C464.069 395.964 464.401 396.233 464.695 396.441C464.952 396.623 465.308 396.854 465.677 396.937L467.032 397.242L466.891 395.86C466.548 392.513 464.696 390.119 462.358 388.37C460.058 386.65 457.229 385.507 454.751 384.63C453.239 383.901 451.564 383.366 449.949 382.866C449.815 382.825 449.682 382.784 449.55 382.743C448.034 382.275 446.58 381.826 445.254 381.254C443.819 380.634 442.607 379.899 441.701 378.914C440.81 377.945 440.172 376.688 439.954 374.94L439.936 374.79L439.874 374.653L439.831 374.557C439.603 374.052 439.356 373.502 439.054 372.964L439.022 372.907L438.982 372.854L437.453 370.816L437.607 370.739L436.784 369.767C433.577 365.983 429.08 363.235 424.276 362.164C419.71 360.584 414.518 358.997 409.561 358.362L408.749 358.258L408.486 359.033C408.366 359.387 408.261 359.61 408.183 359.744C408.151 359.719 408.113 359.688 408.07 359.65C407.859 359.464 407.626 359.214 407.327 358.893L407.324 358.89L407.295 358.858C406.746 358.269 405.986 357.453 405.06 356.992C404.565 356.745 403.996 356.583 403.362 356.611C402.798 356.636 402.237 356.809 401.684 357.131C400.885 357.235 400.294 357.363 399.839 357.466L399.835 357.467C399.304 357.587 399.089 357.636 398.906 357.638C398.742 357.639 398.55 357.62 397.76 356.995ZM445.104 388.205C444.231 388.046 443.144 387.87 442.042 387.766L436.694 386.569L436.444 386.505L448.686 388.77C449.068 388.912 449.456 389.048 449.847 389.177C449.699 389.152 449.551 389.127 449.403 389.102C447.941 388.854 446.529 388.592 445.189 388.224L445.147 388.213L445.104 388.205ZM435.403 396.298C435.401 396.298 435.4 396.297 435.402 396.298L435.403 396.298ZM421.62 372.328C422.736 372.298 424.043 372.504 425.389 372.967C427.174 373.584 428.6 374.53 429.478 375.511C430.381 376.521 430.557 377.376 430.362 377.939C430.169 378.498 429.5 379.06 428.156 379.291C426.851 379.516 425.137 379.372 423.351 378.751C421.561 378.128 420.133 377.193 419.256 376.225C418.357 375.232 418.18 374.39 418.376 373.819C418.624 373.101 419.663 372.38 421.62 372.328Z" fill="#FF6600" stroke="white" stroke-width="2"/>
</g>
<defs>
<clipPath id="clip0_2:439">
<rect width="155" height="155" fill="white" transform="translate(340 344)"/>
</clipPath>
</defs>
</svg>
