<svg width="512" height="512" viewBox="0 0 512 512" fill="none" xmlns="http://www.w3.org/2000/svg">
<circle cx="256" cy="256" r="256" fill="white"/>
<path fill-rule="evenodd" clip-rule="evenodd" d="M246.885 9.60379C198.842 11.9964 156.115 26.0228 118.247 51.8349C-9.78671 139.105 -26.6745 321.26 83.104 430.886C192.867 540.498 375.069 522.36 461.083 393.258C543.444 269.638 499.342 101.679 367.154 35.5423C330.127 17.0168 286.591 7.62759 246.885 9.60379ZM319.304 48.7102C353.617 58.6257 385.083 77.1564 408.877 101.462C414.388 107.093 416.584 111.553 416.847 117.653C417.557 134.129 398.375 144.998 384.7 135.865C383.864 135.307 381.027 132.748 378.394 130.177C356.929 109.219 336.249 97.0015 307.837 88.4937C305.248 87.7183 302.546 86.7909 301.833 86.4332C284.512 77.7389 288.677 50.795 307.789 47.9016C312.982 47.1147 314.038 47.1888 319.304 48.7102ZM264.769 111.908C356.546 117.927 419.19 204.594 396.345 293.94C373.661 382.652 274.847 428.567 192.378 388.714C173.088 379.392 152.407 363.11 147.998 353.773C142.084 341.249 150.825 327.865 165.256 327.348C171.92 327.108 175.619 328.646 181.323 334.028C228.108 378.165 299.319 373.561 338.974 323.832C386.368 264.398 357.619 174.9 284.442 154.066C247.248 143.477 210.127 153.233 180.136 181.479C169.001 191.967 154.435 190.038 148.148 177.243C144.182 169.172 146.081 157.179 151.782 154.283C152.379 153.981 154.193 152.457 155.815 150.894C183.871 123.887 224.695 109.279 264.769 111.908ZM261.959 179.864C303.195 183.608 333.805 218.19 332.517 259.577C331.207 301.674 297.378 334.691 255.554 334.691C205.823 334.691 169.378 288.37 180.572 239.393C189.059 202.263 224.35 176.45 261.959 179.864ZM74.4902 187.416C83.4208 189.609 89.6151 198.989 88.3594 208.419C88.1984 209.629 87.5661 212.581 86.9555 214.979C79.6332 243.676 79.6434 269.289 86.9874 298.539C88.7375 305.512 88.7311 309.145 86.958 313.557C81.1968 327.882 61.3542 330.623 51.4847 318.458C45.8422 311.502 40.33 280.971 40.3236 256.639C40.3185 235.16 45.404 204.125 50.0015 197.586C56.1933 188.778 65.0511 185.099 74.4902 187.416ZM135.109 204.401C148.279 206.48 155.46 218.073 152.035 231.728C147.513 249.765 147.469 263.879 151.883 282.166C154.19 291.73 152.93 297.54 147.259 303.481C136.167 315.106 118.526 309.722 114.322 293.429C108.704 271.652 108.095 249.959 112.509 228.89C114.944 217.269 116.627 212.665 119.481 209.811C123.575 205.717 129.796 203.563 135.109 204.401ZM251.356 217.682C221.835 221.786 206.453 255.158 222.784 279.671C244.311 311.981 295.045 296.443 295.045 257.539C295.045 234.59 273.184 214.647 251.356 217.682ZM396.827 376.592C412.696 380.101 419.245 398.929 408.775 410.954C399.841 421.214 380.337 436.429 364.41 445.56C347.137 455.464 318.068 466.766 308.701 467.219C291.137 468.07 280.469 448.254 291.213 434.736C294.239 430.927 297.284 429.163 304.678 426.936C333.838 418.155 353.273 406.583 376.448 384.199C383.881 377.02 389.415 374.954 396.827 376.592Z" fill="#049CFC"/>
<g clip-path="url(#clip0_2:503)">
<path d="M417.569 344.547C374.691 344.547 340 379.099 340 421.7C340 464.3 374.691 498.853 417.569 498.853C431.585 498.853 444.628 495.176 456.007 488.709L460.045 498.853H491.267L479.042 468.602C489.061 455.614 495 439.323 495 421.7C495 379.099 460.309 344.547 417.569 344.547V344.547Z" fill="url(#paint0_radial_2:503)"/>
<path d="M416.876 432.071C445.362 432.071 468.454 412.356 468.454 388.035C468.454 363.715 445.362 344 416.876 344C388.389 344 365.297 363.715 365.297 388.035C365.297 412.356 388.389 432.071 416.876 432.071Z" fill="url(#paint1_linear_2:503)"/>
<path d="M425.437 384.33C430.472 384.33 434.554 380.249 434.554 375.214C434.554 370.179 430.472 366.097 425.437 366.097C420.402 366.097 416.32 370.179 416.32 375.214C416.32 380.249 420.402 384.33 425.437 384.33Z" fill="black"/>
<path d="M459.986 388.225L408.332 380.764L406.882 388.258L458.536 395.719L459.986 388.225Z" fill="black"/>
<path d="M464.152 390.478H455.036V394.502H464.152V390.478Z" fill="black"/>
<path d="M396.755 357.174C396.676 360.213 391.385 357.567 391.163 361.032C385.307 358.423 391.619 365.014 391.033 365.625H390.989L390.556 365.582C390.273 365.481 389.863 365.306 389.255 364.931C385.161 368.192 385.064 374.964 380.846 378.724C378.084 384.705 377.404 391.185 375.378 397.457C374.382 403.424 373.505 409.391 374.988 415.358C375.434 420.215 374.032 426.82 378.457 430.206C385.021 435.59 390.475 442.417 395.942 448.939C404.573 459.554 412.177 471.003 418.977 482.798C419.426 479.856 420.517 488.709 422.487 489.306C421.805 484.879 420.919 477.844 420.489 472.376C418.297 458.084 411.261 445.178 408.611 431.024C408.53 430.428 408.433 429.814 408.35 429.207V427.43H408.134C407.265 420.437 406.954 412.86 412.033 407.448C417.223 402.217 424.952 400.899 431.182 397.263C432.57 396.443 434.027 395.778 435.512 395.306C435.524 395.302 435.544 395.311 435.555 395.306C439.885 393.97 444.506 394.012 449.002 394.743C449.068 394.754 449.151 394.775 449.218 394.786C449.627 394.855 450.07 394.924 450.475 395.003C453.764 395.296 460.383 396.585 461.576 394.309C457.039 390.438 450.489 390.715 444.925 389.189C444.049 389.029 442.968 388.856 441.886 388.756L436.46 387.541L435.115 387.195V387.238L415.688 383.463C415.38 383.183 415.044 382.896 414.734 382.684L433.606 385.029V384.942C434.272 385.09 434.932 385.211 435.604 385.289V385.332L448.953 387.802C451.256 388.663 453.713 389.301 456.016 389.454C459.818 390.007 464.661 395.684 465.896 395.962C465.284 389.981 459.319 387.303 454.365 385.554C448.578 382.737 439.933 382.848 438.962 375.064C438.718 374.521 438.478 373.98 438.182 373.454L435.934 370.457L436.021 370.413C432.94 366.778 428.611 364.141 424.004 363.128C419.438 361.546 414.304 359.978 409.433 359.354C407.796 364.183 405.964 355.524 402.023 358.097C398.568 358.506 399.04 359.419 396.473 357.229L396.755 357.174ZM421.594 371.328C422.845 371.295 424.272 371.525 425.715 372.022C429.545 373.346 432.043 376.143 431.307 378.266C430.572 380.39 426.853 381.028 423.023 379.696C419.193 378.364 416.695 375.63 417.431 373.493C417.89 372.162 419.512 371.384 421.594 371.328Z" fill="#FF6600"/>
</g>
<defs>
<radialGradient id="paint0_radial_2:503" cx="0" cy="0" r="1" gradientUnits="userSpaceOnUse" gradientTransform="translate(408.382 405.398) rotate(57.1766) scale(139.383 77.1999)">
<stop/>
<stop offset="1" stop-opacity="0.897"/>
</radialGradient>
<linearGradient id="paint1_linear_2:503" x1="418.333" y1="345.074" x2="418.333" y2="429.207" gradientUnits="userSpaceOnUse">
<stop stop-color="white"/>
<stop offset="1" stop-color="white" stop-opacity="0"/>
</linearGradient>
<clipPath id="clip0_2:503">
<rect width="155" height="155" fill="white" transform="translate(340 344)"/>
</clipPath>
</defs>
</svg>
