<svg width="512" height="512" viewBox="0 0 512 512" fill="none" xmlns="http://www.w3.org/2000/svg">
<circle cx="256" cy="256" r="256" fill="white"/>
<path fill-rule="evenodd" clip-rule="evenodd" d="M246.885 9.60379C198.842 11.9964 156.115 26.0228 118.247 51.8349C-9.78671 139.105 -26.6745 321.26 83.104 430.886C192.867 540.498 375.069 522.36 461.083 393.258C543.444 269.638 499.342 101.679 367.154 35.5423C330.127 17.0168 286.591 7.62759 246.885 9.60379ZM319.304 48.7102C353.617 58.6257 385.083 77.1564 408.877 101.462C414.388 107.093 416.584 111.553 416.847 117.653C417.557 134.129 398.375 144.998 384.7 135.865C383.864 135.307 381.027 132.748 378.394 130.177C356.929 109.219 336.249 97.0015 307.837 88.4937C305.248 87.7183 302.546 86.7909 301.833 86.4332C284.512 77.7389 288.677 50.795 307.789 47.9016C312.982 47.1147 314.038 47.1888 319.304 48.7102ZM264.769 111.908C356.546 117.927 419.19 204.594 396.345 293.94C373.661 382.652 274.847 428.567 192.378 388.714C173.088 379.392 152.407 363.11 147.998 353.773C142.084 341.249 150.825 327.865 165.257 327.348C171.92 327.108 175.619 328.646 181.323 334.028C228.108 378.165 299.319 373.561 338.974 323.832C386.368 264.398 357.619 174.9 284.442 154.066C247.248 143.477 210.127 153.233 180.136 181.479C169.001 191.967 154.435 190.038 148.148 177.243C144.182 169.172 146.081 157.179 151.782 154.283C152.379 153.981 154.193 152.457 155.815 150.894C183.871 123.887 224.695 109.279 264.769 111.908ZM261.959 179.864C303.195 183.608 333.805 218.19 332.517 259.577C331.207 301.674 297.378 334.691 255.554 334.691C205.823 334.691 169.378 288.37 180.572 239.393C189.059 202.263 224.35 176.45 261.959 179.864ZM74.4902 187.416C83.4208 189.609 89.6151 198.989 88.3594 208.419C88.1984 209.629 87.5661 212.581 86.9555 214.979C79.6332 243.676 79.6434 269.289 86.9874 298.539C88.7375 305.512 88.7311 309.145 86.958 313.557C81.1968 327.882 61.3542 330.623 51.4847 318.458C45.8422 311.502 40.33 280.971 40.3236 256.639C40.3185 235.16 45.404 204.125 50.0015 197.586C56.1933 188.778 65.0511 185.099 74.4902 187.416ZM135.109 204.401C148.279 206.48 155.46 218.073 152.035 231.728C147.513 249.765 147.469 263.879 151.883 282.166C154.19 291.73 152.93 297.54 147.259 303.481C136.167 315.106 118.526 309.722 114.322 293.429C108.704 271.652 108.095 249.959 112.509 228.89C114.944 217.269 116.627 212.665 119.481 209.811C123.575 205.717 129.796 203.563 135.109 204.401ZM251.356 217.682C221.835 221.786 206.453 255.158 222.784 279.671C244.311 311.981 295.045 296.443 295.045 257.539C295.045 234.59 273.184 214.647 251.356 217.682ZM396.827 376.592C412.696 380.101 419.245 398.929 408.775 410.954C399.841 421.214 380.337 436.429 364.41 445.56C347.137 455.464 318.068 466.766 308.701 467.219C291.137 468.07 280.469 448.254 291.213 434.736C294.239 430.927 297.284 429.163 304.678 426.936C333.838 418.155 353.273 406.583 376.448 384.199C383.881 377.02 389.415 374.954 396.827 376.592Z" fill="#049CFC"/>
<g clip-path="url(#clip0_2:503)">
<path d="M425.371 382.145C430.387 382.145 434.453 378.553 434.453 374.122C434.453 369.691 430.387 366.1 425.371 366.1C420.355 366.1 416.289 369.691 416.289 374.122C416.289 378.553 420.355 382.145 425.371 382.145Z" fill="black"/>
<path d="M397.76 356.995L397.787 355.954L396.563 356.193L396.281 356.248L394.247 356.645L395.448 357.669C395.12 357.814 394.647 357.867 393.913 357.948L393.902 357.949C393.257 358.021 392.371 358.12 391.642 358.516C391.252 358.727 390.888 359.031 390.616 359.465C390.571 359.538 390.529 359.612 390.49 359.688C390.19 359.587 389.917 359.513 389.673 359.47C389.242 359.395 388.518 359.345 388.02 359.884C387.516 360.43 387.653 361.129 387.738 361.441C387.844 361.828 388.043 362.237 388.246 362.605C388.465 363 388.74 363.436 389.007 363.85L388.632 364.149C386.367 365.953 385.235 368.691 384.2 371.192L384.173 371.258C383.092 373.872 382.089 376.276 380.18 377.978L380.025 378.116L379.938 378.305C378.515 381.387 377.636 384.58 376.865 387.745C376.689 388.465 376.519 389.181 376.35 389.895C375.771 392.344 375.2 394.757 374.427 397.15L374.404 397.22L374.392 397.293C373.402 403.219 372.486 409.355 373.999 415.523C374.096 416.626 374.096 417.83 374.096 419.121L374.096 419.251C374.096 420.601 374.101 422.034 374.235 423.429C374.503 426.212 375.307 429.046 377.836 430.989C383.634 435.748 388.557 441.651 393.47 447.54C394.037 448.22 394.603 448.899 395.171 449.576C403.76 460.14 411.333 471.54 418.11 483.297L419.319 485.394C419.583 486.259 419.896 487.218 420.257 488.03C420.465 488.496 420.706 488.955 420.988 489.333C421.257 489.692 421.65 490.097 422.198 490.263L423.718 490.723L423.476 489.153C422.796 484.746 421.914 477.735 421.486 472.298L421.483 472.261L421.478 472.225C420.366 464.975 418.028 458.095 415.666 451.319C415.551 450.987 415.435 450.656 415.319 450.325C413.067 443.872 410.844 437.503 409.598 430.864C409.558 430.568 409.514 430.269 409.471 429.974L409.47 429.97C409.429 429.69 409.388 429.413 409.35 429.138V427.43V426.43H409.021C408.245 419.701 408.232 412.969 412.753 408.143C415.204 405.675 418.281 404.102 421.611 402.677C422.438 402.322 423.287 401.976 424.144 401.625C426.685 400.587 429.304 399.517 431.686 398.127L431.691 398.124C432.983 397.36 434.333 396.741 435.701 396.296C435.746 396.289 435.798 396.278 435.855 396.261C439.987 394.986 444.44 395.014 448.841 395.73L449.001 394.743L448.837 395.729L448.837 395.729C448.838 395.73 448.839 395.73 448.841 395.73L448.854 395.733L448.899 395.742C448.931 395.749 448.992 395.763 449.053 395.773C449.154 395.79 449.255 395.806 449.356 395.823C449.676 395.875 449.989 395.927 450.284 395.984L450.335 395.994L450.387 395.999C450.889 396.044 451.512 396.118 452.201 396.2C453.602 396.368 455.279 396.568 456.778 396.619C457.916 396.657 459.06 396.617 460.027 396.393C460.966 396.175 461.96 395.731 462.462 394.773L462.53 394.643C462.621 394.722 462.71 394.799 462.798 394.875C463.117 395.153 463.422 395.417 463.721 395.67C464.069 395.964 464.401 396.233 464.695 396.441C464.952 396.623 465.308 396.854 465.677 396.937L467.032 397.242L466.891 395.86C466.548 392.513 464.696 390.119 462.358 388.37C460.058 386.65 457.229 385.507 454.751 384.63C453.239 383.901 451.564 383.366 449.949 382.866C449.815 382.825 449.682 382.784 449.55 382.743C448.034 382.275 446.58 381.826 445.254 381.254C443.819 380.634 442.607 379.899 441.701 378.914C440.81 377.945 440.172 376.688 439.954 374.94L439.936 374.79L439.874 374.653L439.831 374.557C439.603 374.052 439.356 373.502 439.054 372.964L439.022 372.907L438.982 372.854L437.453 370.816L437.607 370.739L436.784 369.767C433.577 365.983 429.08 363.235 424.276 362.164C419.71 360.584 414.518 358.997 409.561 358.362L408.749 358.258L408.486 359.033C408.366 359.387 408.261 359.61 408.183 359.744C408.151 359.719 408.113 359.688 408.07 359.65C407.859 359.464 407.626 359.214 407.327 358.893L407.324 358.89L407.295 358.858C406.746 358.269 405.986 357.453 405.06 356.992C404.565 356.745 403.996 356.583 403.362 356.611C402.798 356.636 402.237 356.809 401.684 357.131C400.885 357.235 400.294 357.363 399.839 357.466L399.835 357.467C399.304 357.587 399.089 357.636 398.906 357.638C398.742 357.639 398.55 357.62 397.76 356.995ZM445.104 388.205C444.231 388.046 443.144 387.87 442.042 387.766L436.694 386.569L436.444 386.505L448.686 388.77C449.068 388.912 449.456 389.048 449.847 389.177C449.699 389.152 449.551 389.127 449.403 389.102C447.941 388.854 446.529 388.592 445.189 388.224L445.147 388.213L445.104 388.205ZM435.403 396.298C435.401 396.298 435.4 396.297 435.402 396.298L435.403 396.298ZM421.62 372.328C422.736 372.298 424.043 372.504 425.389 372.967C427.174 373.584 428.6 374.53 429.478 375.511C430.381 376.521 430.557 377.376 430.362 377.939C430.169 378.498 429.5 379.06 428.156 379.291C426.851 379.516 425.137 379.372 423.351 378.751C421.561 378.128 420.133 377.193 419.256 376.225C418.357 375.232 418.18 374.39 418.376 373.819C418.624 373.101 419.663 372.38 421.62 372.328Z" fill="#FF6600" stroke="white" stroke-width="2"/>
</g>
<defs>
<clipPath id="clip0_2:503">
<rect width="155" height="155" fill="white" transform="translate(340 344)"/>
</clipPath>
</defs>
</svg>
