<svg width="512" height="512" viewBox="0 0 512 512" fill="none" xmlns="http://www.w3.org/2000/svg">
<circle cx="256" cy="256" r="256" fill="white"/>
<g clip-path="url(#clip0_2:547)">
<path fill-rule="evenodd" clip-rule="evenodd" d="M329.42 97.193C321.887 105.112 308.186 188.056 311.684 204.567C313.686 214.019 320.938 213.587 324.639 203.796C332.095 184.072 340.342 119.849 337.526 103.429C336.301 96.2816 332.828 93.6102 329.42 97.193ZM401.706 110.459C388.645 116.475 351.273 176.603 343.864 203.52C340.374 216.202 345.22 224.842 352.952 219.721C365.261 211.567 412.561 120.979 408.982 112.413C407.837 109.674 405.041 108.923 401.706 110.459ZM202.933 121.445C178.325 126.723 174.281 149.267 188.818 200.152C191.616 209.949 191.47 210.572 186.381 210.542C180.009 210.505 179.461 209.774 172.8 192.426C156.457 149.857 137.784 135.341 120.746 151.96C108.219 164.182 107.157 184.472 117.301 217.814L118.988 223.36L114.934 235.306C102.653 271.492 98.5831 290.825 97.2941 319.068C92.7194 419.309 165.188 443.027 294.4 383.576C382.865 342.874 418.378 314.304 412.408 288.64C406.156 261.761 383.061 243.817 332.8 226.784C300.691 215.903 275.455 210.715 245.481 208.835L240.722 208.535L240.48 202.935C240.347 199.854 240.134 192.265 240.008 186.071C239.013 137.595 226.811 116.325 202.933 121.445Z" fill="#FBFBFB"/>
<path fill-rule="evenodd" clip-rule="evenodd" d="M239.574 0.290559C96.7552 9.48736 -10.9222 134.066 0.647681 276.717C11.9808 416.46 133.48 521.092 273.389 511.595C415.852 501.925 522.898 377.628 511.352 235.283C500.054 95.977 379.005 -8.68736 239.574 0.290559ZM334.057 96.2022C338.996 98.7558 339.283 117.627 334.916 152.632C329.076 199.433 321.623 219.094 313.531 209.047C308.608 202.936 311.593 168.102 320.68 125.654C326.14 100.14 329.094 93.6358 334.057 96.2022ZM407.416 110.349C411.652 113.316 407.484 125.12 389.734 160.426C363.773 212.065 350.227 229.02 343.837 217.87C338.753 209 351.387 178.336 374.798 142.72C391.652 117.079 402.15 106.66 407.416 110.349ZM215.069 121.427C231.511 126.257 239.188 146.158 240.008 186.071C240.134 192.265 240.347 199.854 240.48 202.935L240.722 208.535L245.481 208.835C275.455 210.715 300.691 215.903 332.8 226.784C383.06 243.817 406.156 261.761 412.408 288.64C417.793 311.793 390.481 336.403 321.494 370.559C265.517 398.272 234.724 409.262 200.251 413.828C121.016 424.321 87.1488 383.601 99.6774 292.906C101.697 278.287 106.496 260.172 114.934 235.306L118.988 223.36L117.3 217.814C104.959 177.243 109.878 152.069 131.384 145.747C144.878 141.782 159.823 158.625 172.8 192.426C179.461 209.774 180.009 210.505 186.381 210.542C191.47 210.572 191.616 209.949 188.818 200.152C176.566 157.262 177.647 134.939 192.438 125.435C198.409 121.597 209.165 119.693 215.069 121.427Z" fill="#0444AC"/>
</g>
<g clip-path="url(#clip1_2:547)">
<path d="M425.371 382.145C430.387 382.145 434.453 378.553 434.453 374.122C434.453 369.691 430.387 366.1 425.371 366.1C420.355 366.1 416.289 369.691 416.289 374.122C416.289 378.553 420.355 382.145 425.371 382.145Z" fill="black"/>
<path d="M397.759 356.995L397.786 355.954L396.563 356.193L396.281 356.248L394.247 356.645L395.447 357.669C395.12 357.814 394.646 357.867 393.912 357.948L393.901 357.949C393.257 358.021 392.371 358.12 391.642 358.516C391.252 358.727 390.887 359.031 390.615 359.465C390.57 359.538 390.528 359.612 390.49 359.688C390.189 359.587 389.917 359.513 389.672 359.47C389.241 359.395 388.518 359.345 388.019 359.884C387.515 360.43 387.652 361.129 387.738 361.441C387.843 361.828 388.042 362.237 388.246 362.605C388.464 363 388.739 363.436 389.006 363.85L388.631 364.149C386.367 365.953 385.234 368.691 384.2 371.192L384.172 371.258C383.091 373.872 382.088 376.276 380.18 377.978L380.024 378.116L379.937 378.305C378.514 381.387 377.636 384.58 376.864 387.745C376.689 388.465 376.519 389.181 376.35 389.895C375.77 392.344 375.199 394.757 374.426 397.15L374.404 397.22L374.391 397.293C373.402 403.219 372.485 409.355 373.999 415.523C374.095 416.626 374.095 417.83 374.096 419.121L374.096 419.251C374.096 420.601 374.1 422.034 374.235 423.429C374.503 426.212 375.307 429.046 377.835 430.989C383.633 435.748 388.557 441.651 393.47 447.54C394.036 448.22 394.603 448.899 395.17 449.576C403.759 460.14 411.333 471.54 418.11 483.297L419.319 485.394C419.583 486.259 419.895 487.218 420.257 488.03C420.464 488.496 420.706 488.955 420.988 489.333C421.256 489.692 421.649 490.097 422.197 490.263L423.717 490.723L423.475 489.153C422.796 484.746 421.914 477.735 421.486 472.298L421.483 472.261L421.477 472.225C420.365 464.975 418.028 458.095 415.666 451.319C415.55 450.987 415.434 450.656 415.319 450.325C413.066 443.872 410.844 437.503 409.598 430.864C409.557 430.568 409.513 430.269 409.47 429.974L409.47 429.97C409.428 429.69 409.388 429.413 409.35 429.138V427.43V426.43H409.02C408.244 419.701 408.232 412.969 412.752 408.143C415.204 405.675 418.281 404.102 421.61 402.677C422.438 402.322 423.287 401.976 424.144 401.625C426.685 400.587 429.303 399.517 431.686 398.127L431.691 398.124C432.983 397.36 434.332 396.741 435.7 396.296C435.745 396.289 435.797 396.278 435.854 396.261C439.987 394.986 444.439 395.014 448.84 395.73L449.001 394.743L448.836 395.729L448.837 395.729C448.837 395.73 448.838 395.73 448.84 395.73L448.853 395.733L448.899 395.742C448.93 395.749 448.991 395.763 449.053 395.773C449.154 395.79 449.255 395.806 449.355 395.823C449.675 395.875 449.988 395.927 450.283 395.984L450.334 395.994L450.386 395.999C450.888 396.044 451.511 396.118 452.2 396.2C453.602 396.368 455.278 396.568 456.777 396.619C457.916 396.657 459.06 396.617 460.026 396.393C460.965 396.175 461.96 395.731 462.461 394.773L462.53 394.643C462.62 394.722 462.709 394.799 462.797 394.875C463.116 395.153 463.421 395.417 463.721 395.67C464.069 395.964 464.4 396.233 464.694 396.441C464.952 396.623 465.307 396.854 465.676 396.937L467.032 397.242L466.89 395.86C466.548 392.513 464.696 390.119 462.357 388.37C460.057 386.65 457.229 385.507 454.75 384.63C453.239 383.901 451.564 383.366 449.949 382.866C449.815 382.825 449.682 382.784 449.549 382.743C448.033 382.275 446.579 381.826 445.253 381.254C443.818 380.634 442.606 379.899 441.7 378.914C440.809 377.945 440.172 376.688 439.954 374.94L439.935 374.79L439.873 374.653L439.83 374.557C439.603 374.052 439.356 373.502 439.053 372.964L439.021 372.907L438.982 372.854L437.453 370.816L437.607 370.739L436.783 369.767C433.577 365.983 429.08 363.235 424.276 362.164C419.709 360.584 414.517 358.997 409.56 358.362L408.749 358.258L408.486 359.033C408.366 359.387 408.261 359.61 408.182 359.744C408.15 359.719 408.112 359.688 408.07 359.65C407.858 359.464 407.626 359.214 407.326 358.893L407.323 358.89L407.294 358.858C406.745 358.269 405.985 357.453 405.059 356.992C404.565 356.745 403.995 356.583 403.362 356.611C402.797 356.636 402.236 356.809 401.684 357.131C400.884 357.235 400.294 357.363 399.838 357.466L399.834 357.467C399.303 357.587 399.088 357.636 398.906 357.638C398.741 357.639 398.549 357.62 397.759 356.995ZM445.103 388.205C444.23 388.046 443.143 387.87 442.042 387.766L436.694 386.569L436.444 386.505L448.685 388.77C449.068 388.912 449.456 389.048 449.847 389.177C449.698 389.152 449.55 389.127 449.403 389.102C447.94 388.854 446.529 388.592 445.189 388.224L445.146 388.213L445.103 388.205ZM435.403 396.298C435.401 396.298 435.4 396.297 435.401 396.298L435.403 396.298ZM421.62 372.328C422.736 372.298 424.042 372.504 425.389 372.967C427.173 373.584 428.6 374.53 429.477 375.511C430.381 376.521 430.557 377.376 430.362 377.939C430.168 378.498 429.5 379.06 428.155 379.291C426.851 379.516 425.137 379.372 423.351 378.751C421.56 378.128 420.132 377.193 419.256 376.225C418.357 375.232 418.18 374.39 418.376 373.819C418.624 373.101 419.663 372.38 421.62 372.328Z" fill="#FF6600" stroke="white" stroke-width="2"/>
</g>
<defs>
<clipPath id="clip0_2:547">
<rect width="512" height="512" fill="white"/>
</clipPath>
<clipPath id="clip1_2:547">
<rect width="155" height="155" fill="white" transform="translate(340 344)"/>
</clipPath>
</defs>
</svg>
