<svg width="512" height="512" viewBox="0 0 512 512" fill="none" xmlns="http://www.w3.org/2000/svg">
<circle cx="256" cy="256" r="256" fill="white"/>
<g clip-path="url(#clip0_2:547)">
<path fill-rule="evenodd" clip-rule="evenodd" d="M329.42 97.193C321.887 105.112 308.186 188.056 311.684 204.567C313.686 214.019 320.938 213.587 324.639 203.796C332.095 184.072 340.342 119.849 337.526 103.429C336.301 96.2816 332.828 93.6102 329.42 97.193ZM401.706 110.459C388.645 116.475 351.273 176.603 343.864 203.52C340.374 216.202 345.22 224.842 352.952 219.721C365.261 211.567 412.561 120.979 408.982 112.413C407.837 109.674 405.041 108.923 401.706 110.459ZM202.933 121.445C178.325 126.723 174.281 149.267 188.818 200.152C191.616 209.949 191.47 210.572 186.381 210.542C180.009 210.505 179.461 209.774 172.8 192.426C156.457 149.857 137.784 135.341 120.746 151.96C108.219 164.182 107.157 184.472 117.301 217.814L118.988 223.36L114.934 235.306C102.653 271.492 98.5831 290.825 97.2941 319.068C92.7194 419.309 165.188 443.027 294.4 383.576C382.865 342.874 418.378 314.304 412.408 288.64C406.156 261.761 383.061 243.817 332.8 226.784C300.691 215.903 275.455 210.715 245.481 208.835L240.722 208.535L240.48 202.935C240.347 199.854 240.134 192.265 240.008 186.071C239.013 137.595 226.811 116.325 202.933 121.445Z" fill="#FBFBFB"/>
<path fill-rule="evenodd" clip-rule="evenodd" d="M239.574 0.290559C96.7552 9.48736 -10.9222 134.066 0.647681 276.717C11.9808 416.46 133.48 521.092 273.389 511.595C415.852 501.925 522.898 377.628 511.352 235.283C500.054 95.977 379.005 -8.68736 239.574 0.290559ZM334.057 96.2022C338.996 98.7558 339.283 117.627 334.916 152.632C329.076 199.433 321.623 219.094 313.531 209.047C308.608 202.936 311.593 168.102 320.68 125.654C326.14 100.14 329.094 93.6358 334.057 96.2022ZM407.416 110.349C411.652 113.316 407.484 125.12 389.734 160.426C363.773 212.065 350.227 229.02 343.837 217.87C338.753 209 351.387 178.336 374.798 142.72C391.652 117.079 402.15 106.66 407.416 110.349ZM215.069 121.427C231.511 126.257 239.188 146.158 240.008 186.071C240.134 192.265 240.347 199.854 240.48 202.935L240.722 208.535L245.481 208.835C275.455 210.715 300.691 215.903 332.8 226.784C383.06 243.817 406.156 261.761 412.408 288.64C417.793 311.793 390.481 336.403 321.494 370.559C265.517 398.272 234.724 409.262 200.251 413.828C121.016 424.321 87.1488 383.601 99.6774 292.906C101.697 278.287 106.496 260.172 114.934 235.306L118.988 223.36L117.3 217.814C104.959 177.243 109.878 152.069 131.384 145.747C144.878 141.782 159.823 158.625 172.8 192.426C179.461 209.774 180.009 210.505 186.381 210.542C191.47 210.572 191.616 209.949 188.818 200.152C176.566 157.262 177.647 134.939 192.438 125.435C198.409 121.597 209.165 119.693 215.069 121.427Z" fill="#0444AC"/>
</g>
<g clip-path="url(#clip1_2:547)">
<path d="M417.569 344.547C374.691 344.547 340 379.099 340 421.7C340 464.3 374.691 498.853 417.569 498.853C431.585 498.853 444.628 495.176 456.007 488.709L460.045 498.853H491.267L479.042 468.602C489.061 455.614 495 439.323 495 421.7C495 379.099 460.309 344.547 417.569 344.547V344.547Z" fill="url(#paint0_radial_2:547)"/>
<path d="M416.876 432.071C445.362 432.071 468.454 412.356 468.454 388.035C468.454 363.715 445.362 344 416.876 344C388.389 344 365.297 363.715 365.297 388.035C365.297 412.356 388.389 432.071 416.876 432.071Z" fill="url(#paint1_linear_2:547)"/>
<path d="M425.437 384.33C430.472 384.33 434.554 380.249 434.554 375.214C434.554 370.179 430.472 366.097 425.437 366.097C420.402 366.097 416.32 370.179 416.32 375.214C416.32 380.249 420.402 384.33 425.437 384.33Z" fill="black"/>
<path d="M459.986 388.225L408.332 380.764L406.882 388.258L458.536 395.719L459.986 388.225Z" fill="black"/>
<path d="M464.153 390.478H455.036V394.502H464.153V390.478Z" fill="black"/>
<path d="M396.754 357.174C396.675 360.213 391.384 357.567 391.162 361.032C385.306 358.423 391.619 365.014 391.032 365.625H390.989L390.556 365.582C390.273 365.481 389.862 365.306 389.254 364.931C385.161 368.192 385.064 374.964 380.845 378.724C378.084 384.705 377.404 391.185 375.378 397.457C374.381 403.424 373.505 409.391 374.988 415.358C375.433 420.215 374.032 426.82 378.457 430.206C385.021 435.59 390.474 442.417 395.941 448.939C404.572 459.554 412.177 471.003 418.976 482.798C419.426 479.856 420.517 488.709 422.487 489.306C421.804 484.879 420.919 477.844 420.489 472.376C418.296 458.084 411.261 445.178 408.611 431.024C408.529 430.428 408.433 429.814 408.35 429.207V427.43H408.133C407.265 420.437 406.954 412.86 412.032 407.448C417.222 402.217 424.951 400.899 431.182 397.263C432.57 396.443 434.027 395.778 435.511 395.306C435.524 395.302 435.543 395.311 435.555 395.306C439.884 393.97 444.505 394.012 449.001 394.743C449.067 394.754 449.151 394.775 449.217 394.786C449.627 394.855 450.07 394.924 450.475 395.003C453.763 395.296 460.382 396.585 461.576 394.309C457.038 390.438 450.489 390.715 444.924 389.189C444.049 389.029 442.968 388.856 441.885 388.756L436.459 387.541L435.115 387.195V387.238L415.688 383.463C415.38 383.183 415.044 382.896 414.733 382.684L433.605 385.029V384.942C434.271 385.09 434.932 385.211 435.603 385.289V385.332L448.952 387.802C451.256 388.663 453.712 389.301 456.016 389.454C459.818 390.007 464.661 395.684 465.896 395.962C465.284 389.981 459.318 387.303 454.364 385.554C448.578 382.737 439.933 382.848 438.961 375.064C438.717 374.521 438.477 373.98 438.182 373.454L435.934 370.457L436.02 370.413C432.94 366.778 428.61 364.141 424.003 363.128C419.438 361.546 414.304 359.978 409.433 359.354C407.796 364.183 405.964 355.524 402.023 358.097C398.568 358.506 399.04 359.419 396.472 357.229L396.754 357.174ZM421.593 371.328C422.845 371.295 424.271 371.525 425.715 372.022C429.544 373.346 432.042 376.143 431.307 378.266C430.571 380.39 426.852 381.028 423.022 379.696C419.193 378.364 416.695 375.63 417.43 373.493C417.89 372.162 419.512 371.384 421.593 371.328Z" fill="#FF6600"/>
</g>
<defs>
<radialGradient id="paint0_radial_2:547" cx="0" cy="0" r="1" gradientUnits="userSpaceOnUse" gradientTransform="translate(408.382 405.398) rotate(57.1766) scale(139.383 77.1999)">
<stop/>
<stop offset="1" stop-opacity="0.897"/>
</radialGradient>
<linearGradient id="paint1_linear_2:547" x1="418.333" y1="345.074" x2="418.333" y2="429.207" gradientUnits="userSpaceOnUse">
<stop stop-color="white"/>
<stop offset="1" stop-color="white" stop-opacity="0"/>
</linearGradient>
<clipPath id="clip0_2:547">
<rect width="512" height="512" fill="white"/>
</clipPath>
<clipPath id="clip1_2:547">
<rect width="155" height="155" fill="white" transform="translate(340 344)"/>
</clipPath>
</defs>
</svg>
