<svg xmlns="http://www.w3.org/2000/svg" width="512" height="512" fill="none"><circle cx="256" cy="256" r="256" fill="#E91F63"/><path fill="#fff" d="M224.874 86H108a5 5 0 0 0 0 10h108.248c.773-1.146 1.572-2.29 2.398-3.43l3.661-5.054L224.874 86Z"/><path fill="#fff" fill-opacity=".7" d="M188.353 150.716a691.901 691.901 0 0 0-2.709 7.284H62a5 5 0 0 1 0-10h127.491l-.36.649-.778 2.067Z"/><path fill="#fff" fill-opacity=".3" d="M175.008 209H42a5 5 0 0 0 0 10h131.636l.085-.433.03-.149c.62-3.155 1.027-5.26 1.28-6.916-.018-.837-.025-1.671-.023-2.502Z"/><path fill="#fff" d="M179.159 271H37a5 5 0 0 0 0 10h149.772a156.483 156.483 0 0 0-3.007-3.786 52.046 52.046 0 0 1-4.606-6.214Z"/><path fill="#fff" fill-opacity=".6" d="M217.848 332H52a5 5 0 0 0 0 10h171.195a616.37 616.37 0 0 0-2.986-5.701 5315.97 5315.97 0 0 1-2.361-4.299Z"/><path fill="#fff" d="M247.238 394H92a5 5 0 0 0 0 10h159.287a756.759 756.759 0 0 0-4.049-10ZM301.279 56.863c-1.961 8.752-15.769-1.926-18.387 7.978-15.464-10.89-.949 11.789-2.996 13.222l-.125-.025-1.228-.372c-.762-.454-1.851-1.195-3.397-2.626-13.709 7.105-17.852 26.652-32.207 35.132-11.404 15.738-17.067 34.109-26.508 51.11-6.287 16.705-12.228 33.477-11.336 51.595-1.48 14.313-9.304 32.635 1.576 44.959 15.929 19.328 27.823 42.2 39.93 64.197 18.932 35.651 34.417 73.126 47.374 111.146 2.978-8.259 1.088 17.99 6.451 20.841.548-13.203 1.997-34.073 3.869-50.145 1.803-42.624-11.204-83.992-10.805-126.475.104-1.774.176-3.604.281-5.411l1.013-5.142-.626-.123c1.473-20.741 4.893-42.85 22.681-55.62 18.006-12.184 41.131-11.593 61.24-18.564 4.485-1.583 9.081-2.676 13.648-3.195.039-.005.09.03.126.024 13.294-1.399 26.647 1.356 39.244 6.037.186.07.416.179.602.249 1.146.431 2.388.883 3.516 1.343 9.353 2.723 27.779 10.229 32.531 4.322-10.928-13.795-30.046-16.726-45.283-24.318-2.444-.961-5.474-2.079-8.55-2.986l-15.014-6.608-3.694-1.771-.025.125-54.084-22.003c-.732-.987-1.54-2.01-2.319-2.802l53.293 17.55.049-.252c1.843.81 3.687 1.536 5.586 2.144l-.024.125 37.234 14.762c6.177 3.804 12.923 7.052 19.504 8.808 10.69 3.77 21.472 22.965 24.889 24.472 1.639-17.661-14.103-28.815-27.446-36.701-15.144-11.454-40.232-16.062-38.605-39.151-.398-1.709-.784-3.413-1.34-5.104l-4.798-9.958.276-.076c-6.845-12.281-17.874-22.381-30.632-27.94-12.314-7.183-26.282-14.65-40.025-19.234-7.494 13.044-7.858-13.065-20.733-7.865-10.236-.785-9.391 2.127-15.573-5.675h.847Zm63.832 55.135c3.642.618 7.64 2.097 11.534 4.358 10.332 6.016 15.967 15.539 12.627 21.265-3.339 5.726-14.468 5.454-24.795-.586-10.327-6.04-15.999-15.378-12.651-21.144 2.088-3.591 7.228-4.919 13.285-3.893Z"/><path fill="#E91F63" d="M363 137.5c10.353 6.624 18.752 6.64 23 0 4.248-6.64-.147-14.376-10.5-21-10.353-6.624-19.252-6.64-23.5 0-4.248 6.64.647 14.376 11 21Z"/><path fill="#fff" fill-rule="evenodd" d="M377.506 138.821c3.757-.004 5.83-1.287 6.724-2.683.893-1.396 1.189-3.816-.382-7.229-1.543-3.353-4.662-7.006-9.155-9.88-4.492-2.875-9.116-4.175-12.807-4.171-3.757.004-5.83 1.287-6.723 2.683-.894 1.396-1.189 3.816.381 7.229 1.544 3.353 4.662 7.006 9.155 9.88 4.493 2.875 9.116 4.175 12.807 4.171Zm10.935.011c-4.248 6.64-16.084 6.653-26.437.03-10.353-6.624-15.301-17.376-11.053-24.016 4.248-6.639 16.084-6.653 26.437-.029 10.353 6.623 16.612 19.833 11.053 24.015Z" clip-rule="evenodd"/></svg>