<svg width="512" height="512" fill="none" xmlns="http://www.w3.org/2000/svg"><circle cx="256" cy="256" r="256" fill="#fff"/><path d="M281.49 170.886v-4.169l-12.958.89c-3.67.231-6.425 1.012-8.278 2.328-1.852 1.329-2.779 3.17-2.779 5.523 0 2.291.914 4.12 2.755 5.473 1.829 1.365 4.291 2.036 7.363 2.036 1.963 0 3.804-.305 5.498-.902 1.695-.598 3.182-1.439 4.425-2.511a11.26 11.26 0 0 0 2.914-3.804c.707-1.475 1.06-3.096 1.06-4.864ZM256 3.048C114.846 3.048 3.048 114.846 3.048 256c0 141.166 111.798 252.952 252.952 252.952S508.952 397.166 508.952 256C508.952 114.846 397.166 3.048 256 3.048Zm49.103 149.93c1.195-3.352 2.877-6.229 5.059-8.618 2.182-2.39 4.803-4.23 7.875-5.523 3.072-1.292 6.498-1.938 10.265-1.938 3.401 0 6.473.512 9.204 1.524 2.742 1.012 5.083 2.377 7.046 4.096 1.962 1.719 3.523 3.718 4.669 6.01a20.224 20.224 0 0 1 2.06 7.265h-10.155a13.075 13.075 0 0 0-1.377-3.925 10.74 10.74 0 0 0-2.597-3.145c-1.085-.89-2.353-1.585-3.803-2.085-1.463-.512-3.097-.756-4.938-.756-2.157 0-4.12.439-5.863 1.305-1.756.865-3.255 2.097-4.498 3.681-1.244 1.585-2.207 3.523-2.89 5.791-.694 2.279-1.036 4.803-1.036 7.582 0 2.877.342 5.462 1.036 7.729.683 2.28 1.658 4.194 2.926 5.766a12.644 12.644 0 0 0 4.547 3.609c1.768.828 3.718 1.255 5.839 1.255 3.475 0 6.303-.817 8.497-2.45 2.194-1.634 3.609-4.023 4.267-7.168h10.167c-.293 2.779-1.061 5.315-2.304 7.607a19.591 19.591 0 0 1-4.828 5.863c-1.987 1.622-4.315 2.877-6.997 3.755-2.682.878-5.632 1.329-8.838 1.329-3.804 0-7.229-.634-10.313-1.89-3.072-1.255-5.718-3.072-7.912-5.425-2.194-2.352-3.889-5.217-5.083-8.594-1.195-3.377-1.792-7.168-1.792-11.398-.025-4.132.573-7.887 1.767-11.252ZM160.61 137.594h10.166v9.033h.195a15.03 15.03 0 0 1 2.439-4.023 15.197 15.197 0 0 1 3.462-3.023c1.304-.841 2.755-1.475 4.315-1.914a18.398 18.398 0 0 1 4.962-.658c3.73 0 6.887.89 9.447 2.669 2.572 1.78 4.401 4.34 5.474 7.68h.256a15.967 15.967 0 0 1 2.694-4.315 17.23 17.23 0 0 1 3.828-3.267c1.438-.902 3.023-1.585 4.742-2.06 1.719-.476 3.523-.707 5.424-.707 2.621 0 4.999.414 7.144 1.255 2.146.842 3.974 2.012 5.498 3.536 1.524 1.523 2.694 3.376 3.511 5.546.817 2.17 1.231 4.584 1.231 7.241v36.34h-10.606v-33.792c0-3.498-.902-6.217-2.706-8.131-1.792-1.914-4.364-2.877-7.704-2.877-1.634 0-3.133.293-4.499.866-1.353.573-2.535 1.377-3.51 2.413-.988 1.024-1.756 2.268-2.304 3.706-.561 1.439-.842 3.011-.842 4.718v33.097h-10.459v-34.669c0-1.536-.244-2.926-.719-4.17-.476-1.243-1.146-2.304-2.036-3.194-.878-.889-1.963-1.56-3.218-2.035-1.268-.476-2.682-.72-4.255-.72-1.633 0-3.145.305-4.547.915a10.716 10.716 0 0 0-3.584 2.523 11.487 11.487 0 0 0-2.328 3.828c-.537 1.463-1.414 3.072-1.414 4.803v32.707H160.61v-53.321Zm23.076 255.256c-46.628 0-75.873-32.402-75.873-84.114s29.245-84.224 75.873-84.224c46.629 0 75.764 32.512 75.764 84.224 0 51.7-29.135 84.114-75.764 84.114Zm86.333-202.057a21.22 21.22 0 0 1-5.278.658c-2.658 0-5.084-.377-7.29-1.133-2.219-.756-4.109-1.817-5.693-3.194a14.328 14.328 0 0 1-3.706-4.986c-.89-1.951-1.329-4.12-1.329-6.51 0-4.681 1.743-8.338 5.23-10.971 3.486-2.633 8.533-4.169 15.152-4.596l14.385-.829v-4.12c0-3.072-.975-5.425-2.925-7.022-1.951-1.597-4.706-2.402-8.278-2.402a14.73 14.73 0 0 0-4.035.537c-1.243.365-2.34.877-3.291 1.548a8.85 8.85 0 0 0-2.353 2.414 8.621 8.621 0 0 0-1.28 3.12h-9.972c.061-2.352.646-4.534 1.743-6.534 1.098-1.999 2.585-3.73 4.474-5.205 1.89-1.475 4.096-2.621 6.656-3.438 2.56-.816 5.34-1.231 8.351-1.231 3.242 0 6.18.402 8.814 1.231 2.633.829 4.888 1.987 6.753 3.511 1.865 1.524 3.304 3.353 4.315 5.498 1.012 2.146 1.524 4.547 1.524 7.192v36.584h-10.154v-8.887h-.256a16.017 16.017 0 0 1-2.865 3.901 18.421 18.421 0 0 1-3.925 2.975 19.783 19.783 0 0 1-4.767 1.889Zm67.084 202.057c-35.559 0-59.733-18.627-61.415-47.872h23.149c1.805 16.713 17.957 27.782 40.083 27.782 21.223 0 36.474-11.069 36.474-26.197 0-13.092-9.265-21.004-30.708-26.417l-20.895-5.193c-30.037-7.448-43.69-21.114-43.69-43.581 0-27.66 24.161-46.86 58.599-46.86 33.646 0 57.125 19.31 58.027 47.08h-22.918c-1.585-16.714-15.238-26.99-35.572-26.99-20.212 0-34.207 10.386-34.207 25.405 0 11.849 8.802 18.859 30.257 24.271l17.615 4.401c33.536 8.131 47.312 21.345 47.312 45.056-.012 30.257-23.942 49.115-62.111 49.115ZM183.686 245.272c-31.951 0-51.931 24.503-51.931 63.452 0 38.839 19.98 63.342 51.931 63.342 31.842 0 51.932-24.503 51.932-63.342.012-38.949-20.09-63.452-51.932-63.452Z" fill="#000"/><g clip-path="url(#a)"><path d="M425.371 382.145c5.016 0 9.082-3.592 9.082-8.023 0-4.431-4.066-8.022-9.082-8.022-5.016 0-9.082 3.591-9.082 8.022s4.066 8.023 9.082 8.023Z" fill="#000"/><path d="m397.76 356.995.027-1.041-1.224.239-.282.055-2.034.397 1.201 1.024c-.328.145-.801.198-1.535.279l-.011.001c-.645.072-1.531.171-2.26.567a2.713 2.713 0 0 0-1.152 1.172 5.715 5.715 0 0 0-.817-.218c-.431-.075-1.155-.125-1.653.414-.504.546-.367 1.245-.282 1.557.106.387.305.796.508 1.164.219.395.494.831.761 1.245l-.375.299c-2.265 1.804-3.397 4.542-4.432 7.043l-.027.066c-1.081 2.614-2.084 5.018-3.993 6.72l-.155.138-.087.189c-1.423 3.082-2.302 6.275-3.073 9.44-.176.72-.346 1.436-.515 2.15-.579 2.449-1.15 4.862-1.923 7.255l-.023.07-.012.073c-.99 5.926-1.906 12.062-.393 18.23.097 1.103.097 2.307.097 3.598v.13c0 1.35.005 2.783.139 4.178.268 2.783 1.072 5.617 3.601 7.56 5.798 4.759 10.721 10.662 15.634 16.551.567.68 1.133 1.359 1.701 2.036 8.589 10.564 16.162 21.964 22.939 33.721l1.209 2.097c.264.865.577 1.824.938 2.636.208.466.449.925.731 1.303.269.359.662.764 1.21.93l1.52.46-.242-1.57c-.68-4.407-1.562-11.418-1.99-16.855l-.003-.037-.005-.036c-1.112-7.25-3.45-14.13-5.812-20.906l-.347-.994c-2.252-6.453-4.475-12.822-5.721-19.461-.04-.296-.084-.595-.127-.89l-.001-.004c-.041-.28-.082-.557-.12-.832v-2.708h-.329c-.776-6.729-.789-13.461 3.732-18.287 2.451-2.468 5.528-4.041 8.858-5.466.827-.355 1.676-.701 2.533-1.052 2.541-1.038 5.16-2.108 7.542-3.498l.005-.003a20.177 20.177 0 0 1 4.01-1.828c.045-.007.097-.018.154-.035 4.132-1.275 8.585-1.247 12.986-.531l.16-.987-.164.986.004.001.013.003.045.009c.032.007.093.021.154.031l.303.05c.32.052.633.104.928.161l.051.01.052.005c.502.045 1.125.119 1.814.201 1.401.168 3.078.368 4.577.419 1.138.038 2.282-.002 3.249-.226.939-.218 1.933-.662 2.435-1.62l.068-.13.268.232c.319.278.624.542.923.795.348.294.68.563.974.771.257.182.613.413.982.496l1.355.305-.141-1.382c-.343-3.347-2.195-5.741-4.533-7.49-2.3-1.72-5.129-2.863-7.607-3.74-1.512-.729-3.187-1.264-4.802-1.764a98.627 98.627 0 0 1-.399-.123c-1.516-.468-2.97-.917-4.296-1.489-1.435-.62-2.647-1.355-3.553-2.34-.891-.969-1.529-2.226-1.747-3.974l-.018-.15-.062-.137-.043-.096c-.228-.505-.475-1.055-.777-1.593l-.032-.057-.04-.053-1.529-2.038.154-.077-.823-.972c-3.207-3.784-7.704-6.532-12.508-7.603-4.566-1.58-9.758-3.167-14.715-3.802l-.812-.104-.263.775c-.12.354-.225.577-.303.711a2.416 2.416 0 0 1-.113-.094 11.667 11.667 0 0 1-.743-.757l-.003-.003-.029-.032c-.549-.589-1.309-1.405-2.235-1.866a3.431 3.431 0 0 0-1.698-.381c-.564.025-1.125.198-1.678.52-.799.104-1.39.232-1.845.335l-.004.001c-.531.12-.746.169-.929.171-.164.001-.356-.018-1.146-.643Zm47.344 31.21a36.598 36.598 0 0 0-3.062-.439l-5.348-1.197-.25-.064 12.242 2.265c.382.142.77.278 1.161.407l-.444-.075c-1.462-.248-2.874-.51-4.214-.878l-.042-.011-.043-.008Zm-9.701 8.093h-.001.001Zm-13.783-23.97c1.116-.03 2.423.176 3.769.639 1.785.617 3.211 1.563 4.089 2.544.903 1.01 1.079 1.865.884 2.428-.193.559-.862 1.121-2.206 1.352-1.305.225-3.019.081-4.805-.54-1.79-.623-3.218-1.558-4.095-2.526-.899-.993-1.076-1.835-.88-2.406.248-.718 1.287-1.439 3.244-1.491Z" fill="#F60" stroke="#fff" stroke-width="2"/></g><defs><clipPath id="a"><path fill="#fff" transform="translate(340 344)" d="M0 0h155v155H0z"/></clipPath></defs></svg>