<svg width="512" height="512" fill="none" xmlns="http://www.w3.org/2000/svg"><circle cx="256" cy="256" r="256" fill="#fff"/><path d="M281.49 170.886v-4.169l-12.958.89c-3.67.231-6.425 1.012-8.278 2.328-1.852 1.329-2.779 3.17-2.779 5.523 0 2.291.914 4.12 2.755 5.473 1.829 1.365 4.291 2.036 7.363 2.036 1.963 0 3.804-.305 5.498-.902 1.695-.598 3.182-1.439 4.425-2.511a11.26 11.26 0 0 0 2.914-3.804c.707-1.475 1.06-3.096 1.06-4.864ZM256 3.048C114.846 3.048 3.048 114.846 3.048 256c0 141.166 111.798 252.952 252.952 252.952S508.952 397.166 508.952 256C508.952 114.846 397.166 3.048 256 3.048Zm49.103 149.93c1.195-3.352 2.877-6.229 5.059-8.618 2.182-2.39 4.803-4.23 7.875-5.523 3.072-1.292 6.498-1.938 10.265-1.938 3.401 0 6.473.512 9.204 1.524 2.742 1.012 5.083 2.377 7.046 4.096 1.962 1.719 3.523 3.718 4.669 6.01a20.224 20.224 0 0 1 2.06 7.265h-10.155a13.075 13.075 0 0 0-1.377-3.925 10.74 10.74 0 0 0-2.597-3.145c-1.085-.89-2.353-1.585-3.803-2.085-1.463-.512-3.097-.756-4.938-.756-2.157 0-4.12.439-5.863 1.305-1.756.865-3.255 2.097-4.498 3.681-1.244 1.585-2.207 3.523-2.89 5.791-.694 2.279-1.036 4.803-1.036 7.582 0 2.877.342 5.462 1.036 7.729.683 2.28 1.658 4.194 2.926 5.766a12.644 12.644 0 0 0 4.547 3.609c1.768.828 3.718 1.255 5.839 1.255 3.475 0 6.303-.817 8.497-2.45 2.194-1.634 3.609-4.023 4.267-7.168h10.167c-.293 2.779-1.061 5.315-2.304 7.607a19.591 19.591 0 0 1-4.828 5.863c-1.987 1.622-4.315 2.877-6.997 3.755-2.682.878-5.632 1.329-8.838 1.329-3.804 0-7.229-.634-10.313-1.89-3.072-1.255-5.718-3.072-7.912-5.425-2.194-2.352-3.889-5.217-5.083-8.594-1.195-3.377-1.792-7.168-1.792-11.398-.025-4.132.573-7.887 1.767-11.252ZM160.61 137.594h10.166v9.033h.195a15.03 15.03 0 0 1 2.439-4.023 15.197 15.197 0 0 1 3.462-3.023c1.304-.841 2.755-1.475 4.315-1.914a18.398 18.398 0 0 1 4.962-.658c3.73 0 6.887.89 9.447 2.669 2.572 1.78 4.401 4.34 5.474 7.68h.256a15.967 15.967 0 0 1 2.694-4.315 17.23 17.23 0 0 1 3.828-3.267c1.438-.902 3.023-1.585 4.742-2.06 1.719-.476 3.523-.707 5.424-.707 2.621 0 4.999.414 7.144 1.255 2.146.842 3.974 2.012 5.498 3.536 1.524 1.523 2.694 3.376 3.511 5.546.817 2.17 1.231 4.584 1.231 7.241v36.34h-10.606v-33.792c0-3.498-.902-6.217-2.706-8.131-1.792-1.914-4.364-2.877-7.704-2.877-1.634 0-3.133.293-4.499.866-1.353.573-2.535 1.377-3.51 2.413-.988 1.024-1.756 2.268-2.304 3.706-.561 1.439-.842 3.011-.842 4.718v33.097h-10.459v-34.669c0-1.536-.244-2.926-.719-4.17-.476-1.243-1.146-2.304-2.036-3.194-.878-.889-1.963-1.56-3.218-2.035-1.268-.476-2.682-.72-4.255-.72-1.633 0-3.145.305-4.547.915a10.716 10.716 0 0 0-3.584 2.523 11.487 11.487 0 0 0-2.328 3.828c-.537 1.463-1.414 3.072-1.414 4.803v32.707H160.61v-53.321Zm23.076 255.256c-46.628 0-75.873-32.402-75.873-84.114s29.245-84.224 75.873-84.224c46.629 0 75.764 32.512 75.764 84.224 0 51.7-29.135 84.114-75.764 84.114Zm86.333-202.057a21.22 21.22 0 0 1-5.278.658c-2.658 0-5.084-.377-7.29-1.133-2.219-.756-4.109-1.817-5.693-3.194a14.328 14.328 0 0 1-3.706-4.986c-.89-1.951-1.329-4.12-1.329-6.51 0-4.681 1.743-8.338 5.23-10.971 3.486-2.633 8.533-4.169 15.153-4.596l14.384-.829v-4.12c0-3.072-.975-5.425-2.925-7.022-1.951-1.597-4.706-2.402-8.278-2.402a14.73 14.73 0 0 0-4.035.537c-1.243.365-2.34.877-3.291 1.548a8.85 8.85 0 0 0-2.353 2.414 8.621 8.621 0 0 0-1.28 3.12h-9.972c.061-2.352.646-4.534 1.743-6.534 1.098-1.999 2.585-3.73 4.474-5.205 1.89-1.475 4.096-2.621 6.656-3.438 2.56-.816 5.34-1.231 8.351-1.231 3.242 0 6.18.402 8.814 1.231 2.633.829 4.888 1.987 6.753 3.511 1.865 1.524 3.304 3.353 4.315 5.498 1.012 2.146 1.524 4.547 1.524 7.192v36.584h-10.154v-8.887h-.256a16.017 16.017 0 0 1-2.865 3.901 18.421 18.421 0 0 1-3.925 2.975 19.783 19.783 0 0 1-4.767 1.889Zm67.084 202.057c-35.559 0-59.733-18.627-61.415-47.872h23.149c1.805 16.713 17.957 27.782 40.083 27.782 21.223 0 36.474-11.069 36.474-26.197 0-13.093-9.265-21.004-30.708-26.417l-20.895-5.193c-30.037-7.448-43.69-21.114-43.69-43.581 0-27.66 24.161-46.86 58.599-46.86 33.646 0 57.125 19.31 58.027 47.08h-22.918c-1.585-16.714-15.238-26.99-35.572-26.99-20.212 0-34.207 10.386-34.207 25.405 0 11.849 8.802 18.859 30.257 24.271l17.615 4.401c33.536 8.131 47.312 21.345 47.312 45.056-.012 30.257-23.942 49.115-62.111 49.115ZM183.686 245.272c-31.951 0-51.931 24.503-51.931 63.452 0 38.839 19.98 63.342 51.931 63.342 31.842 0 51.932-24.503 51.932-63.342.012-38.949-20.09-63.452-51.932-63.452Z" fill="#000"/><circle cx="434.5" cy="434.5" r="77.5" fill="#fff"/><path d="M425.077 383.035h-35.382a1.513 1.513 0 0 0 0 3.028h32.771c.234-.348.476-.694.726-1.039l1.108-1.53.777-.459Z" fill="#E91F63"/><path d="M414.021 402.627c-.263.699-.54 1.435-.82 2.205H375.77a1.514 1.514 0 0 1 0-3.027h38.595l-.109.196-.235.626Z" fill="#E91F63" fill-opacity=".7"/><path d="M409.981 420.271h-40.266a1.514 1.514 0 0 0 0 3.028h39.851l.025-.131.009-.045c.188-.955.311-1.593.388-2.094a32.024 32.024 0 0 1-.007-.758Z" fill="#E91F63" fill-opacity=".3"/><path d="M411.238 439.041h-43.037a1.513 1.513 0 0 0 0 3.027h45.341a48.126 48.126 0 0 0-.91-1.146 15.72 15.72 0 0 1-1.394-1.881Z" fill="#E91F63"/><path d="M422.95 457.508h-50.208a1.513 1.513 0 0 0 0 3.027h51.827c-.299-.577-.6-1.152-.904-1.726l-.715-1.301Z" fill="#E91F63" fill-opacity=".6"/><path d="M431.847 476.277h-46.995a1.514 1.514 0 0 0 0 3.028h48.221c-.401-1.013-.81-2.022-1.226-3.028ZM448.208 374.214c-.594 2.65-4.774-.583-5.567 2.416-4.681-3.297-.287 3.568-.907 4.002l-.037-.007-.372-.113c-.231-.137-.561-.362-1.029-.795-4.15 2.151-5.404 8.069-9.75 10.636-3.452 4.764-5.167 10.326-8.025 15.473-1.903 5.057-3.702 10.134-3.432 15.619-.448 4.333-2.816 9.88.477 13.611 4.823 5.851 8.423 12.775 12.089 19.435 5.731 10.792 10.419 22.137 14.341 33.647.902-2.5.33 5.446 1.954 6.309.165-3.997.604-10.315 1.171-15.18.546-12.904-3.392-25.427-3.271-38.289.031-.537.053-1.091.085-1.638l.307-1.556-.19-.038c.446-6.278 1.481-12.972 6.866-16.837 5.451-3.689 12.452-3.51 18.54-5.621a18.85 18.85 0 0 1 4.132-.967c.011-.001.027.009.038.008 4.024-.424 8.066.41 11.88 1.827.057.021.126.054.182.075.347.131.723.268 1.065.407 2.831.824 8.409 3.097 9.848 1.308-3.308-4.176-9.096-5.063-13.709-7.361a31.505 31.505 0 0 0-2.588-.904l-4.545-2.001-1.119-.536-.007.038-16.373-6.661a8.24 8.24 0 0 0-.702-.848l16.133 5.312.015-.076c.558.245 1.116.465 1.691.649l-.007.038 11.272 4.469c1.87 1.152 3.912 2.135 5.904 2.666 3.237 1.142 6.501 6.953 7.535 7.409.496-5.347-4.269-8.723-8.309-11.111-4.584-3.467-12.179-4.862-11.687-11.852-.12-.517-.237-1.033-.405-1.545l-1.453-3.015.084-.023c-2.072-3.717-5.411-6.775-9.274-8.458-3.727-2.175-7.956-4.435-12.117-5.823-2.268 3.949-2.379-3.955-6.276-2.381-3.099-.238-2.843.644-4.715-1.718h.257Zm19.324 16.692c1.102.187 2.313.635 3.492 1.319 3.127 1.821 4.833 4.704 3.822 6.438-1.011 1.733-4.38 1.651-7.506-.178-3.126-1.828-4.843-4.655-3.83-6.401.632-1.087 2.188-1.489 4.022-1.178Z" fill="#E91F63"/><path d="M466.591 399.038c3.134 2.005 6.718 2.001 8.004-.009 1.286-2.01-.212-5.265-3.347-7.27-3.134-2.005-6.717-2.001-8.003.009-1.286 2.01.212 5.265 3.346 7.27Z" fill="#000"/><path fill-rule="evenodd" clip-rule="evenodd" d="M471.284 399.026c1.138-.001 1.765-.39 2.036-.812.27-.423.36-1.156-.116-2.189-.467-1.015-1.411-2.121-2.771-2.991-1.36-.87-2.76-1.264-3.878-1.263-1.137.002-1.765.39-2.035.813-.27.422-.36 1.155.116 2.188.467 1.015 1.411 2.121 2.771 2.991 1.36.87 2.76 1.264 3.877 1.263Zm3.311.003c-1.286 2.01-4.87 2.014-8.004.009-3.134-2.005-4.632-5.26-3.346-7.27 1.286-2.01 4.869-2.014 8.003-.009 3.135 2.005 4.633 5.26 3.347 7.27Z" fill="#fff"/></svg>