<svg width="512" height="512" fill="none" xmlns="http://www.w3.org/2000/svg"><circle cx="256" cy="256" r="256" fill="#fff"/><path d="M512 256.002c0 141.379-114.618 255.996-256.005 255.996C114.611 511.998 0 397.381 0 256.002 0 114.613 114.611 0 255.995 0 397.382 0 512 114.613 512 256.002Z" fill="#F47421"/><path d="M325.947 134.832c16.346 9.44 37.243 3.841 46.676-12.5 9.438-16.348 3.844-37.243-12.504-46.681-16.344-9.435-37.239-3.837-46.677 12.51-9.435 16.342-3.838 37.236 12.505 46.671Zm-69.95 221.006a99.448 99.448 0 0 1-42.057-9.289l-23.748 42.558c19.837 9.822 42.17 15.372 65.805 15.372 13.746 0 27.036-1.905 39.667-5.402 2.234-13.727 10.385-26.379 23.38-33.883 12.972-7.489 27.985-8.231 40.98-3.32 25.272-24.85 41.717-58.659 44.111-96.311l-48.71-.709c-4.483 51.001-47.269 90.984-99.428 90.984Zm0-199.679c52.159 0 94.945 39.991 99.428 90.986l48.71-.711c-2.397-37.648-18.842-71.458-44.118-96.306-12.993 4.908-28.004 4.164-40.978-3.327-12.993-7.501-21.142-20.151-23.377-33.88a148.51 148.51 0 0 0-39.665-5.4c-23.635 0-45.966 5.548-65.802 15.374l23.747 42.553a99.417 99.417 0 0 1 42.055-9.289Zm-99.837 99.839c0-33.778 16.786-63.611 42.452-81.677l-24.986-41.858c-29.91 19.985-52.161 50.533-61.402 86.316 10.796 8.799 17.694 22.2 17.694 37.223 0 15.021-6.899 28.421-17.696 37.219 9.24 35.785 31.491 66.333 61.402 86.318l24.988-41.86c-25.666-18.064-42.452-47.898-42.452-81.681Zm169.792 121.165c-16.348 9.438-21.945 30.331-12.509 46.672 9.439 16.348 30.331 21.949 46.679 12.511 16.343-9.437 21.943-30.331 12.504-46.678-9.435-16.339-30.331-21.94-46.674-12.505ZM81.921 221.825c-18.88 0-34.179 15.297-34.179 34.177 0 18.875 15.299 34.173 34.179 34.173 18.873 0 34.173-15.298 34.173-34.173 0-18.88-15.3-34.177-34.173-34.177Z" fill="#fff"/><g clip-path="url(#a)"><path d="M425.371 382.145c5.016 0 9.082-3.592 9.082-8.023 0-4.431-4.066-8.022-9.082-8.022-5.016 0-9.082 3.591-9.082 8.022s4.066 8.023 9.082 8.023Z" fill="#000"/><path d="m397.759 356.995.027-1.041-1.223.239-.282.055-2.034.397 1.2 1.024c-.327.145-.801.198-1.535.279l-.011.001c-.644.072-1.53.171-2.259.567a2.715 2.715 0 0 0-1.152 1.172 5.726 5.726 0 0 0-.818-.218c-.431-.075-1.154-.125-1.653.414-.504.546-.367 1.245-.281 1.557.105.387.304.796.508 1.164.218.395.493.831.76 1.245l-.375.299c-2.264 1.804-3.397 4.542-4.431 7.043l-.028.066c-1.081 2.614-2.084 5.018-3.992 6.72l-.156.138-.087.189c-1.423 3.082-2.301 6.275-3.073 9.44-.175.72-.345 1.436-.514 2.15-.58 2.449-1.151 4.862-1.924 7.255l-.022.07-.013.073c-.989 5.926-1.906 12.062-.392 18.23.096 1.103.096 2.307.097 3.598v.13c0 1.35.004 2.783.139 4.178.268 2.783 1.072 5.617 3.6 7.56 5.798 4.759 10.722 10.662 15.635 16.551.566.68 1.133 1.359 1.7 2.036 8.589 10.564 16.163 21.964 22.94 33.721l1.209 2.097c.264.865.576 1.824.938 2.636.207.466.449.925.731 1.303.268.359.661.764 1.209.93l1.52.46-.242-1.57c-.679-4.407-1.561-11.418-1.989-16.855l-.003-.037-.006-.036c-1.112-7.25-3.449-14.13-5.811-20.906l-.347-.994c-2.253-6.453-4.475-12.822-5.721-19.461-.041-.296-.085-.595-.128-.89v-.004c-.042-.28-.082-.557-.12-.832v-2.708h-.33c-.776-6.729-.788-13.461 3.732-18.287 2.452-2.468 5.529-4.041 8.858-5.466.828-.355 1.677-.701 2.534-1.052 2.541-1.038 5.159-2.108 7.542-3.498l.005-.003a20.169 20.169 0 0 1 4.009-1.828c.045-.007.097-.018.154-.035 4.133-1.275 8.585-1.247 12.986-.531l.161-.987-.165.986h.001l.003.001.013.003.046.009c.031.007.092.021.154.031l.302.05c.32.052.633.104.928.161l.051.01.052.005c.502.045 1.125.119 1.814.201 1.402.168 3.078.368 4.577.419 1.139.038 2.283-.002 3.249-.226.939-.218 1.934-.662 2.435-1.62l.069-.13.267.232c.319.278.624.542.924.795.348.294.679.563.973.771.258.182.613.413.982.496l1.356.305-.142-1.382c-.342-3.347-2.194-5.741-4.533-7.49-2.3-1.72-5.128-2.863-7.607-3.74-1.511-.729-3.186-1.264-4.801-1.764l-.4-.123c-1.516-.468-2.97-.917-4.296-1.489-1.435-.62-2.647-1.355-3.553-2.34-.891-.969-1.528-2.226-1.746-3.974l-.019-.15-.062-.137-.043-.096c-.227-.505-.474-1.055-.777-1.593l-.032-.057-.039-.053-1.529-2.038.154-.077-.824-.972c-3.206-3.784-7.703-6.532-12.507-7.603-4.567-1.58-9.759-3.167-14.716-3.802l-.811-.104-.263.775c-.12.354-.225.577-.304.711a2.007 2.007 0 0 1-.112-.094c-.212-.186-.444-.436-.744-.757l-.003-.003-.029-.032c-.549-.589-1.309-1.405-2.235-1.866a3.427 3.427 0 0 0-1.697-.381c-.565.025-1.126.198-1.678.52-.8.104-1.39.232-1.846.335l-.004.001c-.531.12-.746.169-.928.171-.165.001-.357-.018-1.147-.643Zm47.344 31.21a36.631 36.631 0 0 0-3.061-.439l-5.348-1.197-.25-.064 12.241 2.265c.383.142.771.278 1.162.407l-.444-.075c-1.463-.248-2.874-.51-4.214-.878l-.043-.011-.043-.008Zm-9.7 8.093h-.002.002Zm-13.783-23.97c1.116-.03 2.422.176 3.769.639 1.784.617 3.211 1.563 4.088 2.544.904 1.01 1.08 1.865.885 2.428-.194.559-.862 1.121-2.207 1.352-1.304.225-3.018.081-4.804-.54-1.791-.623-3.219-1.558-4.095-2.526-.899-.993-1.076-1.835-.88-2.406.248-.718 1.287-1.439 3.244-1.491Z" fill="#F60" stroke="#fff" stroke-width="2"/></g><defs><clipPath id="a"><path fill="#fff" transform="translate(340 344)" d="M0 0h155v155H0z"/></clipPath></defs></svg>