<svg xmlns="http://www.w3.org/2000/svg" width="512" height="512" fill="none">
<circle cx="256" cy="256" r="256" fill="#fff"/>
<path fill="#3DDC84" d="M343.543 201.953a15.826 15.826 0 0 1-15.524-18.909 15.826 15.826 0 0 1 28.678-5.71 15.823 15.823 0 0 1 2.668 8.791 15.846 15.846 0 0 1-15.822 15.828Zm-174.898 0a15.824 15.824 0 1 1 6.05-30.446 15.82 15.82 0 0 1 9.772 14.618 15.843 15.843 0 0 1-15.822 15.828Zm180.573-95.315 31.623-54.771a6.583 6.583 0 0 0-4.835-9.817 6.58 6.58 0 0 0-6.559 3.23l-32.022 55.463c-24.487-11.176-51.989-17.4-81.334-17.4-29.344 0-56.843 6.233-81.33 17.4L142.742 45.28a6.572 6.572 0 0 0-3.995-3.066 6.581 6.581 0 0 0-8.227 7.213 6.58 6.58 0 0 0 .825 2.431l31.626 54.78c-54.303 29.535-91.445 84.509-96.878 149.46h380.003c-5.439-64.951-42.578-119.925-96.878-149.46"/>
</svg>
