<svg version="1.0" width="512" height="512" xmlns="http://www.w3.org/2000/svg">
<script/>
<circle style="fill:#fff;stroke-width:1.09277;stroke-dasharray:1.09277,1.09277;stop-color:#000" cx="256" cy="256" r="256"/>
<path d="M255.962 3.515c-17.85 43.756-28.616 72.377-48.49 114.832 12.185 12.914 27.142 27.953 51.431 44.938-26.113-10.744-43.926-21.53-57.238-32.723-25.435 53.063-65.284 128.65-146.15 273.923 63.558-36.686 112.827-59.304 158.744-67.934a116.32 116.32 0 0 1-3.017-27.219l.076-2.036c1.008-40.712 22.19-72.02 47.284-69.894 25.093 2.125 44.597 36.872 43.588 77.585-.19 7.66-1.054 15.03-2.564 21.866 45.418 8.882 94.16 31.442 156.86 67.632-12.364-22.757-23.399-43.27-33.937-62.807-16.599-12.863-33.912-29.604-69.229-47.727 24.275 6.306 41.655 13.582 55.203 21.714C301.38 116.222 292.703 89.721 255.963 3.515Z" style="fill:#1793d1;fill-opacity:1;fill-rule:evenodd;stroke:none;stroke-width:2.41299"/>
<circle cx="434.5" cy="434.5" r="77.5" fill="#fff" style="fill:#fff"/>
<path d="M425.077 383.035h-35.382a1.513 1.513 0 0 0 0 3.028h32.771c.234-.348.476-.694.726-1.039l1.108-1.53z" fill="#e91f63"/>
<path d="M414.021 402.627c-.263.699-.54 1.435-.82 2.205H375.77a1.514 1.514 0 0 1 0-3.027h38.595l-.109.196z" fill="#e91f63" fill-opacity=".7"/>
<path d="M409.981 420.271h-40.266a1.514 1.514 0 0 0 0 3.028h39.851l.025-.131.009-.045c.188-.955.311-1.593.388-2.094a32.024 32.024 0 0 1-.007-.758z" fill="#e91f63" fill-opacity=".3"/>
<path d="M411.238 439.041h-43.037a1.513 1.513 0 0 0 0 3.027h45.341a48.126 48.126 0 0 0-.91-1.146 15.72 15.72 0 0 1-1.394-1.881z" fill="#e91f63"/>
<path d="M422.95 457.508h-50.208a1.513 1.513 0 0 0 0 3.027h51.827c-.299-.577-.6-1.152-.904-1.726l-.715-1.301z" fill="#e91f63" fill-opacity=".6"/>
<path d="M431.847 476.277h-46.995a1.514 1.514 0 0 0 0 3.028h48.221c-.401-1.013-.81-2.022-1.226-3.028zm16.361-102.063c-.594 2.65-4.774-.583-5.567 2.416-4.681-3.297-.287 3.568-.907 4.002l-.037-.007-.372-.113c-.231-.137-.561-.362-1.029-.795-4.15 2.151-5.404 8.069-9.75 10.636-3.452 4.764-5.167 10.326-8.025 15.473-1.903 5.057-3.702 10.134-3.432 15.619-.448 4.333-2.816 9.88.477 13.611 4.823 5.851 8.423 12.775 12.089 19.435 5.731 10.792 10.419 22.137 14.341 33.647.902-2.5.33 5.446 1.954 6.309.165-3.997.604-10.315 1.171-15.18.546-12.904-3.392-25.427-3.271-38.289.031-.537.053-1.091.085-1.638l.307-1.556-.19-.038c.446-6.278 1.481-12.972 6.866-16.837 5.451-3.689 12.452-3.51 18.54-5.621a18.85 18.85 0 0 1 4.132-.967c.011-.001.027.009.038.008 4.024-.424 8.066.41 11.88 1.827.057.021.126.054.182.075.347.131.723.268 1.065.407 2.831.824 8.409 3.097 9.848 1.308-3.308-4.176-9.096-5.063-13.709-7.361a31.505 31.505 0 0 0-2.588-.904l-4.545-2.001-1.119-.536-.007.038-16.373-6.661a8.24 8.24 0 0 0-.702-.848l16.133 5.312.015-.076c.558.245 1.116.465 1.691.649l-.007.038 11.272 4.469c1.87 1.152 3.912 2.135 5.904 2.666 3.237 1.142 6.501 6.953 7.535 7.409.496-5.347-4.269-8.723-8.309-11.111-4.584-3.467-12.179-4.862-11.687-11.852-.12-.517-.237-1.033-.405-1.545l-1.453-3.015.084-.023c-2.072-3.717-5.411-6.775-9.274-8.458-3.727-2.175-7.956-4.435-12.117-5.823-2.268 3.949-2.379-3.955-6.276-2.381-3.099-.238-2.843.644-4.715-1.718zm19.324 16.692c1.102.187 2.313.635 3.492 1.319 3.127 1.821 4.833 4.704 3.822 6.438-1.011 1.733-4.38 1.651-7.506-.178-3.126-1.828-4.843-4.655-3.83-6.401.632-1.087 2.188-1.489 4.022-1.178z" fill="#e91f63"/>
<path d="M466.591 399.038c3.134 2.005 6.718 2.001 8.004-.009 1.286-2.01-.212-5.265-3.347-7.27-3.134-2.005-6.717-2.001-8.003.009-1.286 2.01.212 5.265 3.346 7.27z"/>
<path fill-rule="evenodd" clip-rule="evenodd" d="M471.284 399.026c1.138-.001 1.765-.39 2.036-.812.27-.423.36-1.156-.116-2.189-.467-1.015-1.411-2.121-2.771-2.991-1.36-.87-2.76-1.264-3.878-1.263-1.137.002-1.765.39-2.035.813-.27.422-.36 1.155.116 2.188.467 1.015 1.411 2.121 2.771 2.991 1.36.87 2.76 1.264 3.877 1.263zm3.311.003c-1.286 2.01-4.87 2.014-8.004.009-3.134-2.005-4.632-5.26-3.346-7.27 1.286-2.01 4.869-2.014 8.003-.009 3.135 2.005 4.633 5.26 3.347 7.27z" fill="#fff"/>
</svg>
