<svg width="512" height="512" viewBox="0 0 512 512" fill="none" xmlns="http://www.w3.org/2000/svg">
<circle cx="256" cy="256" r="256" fill="white"/>
<path fill-rule="evenodd" clip-rule="evenodd" d="M255.962 3.515C238.112 47.271 227.346 75.892 207.472 118.347C219.657 131.261 234.614 146.3 258.903 163.285C232.79 152.541 214.977 141.755 201.665 130.562C176.23 183.625 136.381 259.212 55.5146 404.485C119.073 367.799 168.342 345.181 214.259 336.551C212.185 327.628 211.172 318.492 211.242 309.332L211.318 307.296C212.326 266.584 233.508 235.276 258.602 237.402C283.695 239.527 303.199 274.274 302.19 314.987C302 322.647 301.136 330.017 299.626 336.853C345.044 345.735 393.786 368.295 456.486 404.485C444.122 381.728 433.087 361.215 422.549 341.678C405.95 328.815 388.637 312.074 353.32 293.951C377.595 300.257 394.975 307.533 408.523 315.665C301.38 116.222 292.703 89.721 255.963 3.515H255.962Z" fill="#1793D1"/>
</svg>
