<svg width="512" height="512" viewBox="0 0 512 512" fill="none" xmlns="http://www.w3.org/2000/svg">
<defs>
<linearGradient id="paint0_linear_202_10" x1="256" y1="512" x2="256.6" y2="131.897" gradientUnits="userSpaceOnUse">
<stop stop-color="#E3117B"/>
<stop offset="1" stop-color="#FBBC38"/>
</linearGradient>
<clipPath id="clip0_202_10">
<rect width="512" height="512" fill="white"/>
</clipPath>
</defs>
<g clip-path="url(#clip0_202_10)">
<path d="M475.97 129L256 510L36.0296 129L475.97 129Z" fill="url(#paint0_linear_202_10)" stroke="#F8922E" stroke-width="2"/>
<path fill-rule="evenodd" clip-rule="evenodd" d="M309.455 111.415C335.848 124.438 341.583 159.873 320.623 180.423C317.647 183.341 312.477 187 309.136 188.554C305.795 190.109 302.847 192.067 302.585 192.905C302.323 193.744 300.727 201.977 299.038 211.201L295.966 227.971L299.435 231.021C308.205 238.731 308.263 249.445 299.575 256.617C281.37 271.644 249.378 252.821 262.438 234.767C264.102 232.467 266.794 229.896 268.419 229.055L271.373 227.525L271.817 207.928C272.246 188.976 272.191 188.284 270.151 186.868C264.956 183.263 256.012 173.058 253.809 168.219C243.32 145.181 254.627 117.661 277.988 109.374C281.992 107.953 285.6 107.566 292.936 107.768C301.547 108.006 303.356 108.406 309.455 111.415ZM227.285 216.307L240.325 218.716L237.326 221.311C235.676 222.738 233.413 225.278 232.295 226.955C229.448 231.23 210.679 288.183 210.692 292.513C210.703 296.628 213.58 301.86 217.103 304.171C218.448 305.053 234.57 308.969 252.93 312.871C271.289 316.773 292.705 321.381 300.521 323.112C319.447 327.303 324.058 327.145 329.805 322.115C333.563 318.826 334.601 314.56 337.07 292.269C338.449 279.825 340.024 266.214 340.571 262.021C341.893 251.888 341.88 242.032 340.544 239.532C339.489 237.558 339.545 237.548 342.635 239.148C351.572 243.775 358.629 253.894 359.572 263.431C360.271 270.505 353.1 352.934 351.32 358.289C347.122 370.912 333.834 380.94 321.301 380.94C318.031 380.94 293.433 376.01 193.954 355.413C180.41 352.609 167.257 349.297 164.319 347.95C157.446 344.798 150.32 337.576 146.923 330.319C144.615 325.39 144.213 323.172 144.213 315.382C144.213 307.178 144.544 305.554 147.428 299.628L150.645 293.021L150.727 297.382C151.091 316.533 178.714 324.918 194.782 310.754C197.779 308.113 199.841 305.273 200.507 302.872C201.985 297.546 201.806 287.941 200.158 284.095C198.267 279.681 192.879 274.891 187.442 272.787C181.695 270.564 169.617 270.492 164.459 272.65C162.363 273.527 160.484 274.08 160.283 273.878C159.879 273.474 180.468 231.394 182.886 227.681C188.455 219.13 200.195 212.956 209.679 213.592C212.191 213.76 220.114 214.982 227.285 216.307ZM253.585 261.782C258.11 266.459 267.138 270.732 275.745 272.271C289.428 274.721 304.337 270.209 312.228 261.232L316.395 256.491L315.726 265.609C314.78 278.497 311.893 284.324 303.879 289.51C296.365 294.373 289.507 295.962 278.569 295.372C267.227 294.761 259.164 291.192 252.409 283.79C246.409 277.216 245.437 273.682 246.024 260.576L246.477 250.49L248.401 254.453C249.46 256.632 251.792 259.93 253.585 261.782ZM180.785 278.74C183.635 279.932 184.305 280.764 184.305 283.11C184.305 284.704 183.795 286.518 183.172 287.142C182.339 287.977 182.473 288.896 183.679 290.621C184.582 291.91 185.32 293.628 185.32 294.438C185.32 297.101 182.07 299.628 178.642 299.628C173.713 299.628 164.871 297.373 164.337 295.979C163.9 294.84 170.119 281.333 172.366 278.538C173.711 276.866 176.463 276.932 180.785 278.74ZM172.631 282.352C171.712 284.131 171.185 285.812 171.459 286.086C171.733 286.361 173.777 286.83 176.001 287.129C179.449 287.592 180.223 287.338 181.259 285.4C182.708 282.689 181.309 280.836 177.019 279.784C174.689 279.211 174.064 279.576 172.631 282.352ZM169.293 289.761C168.754 290.437 168.01 291.98 167.64 293.193C167.03 295.187 167.512 295.52 172.692 296.681C178.999 298.094 181.767 297.259 181.767 293.94C181.767 290.779 171.283 287.266 169.293 289.761ZM347.334 340.792C346.88 341.91 345.591 345.215 344.469 348.135C341.855 354.936 334.894 361.98 328.702 364.093C322.867 366.084 312.73 368.492 304.073 366.513C300.445 365.683 295.877 364.769 293.923 364.479C291.969 364.189 286.032 363.076 280.728 362.005C269.063 359.649 239.596 352.284 218.053 349.041C216.796 348.852 215.769 349.038 215.769 349.456C215.769 350.681 246.475 358.657 282.758 366.855C305.984 372.104 304.316 371.807 314.223 372.447C321.555 372.921 323.764 372.663 328.94 370.727C340.401 366.442 349.371 353.679 348.495 342.907C348.227 339.619 347.987 339.18 347.334 340.792Z" fill="black"/>
<path fill-rule="evenodd" clip-rule="evenodd" d="M224.887 209.113L237.927 211.522L234.927 214.117C233.278 215.544 231.015 218.084 229.897 219.761C227.05 224.036 208.281 280.989 208.294 285.319C208.305 289.434 211.182 294.666 214.705 296.977C216.05 297.859 232.172 301.774 250.532 305.676C268.891 309.578 290.307 314.187 298.123 315.918C317.049 320.108 321.66 319.951 327.407 314.92C331.164 311.631 332.203 307.365 334.672 285.075C336.051 272.631 337.626 259.019 338.173 254.827C339.495 244.694 339.482 234.838 338.146 232.338C337.091 230.364 337.147 230.354 340.236 231.953C349.173 236.581 356.231 246.699 357.174 256.236C357.873 263.31 350.702 345.74 348.922 351.094C344.724 363.718 331.435 373.746 318.902 373.746C315.633 373.746 291.035 368.815 191.556 348.219C178.012 345.415 164.859 342.102 161.921 340.755C155.048 337.604 147.922 330.382 144.524 323.125C142.216 318.195 141.814 315.977 141.814 308.188C141.814 299.983 142.146 298.359 145.03 292.434L148.246 285.827L148.329 290.187C148.693 309.338 176.316 317.724 192.384 303.56C195.38 300.918 197.443 298.079 198.109 295.678C199.587 290.352 199.408 280.747 197.76 276.901C195.869 272.487 190.481 267.696 185.044 265.592C179.297 263.369 167.219 263.297 162.06 265.456C159.964 266.332 158.086 266.885 157.885 266.684C157.481 266.279 178.07 224.199 180.488 220.486C186.057 211.935 197.797 205.762 207.281 206.398C209.793 206.566 217.716 207.787 224.887 209.113ZM208.007 303.435C205.848 300.535 204.5 291.704 205.752 288.665C206.355 287.2 206.784 287.639 207.941 290.909C211.542 301.084 211.215 300.965 266.15 312.226C299.292 319.019 315.69 321.959 318.61 321.633C323.04 321.137 328.526 317.599 329.603 314.54C330.647 311.585 332.419 312.462 331.657 315.557C329.645 323.729 323.44 329.024 315.877 329.024C313.246 329.024 293.203 325.347 271.337 320.851L222.764 310.908C215.003 309.434 210.94 307.376 208.007 303.435ZM342.071 340.94C343.193 338.02 344.482 334.716 344.936 333.598C345.588 331.986 345.829 332.425 346.097 335.713C346.973 346.485 338.002 359.248 326.542 363.533C321.366 365.468 319.157 365.726 311.825 365.253C301.918 364.612 303.586 364.909 280.36 359.661C244.077 351.462 213.371 343.486 213.371 342.262C213.371 341.844 214.398 341.658 215.655 341.847C237.198 345.089 266.665 350.057 278.33 352.413C283.634 353.484 289.571 354.597 291.525 354.886C293.479 355.176 298.046 356.091 301.675 356.92C310.332 358.899 320.469 358.89 326.304 356.899C332.496 354.786 339.457 347.741 342.071 340.94Z" fill="white"/>
<path d="M251.187 254.588C255.712 259.264 264.74 263.537 273.347 265.077C287.03 267.527 301.939 263.015 309.829 254.038L313.997 249.296L313.328 258.414C312.382 271.302 309.495 277.13 301.481 282.315C293.967 287.179 287.109 288.767 276.17 288.178C264.829 287.567 256.766 283.997 250.011 276.596C244.011 270.022 243.039 266.488 243.626 253.381L244.079 243.295L246.003 247.258C247.062 249.438 249.394 252.736 251.187 254.588Z" fill="white"/>
<path d="M307.056 104.221C333.45 117.244 339.185 152.679 318.224 173.229C315.248 176.147 310.079 179.806 306.738 181.36C303.396 182.915 300.449 184.873 300.187 185.711C299.925 186.55 298.329 194.782 296.64 204.006L293.568 220.777L297.037 223.826C305.807 231.537 305.865 242.251 297.177 249.422C278.972 264.45 246.98 245.627 260.04 227.573C261.704 225.273 264.396 222.702 266.021 221.861L268.975 220.331L269.419 200.734C269.848 181.782 269.793 181.089 267.753 179.674C262.557 176.068 253.614 165.864 251.411 161.025C240.922 137.987 252.229 110.467 275.59 102.18C279.594 100.759 283.202 100.372 290.538 100.574C299.149 100.812 300.957 101.211 307.056 104.221Z" fill="white"/>
<path d="M200.413 296.993C197.938 308.654 184.379 315.655 170.128 312.631C149.054 308.159 148.376 296.993 148.376 281.83C150.85 270.169 164.409 263.168 178.661 266.192C200.413 270.807 202.041 280.581 200.413 296.993Z" fill="#831308"/>
<path d="M200.413 289.799C197.938 301.459 184.379 308.46 170.128 305.436C155.876 302.412 146.329 290.508 148.803 278.848C151.277 267.187 164.836 260.186 179.088 263.21C193.339 266.234 202.887 278.138 200.413 289.799Z" fill="#BF1617"/>
<path fill-rule="evenodd" clip-rule="evenodd" d="M179.586 273.944C182.436 275.136 183.106 275.968 183.106 278.314C183.106 279.908 182.597 281.722 181.974 282.346C181.14 283.181 181.274 284.099 182.481 285.824C183.383 287.114 184.121 288.832 184.121 289.642C184.121 292.305 180.871 294.832 177.444 294.832C172.515 294.832 163.672 292.576 163.138 291.183C162.702 290.043 168.921 276.536 171.168 273.741C172.513 272.069 175.264 272.135 179.586 273.944ZM170.261 281.29C169.987 281.016 170.513 279.335 171.433 277.556C172.866 274.78 173.49 274.415 175.821 274.987C180.111 276.039 181.51 277.892 180.06 280.604C179.025 282.541 178.251 282.795 174.803 282.333C172.579 282.034 170.535 281.565 170.261 281.29ZM166.441 288.397C166.812 287.184 167.556 285.64 168.095 284.964C170.085 282.47 180.569 285.983 180.569 289.144C180.569 292.462 177.801 293.298 171.494 291.885C166.313 290.723 165.831 290.391 166.441 288.397Z" fill="white"/>
</g>
</svg>
