<svg width="512" height="512" viewBox="0 0 512 512" fill="none" xmlns="http://www.w3.org/2000/svg">
<defs>
<linearGradient id="paint0_linear_202_10" x1="255.5" y1="432" x2="256" y2="115" gradientUnits="userSpaceOnUse">
<stop stop-color="#E3117B"/>
<stop offset="1" stop-color="#FBBC38"/>
</linearGradient>
<clipPath id="clip0_202_10">
<rect width="512" height="512" fill="white"/>
</clipPath>
</defs>
<g clip-path="url(#clip0_202_10)">
<path d="M438.664 112.75L255.5 430L72.3357 112.75L438.664 112.75Z" fill="url(#paint0_linear_202_10)" stroke="#F8922E" stroke-width="2"/>
<path fill-rule="evenodd" clip-rule="evenodd" d="M300.081 97.9186C322.093 108.78 326.875 138.332 309.395 155.47C306.913 157.904 302.602 160.955 299.815 162.251C297.028 163.548 294.57 165.181 294.352 165.88C294.133 166.579 292.802 173.446 291.393 181.138L288.832 195.125L291.724 197.668C299.039 204.098 299.087 213.033 291.841 219.014C276.659 231.547 249.978 215.849 260.87 200.792C262.257 198.874 264.502 196.73 265.857 196.028L268.322 194.752L268.691 178.409C269.05 162.603 269.004 162.026 267.302 160.845C262.969 157.838 255.511 149.328 253.673 145.292C244.926 126.079 254.355 103.128 273.838 96.2165C277.177 95.0315 280.187 94.7085 286.304 94.8772C293.486 95.0755 294.994 95.4087 300.081 97.9186ZM231.553 185.397L242.428 187.406L239.926 189.57C238.551 190.76 236.663 192.878 235.731 194.277C233.357 197.842 217.703 245.34 217.715 248.951C217.724 252.384 220.123 256.746 223.061 258.674C224.182 259.41 237.628 262.675 252.94 265.929C268.251 269.183 286.112 273.027 292.63 274.47C308.414 277.965 312.26 277.834 317.053 273.639C320.186 270.896 321.052 267.338 323.112 248.748C324.261 238.37 325.575 227.018 326.031 223.521C327.134 215.071 327.123 206.851 326.009 204.766C325.129 203.12 325.176 203.111 327.752 204.446C335.206 208.305 341.091 216.743 341.878 224.697C342.461 230.597 336.48 299.342 334.996 303.807C331.495 314.335 320.412 322.698 309.96 322.698C307.234 322.698 286.719 318.586 203.755 301.409C192.46 299.07 181.49 296.308 179.04 295.185C173.308 292.556 167.365 286.533 164.532 280.481C162.607 276.37 162.271 274.52 162.271 268.024C162.271 261.181 162.548 259.827 164.953 254.885L167.636 249.375L167.704 253.012C168.008 268.983 191.045 275.977 204.446 264.164C206.945 261.961 208.665 259.593 209.22 257.591C210.453 253.149 210.304 245.139 208.929 241.931C207.352 238.25 202.859 234.255 198.324 232.5C193.531 230.646 183.458 230.586 179.156 232.386C177.408 233.117 175.841 233.578 175.674 233.41C175.337 233.073 192.508 197.979 194.524 194.882C199.169 187.751 208.96 182.602 216.87 183.133C218.965 183.273 225.572 184.291 231.553 185.397ZM253.486 223.322C257.261 227.222 264.789 230.786 271.967 232.07C283.379 234.113 295.813 230.35 302.393 222.864L305.869 218.909L305.311 226.514C304.522 237.262 302.114 242.122 295.431 246.446C289.165 250.503 283.445 251.827 274.322 251.336C264.864 250.826 258.139 247.849 252.506 241.677C247.501 236.194 246.691 233.247 247.181 222.316L247.558 213.905L249.163 217.21C250.046 219.027 251.991 221.778 253.486 223.322ZM192.772 237.465C195.149 238.459 195.708 239.153 195.708 241.11C195.708 242.439 195.283 243.952 194.763 244.472C194.068 245.168 194.18 245.934 195.186 247.373C195.939 248.449 196.554 249.881 196.554 250.557C196.554 252.778 193.844 254.885 190.985 254.885C186.875 254.885 179.5 253.004 179.055 251.842C178.691 250.892 183.877 239.627 185.751 237.296C186.873 235.902 189.168 235.957 192.772 237.465ZM185.972 240.477C185.205 241.961 184.766 243.363 184.995 243.592C185.223 243.82 186.928 244.212 188.783 244.461C191.658 244.847 192.304 244.635 193.167 243.019C194.376 240.758 193.21 239.213 189.632 238.335C187.688 237.858 187.167 238.162 185.972 240.477ZM183.188 246.656C182.739 247.22 182.118 248.507 181.809 249.518C181.3 251.182 181.703 251.459 186.023 252.428C191.283 253.606 193.591 252.909 193.591 250.141C193.591 247.505 184.848 244.576 183.188 246.656ZM331.672 289.215C331.293 290.148 330.218 292.904 329.282 295.339C327.102 301.011 321.297 306.886 316.133 308.648C311.266 310.309 302.812 312.316 295.593 310.666C292.567 309.974 288.757 309.211 287.128 308.97C285.498 308.728 280.546 307.8 276.124 306.907C266.395 304.942 241.82 298.799 223.853 296.095C222.805 295.937 221.949 296.093 221.949 296.441C221.949 297.462 247.556 304.114 277.817 310.951C297.187 315.329 295.795 315.081 304.058 315.615C310.173 316.01 312.015 315.795 316.332 314.181C325.889 310.607 333.37 299.963 332.64 290.979C332.416 288.237 332.216 287.871 331.672 289.215Z" fill="black"/>
<path fill-rule="evenodd" clip-rule="evenodd" d="M229.553 179.397L240.428 181.406L237.926 183.57C236.551 184.76 234.663 186.878 233.731 188.277C231.357 191.842 215.703 239.34 215.715 242.951C215.724 246.384 218.123 250.746 221.061 252.674C222.182 253.41 235.628 256.675 250.94 259.929C266.251 263.183 284.112 267.027 290.63 268.47C306.414 271.965 310.26 271.834 315.053 267.639C318.186 264.896 319.052 261.338 321.112 242.748C322.261 232.37 323.575 221.018 324.031 217.521C325.134 209.071 325.123 200.851 324.009 198.766C323.129 197.12 323.176 197.111 325.752 198.446C333.206 202.305 339.091 210.743 339.878 218.697C340.461 224.597 334.48 293.342 332.996 297.807C329.495 308.335 318.412 316.698 307.96 316.698C305.234 316.698 284.719 312.586 201.755 295.409C190.46 293.07 179.49 290.308 177.04 289.185C171.308 286.556 165.365 280.533 162.532 274.481C160.607 270.37 160.271 268.52 160.271 262.024C160.271 255.181 160.548 253.827 162.953 248.885L165.636 243.375L165.704 247.012C166.008 262.983 189.045 269.977 202.446 258.164C204.945 255.961 206.665 253.593 207.22 251.591C208.453 247.149 208.304 239.139 206.929 235.931C205.352 232.25 200.859 228.255 196.324 226.5C191.531 224.646 181.458 224.586 177.156 226.386C175.408 227.117 173.841 227.578 173.674 227.41C173.337 227.073 190.508 191.979 192.524 188.882C197.169 181.751 206.96 176.602 214.87 177.133C216.965 177.273 223.572 178.291 229.553 179.397ZM215.475 258.06C213.674 255.642 212.55 248.276 213.594 245.742C214.098 244.52 214.455 244.887 215.42 247.613C218.423 256.099 218.151 256 263.966 265.392C291.605 271.057 305.281 273.509 307.716 273.237C311.41 272.823 315.986 269.872 316.885 267.322C317.755 264.857 319.233 265.588 318.597 268.169C316.919 274.985 311.745 279.401 305.437 279.401C303.243 279.401 286.527 276.334 268.291 272.585L227.782 264.292C221.31 263.063 217.921 261.347 215.475 258.06ZM327.282 289.339C328.218 286.904 329.293 284.148 329.672 283.215C330.216 281.871 330.416 282.237 330.64 284.979C331.37 293.963 323.889 304.607 314.332 308.181C310.015 309.795 308.173 310.01 302.058 309.615C293.795 309.081 295.187 309.329 275.817 304.951C245.556 298.114 219.949 291.462 219.949 290.441C219.949 290.093 220.805 289.937 221.853 290.095C239.82 292.799 264.395 296.942 274.124 298.907C278.546 299.8 283.498 300.728 285.128 300.97C286.757 301.211 290.567 301.974 293.593 302.666C300.812 304.316 309.266 304.309 314.133 302.648C319.297 300.886 325.102 295.011 327.282 289.339Z" fill="white"/>
<path d="M251.486 217.322C255.261 221.222 262.789 224.786 269.967 226.07C281.379 228.113 293.813 224.35 300.393 216.864L303.869 212.909L303.311 220.514C302.522 231.262 300.114 236.122 293.431 240.446C287.165 244.503 281.445 245.827 272.322 245.336C262.864 244.826 256.139 241.849 250.506 235.677C245.501 230.194 244.691 227.247 245.181 216.316L245.558 207.905L247.163 211.21C248.046 213.027 249.991 215.778 251.486 217.322Z" fill="white"/>
<path d="M298.081 91.9186C320.093 102.78 324.875 132.332 307.395 149.47C304.913 151.904 300.602 154.955 297.815 156.251C295.028 157.548 292.57 159.181 292.352 159.88C292.133 160.579 290.802 167.446 289.393 175.138L286.832 189.125L289.724 191.668C297.039 198.098 297.087 207.033 289.841 213.014C274.659 225.547 247.978 209.849 258.87 194.792C260.257 192.874 262.502 190.73 263.857 190.028L266.322 188.752L266.691 172.409C267.05 156.603 267.004 156.026 265.302 154.845C260.969 151.838 253.511 143.328 251.673 139.292C242.926 120.079 252.355 97.1275 271.838 90.2165C275.177 89.0315 278.187 88.7085 284.304 88.8772C291.486 89.0755 292.994 89.4087 298.081 91.9186Z" fill="white"/>
<path d="M209.141 252.688C207.078 262.412 195.77 268.251 183.884 265.729C166.309 262 165.744 252.688 165.744 240.042C167.807 230.317 179.115 224.478 191.001 227C209.141 230.849 210.5 239 209.141 252.688Z" fill="#831308"/>
<path d="M209.141 246.688C207.078 256.412 195.77 262.251 183.884 259.729C171.999 257.207 164.036 247.279 166.1 237.555C168.163 227.83 179.471 221.991 191.357 224.513C203.242 227.035 211.205 236.963 209.141 246.688Z" fill="#BF1617"/>
<path fill-rule="evenodd" clip-rule="evenodd" d="M191.773 233.465C194.15 234.459 194.708 235.153 194.708 237.11C194.708 238.439 194.283 239.952 193.764 240.472C193.069 241.168 193.18 241.934 194.187 243.373C194.939 244.449 195.555 245.881 195.555 246.557C195.555 248.778 192.844 250.885 189.986 250.885C185.875 250.885 178.501 249.004 178.055 247.842C177.691 246.892 182.878 235.627 184.752 233.296C185.873 231.902 188.168 231.957 191.773 233.465ZM183.995 239.592C183.767 239.363 184.206 237.961 184.973 236.477C186.168 234.162 186.689 233.858 188.632 234.335C192.21 235.213 193.377 236.758 192.168 239.019C191.305 240.635 190.659 240.847 187.783 240.461C185.928 240.212 184.224 239.82 183.995 239.592ZM180.81 245.518C181.119 244.507 181.739 243.22 182.189 242.656C183.849 240.576 192.592 243.505 192.592 246.141C192.592 248.909 190.284 249.606 185.024 248.428C180.703 247.459 180.301 247.182 180.81 245.518Z" fill="white"/>
</g>
</svg>
