<svg width="512" height="512" viewBox="0 0 512 512" fill="none" xmlns="http://www.w3.org/2000/svg">
<circle cx="256" cy="256" r="256" fill="white"/>
<path d="M256 0C114.615 0 0 114.615 0 256C0 397.385 114.615 512 256 512C397.385 512 512 397.385 512 256C512 114.615 397.385 0 256 0ZM256 21.3333C363.492 21.3333 454.105 93.6094 481.893 192.213C457.959 241.581 423.902 286.029 382.427 321.947C362.502 339.201 340.749 354.583 316.72 365.413C292.691 376.244 266.261 382.389 239.947 380.88C220.177 379.746 200.647 374.239 183.333 364.64C229.217 339.777 270.617 306.628 304.507 266.933C326.751 240.879 346.213 211.269 353.707 177.84C357.453 161.126 358.088 143.621 354.587 126.853C351.085 110.086 343.332 94.1072 331.6 81.6267C320.138 69.434 305.092 60.7972 288.96 56.3467C272.828 51.8962 255.662 51.5516 239.2 54.56C206.277 60.5767 176.882 79.7112 153.307 103.467C111.751 145.339 86.0609 204.422 90.7733 263.227C93.1295 292.629 102.983 321.52 119.867 345.707C123.635 351.105 127.779 356.248 132.213 361.12C107.617 369.728 82.1494 375.856 56.32 379.307C34.1437 343.473 21.3333 301.237 21.3333 256C21.3333 126.397 126.397 21.3333 256 21.3333ZM257.493 68.7467C273.989 68.769 290.598 73.763 303.76 83.7067C315.619 92.6654 324.405 105.411 329.387 119.413C334.368 133.416 335.646 148.622 333.947 163.387C330.548 192.916 315.651 219.997 297.653 243.653C265.786 285.54 223.429 319.065 176.32 342.533C171.498 344.935 166.6 347.219 161.68 349.413C151.429 340.443 142.644 329.804 135.947 317.947C121.953 293.17 117.338 263.739 120.053 235.413C122.768 207.088 132.489 179.789 145.547 154.507C160.687 125.193 181.324 97.4273 210.213 81.4933C224.658 73.5264 240.997 68.7243 257.493 68.7467ZM488.56 224.587C489.935 234.863 490.667 245.347 490.667 256C490.667 385.603 385.603 490.667 256 490.667C183.214 490.667 118.163 457.532 75.12 405.52C101.687 399.486 127.654 390.819 152.56 379.787C163.452 388.081 175.48 394.885 188.267 399.787C225.089 413.903 266.894 411.861 304.16 398.96C341.426 386.059 374.472 362.904 403.28 335.973C437.598 303.892 466.533 266.079 488.56 224.587Z" fill="black"/>
</svg>
