<svg width="512" height="512" fill="none" xmlns="http://www.w3.org/2000/svg">
<circle cx="256" cy="256" r="256" fill="#fff"/>
<path d="M256 3.368C116.475 3.368 3.368 116.475 3.368 256S116.475 508.632 256 508.632 508.632 395.525 508.632 256 395.525 3.368 256 3.368Zm0 21.053c106.078 0 195.498 71.325 222.921 168.632-23.619 48.717-57.228 92.581-98.158 128.026-19.662 17.028-41.129 32.207-64.842 42.895-23.713 10.688-49.795 16.752-75.763 15.263-19.51-1.119-38.783-6.554-55.869-16.026 45.281-24.536 86.136-57.25 119.579-96.422 21.952-25.711 41.158-54.932 48.553-87.921 3.698-16.494 4.324-33.769.868-50.315-3.455-16.547-11.106-32.316-22.684-44.632-11.311-12.032-26.159-20.555-42.079-24.947-15.919-4.392-32.86-4.732-49.105-1.763-32.49 5.937-61.498 24.82-84.763 48.263-41.009 41.321-66.361 99.627-61.71 157.658 2.325 29.015 12.048 57.526 28.71 81.394 3.719 5.328 7.808 10.402 12.184 15.211-24.273 8.495-49.405 14.542-74.895 17.947C37.063 342.322 24.421 300.642 24.421 256 24.421 128.102 128.102 24.421 256 24.421Zm1.474 46.79c16.279.022 32.668 4.95 45.658 14.763 11.702 8.84 20.373 21.418 25.289 35.237 4.916 13.818 6.177 28.824 4.5 43.394-3.354 29.141-18.055 55.866-35.816 79.211-31.447 41.335-73.248 74.419-119.737 97.579a376.055 376.055 0 0 1-14.447 6.789c-10.116-8.852-18.786-19.351-25.395-31.052-13.809-24.451-18.363-53.495-15.684-81.448 2.679-27.952 12.272-54.893 25.158-79.842 14.941-28.928 35.306-56.328 63.816-72.053 14.254-7.862 30.379-12.6 46.658-12.579ZM485.5 225a233.623 233.623 0 0 1 2.079 31c0 127.898-103.681 231.579-231.579 231.579-71.829 0-136.023-32.699-178.5-84.026 26.218-5.955 51.842-14.508 76.421-25.395 10.748 8.186 22.619 14.899 35.237 19.737 36.338 13.931 77.593 11.915 114.368-.816 36.776-12.731 69.387-35.582 97.816-62.158 33.867-31.659 62.42-68.974 84.158-109.921Z" fill="#000"/>
</svg>
