<svg width="512" height="512" viewBox="0 0 512 512" fill="none" xmlns="http://www.w3.org/2000/svg">
<circle cx="253.5" cy="253.5" r="248.5" fill="white"/>
<path d="M256.135 5C114.761 5 0.295329 117.283 0.0452409 255.907H0V450.135H0.0452409C0.11309 481.573 26.1294 507.039 58.2157 507.039H256.16C397.56 506.95 512 394.681 512 256.132C512 117.508 397.41 5.22492 255.91 5.22492L256.135 5ZM308.153 108.316C351.144 108.316 391.733 140.579 391.733 185.088C391.733 189.216 391.758 193.347 391.069 198.028C389.878 209.869 378.837 218.378 366.816 216.709C354.794 215.02 346.636 203.831 348.859 192.125C349.063 190.789 349.136 188.692 349.136 185.085C349.136 159.845 328.066 150.098 308.146 150.098C288.232 150.098 270.283 166.512 270.258 185.085C270.602 206.56 270.258 227.87 270.258 249.312L307.221 249.041C336.081 248.455 336.406 291.05 307.554 290.85L270.266 291.121C270.176 308.395 270.402 305.271 270.311 313.97C270.311 313.97 270.624 335.097 269.981 351.106C265.519 398.139 224.665 435.725 175.572 435.725C123.529 435.725 80.664 394.041 80.664 342.91C82.2266 290.329 125.005 248.969 178.899 249.444L208.959 249.222V290.957L178.899 291.227H178.74C149.13 292.086 123.746 311.8 123.27 342.883C123.27 371.198 146.614 393.889 175.589 393.889C204.524 393.889 227.682 373.254 227.682 342.933L227.637 184.867C227.652 181.933 227.75 179.601 228.079 176.365C232.963 137.704 268.243 108.24 308.182 108.24L308.153 108.316Z" fill="#51A2DA"/>
</svg>
