<svg width="512" height="512" fill="none" xmlns="http://www.w3.org/2000/svg">
<circle cx="256" cy="256" r="256" fill="#fff"/>
<path d="M511.282 256.012C511.282 115.02 396.986.721 255.996.721 115.069.72.818 114.924.718 255.832v197.553c.075 31.994 26.024 57.894 58.038 57.894H256.1c140.943-.055 255.182-114.313 255.182-255.267Z" fill="#294172"/>
<path d="M147.898 272.487h91.747v91.747c0 50.644-41.103 91.747-91.747 91.747-50.645 0-91.748-41.103-91.748-91.747s41.103-91.747 91.748-91.747Z" stroke="#3C6EB4" stroke-width="29.21"/>
<path d="M267.712 244.55v119.556c0 66.165-53.646 119.811-119.813 119.811-10.039 0-17.175-1.133-26.468-3.562-13.55-3.546-24.623-14.655-24.627-27.577 0-15.619 11.337-26.981 28.285-26.981 8.066 0 10.993 1.549 22.81 1.549 34.884 0 63.18-28.256 63.241-63.14v-54.952c0-4.924-4.001-8.914-8.933-8.914l-41.546-.008c-15.479 0-27.985-12.346-27.985-27.868-.008-15.618 12.635-27.914 28.281-27.914" fill="#fff"/>
</svg>
