<svg width="512" height="512" viewBox="0 0 512 512" fill="none" xmlns="http://www.w3.org/2000/svg">
<circle cx="256" cy="256" r="256" fill="white"/>
<path d="M234.103 439.961C204.464 430.094 166.191 417.638 165.492 417.638C164.963 417.638 164.35 418.744 163.365 421.466C162.842 422.835 162.382 424.228 161.986 425.64C161.986 425.822 161.731 426.327 161.421 426.746C160.783 427.627 162.988 428.733 129.607 410.808C104.81 397.502 104.16 397.18 103.376 397.83C103.042 398.109 100.162 401.986 96.9842 406.446L91.1997 414.545L90.5861 413.069C89.942 411.525 79.1144 380.744 69.3137 352.575C66.1603 343.522 63.4017 336.109 63.1769 336.109C62.5875 336.109 55.1565 341.274 42.3056 350.601C36.0412 355.145 30.8522 358.803 30.7732 358.73C30.6942 358.657 34.2852 350.364 38.7572 340.296C53.042 308.147 54.081 305.65 53.2061 305.65C53.0663 305.65 46.0363 309.192 37.5784 313.524C29.1266 317.857 22.206 321.296 22.206 321.162C22.206 321.034 24.7215 313.202 27.796 303.772C30.8583 294.336 33.3738 286.346 33.3738 286.024C33.3738 285.295 33.7748 285.173 21.5619 289.585C16.1724 291.529 11.6093 293.072 11.4331 293.005C11.0868 292.884 16.215 287.227 37.3354 264.448C49.0926 251.761 50.3746 250.212 55.1565 242.939C67.4666 224.194 77.5772 208.414 77.5772 207.947C77.5772 207.661 77.1519 207.54 76.5807 207.661C76.0278 207.783 71.2702 208.815 66.0205 209.97C60.7647 211.124 56.1773 212.011 55.8309 211.939C55.4785 211.866 67.2175 204.313 81.9094 195.15C136.922 160.851 148.035 154.082 151.006 153.068C152.131 152.685 153.054 152.266 153.054 152.138C153.054 152.016 148.376 152.059 142.664 152.235C136.959 152.417 132.389 152.466 132.511 152.351C132.772 152.107 183.781 112.467 205.077 95.9646C222.224 82.6702 237.232 71.2411 240.209 69.2117C241.971 68.0147 242.719 67.7899 244.9 67.7899C246.328 67.7899 260.965 68.7013 277.419 69.8011C353.218 74.8928 380.202 76.8128 381.065 77.1713C381.581 77.3901 390.981 88.6977 401.948 102.308L421.896 127.05L440.306 135.538C450.435 140.211 458.753 144.063 458.79 144.099C458.79 144.099 460.272 146.663 459.173 145.315L460.43 146.755C462.861 149.537 501.93 201.84 502.118 202.569C502.288 203.213 497.203 247.046 496.68 249.47C496.498 250.321 470.589 275.458 470.589 277.736C470.511 277.657 471.136 267.729 471.981 255.674C472.826 243.619 474.897 231.631 473.804 229.644L471.531 225.537L469.587 225.276C467.46 224.99 429.029 222.541 378.118 219.443C360.072 218.337 343.642 217.316 341.613 217.176L337.931 216.909V218.306C337.931 219.777 342.226 257.448 348.224 308.536L351.796 338.977L350.235 341.243C347.147 345.594 344.036 349.928 340.902 354.246L333.137 365.001L334.273 367.036L335.409 369.072L325.505 381.406C320.055 388.193 315.601 394.087 315.601 394.512C315.601 394.938 316.549 397.514 317.703 400.254L319.812 405.231L318.329 406.397C317.515 407.035 310.989 411.41 303.832 416.119L290.817 424.686L290.932 426.205C290.993 427.038 291.661 430.203 292.415 433.253C293.168 436.291 293.709 438.849 293.618 438.94C293.442 439.123 277.018 436.935 259.835 434.444C256.024 433.869 252.206 433.343 248.382 432.864C247.956 432.864 247.883 434.213 248.06 438.691C248.193 442.003 248.12 444.494 247.896 444.47C247.677 444.445 241.473 442.416 234.103 439.961V439.961Z" fill="#297BE5"/>
<path d="M404.318 195.296L504.014 202.296L472.188 225.853L404.318 195.296Z" fill="url(#paint0_linear_22_31)"/>
<path d="M298.291 214.272L352.896 339.737L262.211 211.932L298.291 214.272Z" fill="url(#paint1_linear_22_31)"/>
<path d="M338.162 213.603L353.024 340.119L295.046 210.025L338.162 213.603Z" fill="url(#paint2_linear_22_31)"/>
<path d="M314.174 155.941L412.819 198.474L355.752 143.115L314.174 155.941Z" fill="url(#paint3_linear_22_31)"/>
<path d="M472.2 225.768L412.49 197.739L233.003 210.729L472.2 225.768Z" fill="url(#paint4_linear_22_31)"/>
<path d="M50.8008 213.798L149.586 152.581L406.19 135.811L50.8008 213.798Z" fill="url(#paint5_linear_22_31)"/>
<path d="M334.285 104.41C334.285 104.41 142.324 150.57 130.524 153.286L140.355 151.858L130.634 153.28L356.044 143.413L344.013 122.286L334.285 104.41Z" fill="url(#paint6_linear_22_31)"/>
<path d="M460.686 144.075L412.818 198.474L423.111 126.746L460.686 144.075Z" fill="url(#paint7_linear_22_31)"/>
<path d="M504.203 202.326L460.2 143.68L412.527 197.8L504.203 202.326Z" fill="url(#paint8_linear_22_31)"/>
<path d="M468.36 279.608L472.188 225.853L504.015 202.296L498.115 250.661L468.36 279.608" fill="url(#paint9_linear_22_31)"/>
<path d="M423.111 126.746L382.511 76.5698L332.019 104.842L423.111 126.746Z" fill="url(#paint10_linear_22_31)"/>
<path d="M241.978 67L334.103 104.362L382.754 76.6185L241.978 67Z" fill="url(#paint11_linear_22_31)"/>
<path d="M130.524 153.286L241.978 67L334.735 104.605L130.524 153.286Z" fill="url(#paint12_linear_22_31)"/>
<path d="M423.111 126.746L355.399 143.844L334.042 104.471L423.111 126.746Z" fill="url(#paint13_linear_22_31)"/>
<path d="M423.112 126.746L351.991 143.947L412.813 198.474L423.112 126.746Z" fill="url(#paint14_linear_22_31)"/>
<path d="M319.539 192.811L412.819 198.474L314.046 155.413L319.539 192.811Z" fill="url(#paint15_linear_22_31)"/>
<path d="M320.086 192.775L49.6826 250.108L314.393 155.261L320.086 192.775Z" fill="url(#paint16_linear_22_31)"/>
<path d="M235.16 210.748L320.511 192.683L414.611 198.03L235.16 210.748Z" fill="url(#paint17_linear_22_31)"/>
<path d="M314.338 155.443L77.3713 207.88L49.6826 250.108L314.338 155.443Z" fill="url(#paint18_linear_22_31)"/>
<path d="M234.862 210.772L49.6818 250.108L8 295.023L234.862 210.772Z" fill="url(#paint19_linear_22_31)"/>
<path d="M20.5234 322.936L234.863 210.772L33.0766 285.714L20.5234 322.936Z" fill="url(#paint20_linear_22_31)"/>
<path d="M28.5986 361.1L53.4862 305.686L234.863 210.772L28.5986 361.1Z" fill="url(#paint21_linear_22_31)"/>
<path d="M90.7202 416.137L62.4482 334.912L234.863 210.772L90.7202 416.137Z" fill="url(#paint22_linear_22_31)"/>
<path d="M352.841 339.524L334.261 365.213L234.862 210.772L352.841 339.524Z" fill="url(#paint23_linear_22_31)"/>
<path d="M316.178 394.385L234.862 210.766L336.776 369.12L316.178 394.385Z" fill="url(#paint24_linear_22_31)"/>
<path d="M161.604 428.636L103.76 397.55L234.863 210.772L161.604 428.636Z" fill="url(#paint25_linear_22_31)"/>
<path d="M321.24 405.808L234.862 210.766L291.078 425.391L321.24 405.808Z" fill="url(#paint26_linear_22_31)"/>
<path d="M234.863 210.772L249.263 445.266L165.237 417.832L234.863 210.772Z" fill="url(#paint27_linear_22_31)"/>
<path d="M234.862 210.772L248.479 433.308L295.119 439.931L234.862 210.772Z" fill="url(#paint28_linear_22_31)"/>
<path d="M274.558 126.995C321.234 105.577 362.721 171.229 387.433 144.555C376.66 161.768 351.584 163.33 334.109 163.391C334.109 163.391 307.289 162.753 310.801 140.241C305.005 130.671 286.649 130.86 274.564 126.995H274.558Z" fill="black"/>
<path d="M318.305 133.685C316.48 134.999 314.993 136.727 313.967 138.728C312.94 140.728 312.403 142.944 312.399 145.193C312.399 147.059 312.765 148.907 313.479 150.631C314.193 152.355 315.239 153.922 316.558 155.242C317.877 156.562 319.444 157.609 321.168 158.323C322.891 159.037 324.739 159.405 326.605 159.405C328.471 159.405 330.319 159.037 332.043 158.323C333.767 157.609 335.333 156.562 336.652 155.242C337.972 153.922 339.018 152.355 339.732 150.631C340.445 148.907 340.812 147.059 340.811 145.193C340.806 144.05 340.663 142.911 340.386 141.803C339.562 144.482 338.084 146.793 336.149 148.426C334.214 150.059 331.915 150.937 329.558 150.941C328.038 150.941 326.533 150.578 325.129 149.872C323.724 149.166 322.448 148.131 321.374 146.826C320.299 145.522 319.446 143.973 318.864 142.269C318.283 140.565 317.983 138.738 317.983 136.893C317.989 135.812 318.097 134.736 318.305 133.685Z" fill="white"/>
<path d="M443.667 158.214C443.667 158.214 427.517 162.255 429.534 171.338C429.534 171.338 436.096 170.834 443.667 158.214Z" fill="black"/>
<path d="M264.247 212.692L352.957 339.797L234.741 210.802L264.247 212.692Z" fill="url(#paint29_linear_22_31)"/>
<defs>
<linearGradient id="paint0_linear_22_31" x1="412.82" y1="212.156" x2="504.015" y2="212.156" gradientUnits="userSpaceOnUse">
<stop stop-color="#2972E2"/>
<stop offset="1" stop-color="#26C7FC"/>
</linearGradient>
<linearGradient id="paint1_linear_22_31" x1="280.523" y1="291.197" x2="343.114" y2="275.082" gradientUnits="userSpaceOnUse">
<stop stop-color="#26C4FB"/>
<stop offset="1" stop-color="#2977E3"/>
</linearGradient>
<linearGradient id="paint2_linear_22_31" x1="295.044" y1="275.064" x2="360.179" y2="258.295" gradientUnits="userSpaceOnUse">
<stop stop-color="#26C4FB"/>
<stop offset="1" stop-color="#2977E3"/>
</linearGradient>
<linearGradient id="paint3_linear_22_31" x1="314.18" y1="170.788" x2="412.82" y2="170.788" gradientUnits="userSpaceOnUse">
<stop stop-color="#2972E2"/>
<stop offset="1" stop-color="#26C7FC"/>
</linearGradient>
<linearGradient id="paint4_linear_22_31" x1="409.808" y1="199.093" x2="408.797" y2="217.778" gradientUnits="userSpaceOnUse">
<stop stop-color="#26C4FB"/>
<stop offset="1" stop-color="#2977E3"/>
</linearGradient>
<linearGradient id="paint5_linear_22_31" x1="51.0459" y1="184.186" x2="246.723" y2="148.348" gradientUnits="userSpaceOnUse">
<stop stop-color="#26C4FB"/>
<stop offset="1" stop-color="#2977E3"/>
</linearGradient>
<linearGradient id="paint6_linear_22_31" x1="130.527" y1="142.894" x2="315.3" y2="142.894" gradientUnits="userSpaceOnUse">
<stop stop-color="#26C4FB"/>
<stop offset="1" stop-color="#2977E3"/>
</linearGradient>
<linearGradient id="paint7_linear_22_31" x1="412.82" y1="162.604" x2="460.687" y2="162.604" gradientUnits="userSpaceOnUse">
<stop stop-color="#279FF0"/>
<stop offset="1" stop-color="#8DE1FD"/>
</linearGradient>
<linearGradient id="paint8_linear_22_31" x1="412.529" y1="172.513" x2="503.723" y2="172.513" gradientUnits="userSpaceOnUse">
<stop stop-color="#279FF0"/>
<stop offset="1" stop-color="#8DE1FD"/>
</linearGradient>
<linearGradient id="paint9_linear_22_31" x1="468.364" y1="240.945" x2="504.015" y2="240.945" gradientUnits="userSpaceOnUse">
<stop stop-color="#279FF0"/>
<stop offset="1" stop-color="#8DE1FD"/>
</linearGradient>
<linearGradient id="paint10_linear_22_31" x1="333.453" y1="101.654" x2="423.11" y2="101.654" gradientUnits="userSpaceOnUse">
<stop stop-color="#26C4FB"/>
<stop offset="1" stop-color="#2977E3"/>
</linearGradient>
<linearGradient id="paint11_linear_22_31" x1="241.977" y1="85.6747" x2="382.757" y2="85.6747" gradientUnits="userSpaceOnUse">
<stop stop-color="#279FF0"/>
<stop offset="1" stop-color="#8DE1FD"/>
</linearGradient>
<linearGradient id="paint12_linear_22_31" x1="130.527" y1="110.14" x2="335.039" y2="110.14" gradientUnits="userSpaceOnUse">
<stop stop-color="#26C4FB"/>
<stop offset="1" stop-color="#2977E3"/>
</linearGradient>
<linearGradient id="paint13_linear_22_31" x1="333.722" y1="129.165" x2="423.111" y2="123.787" gradientUnits="userSpaceOnUse">
<stop stop-color="#2972E2"/>
<stop offset="1" stop-color="#26C7FC"/>
</linearGradient>
<linearGradient id="paint14_linear_22_31" x1="355.754" y1="162.604" x2="423.111" y2="162.604" gradientUnits="userSpaceOnUse">
<stop stop-color="#2972E2"/>
<stop offset="1" stop-color="#26C7FC"/>
</linearGradient>
<linearGradient id="paint15_linear_22_31" x1="312.35" y1="177.027" x2="412.82" y2="177.027" gradientUnits="userSpaceOnUse">
<stop stop-color="#2972E2"/>
<stop offset="1" stop-color="#26C7FC"/>
</linearGradient>
<linearGradient id="paint16_linear_22_31" x1="296.687" y1="178.67" x2="157.166" y2="217.002" gradientUnits="userSpaceOnUse">
<stop stop-color="#2972E2"/>
<stop offset="1" stop-color="#26C7FC"/>
</linearGradient>
<linearGradient id="paint17_linear_22_31" x1="361.893" y1="253.52" x2="356.846" y2="190.459" gradientUnits="userSpaceOnUse">
<stop stop-color="#26C4FB"/>
<stop offset="1" stop-color="#2977E3"/>
</linearGradient>
<linearGradient id="paint18_linear_22_31" x1="82.3728" y1="225.349" x2="298.076" y2="168.819" gradientUnits="userSpaceOnUse">
<stop stop-color="#26C4FB"/>
<stop offset="1" stop-color="#2977E3"/>
</linearGradient>
<linearGradient id="paint19_linear_22_31" x1="8.00487" y1="252.893" x2="234.865" y2="252.893" gradientUnits="userSpaceOnUse">
<stop stop-color="#26C4FB"/>
<stop offset="1" stop-color="#2977E3"/>
</linearGradient>
<linearGradient id="paint20_linear_22_31" x1="20.5277" y1="266.847" x2="234.866" y2="266.847" gradientUnits="userSpaceOnUse">
<stop stop-color="#26C4FB"/>
<stop offset="1" stop-color="#2977E3"/>
</linearGradient>
<linearGradient id="paint21_linear_22_31" x1="129.114" y1="263.179" x2="175.186" y2="320.834" gradientUnits="userSpaceOnUse">
<stop stop-color="#279FF0"/>
<stop offset="1" stop-color="#8DE1FD"/>
</linearGradient>
<linearGradient id="paint22_linear_22_31" x1="134.272" y1="278.311" x2="234.866" y2="313.445" gradientUnits="userSpaceOnUse">
<stop stop-color="#26C4FB"/>
<stop offset="1" stop-color="#2977E3"/>
</linearGradient>
<linearGradient id="paint23_linear_22_31" x1="234.865" y1="287.984" x2="352.842" y2="287.984" gradientUnits="userSpaceOnUse">
<stop stop-color="#26C4FB"/>
<stop offset="1" stop-color="#2977E3"/>
</linearGradient>
<linearGradient id="paint24_linear_22_31" x1="234.865" y1="302.57" x2="336.777" y2="302.57" gradientUnits="userSpaceOnUse">
<stop stop-color="#2972E2"/>
<stop offset="1" stop-color="#26C7FC"/>
</linearGradient>
<linearGradient id="paint25_linear_22_31" x1="149.064" y1="300.535" x2="246.503" y2="334.089" gradientUnits="userSpaceOnUse">
<stop stop-color="#26C4FB"/>
<stop offset="1" stop-color="#2977E3"/>
</linearGradient>
<linearGradient id="paint26_linear_22_31" x1="234.865" y1="318.076" x2="321.238" y2="318.076" gradientUnits="userSpaceOnUse">
<stop stop-color="#2972E2"/>
<stop offset="1" stop-color="#26C7FC"/>
</linearGradient>
<linearGradient id="paint27_linear_22_31" x1="193.904" y1="330.09" x2="259.269" y2="328.644" gradientUnits="userSpaceOnUse">
<stop stop-color="#26C4FB"/>
<stop offset="1" stop-color="#2977E3"/>
</linearGradient>
<linearGradient id="paint28_linear_22_31" x1="234.865" y1="325.393" x2="294.804" y2="325.393" gradientUnits="userSpaceOnUse">
<stop stop-color="#26C4FB"/>
<stop offset="1" stop-color="#2977E3"/>
</linearGradient>
<linearGradient id="paint29_linear_22_31" x1="229.811" y1="213.012" x2="351.516" y2="312.417" gradientUnits="userSpaceOnUse">
<stop stop-color="#26C4FB"/>
<stop offset="1" stop-color="#2977E3"/>
</linearGradient>
</defs>
</svg>
