<svg width="512" height="512" viewBox="0 0 135.47 135.47" xmlns="http://www.w3.org/2000/svg">
<circle style="fill:#fff;stroke:none;stroke-width:.719674;stroke-dasharray:.719674,.719674;stop-color:#000" cx="67.735" cy="67.735" r="67.735"/>
<path d="M71.287 40.09s-8.997-.599-24.316 4.195C31.359 49.17 22.505 56.094 22.505 56.094s23.269-12.992 49.533-13.73zm33.555 14.126 1.17-.077s-6.701-8.13-19.527-12.09c7.21 2.931 13.485 6.814 18.356 12.166zm1.914 3.378c.18-.312.76.99 1.2 1.537.02.11.05.176-.205.123-.022-.112-.059-.144-.059-.144s-.617-.368-.806-.628c-.19-.26-.223-.716-.13-.888zm15.74 38.7s1.422-16.332-24.236-20.097a83.427 83.427 0 0 0-11.525-.855c-20.564.272-21.314-23.718-5.818-24.93 6.422-.53 14.09 2.935 21.588 6.426-.028.931.01 1.759.622 2.523.612.765 2.96 1.599 3.711 2.03.75.43 3.155 1.959 4.629 3.877.32-.598 2.988-2.335 2.988-2.335s-.64.014-2.126-.542c-1.488-.556-3.253-2.238-3.295-2.335-.041-.097-.069-.25.279-.32.263-.222-.334-.945-.598-1.208-.264-.265-2.03-3.266-2.071-3.336-.042-.07-.056-.139-.18-.222-.39-.126-2.1.18-2.1.18s-2.63-1.291-3.536-4.075c.014.487-.45 1.02 0 2.14-1.37-.58-2.548-1.569-3.477-4.013-.553 1.39 0 2.274 0 2.274s-3.228-.902-3.745-3.88c-.566 1.337 0 2.141 0 2.141s-5.262-2.746-14.007-2.786c-5.855-.537-7.074-10.836-6.532-12.57 0 0-8.444-4.45-25.068-6.417-16.623-1.966-30.256-.296-30.256-.296s29.442-1.413 53.028 8.136c.802 3.586 3.214 9.559 4.513 12.43-3.718 2.57-7.91 4.987-8.562 13.559-.653 8.57 6.717 16.11 15.855 16.343 8.677.462 14.673.528 21.94 4.295 6.936 3.835 12.624 15.522 13.187 26.033.608-7.799-2.319-24.569-15.975-29.66 19.087 3.34 20.766 17.49 20.766 17.49zm-51.66-57.486-.687-2.215s-11.332-2.012-26.569-.93c-15.237 1.084-30.62 6.417-30.62 6.417s31.477-7.92 57.875-3.272" style="fill:#000;stroke:none;stroke-width:.88094;paint-order:stroke fill markers"/>
<circle cx="114.964" cy="114.964" r="20.506" fill="#fff" style="stroke-width:.26459"/>
<path d="M112.471 101.347h-9.362a.4.4 0 0 0 0 .801h8.671c.062-.092.126-.183.192-.275l.293-.404z" fill="#e91f63" style="stroke-width:.26459"/>
<path d="M109.546 106.531c-.07.185-.143.38-.217.583h-9.904a.4.4 0 0 1 0-.8h10.212l-.029.051z" fill="#e91f63" fill-opacity=".7" style="stroke-width:.26459"/>
<path d="M108.477 111.2H97.823a.4.4 0 0 0 0 .8h10.544l.007-.034.002-.012c.05-.253.082-.421.103-.554l-.002-.2z" fill="#e91f63" fill-opacity=".3" style="stroke-width:.26459"/>
<path d="M108.81 116.166H97.421a.4.4 0 0 0 0 .8h11.997a12.64 12.64 0 0 0-.24-.303 4.16 4.16 0 0 1-.37-.497z" fill="#e91f63" style="stroke-width:.26459"/>
<path d="M111.908 121.052H98.624a.4.4 0 0 0 0 .8h13.713l-.24-.456-.189-.344z" fill="#e91f63" fill-opacity=".6" style="stroke-width:.26459"/>
<path d="M114.262 126.018h-12.434a.4.4 0 0 0 0 .801h12.759a56.936 56.936 0 0 0-.325-.8zm4.329-27.005c-.157.701-1.263-.154-1.473.64-1.238-.873-.076.944-.24 1.058l-.01-.002-.098-.03a1.607 1.607 0 0 1-.272-.21c-1.098.57-1.43 2.135-2.58 2.814-.913 1.26-1.367 2.732-2.123 4.094-.504 1.338-.98 2.682-.908 4.133-.119 1.146-.745 2.614.126 3.601 1.276 1.548 2.229 3.38 3.199 5.143 1.516 2.855 2.756 5.857 3.794 8.902.239-.661.087 1.441.517 1.67.044-1.058.16-2.73.31-4.017.144-3.414-.898-6.728-.866-10.13.008-.143.014-.29.023-.434l.08-.412-.05-.01c.119-1.661.393-3.432 1.818-4.455 1.442-.976 3.294-.929 4.905-1.487a4.988 4.988 0 0 1 1.093-.256l.01.002c1.065-.112 2.135.108 3.144.483.015.006.033.015.048.02.092.035.191.071.282.108.749.218 2.225.82 2.605.346-.875-1.105-2.406-1.34-3.627-1.948a8.371 8.371 0 0 0-.685-.239l-1.202-.53-.296-.141-.002.01-4.332-1.762a2.211 2.211 0 0 0-.186-.225l4.269 1.406.004-.02c.147.064.295.123.447.171l-.002.01 2.982 1.183c.495.305 1.036.565 1.563.705.856.302 1.72 1.84 1.993 1.96.131-1.414-1.13-2.307-2.198-2.94-1.213-.917-3.223-1.286-3.092-3.135-.032-.137-.063-.273-.108-.409l-.384-.798.022-.006a5.263 5.263 0 0 0-2.454-2.238c-.986-.575-2.105-1.173-3.206-1.54-.6 1.045-.63-1.047-1.66-.63-.82-.063-.752.17-1.248-.455zm5.113 4.417c.292.05.612.168.924.349.828.482 1.279 1.244 1.011 1.703-.267.459-1.158.437-1.986-.047-.827-.484-1.281-1.232-1.013-1.694.167-.287.579-.394 1.064-.311z" fill="#e91f63" style="stroke-width:.26459"/>
<path d="M123.455 105.581c.83.53 1.778.53 2.118-.002.34-.531-.056-1.393-.886-1.923-.829-.53-1.777-.53-2.117.002-.34.532.056 1.393.885 1.923z" style="stroke-width:.26459"/>
<path fill-rule="evenodd" clip-rule="evenodd" d="M124.697 105.578c.301 0 .467-.103.539-.215.071-.112.095-.305-.031-.579-.124-.268-.373-.561-.733-.791-.36-.23-.73-.335-1.026-.334-.301 0-.467.103-.539.215-.071.111-.095.305.031.579.124.268.373.56.733.791.36.23.73.334 1.026.334zm.876.001c-.34.532-1.289.533-2.118.002-.829-.53-1.225-1.392-.885-1.924.34-.531 1.288-.532 2.117-.002.83.531 1.226 1.392.886 1.924z" fill="#fff" style="stroke-width:.26459"/>
</svg>
