<svg width="512" height="512" xmlns:xlink="http://www.w3.org/1999/xlink" xmlns="http://www.w3.org/2000/svg">
<defs>
<linearGradient id="b">
<stop style="stop-color:#000;stop-opacity:1" offset="0"/>
<stop style="stop-color:#000;stop-opacity:0" offset="1"/>
</linearGradient>
<linearGradient id="a">
<stop style="stop-color:#1abc9c;stop-opacity:1" offset="0"/>
<stop style="stop-color:#2980b9;stop-opacity:1" offset="1"/>
</linearGradient>
<linearGradient xlink:href="#a" id="c" x1="25" y1="1004.362" x2="25" y2="1052.362" gradientUnits="userSpaceOnUse" gradientTransform="matrix(10.66667 0 0 10.66667 0 -9708.834)"/>
<linearGradient xlink:href="#b" id="d" x1="24" y1="1028.362" x2="49" y2="1028.362" gradientUnits="userSpaceOnUse" gradientTransform="scale(1.2353) rotate(45 1239.605 518.377)"/>
<linearGradient xlink:href="#b" id="e" x1="24" y1="1028.362" x2="49" y2="1028.362" gradientUnits="userSpaceOnUse" gradientTransform="rotate(45 4310.574 1791.591) scale(1.23529 3.47426)"/>
<linearGradient xlink:href="#b" id="f" x1="24" y1="1028.362" x2="49" y2="1028.362" gradientUnits="userSpaceOnUse" gradientTransform="rotate(45 6514.836 2704.637) scale(1.23529 5.24998)"/>
</defs>
<g transform="translate(0 -1004.362)">
<circle style="color:#000;clip-rule:nonzero;display:inline;overflow:visible;visibility:visible;opacity:1;isolation:auto;mix-blend-mode:normal;color-interpolation:sRGB;color-interpolation-filters:linearRGB;solid-color:#000;solid-opacity:1;fill:url(#c);fill-opacity:1;fill-rule:evenodd;stroke:none;stroke-width:213.333;stroke-linecap:butt;stroke-linejoin:miter;stroke-miterlimit:4;stroke-dasharray:none;stroke-dashoffset:0;stroke-opacity:1;marker:none;color-rendering:auto;image-rendering:auto;shape-rendering:auto;text-rendering:auto;enable-background:accumulate" cx="256" cy="1260.362" r="256"/>
<path style="color:#000;clip-rule:nonzero;display:inline;overflow:visible;visibility:visible;opacity:.2;isolation:auto;mix-blend-mode:normal;color-interpolation:sRGB;color-interpolation-filters:linearRGB;solid-color:#000;solid-opacity:1;fill:url(#d);fill-opacity:1;fill-rule:evenodd;stroke:none;stroke-width:20;stroke-linecap:butt;stroke-linejoin:miter;stroke-miterlimit:4;stroke-dasharray:none;stroke-dashoffset:0;stroke-opacity:1;marker:none;color-rendering:auto;image-rendering:auto;shape-rendering:auto;text-rendering:auto;enable-background:accumulate" d="m27.494 20.506-6.988 6.988 16.601 16.6a24 24 0 0 0 6.979-6.996z" transform="matrix(10.66667 0 0 10.66667 0 1004.361)"/>
<path style="color:#000;clip-rule:nonzero;display:inline;overflow:visible;visibility:visible;opacity:.2;isolation:auto;mix-blend-mode:normal;color-interpolation:sRGB;color-interpolation-filters:linearRGB;solid-color:#000;solid-opacity:1;fill:url(#e);fill-opacity:1;fill-rule:evenodd;stroke:none;stroke-width:20;stroke-linecap:butt;stroke-linejoin:miter;stroke-miterlimit:4;stroke-dasharray:none;stroke-dashoffset:0;stroke-opacity:1;marker:none;color-rendering:auto;image-rendering:auto;shape-rendering:auto;text-rendering:auto;enable-background:accumulate" d="m33.826 14.174-.441.441A13.28 13.28 0 0 1 37.279 24 13.28 13.28 0 0 1 24 37.28a13.28 13.28 0 0 1-9.385-3.895l-.441.441L28.006 47.66A24 24 0 0 0 47.64 27.986Z" transform="matrix(10.66667 0 0 10.66667 0 1004.361)"/>
<path style="color:#000;clip-rule:nonzero;display:inline;overflow:visible;visibility:visible;opacity:.2;isolation:auto;mix-blend-mode:normal;color-interpolation:sRGB;color-interpolation-filters:linearRGB;solid-color:#000;solid-opacity:1;fill:url(#f);fill-opacity:1;fill-rule:evenodd;stroke:none;stroke-width:20;stroke-linecap:butt;stroke-linejoin:miter;stroke-miterlimit:4;stroke-dasharray:none;stroke-dashoffset:0;stroke-opacity:1;marker:none;color-rendering:auto;image-rendering:auto;shape-rendering:auto;text-rendering:auto;enable-background:accumulate" d="M38.85 9.146v.004l-1.155 1.155A19.379 19.379 0 0 1 43.38 24 19.379 19.379 0 0 1 24 43.379a19.379 19.379 0 0 1-13.695-5.686L9.15 38.85l8.188 8.187A24 24 0 0 0 24 48a24 24 0 0 0 24-24 24 24 0 0 0-.953-6.656Z" transform="matrix(10.66667 0 0 10.66667 0 1004.361)"/>
<path d="M24 1011.362a1.4 1.4 0 0 0-1.365 1.095 16 16 0 0 0-8.921 3.703 1.4 1.4 0 0 0-.714-.198 1.4 1.4 0 0 0-1.4 1.4 1.4 1.4 0 0 0 .197.713 16 16 0 0 0-3.71 8.924A1.4 1.4 0 0 0 7 1028.362a1.4 1.4 0 0 0 1.094 1.365 16 16 0 0 0 3.704 8.921 1.4 1.4 0 0 0-.198.714 1.4 1.4 0 0 0 1.4 1.4 1.4 1.4 0 0 0 .711-.196 16 16 0 0 0 8.926 3.71 1.4 1.4 0 0 0 1.363 1.086 1.4 1.4 0 0 0 1.365-1.095 16 16 0 0 0 8.932-3.696 1.4 1.4 0 0 0 .703.191 1.4 1.4 0 0 0 1.4-1.4 1.4 1.4 0 0 0-.197-.712 16 16 0 0 0 3.724-8.928 1.4 1.4 0 0 0 1.073-1.36 1.4 1.4 0 0 0-1.096-1.365 16 16 0 0 0-3.695-8.931 1.4 1.4 0 0 0 .191-.704 1.4 1.4 0 0 0-1.4-1.4 1.4 1.4 0 0 0-.713.197 16 16 0 0 0-8.927-3.723 1.4 1.4 0 0 0-1.36-1.074zm0 .6a.8.8 0 0 1 .8.8.8.8 0 0 1-.8.8.8.8 0 0 1-.8-.8.8.8 0 0 1 .8-.8zm-1.317 1.271a1.4 1.4 0 0 0 1.317.93 1.4 1.4 0 0 0 1.31-.91 15.2 15.2 0 0 1 8.434 3.494 1.4 1.4 0 0 0-.144.615 1.4 1.4 0 0 0 1.4 1.4 1.4 1.4 0 0 0 .618-.144 15.2 15.2 0 0 1 3.498 8.432 1.4 1.4 0 0 0-.916 1.312 1.4 1.4 0 0 0 .91 1.31 15.2 15.2 0 0 1-3.495 8.435 1.4 1.4 0 0 0-.615-.145 1.4 1.4 0 0 0-1.4 1.4 1.4 1.4 0 0 0 .144.616 15.2 15.2 0 0 1-8.431 3.5 1.4 1.4 0 0 0-1.313-.916 1.4 1.4 0 0 0-1.309.908 15.2 15.2 0 0 1-8.441-3.48 1.4 1.4 0 0 0 .15-.628 1.4 1.4 0 0 0-1.4-1.4 1.4 1.4 0 0 0-.617.144 15.2 15.2 0 0 1-3.511-8.427 1.4 1.4 0 0 0 .928-1.317 1.4 1.4 0 0 0-.908-1.309 15.2 15.2 0 0 1 3.48-8.441 1.4 1.4 0 0 0 .628.15 1.4 1.4 0 0 0 1.4-1.4 1.4 1.4 0 0 0-.144-.617 15.2 15.2 0 0 1 8.427-3.512zm1.317 2.93a1.4 1.4 0 0 0-1.368 1.104 11.2 11.2 0 0 0-9.832 11.095 11.2 11.2 0 0 0 9.834 11.1 1.4 1.4 0 0 0 1.366 1.1 1.4 1.4 0 0 0 1.368-1.105 11.2 11.2 0 0 0 9.832-11.095 11.2 11.2 0 0 0-9.834-11.1 1.4 1.4 0 0 0-1.366-1.1zm-11 .4a.8.8 0 0 1 .8.8.8.8 0 0 1-.8.8.8.8 0 0 1-.8-.8.8.8 0 0 1 .8-.8zm22 0a.8.8 0 0 1 .8.8.8.8 0 0 1-.8.8.8.8 0 0 1-.8-.8.8.8 0 0 1 .8-.8zm-11 .2a.8.8 0 0 1 .8.8.8.8 0 0 1-.8.8.8.8 0 0 1-.8-.8.8.8 0 0 1 .8-.8zm-1.308 1.298a1.4 1.4 0 0 0 1.308.901 1.4 1.4 0 0 0 1.306-.899 10.4 10.4 0 0 1 9.094 10.3 10.4 10.4 0 0 1-9.092 10.3 1.4 1.4 0 0 0-1.308-.9 1.4 1.4 0 0 0-1.306.898 10.4 10.4 0 0 1-9.094-10.299 10.4 10.4 0 0 1 9.092-10.301zm1.308 6.301a4 4 0 0 0-4 4 4 4 0 0 0 4 4 4 4 0 0 0 4-4 4 4 0 0 0-4-4zm-15.6 3.2a.8.8 0 0 1 .8.8.8.8 0 0 1-.8.8.8.8 0 0 1-.8-.8.8.8 0 0 1 .8-.8zm31.2 0a.8.8 0 0 1 .8.8.8.8 0 0 1-.8.8.8.8 0 0 1-.8-.8.8.8 0 0 1 .8-.8zm-15.6 10.8a.8.8 0 0 1 .8.8.8.8 0 0 1-.8.8.8.8 0 0 1-.8-.8.8.8 0 0 1 .8-.8zm-11 .2a.8.8 0 0 1 .8.8.8.8 0 0 1-.8.8.8.8 0 0 1-.8-.8.8.8 0 0 1 .8-.8zm22 0a.8.8 0 0 1 .8.8.8.8 0 0 1-.8.8.8.8 0 0 1-.8-.8.8.8 0 0 1 .8-.8zm-11 4.6a.8.8 0 0 1 .8.8.8.8 0 0 1-.8.8.8.8 0 0 1-.8-.8.8.8 0 0 1 .8-.8z" style="color:#000;clip-rule:nonzero;display:inline;overflow:visible;visibility:visible;opacity:1;isolation:auto;mix-blend-mode:normal;color-interpolation:sRGB;color-interpolation-filters:linearRGB;solid-color:#000;solid-opacity:1;fill:#fcfcfc;fill-opacity:1;fill-rule:evenodd;stroke:none;stroke-width:3;stroke-linecap:round;stroke-linejoin:round;stroke-miterlimit:.9;stroke-dasharray:none;stroke-dashoffset:0;stroke-opacity:1;color-rendering:auto;image-rendering:auto;shape-rendering:auto;text-rendering:auto;enable-background:accumulate" transform="translate(-60.235 -12289.822) scale(13.17647)"/>
</g>
</svg>
