<svg width="512" height="512" xmlns="http://www.w3.org/2000/svg">
<path style="fill:#0079c1;stroke-width:5.73685" d="M512.002 255.99C512.002 397.37 397.38 512 255.996 512 114.612 511.999.002 397.376.002 255.99.002 114.61 114.612 0 255.996 0c141.39 0 256.006 114.611 256.006 255.991z"/>
<path style="fill:#fff;fill-opacity:1;stroke-width:2.38245" d="m172.139 347.442 8.7-188.75-57.855-52.7a3.45 3.45 0 0 0-4.34.452l-26.729 26.722a3.464 3.464 0 0 0-.505 4.24l31.29 51.538a133.76 133.76 0 0 0-13.174 30.005l-57.45 11.95a3.462 3.462 0 0 0-2.75 3.388v37.793a3.448 3.448 0 0 0 2.633 3.355l55.759 13.627a133.6 133.601 0 0 0 13.673 34.656l-32.275 49.219a3.455 3.455 0 0 0 .452 4.345l26.72 26.725a3.482 3.482 0 0 0 4.247.512zm43.967-208.994 161.672 99.139 75.932-16.622a3.45 3.45 1.616 0 0 1.869-3.944l-8.943-36.72a3.464 3.464 1.61 0 0-3.36-2.637l-60.292-.045a133.76 133.76 1.616 0 0-18.79-26.847l19.642-55.296a3.462 3.462 0 0 0-1.466-4.11L350.08 71.73a3.448 3.448 0 0 0-4.234.506l-40.617 40.56a133.6 133.601 1.609 0 0-36.713-6.326l-25.282-53.15a3.455 3.455 1.613 0 0-3.948-1.872L202.57 60.39a3.482 3.482 0 0 0-2.645 3.363zm158.498 143.728L211.458 371.62l-19.739 74.707a3.45 3.45 88.85 0 0 2.56 3.535l36.496 9.82a3.464 3.464 88.849 0 0 3.927-1.68l29.034-52.84a133.761 133.76 88.845 0 0 32.576-3.564l39.034 43.814a3.462 3.462 0 0 0 4.308.691l32.747-18.867a3.448 3.448 0 0 0 1.592-3.956l-16.028-55.117a133.601 133.6 88.85 0 0 23.202-29.148l58.76 3.395a3.455 3.455 88.85 0 0 3.538-2.562l9.817-36.493a3.482 3.482 0 0 0-1.676-3.936z"/>
<path style="fill:#0079c1;fill-opacity:1;stroke-width:5.73685" d="M379.573 255.996c0 68.246-55.326 123.573-123.571 123.573S132.43 324.242 132.43 255.996 187.757 132.429 256 132.429c68.246 0 123.572 55.321 123.572 123.573z"/>
</svg>
