<svg width="512" height="512" fill="none" xmlns="http://www.w3.org/2000/svg">
<circle cx="256" cy="256" r="256" fill="#fff"/>
<path d="M256 492c130.339 0 236-105.661 236-236S386.339 20 256 20 20 125.661 20 256s105.661 236 236 236Z" stroke="#000" stroke-width="20"/>
<path d="M116 126v180c0 43.946 36.054 80 80 80h120c43.946 0 80-36.054 80-80V206c0-32.9-27.1-60-60-60-15.37 0-29.333 6.075-40 15.732C285.334 152.075 271.37 146 256 146c-32.9 0-60 27.1-60 60v100h40V206c0-11.283 8.718-20 20-20 11.283 0 20 8.717 20 20v100h40V206c0-11.283 8.718-20 20-20 11.283 0 20 8.717 20 20v100c0 22.328-17.672 40-40 40H196c-22.328 0-40-17.672-40-40V126Z" fill="#000"/>
</svg>
