<svg width="512" height="512" viewBox="0 0 512 512" fill="none" xmlns="http://www.w3.org/2000/svg">
<circle cx="256" cy="256" r="256" fill="white"/>
<path d="M256 0C114.621 0 0 114.621 0 256C0 397.401 114.621 512 256 512C397.401 512 512 397.401 512 256C512 114.621 397.401 0 256 0ZM256 43.6522C373.293 43.6522 468.348 138.707 468.348 256C468.348 274.04 465.887 291.449 461.652 308.174L360.652 195.913L231.522 342.826L293.826 218.174L262.696 162.522L79.1304 373.478C56.7363 339.827 43.6522 299.446 43.6522 256C43.6522 138.707 138.707 43.6522 256 43.6522Z" fill="#DC682E"/>
</svg>
