<?xml version="1.0" encoding="UTF-8"?>
<svg xmlns="http://www.w3.org/2000/svg" xmlns:xlink="http://www.w3.org/1999/xlink" width="512" height="512" viewBox="0 0 512 512" version="1.1">
<g id="surface1">
<path style=" stroke:none;fill-rule:nonzero;fill:rgb(100%,100%,100%);fill-opacity:1;" d="M 512 256 C 512 397.386719 397.386719 512 256 512 C 114.613281 512 0 397.386719 0 256 C 0 114.613281 114.613281 0 256 0 C 397.386719 0 512 114.613281 512 256 Z M 512 256 "/>
<path style=" stroke:none;fill-rule:nonzero;fill:rgb(41.176471%,70.980394%,24.705882%);fill-opacity:1;" d="M 472 256 C 472 375.292969 375.292969 472 256 472 C 136.707031 472 40 375.292969 40 256 C 40 136.707031 136.707031 40 256 40 C 375.292969 40 472 136.707031 472 256 Z M 472 256 "/>
<path style=" stroke:none;fill-rule:nonzero;fill:rgb(97.254902%,97.254902%,97.254902%);fill-opacity:1;" d="M 116 126 L 116 306 C 116.199219 350.199219 151.800781 385.800781 196 386 L 316 386 C 360.199219 385.800781 395.800781 350.199219 396 306 L 396 206 C 395.800781 173 369 146.199219 336 146 C 321.199219 146 307 151.601562 296 161.800781 C 285 151.800781 270.800781 146.199219 256 146 C 223 146.199219 196.199219 173 196 206 L 196 306 L 236 306 L 236 206 C 236 195 245 186 256 186 C 267 186 276 195 276 206 L 276 306 L 316 306 L 316 206 C 316 195 325 186 336 186 C 347 186 356 195 356 206 L 356 306 C 356.199219 328 338.398438 345.800781 316.601562 346 C 316.398438 346 316.199219 346 316 346 L 196 346 C 174 346.199219 156.199219 328.398438 156 306.601562 C 156 306.398438 156 306.199219 156 306 L 156 126 Z M 116 126 "/>
</g>
</svg>
