<svg width="512" height="512" viewBox="0 0 512 512" fill="none" xmlns="http://www.w3.org/2000/svg">
<circle cx="256" cy="256" r="256" fill="white"/>
<path fill-rule="evenodd" clip-rule="evenodd" d="M256 20.813C126.11 20.813 20.813 126.11 20.813 256C20.813 385.89 126.11 491.187 256 491.187C385.89 491.187 491.187 385.89 491.187 256C491.187 126.11 385.89 20.813 256 20.813ZM0 256C0 114.615 114.615 0 256 0C397.385 0 512 114.615 512 256C512 397.385 397.385 512 256 512C114.615 512 0 397.385 0 256Z" fill="black"/>
<path d="M110.309 120.715V308.033C110.309 353.765 147.829 391.285 193.561 391.285H318.439C364.171 391.285 401.691 353.765 401.691 308.033V203.967C401.691 169.73 373.49 141.528 339.252 141.528C323.257 141.528 308.726 147.851 297.626 157.9C286.526 147.851 271.995 141.528 256 141.528C221.762 141.528 193.561 169.73 193.561 203.967V308.033H235.187V203.967C235.187 192.226 244.259 183.154 256 183.154C267.741 183.154 276.813 192.226 276.813 203.967V308.033H318.439V203.967C318.439 192.226 327.511 183.154 339.252 183.154C350.993 183.154 360.065 192.226 360.065 203.967V308.033C360.065 331.268 341.675 349.659 318.439 349.659H193.561C170.325 349.659 151.935 331.268 151.935 308.033V120.715H110.309Z" fill="black"/>
</svg>
