<svg width="512" height="512" xmlns="http://www.w3.org/2000/svg"><script/><ellipse cx="249.63" cy="248.26" rx="236.22" ry="232.28" fill="#d90751" stroke-width="0"/><circle cx="256" cy="256" r="236" fill="none" stroke="#fff" stroke-width="40"/><path d="M116 126v180c0 43.946 36.054 80 80 80h120c43.946 0 80-36.054 80-80V206c0-32.9-27.1-60-60-60-15.37 0-29.334 6.075-40 15.732C285.334 152.075 271.37 146 256 146c-32.9 0-60 27.1-60 60v100h40V206c0-11.283 8.717-20 20-20s20 8.717 20 20v100h40V206c0-11.283 8.717-20 20-20s20 8.717 20 20v100c0 22.328-17.672 40-40 40H196c-22.328 0-40-17.672-40-40V126z" color="#000" fill="#fff" style="-inkscape-stroke:none"/></svg>