<svg width="512" height="512" fill="none" xmlns="http://www.w3.org/2000/svg">
<circle cx="256" cy="256" r="256" fill="#fff"/>
<path fill-rule="evenodd" clip-rule="evenodd" d="M201.217 172.567 76.491 388.626l-29.12-49.375 33.614-57.864-66.758-.176L0 256.539l14.528-25.234 95.023.3 34.151-58.889 57.515-.149ZM210.786 345.281l249.43.013-28.189 49.912-66.907-.185 33.227 57.915-14.248 24.66-29.113.033-47.251-82.462-68.062-.138-28.887-49.748ZM355.963 250.609 231.258 34.538l57.31-.538 33.293 58.05 33.531-57.74 28.475.011 14.584 25.203-47.771 82.162 33.911 59.027-28.628 49.896Z" fill="#7EBAE4"/>
<path fill-rule="evenodd" clip-rule="evenodd" d="m301.052 166.351-249.43-.012 28.189-49.913 66.907.186-33.227-57.916 14.248-24.66 29.113-.032 47.251 82.462 68.062.138 28.887 49.747ZM310.783 339.566l124.726-216.06 29.12 49.375-33.614 57.865 66.757.175L512 255.593l-14.529 25.235-95.022-.301-34.151 58.889-57.515.15Z" fill="#5277C3"/>
<path fill-rule="evenodd" clip-rule="evenodd" d="m156.354 261.43 124.705 216.072-57.31.537-33.293-58.05-33.531 57.74-28.475-.011-14.584-25.202 47.771-82.162-33.911-59.027 28.628-49.897Z" fill="url(#a)"/>
<defs>
<linearGradient id="a" x1="126.706" y1="262.842" x2="216.445" y2="421.429" gradientUnits="userSpaceOnUse">
<stop stop-color="#415E9A"/>
<stop offset=".232" stop-color="#4A6BAF"/>
<stop offset="1" stop-color="#5277C3"/>
</linearGradient>
</defs>
</svg>
