<svg width="512" height="512" viewBox="0 0 512 512" fill="none" xmlns="http://www.w3.org/2000/svg">
<circle cx="256" cy="256" r="256" fill="white"/>
<path d="M256 512C397.385 512 512 397.385 512 256C512 114.615 397.385 0 256 0C114.615 0 0 114.615 0 256C0 397.385 114.615 512 256 512Z" fill="white"/>
<path d="M291.314 40.443C287.097 50.244 288.278 61.679 285.205 71.865C284.497 74.212 282.177 81.299 278.784 80.809C271.846 79.805 275.44 66.476 267.434 66.209L269.947 85.691C257.917 87.202 259.557 68.421 254.674 60.791C249.039 51.988 247.682 64.785 248.058 68.723C248.299 71.247 248.808 73.747 249.111 76.265C249.637 80.645 249.761 84.457 249.209 88.833C237.712 88.698 241.932 73.566 233.497 71.237L234.126 89.462C221.381 89.355 215.572 77.851 209.976 68.095C207.64 64.022 204.532 56.154 198.933 58.668C201.553 69.99 207.75 80.826 208.383 92.604C208.546 95.649 205.672 103.379 201.448 101.957C191.69 98.67 193 80.965 184.868 76.307C183.224 75.365 180.628 76.187 178.823 76.265C178.829 85.656 182.96 97.01 186.243 105.801C186.949 107.692 188.933 114.341 184.813 114.217C177.45 113.996 175.617 99.721 168.139 101.402C169.054 105.252 171.342 108.378 172.617 112.086C173.397 114.351 174.84 116.641 175.259 118.998C176.172 124.153 169.642 124.571 166.254 123.573C158.248 121.213 152.498 114.668 146.772 108.943C145.185 107.358 140.998 101.773 138.356 104.308C135.417 107.127 141.187 112.08 142.824 113.971C147.715 119.625 153.007 126.248 155.344 133.453C156.348 136.549 156.544 140.948 153.471 143.073C150.421 145.179 145.461 141.355 143.001 139.736C135.467 134.778 127.977 126.114 118.491 125.912L116.271 131.568L122.319 139.738L137.974 157.334L119.749 149.793C120.485 154.557 131.899 160.33 129.652 165.241C128.32 168.151 121.716 168.199 119.12 167.829C109.829 166.505 103.254 159.586 94.61 157.107C86.979 154.917 88.4 160.837 92.726 164.257C94.227 165.443 95.674 166.687 97.125 167.936C99.7254 170.172 102.241 172.506 104.666 174.931C108.478 178.741 111.818 182.816 115.35 186.871L97.125 186.243V187.499L114.721 195.669L111.579 208.239C106.498 208.225 102.379 206.841 97.753 204.829C94.601 203.459 91.283 201.18 87.698 201.432C83.418 201.732 80.874 205.64 83.741 209.291C88.039 214.764 96.649 217.881 102.149 222.146C104.248 223.773 107.289 226.555 104.915 229.333C100.226 234.821 87.589 227.78 81.413 229.605V230.862C87.145 234.207 98.897 236.116 102.27 242.284C104.907 247.107 97.407 258.041 92.097 257.613C87.367 257.23 83.017 251.891 79.528 249.088C71.176 242.379 62.24 234.487 52.505 229.858C35.812 221.92 19.232 234.562 6 242.803C7.692 248.143 14.373 242.459 18.569 243.41C24.217 244.69 28.507 249.945 32.128 254.115C49.624 274.264 64.268 297.11 70.81 323.244C72.532 330.124 75.472 338.355 70.33 344.52C68.95 346.173 66.895 346.389 65.374 347.753C64.237 348.773 64.296 350.218 65.856 350.695C68.735 351.577 72.932 350.237 75.757 349.557C84.982 347.334 95.512 342.357 99.701 333.299C102.306 327.664 103.223 316.699 109.694 314.445C111.125 320.485 117.917 328.476 117.256 334.555C116.669 339.955 110.982 346.213 107.656 350.21C106.478 351.626 103.636 354.73 105.336 356.764C107.03 358.787 110.524 354.43 111.579 353.434C116.349 348.93 126.773 341.817 129.603 352.152C132.064 361.14 124.157 375.67 120.207 383.574C119.108 385.774 114.047 392.647 116.023 395.1C118.301 397.926 123.069 390.56 124.084 389.23C128.045 384.043 141.916 368.668 149.286 374.194C158.273 380.933 155.174 385.75 151.768 394.886C150.808 397.46 147.265 403.913 149.674 406.361C152.006 408.729 155.067 406.56 156.259 404.301C158.416 400.211 164.219 388.061 170.024 391.162C173.658 393.104 179.214 396.395 181.328 400.022C184.632 405.691 181.758 417.005 180.878 423.167C180.371 426.714 176.557 437.784 179.723 440.347C182.648 442.715 185.013 435.595 185.891 433.85C188.987 427.702 192.548 421.406 197.157 416.254C198.811 414.404 201.149 411.304 203.96 411.831C218.557 414.563 203.644 429.103 209.634 436.526C210.846 438.028 214.134 437.92 215.901 438.249L223.442 418.767C227.278 420.245 232.919 420.757 235.748 423.929C238.125 426.595 238.592 431.099 239.278 434.479C241.201 443.942 242.254 453.144 241.038 462.759C242.233 463.618 244.118 465.612 245.721 464.589C247.75 463.295 248.009 458.014 248.701 455.846C250.919 448.912 254.301 442.283 257.444 435.736C259.514 431.422 265.158 426.829 269.231 432.769C273.409 438.86 271.736 449.515 274.346 456.474C281.021 453.184 281.749 439.289 281.888 432.594L290.544 433.856L295.744 444.534L305.14 471.557C310.002 469.697 308.463 460.347 309.008 455.846C309.748 449.745 311.163 437.488 315.636 432.948C317.44 431.117 321.026 430.962 323.365 430.079C326.032 436.582 327.495 443.957 330.724 450.18C331.982 452.606 334.851 455.221 337.751 453.734C340.527 452.309 340.422 449.069 340.066 446.419C339.191 439.907 337.709 433.504 337.191 426.937C349.65 426.057 356.959 436.131 364.787 444.534C367.811 447.781 370.445 452.082 374.897 453.332L368.437 434.479L364.842 416.882C369.364 414.99 378.931 405.742 383.696 407.09C390.793 409.096 396.216 428.872 405.026 424.223C408.784 422.241 406.841 418.881 405.076 416.253C402.448 412.341 394.546 402.944 395.401 398.031C396.035 394.39 402.135 390.149 405.691 390.198C413.839 390.31 428.004 396.512 432.715 403.056L438.371 402.428C437.523 391.177 420.661 386.045 418.249 374.777C418.009 373.654 418.049 372.3 418.325 371.185C420.116 363.962 424.461 367.116 428.944 369.057C430.342 369.662 433.398 371.214 434.554 369.483C435.831 367.576 433.57 365.06 432.741 363.464C431.049 360.206 429.496 356.444 430.201 352.781C436.072 354.317 439.696 357.809 444.655 361.108C445.828 361.888 448.415 363.841 449.895 362.752C451.452 361.607 449.154 359.295 448.413 358.437C446.199 355.869 439.417 349.667 440.086 345.924C440.538 343.397 444.802 340.69 446.54 338.954C452.286 333.218 458.83 327.372 463.508 320.73H464.137C475.237 333.678 510.034 324.598 505.614 305.019C502.847 305.415 500.276 307.59 497.444 306.614C485.067 302.347 488.058 282.519 474.192 282.394C473.17 269.469 467.977 256.55 461.71 245.316C458.837 240.166 452.864 235.454 450.778 230.209C449.621 227.301 449.818 222.692 449.683 219.55C456.953 218.418 453.37 211.058 450.723 206.981C447.773 202.438 444.653 197.048 440.826 193.214C436.124 188.504 429.121 185.434 429.725 177.444C430.285 170.004 443.108 170.949 445.284 164.247C441.482 164.41 437.723 165.352 433.972 165.977C424.634 167.532 423.008 164.391 427.368 156.077C431.178 148.813 437.241 143.301 442.59 137.224C444.303 135.279 449.582 130.848 446.862 128.031C444.615 125.704 440.904 129.257 438.999 130.521C432.062 135.119 424.317 138.518 416.375 140.978C414.01 141.711 407.035 144.438 406.245 140.248C405.179 134.588 415.892 133.532 414.49 127.168C410.204 128.187 401.783 134.95 397.666 131.815C392.711 128.042 399.987 118.409 400.766 113.972C401.553 109.477 397.938 109.312 395.394 112.123C394.504 113.108 393.695 114.185 392.874 115.228C391.453 117.033 390.274 118.784 389.352 120.884C379.059 114.875 398.532 107.893 394.868 102.331C393.562 100.349 391.152 102.333 389.98 103.359C387.537 105.497 378.352 116.081 376.354 108.312C374.144 99.72 378.606 89.398 380.918 81.292C381.521 79.175 384.246 73.462 381.602 71.942C377.742 69.722 376.051 77.211 375.147 79.407C372.362 86.168 367.76 92.047 362.329 96.894C360.539 98.491 357.505 101.59 354.825 100.852C350.935 99.781 350.92 88.991 351.042 85.692C351.1 84.12 351.983 81.41 350.449 80.272C348.447 78.787 347.401 81.766 347.103 83.18C346.131 87.807 343.259 101.025 336.4 92.359C330.194 84.516 339.792 68.249 327.136 64.953L320.223 86.948C311.939 85.14 313.777 73.295 315.823 66.838L312.053 65.581C311.46 68.145 310.616 70.643 309.733 73.122C306.385 82.522 301.908 84.353 298.453 73.751C295.815 65.659 296.75 56.929 295.438 48.613C294.914 45.297 294.604 41.933 291.314 40.443V40.443Z" fill="black"/>
<path d="M291.943 59.2974C291.572 77.2534 286.15 90.7064 266.177 90.7185L273.089 119C265.59 111.139 262.854 100.139 259.473 90.0903C257.327 83.7132 254.592 77.3046 253.607 70.6082H252.979C253.214 81.9536 255.606 93.2117 253.325 104.545C252.072 110.776 248.56 115.618 246.695 121.513H246.067L249.836 93.861C235.808 94.9698 223.695 97.0955 214.501 83.8066C212.505 80.9187 210.962 77.6119 209.616 74.379H208.987C210.563 84.8943 219.928 97.1648 208.932 105.985C207.252 107.332 205.313 108.159 203.332 108.944L213.266 124.002L219.043 131.569C203.144 121.038 193.686 102.7 185.735 85.6913H185.106C187.134 99.2272 195.361 111.463 197.407 125.284C198.118 130.086 199.979 136.879 195.791 140.367L190.763 116.486C183.442 120.282 177.809 131.701 168.139 130.089C164.026 129.402 160.697 126.073 156.826 124.655C158.649 130.412 163.692 135.856 160.816 142.251C159.752 144.617 157.675 146.432 156.198 148.536L176.31 156.078C172.639 160.468 164.999 157.021 160.597 154.957C152.254 151.046 144.829 145.879 137.346 140.549C133.093 137.521 128.088 133.202 122.891 132.197C126.092 139.061 134.307 144.877 139.859 149.9C144.449 154.053 147.878 158.854 151.749 163.62C155.561 168.312 160.544 173.608 158.713 179.959C152.028 173.219 146.191 168.32 136.088 170.679C132.421 171.536 129.328 173.69 125.405 173.593C118.418 173.421 111.669 169.862 105.294 167.39C108.995 175.325 118.75 179.599 120.83 188.757C122.359 195.485 117.507 204.072 116.606 210.752L137.974 213.894V215.151C119.65 219.999 106.74 209.935 89.5838 206.981V207.611C101.154 213.084 114.269 222.331 122.52 232.12C125.521 235.68 129.2 239.814 129.175 244.689C125.8 241.953 119.42 234.806 114.721 235.528C110.973 236.102 109.735 240.263 109.238 243.431C107.9 251.986 107.808 261.173 107.808 269.826C104.207 266.682 104.665 262.303 104.665 257.886C100.194 260.831 95.3642 264.525 89.5838 263.366C83.7355 262.194 77.9114 254.992 73.871 250.974C65.891 243.035 57.0434 235.204 45.5924 233.643C39.6192 232.83 21.5336 233.67 29.6175 242.791C30.4506 243.731 31.2852 244.708 32.4196 245.299C36.6755 247.518 45.7567 244.689 50.6181 244.689V245.317L34.9084 248.46C41.2206 261.688 54.8891 249.829 62.5602 257.886C57.319 256.337 48.3192 256.337 43.0781 257.886L51.858 269.198L55.8924 274.475L70.7299 276.111V276.74H57.533C58.3118 283.66 66.3159 281.776 71.3581 281.139V281.767L60.674 283.651C62.3523 287.547 66.453 299.096 70.3457 300.868C73.3934 302.252 77.6282 299.575 80.1561 298.106C76.6866 304.432 70.4859 301.882 73.8725 310.675L83.9268 305.648C81.6867 308.174 77.9189 310.173 76.4064 313.198C74.6588 316.689 77.6086 323.015 78.8997 326.386L88.954 318.845L79.3847 329.586L80.1561 340.84C88.5804 337.333 95.4064 331.108 99.0009 322.616C100.492 319.093 100.647 314.684 102.424 311.388C103.724 308.977 107.478 309.366 108.234 306.763C109.68 301.776 106.603 297.728 109.064 292.451H109.694L111.579 302.505C117.927 300.723 121.71 290.739 123.519 284.909H124.776C126.529 292.972 119.232 298.197 116.606 305.02C121.042 306.046 129.021 308.198 128.546 313.818L112.835 308.162L124.776 334.556H125.405C131.154 325.868 136.709 312.049 144.886 305.646C147.742 314.917 137.848 322.453 134.203 330.157C139.592 328.684 149.363 321.448 154.314 324.502C147.388 327.385 141.234 331.54 136.147 337.07C134.474 338.889 131.412 341.942 131.448 344.612C131.486 347.342 134.842 350.644 136.355 352.782C141.847 360.54 148.486 368.705 156.828 373.52C160.24 367.032 163.125 360.543 164.918 353.408C165.739 350.135 165.608 345.725 168.767 343.982C171.843 361.322 159.442 380.433 155.57 396.773C167.384 386.753 174.519 370.552 189.505 364.092C189.162 372.172 176.173 376.449 175.477 385.452C175.233 388.609 179.159 390.253 181.337 391.761C187.431 395.982 192.588 400.676 199.561 403.496C202.07 404.51 204.439 406.642 206.77 404.209C211.006 399.786 211.369 391.188 210.694 385.461C210.265 381.833 208.758 376.286 211.502 373.52L215.877 399.286L213.386 429.452H214.016C219.891 414.521 225.096 398.293 236.639 386.717C236.709 394.592 227.799 405.669 224.699 413.111C236.484 418.625 250.294 421.954 263.035 424.425C264.032 416.531 263.741 408.9 261.679 401.172C260.757 397.71 257.727 393.082 259.892 389.858C267.687 406.633 276.22 423.646 276.232 442.649H276.86C276.867 431.124 278.877 419.369 281.134 408.084C281.547 406.023 282.14 397.531 285.051 397.531C288.229 397.531 286.985 402.618 286.67 404.313C285.24 412.028 283.505 419.785 282.517 427.566L309.539 426.891L318.948 425.214L318.697 415.625L305.768 393.002C310.685 391.88 315.542 400.631 317.826 404.313C326.148 417.736 331.755 434.842 335.306 450.19H335.934C334.292 429.417 328.878 410.25 331.535 389.231C337.652 391.687 334.355 407.163 335.128 413.112C335.377 415.026 335.091 420.027 337.389 420.787C339.541 421.496 343.31 419.645 345.36 418.976C352.757 416.565 359.669 413.087 366.729 409.858C369.425 408.623 373.247 407.117 373.44 403.682C374.121 391.577 363.232 388.136 356.044 381.69C362.387 381.03 367.016 385.191 371.756 388.87C378.833 394.364 385.805 400.601 391.59 407.456C394.923 411.406 397.39 416.705 401.292 420.024C399.142 413.275 393.959 406.936 390.765 400.544C384.573 388.153 379.791 374.731 378.039 360.951H378.669L390.61 392.374C397.1 390.167 402.368 382.457 406.563 377.291C408.453 374.968 410.791 372.829 410.72 369.749C421.27 365.955 407.741 357.583 405.691 354.038C412.998 352.94 419.572 360.01 426.43 361.58C423.373 355.029 418.055 346.471 419.518 338.955H420.774L425.173 351.524C436.183 341.346 449.217 330.901 457.412 318.217C468.987 300.303 468.913 277.646 460.817 258.514C458.599 253.276 456.487 245.847 452.579 241.64C447.017 235.651 442.204 245.73 441.513 250.344C444.245 250.754 446.745 251.673 449.051 253.235C457.573 259.004 458.013 269.114 454.425 277.996C452.905 281.762 450.088 285.128 449.817 289.308C449.481 294.486 452.266 299.406 453.161 304.391C454.648 312.665 450.598 321.475 444.655 326.956C439.141 332.042 431.413 334.847 423.917 333.738C420.449 333.226 416.761 329.952 413.236 331.255C407.707 333.298 406.633 341.662 403.178 345.868C401.619 336.42 408.792 330.98 410.289 322.616C411.068 318.266 407.883 311.065 406.527 306.904C405.455 303.613 403.797 294.352 398.785 296.238C395.549 297.458 393.924 301.133 392.026 303.762C387.55 309.968 383.478 317.567 375.526 319.474C378.449 311.931 386.37 305.621 390.802 298.734C399.596 285.075 408.921 261.982 397.277 247.203C393.767 242.75 388.136 239.603 383.068 237.223C376.093 233.947 368.42 232.929 361.073 230.862V229.606L369.871 228.349L367.985 214.523L362.328 216.409C362.393 193.4 385.42 180.848 401.292 168.647L398.391 176.816L406.224 188.757L422.031 213.266L415.747 212.638C416.958 221.639 419.11 230.073 415.935 239.032C413.896 244.791 408.879 249.592 407.359 255.371C406.592 258.286 407.989 261.241 407.992 264.169C407.996 268.256 406.592 272.182 405.691 276.111C416.948 270.754 419.099 254.332 430.83 250.344C429.872 244.782 427.51 239.761 427.115 234.005C426.264 221.587 428.718 209.31 426.784 196.927C424.666 183.374 418.766 171.232 413.861 158.591L419.518 161.105C420.819 152.413 427.983 147.714 432.715 140.995C425.449 143.639 414.29 152.646 406.321 147.902C400.824 144.63 398.829 137.428 393.124 134.71L385.581 164.876H384.953C381.638 150.948 388.758 137.774 391.866 124.655C382.289 132.402 375.6 142.176 362.33 144.137L380.554 130.883L384.736 124.765L379.297 120.065L365.471 110.201L371.756 111.458L374.269 91.3467H373.64C372.218 93.8396 370.512 96.1599 368.557 98.2615C365.959 101.064 362.551 105.55 358.825 106.83C351.514 109.343 341.418 100.83 334.676 98.8882V127.798C328.257 126.725 329.092 120.243 329.024 114.601C328.875 102.177 328.488 89.9547 329.021 77.5215H328.393C326.511 91.4928 321.93 111.403 308.281 118.37C312.189 112.099 315.904 106.74 317.974 99.5179C318.584 97.3892 320.371 93.7526 318.127 92.0638C311.794 87.2957 302.082 91.3708 296.878 83.7961C291.764 76.354 295.12 66.8691 291.943 59.2974V59.2974Z" fill="url(#paint0_radial_22_185)"/>
<path d="M253.608 72.494L254.236 73.122L253.608 72.494ZM252.979 74.379L253.608 75.008L252.979 74.379Z" fill="#0F0D06"/>
<path d="M328.393 76.893L329.021 77.521L328.393 76.893Z" fill="#0E0B05"/>
<path d="M288.8 78.15L289.429 78.778L288.8 78.15Z" fill="#0F0D06"/>
<path d="M327.764 79.407L328.393 80.035L327.764 79.407Z" fill="#0D0B05"/>
<path d="M288.172 80.035L288.801 80.664L288.172 80.035Z" fill="#0F0D06"/>
<path d="M184.478 85.063L185.107 85.691L184.478 85.063Z" fill="white"/>
<path d="M285.03 85.063L285.658 85.691L285.03 85.063ZM284.401 85.691L285.03 86.32L284.401 85.691ZM298.856 86.32L299.484 86.948L298.856 86.32ZM212.759 86.948L213.387 87.577L212.759 86.948ZM300.113 86.948L300.741 87.577L300.113 86.948ZM186.363 87.577L186.993 88.205L186.363 87.577ZM217.158 87.577L217.786 88.205L217.158 87.577ZM301.369 87.577L301.998 88.205L301.369 87.577Z" fill="#0F0D06"/>
<path d="M219.043 89.462L219.671 90.09L219.043 89.462ZM275.603 89.462L276.232 90.09L275.603 89.462Z" fill="#0F0E07"/>
<path d="M374.898 89.462L375.526 90.09L374.898 89.462Z" fill="#0D0B05"/>
<path d="M374.478 90.51L374.688 90.928L374.478 90.51Z" fill="white"/>
<path d="M186.364 90.719L186.992 91.347L186.364 90.719ZM315.195 90.719L315.824 91.347L315.195 90.719Z" fill="#0F0D06"/>
<path d="M214.015 93.233L214.644 93.861L214.015 93.233Z" fill="#0F0E07"/>
<path d="M373.64 93.233L374.27 93.861L373.64 93.233Z" fill="#0E0B05"/>
<path d="M189.506 98.889L190.135 99.517L189.506 98.889ZM192.648 98.889L193.277 99.517L192.648 98.889ZM193.277 100.145L193.905 100.774L193.277 100.145Z" fill="#0F0E07"/>
<path d="M286.287 102.66L276.232 147.907C283.977 143.187 285.614 125.977 286.287 117.742H286.915C288.261 124.987 288.915 132.247 291.863 139.109C293.031 141.828 294.313 145.447 297.599 145.394L289.553 117.114L286.287 102.66Z" fill="black"/>
<path d="M263.663 103.288L264.291 103.916L263.663 103.288ZM210.245 104.545L210.873 105.173L210.245 104.545ZM207.103 107.058L207.731 107.687L207.103 107.058ZM203.96 108.315L204.589 108.944L203.96 108.315ZM284.401 110.201L285.03 110.829L284.401 110.201Z" fill="#0F0E07"/>
<path d="M224.699 110.83C224.832 126.898 232.779 141.525 229.727 157.963C232.741 156.119 232.827 151.813 232.867 148.536C232.957 140.932 231.633 133.479 231.612 125.912H232.24C234.429 133.507 240.366 148.611 249.208 149.792C248.147 145.71 244.806 142.62 242.569 139.109C237.599 131.308 232.734 115.566 224.699 110.829V110.83Z" fill="black"/>
<path d="M199.561 111.458L200.19 112.086L199.561 111.458Z" fill="#0F0E07"/>
<path d="M225.956 111.458L226.584 112.086L225.956 111.458Z" fill="#0F0E08"/>
<path d="M312.053 112.086L312.681 112.714L312.053 112.086Z" fill="#0F0D06"/>
<path d="M283.773 113.343L284.401 113.971L283.773 113.343ZM314.567 113.343L315.195 113.971L314.567 113.343Z" fill="#0F0E07"/>
<path d="M367.985 113.343L368.613 113.971L367.985 113.343Z" fill="#0F0D06"/>
<path d="M313.938 113.971L314.567 114.6L313.938 113.971ZM310.168 114.6L310.796 115.228L310.168 114.6ZM313.31 114.6L313.938 115.228L313.31 114.6Z" fill="#0F0E07"/>
<path d="M228.47 115.228L229.098 115.857L228.47 115.228ZM269.947 115.857L270.576 116.485L269.947 115.857Z" fill="#0F0E08"/>
<path d="M371.755 115.857L372.384 116.485L371.755 115.857Z" fill="#0D0B05"/>
<path d="M310.168 117.114L310.796 117.742L310.168 117.114Z" fill="#0F0E07"/>
<path d="M353.53 117.742C346.543 128.715 338.214 143.686 327.764 151.678V152.306C335.688 150.893 344.251 140.879 346.618 133.453H347.246C347.154 144.632 342.015 156.483 346.618 167.389H347.246C350.59 156.076 348.848 142.731 351.726 130.939C352.629 127.241 355.956 121.077 353.53 117.742V117.742Z" fill="black"/>
<path d="M191.391 118.999L192.02 119.627L191.391 118.999Z" fill="#0F0E07"/>
<path d="M230.983 119.627L231.612 120.256L230.983 119.627ZM196.419 120.884L197.047 121.513L196.419 120.884ZM192.019 121.513L192.649 122.141L192.019 121.513ZM206.474 121.513L207.103 122.141L206.474 121.513ZM290.057 121.513L290.686 122.141L290.057 121.513ZM285.03 122.77L285.658 123.398L285.03 122.77Z" fill="#0F0E08"/>
<path d="M353.53 122.77L354.159 123.398L353.53 122.77Z" fill="#0F0D06"/>
<path d="M391.866 123.398L392.494 124.026L391.866 123.398ZM156.198 124.026L156.827 124.655L156.198 124.026Z" fill="white"/>
<path d="M233.497 124.026L234.126 124.655L233.497 124.026Z" fill="#0F0E08"/>
<path d="M391.866 124.026L392.494 124.655L391.866 124.026Z" fill="#0E0B05"/>
<path d="M348.503 125.283L349.131 125.912L348.503 125.283Z" fill="#0F0E07"/>
<path d="M211.502 126.54L212.13 127.169L211.502 126.54Z" fill="#0F0E08"/>
<path d="M329.65 126.54L330.278 127.169L329.65 126.54Z" fill="#0F0E07"/>
<path d="M217.158 127.797L217.786 128.426L217.158 127.797Z" fill="#0E0D08"/>
<path d="M217.786 128.426L218.415 129.054L217.786 128.426Z" fill="#0F0E08"/>
<path d="M345.989 128.426L346.618 129.054L345.989 128.426Z" fill="#0F0E07"/>
<path d="M218.415 129.054L219.043 129.682L218.415 129.054Z" fill="#010101"/>
<path d="M166.882 129.682L167.51 130.311L166.882 129.682Z" fill="#0F0E07"/>
<path d="M386.838 129.682L387.466 130.311L386.838 129.682ZM386.21 130.311L386.838 130.939L386.21 130.311ZM123.52 131.568L124.148 132.196L123.52 131.568Z" fill="#0F0D06"/>
<path d="M159.97 131.568L160.598 132.196L159.97 131.568Z" fill="#0F0E07"/>
<path d="M234.754 132.196L235.383 132.825L234.754 132.196Z" fill="#0E0D08"/>
<path d="M347.246 132.825L347.874 133.453L347.246 132.825Z" fill="#0F0E07"/>
<path d="M377.411 132.825L378.04 133.453L377.411 132.825Z" fill="#0F0D06"/>
<path d="M383.696 132.825L384.324 133.453L383.696 132.825Z" fill="#0E0B05"/>
<path d="M346.618 133.453L347.246 134.082L346.618 133.453Z" fill="#0F0E07"/>
<path d="M229.098 135.967L229.727 136.595L229.098 135.967Z" fill="#0E0D08"/>
<path d="M387.466 136.595L388.095 137.224L387.466 136.595Z" fill="#0F0D06"/>
<path d="M232.24 137.852L232.869 138.481L232.24 137.852Z" fill="#0E0D08"/>
<path d="M369.241 138.48L369.87 139.11L369.241 138.48Z" fill="#0E0B05"/>
<path d="M242.296 139.11L242.924 139.738L242.296 139.11Z" fill="#0E0D08"/>
<path d="M398.778 140.366L399.407 140.994L398.778 140.366Z" fill="#0F0D06"/>
<path d="M432.715 140.366L433.343 140.994L432.715 140.366Z" fill="white"/>
<path d="M243.552 140.994L244.181 141.623L243.552 140.994Z" fill="#0E0D08"/>
<path d="M341.59 140.994L342.218 141.623L341.59 140.994Z" fill="#0F0E07"/>
<path d="M432.715 140.994L433.343 141.623L432.715 140.994Z" fill="#0E0B05"/>
<path d="M430.2 141.623L430.83 142.251L430.2 141.623ZM432.086 141.623L432.715 142.251L432.086 141.623Z" fill="#0D0B05"/>
<path d="M340.333 142.251L340.961 142.88L340.333 142.251Z" fill="#0F0E07"/>
<path d="M431.458 142.251L432.086 142.88L431.458 142.251Z" fill="#0E0B05"/>
<path d="M240.41 142.88L241.039 143.508L240.41 142.88Z" fill="#0E0D08"/>
<path d="M312.053 142.88C308.343 151.25 306.531 159.026 298.856 164.875V166.132C304.372 167.585 308.216 160.662 309.539 156.077H310.168C310.713 160.3 311.227 169.08 315.824 170.531L312.738 156.077L312.053 142.88Z" fill="black"/>
<path d="M400.664 142.88L401.292 143.508L400.664 142.88Z" fill="#0F0D06"/>
<path d="M430.83 142.88L431.458 143.508L430.83 142.88Z" fill="#0D0B05"/>
<path d="M177.566 143.508C178.924 158.966 199.715 169.413 197.047 186.243C200.39 184.289 199.512 180.647 198.389 177.444C196.069 170.821 192.186 165.027 189.506 158.591C195.52 164.08 204.406 170.286 212.759 166.761L199.571 161.296L177.566 143.508Z" fill="black"/>
<path d="M430.2 143.508L430.83 144.137L430.2 143.508Z" fill="#0E0B05"/>
<path d="M429.572 144.137L430.201 144.765L429.572 144.137Z" fill="#0D0B05"/>
<path d="M389.98 144.765L390.609 145.394L389.98 144.765Z" fill="#0F0D06"/>
<path d="M423.916 144.765L424.545 145.394L423.916 144.765Z" fill="#0D0B05"/>
<path d="M428.944 144.765L429.572 145.394L428.944 144.765Z" fill="#0E0B05"/>
<path d="M242.296 145.394L242.924 146.022L242.296 145.394Z" fill="#0E0D08"/>
<path d="M337.82 145.394L338.448 146.022L337.82 145.394Z" fill="#0F0E07"/>
<path d="M428.315 145.394L428.944 146.022L428.315 145.394Z" fill="#0D0B05"/>
<path d="M177.566 146.022L178.194 146.65L177.566 146.022ZM337.191 146.022L337.819 146.65L337.191 146.022Z" fill="#0F0E08"/>
<path d="M427.688 146.022L428.315 146.65L427.688 146.022Z" fill="#0E0B05"/>
<path d="M181.965 146.65L182.593 147.279L181.965 146.65Z" fill="#0F0E07"/>
<path d="M427.059 146.65L427.687 147.279L427.059 146.65Z" fill="#0D0B05"/>
<path d="M146.772 147.279L147.4 147.907L146.772 147.279Z" fill="#0F0E07"/>
<path d="M335.934 147.279L336.562 147.907L335.934 147.279ZM335.305 147.907L335.934 148.536L335.305 147.907Z" fill="#0F0E08"/>
<path d="M138.602 148.536L139.23 149.164L138.602 148.536Z" fill="#0F0E07"/>
<path d="M245.438 148.536L246.066 149.164L245.438 148.536Z" fill="#0E0D08"/>
<path d="M264.291 148.536C262.391 154.791 257.055 167.004 259.264 173.046H260.52L264.92 157.963H265.548C267.101 163.651 268.728 172.279 275.603 173.045L265.548 148.535L264.291 148.536Z" fill="black"/>
<path d="M139.23 149.164L139.859 149.793L139.23 149.164Z" fill="#0F0E08"/>
<path d="M424.545 149.164L425.173 149.793L424.545 149.164Z" fill="#0D0B05"/>
<path d="M139.859 149.793L140.487 150.421L139.859 149.793Z" fill="#0F0E07"/>
<path d="M159.97 149.793L160.598 150.421L159.97 149.793ZM329.65 149.793L330.278 150.421L329.65 149.793Z" fill="#0F0E08"/>
<path d="M140.487 150.421L141.116 151.05L140.487 150.421Z" fill="#0F0E07"/>
<path d="M151.8 150.421L152.428 151.05L151.8 150.421Z" fill="#0F0E08"/>
<path d="M308.91 150.421L309.54 151.05L308.91 150.421ZM312.681 150.421L313.31 151.05L312.681 150.421Z" fill="#0E0D08"/>
<path d="M329.021 150.421L329.649 151.05L329.021 150.421Z" fill="#0F0E08"/>
<path d="M141.116 151.05L141.744 151.678L141.116 151.05Z" fill="#0F0E07"/>
<path d="M328.393 151.05L329.021 151.678L328.393 151.05ZM188.249 152.306L188.878 152.935L188.249 152.306Z" fill="#0E0D08"/>
<path d="M344.732 152.306L345.361 152.935L344.732 152.306Z" fill="#0F0E08"/>
<path d="M181.965 154.192L182.593 154.82L181.965 154.192ZM307.025 154.82L307.654 155.449L307.025 154.82Z" fill="#0E0D08"/>
<path d="M161.854 155.449L162.483 156.077L161.854 155.449ZM146.144 156.077L146.772 156.706L146.144 156.077Z" fill="#0F0E08"/>
<path d="M192.648 156.077L193.277 156.706L192.648 156.077ZM229.727 156.077L230.355 156.706L229.727 156.077Z" fill="#0E0D08"/>
<path d="M387.466 156.077L388.095 156.706L387.466 156.077Z" fill="#0F0D06"/>
<path d="M230.983 157.334L231.612 157.963L230.983 157.334ZM264.92 157.963L265.548 158.591L264.92 157.963ZM310.168 157.963L310.796 158.591L310.168 157.963ZM186.364 160.476L186.992 161.105L186.364 160.476Z" fill="#0E0D08"/>
<path d="M418.26 160.476L418.889 161.105L418.26 160.476Z" fill="#0D0B05"/>
<path d="M194.534 162.362L195.162 162.99L194.534 162.362Z" fill="#0E0D08"/>
<path d="M415.118 162.362L415.746 162.99L415.118 162.362Z" fill="#0D0B05"/>
<path d="M188.25 162.99L188.878 163.618L188.25 162.99ZM304.512 163.618L305.14 164.247L304.512 163.618Z" fill="#0E0D08"/>
<path d="M222.185 164.247L225.328 190.642H226.584L225.956 171.788C230.054 174.641 235.599 181.676 241.039 179.33C238.939 177.056 235.899 176.657 233.499 174.715C229.599 171.558 227.543 164.669 222.185 164.247V164.247Z" fill="black"/>
<path d="M192.648 165.504L193.277 166.132L192.648 165.504ZM298.856 166.132L299.484 166.761L298.856 166.132ZM190.763 166.761L191.391 167.389L190.763 166.761ZM258.635 166.761L259.264 167.389L258.635 166.761Z" fill="#0E0D08"/>
<path d="M345.989 166.76L346.618 167.39L345.989 166.76ZM347.246 166.76L347.874 167.39L347.246 166.76Z" fill="#0F0E08"/>
<path d="M360.443 168.018C353.814 174.665 348.277 179.231 339.076 181.843V183.1C344.519 184.664 349.784 181.644 354.159 178.701C353.443 182.391 348.738 192.05 352.273 194.412L358.309 176.187L360.443 168.018Z" fill="black"/>
<path d="M227.841 168.646L228.47 169.274L227.841 168.646ZM156.198 169.274L156.827 169.903L156.198 169.274ZM257.378 169.274L258.007 169.903L257.378 169.274ZM315.824 169.274L316.452 169.903L315.824 169.274Z" fill="#0E0D08"/>
<path d="M358.558 169.274L359.186 169.903L358.558 169.274Z" fill="#0F0D06"/>
<path d="M113.464 170.531L114.093 171.16L113.464 170.531Z" fill="#0F0E07"/>
<path d="M273.718 170.531L274.346 171.16L273.718 170.531Z" fill="#0E0D08"/>
<path d="M147.4 171.16L148.029 171.788L147.4 171.16Z" fill="#0F0E08"/>
<path d="M418.889 171.16L419.517 171.788L418.889 171.16Z" fill="#0D0B05"/>
<path d="M193.277 171.788L193.905 172.417L193.277 171.788ZM195.791 171.788L196.419 172.417L195.791 171.788ZM260.521 171.788L261.149 172.417L260.521 171.788ZM151.171 172.417L151.799 173.045L151.171 172.417Z" fill="#0E0D08"/>
<path d="M354.787 173.674L355.416 174.302L354.787 173.674ZM358.557 174.302L359.187 174.931L358.557 174.302Z" fill="#0F0E08"/>
<path d="M398.15 174.302L398.778 174.931L398.15 174.302Z" fill="#0F0D06"/>
<path d="M111.579 174.93L112.207 175.559L111.579 174.93Z" fill="#010101"/>
<path d="M230.983 175.559L231.612 176.187L230.983 175.559ZM197.676 176.187L198.304 176.816L197.676 176.187ZM235.383 176.187L236.011 176.816L235.383 176.187Z" fill="#0E0D08"/>
<path d="M113.464 176.816L114.093 177.444L113.464 176.816Z" fill="#0F0E07"/>
<path d="M350.388 176.816L351.017 177.444L350.388 176.816Z" fill="#0F0E08"/>
<path d="M233.497 177.444L234.126 178.073L233.497 177.444ZM240.41 178.073L241.039 178.701L240.41 178.073Z" fill="#0E0D08"/>
<path d="M352.902 178.701L353.53 179.33L352.902 178.701Z" fill="#0F0E08"/>
<path d="M236.64 179.33L237.268 179.958L236.64 179.33ZM237.896 179.958L238.525 180.586L237.896 179.958ZM344.104 179.958L344.732 180.586L344.104 179.958Z" fill="#0E0D08"/>
<path d="M384.324 179.958L384.953 180.586L384.324 179.958ZM116.606 180.586L117.235 181.215L116.606 180.586Z" fill="#0F0E07"/>
<path d="M367.355 208.867C381.735 205.404 397.458 203.358 411.976 206.353C409.813 198.846 404.209 192.68 399.238 186.871C397.537 184.885 395.37 181.211 392.491 180.994C389.082 180.735 386.107 184.022 383.696 185.922C376.637 191.484 370.552 200.422 367.357 208.866L367.355 208.867Z" fill="url(#paint1_radial_22_185)"/>
<path d="M347.874 181.843L348.503 182.472L347.874 181.843Z" fill="#0E0D08"/>
<path d="M381.81 181.843L382.439 182.472L381.81 181.843Z" fill="#0F0E07"/>
<path d="M252.98 182.472L249.208 201.954C252.363 199.564 253.095 191.934 253.608 188.128L259.264 194.412C258.604 190.176 256.129 185.382 252.979 182.472H252.98Z" fill="black"/>
<path d="M339.076 183.1L339.705 183.729L339.076 183.1Z" fill="#0E0D08"/>
<path d="M352.902 183.1L353.53 183.729L352.902 183.1ZM396.265 183.729L396.893 184.357L396.265 183.729Z" fill="#0F0E08"/>
<path d="M314.567 184.357L302.627 196.297L313.938 188.127L315.824 199.44C318.021 196.218 316.869 187.393 314.567 184.357ZM181.337 186.243V186.871C186.633 192.216 190.992 199.578 194.299 206.353C196.119 210.083 195.603 214.193 199.561 216.408C199.246 209.06 196.104 203.489 193.277 196.926C197.728 199.524 203.695 203.406 208.987 201.954V200.697C201.857 197.527 196.335 194.83 190.135 189.892C187.493 187.788 184.79 185.067 181.336 186.242L181.337 186.243Z" fill="black"/>
<path d="M383.696 185.614L384.324 186.243L383.696 185.614ZM256.121 186.871L256.75 187.499L256.121 186.871ZM181.965 187.499L182.593 188.128L181.965 187.499ZM256.75 188.128L257.378 188.756L256.75 188.128Z" fill="#0E0D08"/>
<path d="M400.035 188.128L400.664 188.756L400.035 188.128Z" fill="#0F0E08"/>
<path d="M254.864 188.756L255.493 189.385L254.864 188.756Z" fill="#0E0D08"/>
<path d="M374.898 188.756L375.526 189.385L374.898 188.756Z" fill="#0F0E08"/>
<path d="M406.32 188.756L406.948 189.385L406.32 188.756Z" fill="#0F0D06"/>
<path d="M121.005 189.385L121.634 190.013L121.005 189.385Z" fill="#0F0E08"/>
<path d="M308.91 189.385L309.54 190.013L308.91 189.385ZM313.938 189.385L314.567 190.013L313.938 189.385ZM351.017 189.385L351.645 190.013L351.017 189.385ZM190.135 190.013L190.763 190.642L190.135 190.013ZM252.979 190.013L253.608 190.642L252.979 190.013Z" fill="#0E0D08"/>
<path d="M425.173 190.013L425.802 190.642L425.173 190.013Z" fill="#0F0D06"/>
<path d="M378.04 190.642L378.668 191.27L378.04 190.642Z" fill="#0F0E08"/>
<path d="M309.54 191.27L310.168 191.899L309.54 191.27Z" fill="#0E0D08"/>
<path d="M139.23 191.899C139.82 197.199 144.158 199.177 148.029 202.104C153.34 206.121 158.276 210.471 162.335 215.779C164.978 219.237 166.607 225.215 170.025 227.72C169.289 218.48 163.837 207.605 154.942 203.839V203.211C163.987 204.965 172.994 208.327 181.965 204.467V203.211L171.281 202.791L139.23 191.899Z" fill="black"/>
<path d="M185.735 191.899L186.364 192.527L185.735 191.899ZM305.14 192.527L305.769 193.155L305.14 192.527ZM352.273 192.527L352.902 193.155L352.273 192.527ZM193.905 193.155L194.534 193.784L193.905 193.155ZM304.512 193.155L305.14 193.784L304.512 193.155Z" fill="#0E0D08"/>
<path d="M409.462 193.155L410.091 193.784L409.462 193.155Z" fill="#0F0D06"/>
<path d="M370.498 193.784L371.127 194.412L370.498 193.784Z" fill="#0F0E08"/>
<path d="M431.457 193.784L432.715 208.867L446.54 210.752C444.226 204.648 437.623 196.175 431.459 193.784H431.457Z" fill="url(#paint2_radial_22_185)"/>
<path d="M259.264 194.412L259.892 195.041L259.264 194.412Z" fill="#0E0D08"/>
<path d="M279.374 194.412L273.718 205.096L280.002 198.183L283.772 204.467L279.374 194.412Z" fill="black"/>
<path d="M351.645 194.412L352.273 195.041L351.645 194.412Z" fill="#0E0D08"/>
<path d="M431.458 194.412L432.086 195.041L431.458 194.412Z" fill="#0D0B05"/>
<path d="M187.62 195.04L188.25 195.67L187.62 195.04ZM196.419 195.04L197.047 195.67L196.419 195.04Z" fill="#0E0D08"/>
<path d="M405.691 195.04L406.32 195.67L405.691 195.04Z" fill="#0F0D06"/>
<path d="M119.749 195.67L120.377 196.298L119.749 195.67Z" fill="#0F0E08"/>
<path d="M277.488 196.298L278.117 196.926L277.488 196.298ZM199.561 196.926L200.19 197.555L199.561 196.926ZM195.791 198.183L196.419 198.811L195.791 198.183ZM316.452 198.183L317.081 198.811L316.452 198.183ZM437.114 198.183L437.742 198.811L437.114 198.183ZM280.002 198.811L280.631 199.44L280.002 198.811ZM437.742 198.811L438.371 199.44L437.742 198.811ZM159.341 199.44L159.969 200.068L159.341 199.44ZM438.371 199.44L438.999 200.068L438.371 199.44ZM145.515 200.068L146.143 200.697L145.515 200.068ZM282.516 200.068L283.144 200.697L282.516 200.068Z" fill="#0E0D08"/>
<path d="M118.492 201.325L119.12 201.954L118.492 201.325Z" fill="#0F0E08"/>
<path d="M147.4 201.325L148.029 201.954L147.4 201.325Z" fill="#0E0D08"/>
<path d="M371.127 201.325L371.755 201.954L371.127 201.325Z" fill="#0D0B05"/>
<path d="M249.837 201.954L250.465 202.582L249.837 201.954ZM276.232 202.582L276.86 203.211L276.232 202.582Z" fill="#0E0D08"/>
<path d="M117.863 203.839L118.492 204.467L117.863 203.839Z" fill="#0F0E08"/>
<path d="M159.34 203.839L159.97 204.467L159.34 203.839ZM196.419 203.839L197.047 204.467L196.419 203.839ZM193.277 204.467L193.905 205.096L193.277 204.467Z" fill="#0E0D08"/>
<path d="M369.241 204.467L369.87 205.096L369.241 204.467Z" fill="#0D0B05"/>
<path d="M396.265 204.467L396.893 205.096L396.265 204.467Z" fill="#0F0E08"/>
<path d="M407.577 205.096L408.205 205.724L407.577 205.096Z" fill="#0D0B05"/>
<path d="M153.685 206.353L154.313 206.981L153.685 206.353ZM194.534 206.981L195.162 207.61L194.534 206.981Z" fill="#0E0D08"/>
<path d="M445.283 208.238L445.912 208.867L445.283 208.238Z" fill="#0D0B05"/>
<path d="M339.705 209.495L329.021 217.665L338.448 212.637L337.191 220.179C339.864 218.314 340.861 212.456 339.705 209.495Z" fill="black"/>
<path d="M402.55 247.202C407.316 244.931 409.598 239.5 410.885 234.632C412.47 228.643 414.528 212.849 406.921 209.874C402.736 208.238 395.746 210.124 391.237 210.124C387.154 210.124 378.443 209.501 375.277 212.545C372.355 215.355 374.539 225.95 376.691 228.804C378.926 231.769 384.244 232.357 387.466 233.867C393.89 236.879 399.059 240.94 402.549 247.202H402.55Z" fill="white"/>
<path d="M420.146 210.123L420.774 210.752L420.146 210.123Z" fill="#0F0D06"/>
<path d="M442.77 210.123L443.398 210.752L442.77 210.123ZM446.54 210.123L445.912 211.38L446.54 210.123Z" fill="#0D0B05"/>
<path d="M408.834 210.752L409.462 211.38L408.834 210.752Z" fill="#020202"/>
<path d="M446.54 210.752L447.169 211.38L446.54 210.752Z" fill="white"/>
<path d="M121.005 211.38L121.634 212.009L121.005 211.38Z" fill="#0F0E08"/>
<path d="M335.934 211.38L336.562 212.009L335.934 211.38Z" fill="#0E0D08"/>
<path d="M104.037 212.009L104.666 212.637L104.037 212.009Z" fill="#0F0E07"/>
<path d="M374.27 212.009L374.898 212.637L374.27 212.009ZM409.462 212.009L410.091 212.637L409.462 212.009ZM198.932 212.637L199.562 213.266L198.932 212.637ZM337.819 212.637L338.448 213.266L337.819 212.637Z" fill="#0E0D08"/>
<path d="M107.808 213.266L108.437 213.894L107.808 213.266Z" fill="#0F0E08"/>
<path d="M332.792 213.266L333.42 213.894L332.792 213.266Z" fill="#0E0D08"/>
<path d="M410.09 213.266L410.719 213.894L410.09 213.266Z" fill="#020202"/>
<path d="M431.458 213.266V218.922C442.853 214.8 445.435 231.472 433.343 230.862L435.857 245.316C444.277 241.386 448.157 222.436 441.241 215.351C439.155 213.214 434.283 213.489 431.458 213.266Z" fill="white"/>
<path d="M100.267 213.894L100.895 214.523L100.267 213.894Z" fill="#0F0E07"/>
<path d="M165.625 214.523L166.254 215.151L165.625 214.523ZM334.677 214.523L335.305 215.151L334.677 214.523ZM366.099 214.523L366.728 215.151L366.099 214.523Z" fill="#0E0D08"/>
<path d="M410.719 214.523L411.347 215.151L410.719 214.523ZM440.884 214.523L441.513 215.151L440.884 214.523Z" fill="#020202"/>
<path d="M102.152 215.151L102.781 215.779L102.152 215.151Z" fill="#0F0E07"/>
<path d="M364.842 215.151L365.471 215.779L364.842 215.151ZM198.304 215.779L198.933 216.408L198.304 215.779Z" fill="#0E0D08"/>
<path d="M399.407 215.78C398.119 217.103 396.242 218.065 395.295 219.684C388.653 231.04 413.755 231.334 406.662 219.054C405.855 217.657 404.422 216.745 403.178 215.779L399.407 217.665V215.78Z" fill="black"/>
<path d="M400.035 215.78V216.408H402.549L400.035 215.78Z" fill="#020202"/>
<path d="M411.347 215.78L411.976 216.408L411.347 215.78Z" fill="#010101"/>
<path d="M104.037 216.408L104.666 217.036L104.037 216.408Z" fill="#0F0E07"/>
<path d="M397.73 216.827L397.94 217.246L397.73 216.827Z" fill="#020202"/>
<path d="M398.57 216.617L398.988 216.827L398.57 216.617ZM399.407 217.037V217.665L402.549 217.036L399.407 217.037Z" fill="#010101"/>
<path d="M403.806 216.408L404.434 217.036L403.806 216.408Z" fill="#020202"/>
<path d="M396.893 217.036L397.522 217.665L396.893 217.036Z" fill="#010101"/>
<path d="M405.062 217.036L405.691 217.665L405.062 217.036Z" fill="#050505"/>
<path d="M105.923 217.665L106.551 218.293L105.923 217.665Z" fill="#0F0E07"/>
<path d="M396.265 217.665L396.893 218.293L396.265 217.665Z" fill="#010101"/>
<path d="M433.343 217.665L435.228 218.922V218.293L433.343 217.665Z" fill="#020202"/>
<path d="M433.971 217.665L434.6 218.293L433.971 217.665Z" fill="#050505"/>
<path d="M434.6 217.665L435.228 218.293L434.6 217.665Z" fill="#010101"/>
<path d="M435.857 217.665L436.485 218.293L435.857 217.665Z" fill="#020202"/>
<path d="M436.485 217.665L437.114 218.293L436.485 217.665Z" fill="#010101"/>
<path d="M167.51 218.293L168.139 218.922L167.51 218.293Z" fill="#0E0D08"/>
<path d="M267.433 218.293C267.433 221.493 266.816 224.737 269.947 226.463V220.179L277.488 222.692L267.433 218.293Z" fill="black"/>
<path d="M268.69 218.293L269.319 218.922L268.69 218.293Z" fill="#0E0D08"/>
<path d="M432.086 218.293L432.715 218.922L432.086 218.293Z" fill="#020202"/>
<path d="M432.715 218.293L433.971 219.55V218.293H432.715ZM435.857 218.293L436.485 218.922L435.857 218.293Z" fill="#010101"/>
<path d="M270.576 218.922L271.204 219.55L270.576 218.922Z" fill="#0E0D08"/>
<path d="M395.008 218.922L395.636 219.55L395.008 218.922Z" fill="#010101"/>
<path d="M430.2 218.922L430.83 219.55L430.2 218.922Z" fill="#0F0E08"/>
<path d="M430.83 218.922L431.458 219.55L430.83 218.922Z" fill="#050505"/>
<path d="M305.769 227.091L308.911 221.436L312.681 223.949C309.919 216.558 305.811 221.852 305.769 227.091Z" fill="black"/>
<path d="M406.948 219.55L407.577 220.179L406.948 219.55ZM430.201 219.55L430.829 220.179L430.201 219.55Z" fill="#010101"/>
<path d="M229.727 220.179C230.837 224.236 232.579 227.7 236.011 230.234L232.241 222.064L239.781 222.692C237.835 219.162 233.274 220.179 229.727 220.179V220.179Z" fill="black"/>
<path d="M238.525 220.179L239.153 220.807L238.525 220.179ZM269.947 220.179L270.576 220.807L269.947 220.179Z" fill="#0E0D08"/>
<path d="M429.572 220.179L430.201 220.807L429.572 220.179Z" fill="white"/>
<path d="M110.322 220.807L110.95 221.436L110.322 220.807Z" fill="#0F0E08"/>
<path d="M310.796 220.807L311.425 221.436L310.796 220.807Z" fill="#0E0D08"/>
<path d="M428.944 220.807L429.572 221.436L428.944 220.807Z" fill="white"/>
<path d="M272.46 221.436L273.09 222.064L272.46 221.436Z" fill="#0E0D08"/>
<path d="M197.676 223.95L206.474 234.633L201.447 225.835L208.987 224.578L208.359 222.064L197.676 223.95Z" fill="black"/>
<path d="M232.24 222.064L232.869 222.692L232.24 222.064Z" fill="#0E0D08"/>
<path d="M407.577 222.064L408.205 222.692L407.577 222.064Z" fill="#050505"/>
<path d="M428.315 222.064V223.949H428.944L428.315 222.064Z" fill="white"/>
<path d="M230.355 222.692L230.983 223.321L230.355 222.692Z" fill="#0E0D08"/>
<path d="M428.315 223.95L428.944 224.578L428.315 223.95Z" fill="#050505"/>
<path d="M169.396 224.578L170.024 225.206L169.396 224.578ZM197.676 224.578L198.304 225.206L197.676 224.578Z" fill="#0E0D08"/>
<path d="M428.315 224.578V226.463H428.944L428.315 224.578Z" fill="white"/>
<path d="M406.53 225.625L406.739 226.044L406.53 225.625ZM441.513 225.206L442.141 225.835L441.513 225.206Z" fill="#010101"/>
<path d="M168.139 225.835L168.767 226.463L168.139 225.835ZM268.062 225.835L268.69 226.463L268.062 225.835ZM117.235 226.463L117.863 227.091L117.235 226.463ZM232.24 226.463L232.869 227.091L232.24 226.463Z" fill="#0E0D08"/>
<path d="M395.636 226.463L396.265 227.091L395.636 226.463Z" fill="#050505"/>
<path d="M117.863 227.091L118.492 227.72L117.863 227.091Z" fill="#0F0E08"/>
<path d="M428.944 227.091L429.572 227.72L428.944 227.091Z" fill="white"/>
<path d="M404.434 227.72L405.063 228.348L404.434 227.72Z" fill="#010101"/>
<path d="M428.944 227.72L429.572 228.348L428.944 227.72Z" fill="#050505"/>
<path d="M398.15 228.348L398.778 228.977L398.15 228.348Z" fill="#020202"/>
<path d="M398.778 228.348L399.407 228.977L398.778 228.348ZM402.968 228.558L403.387 228.768L402.968 228.558Z" fill="#010101"/>
<path d="M429.572 228.348L430.201 228.977L429.572 228.348Z" fill="white"/>
<path d="M439.837 228.768L440.047 229.186L439.837 228.768Z" fill="#010101"/>
<path d="M440.256 228.348L440.884 228.977L440.256 228.348Z" fill="#050505"/>
<path d="M119.749 228.977L120.377 229.605L119.749 228.977Z" fill="#010101"/>
<path d="M400.664 228.977L401.292 229.605L400.664 228.977Z" fill="#050505"/>
<path d="M430.2 228.977L430.83 229.605L430.2 228.977Z" fill="white"/>
<path d="M376.783 229.605L377.411 230.234L376.783 229.605Z" fill="#010101"/>
<path d="M430.83 229.605L431.458 230.234L430.83 229.605Z" fill="white"/>
<path d="M432.086 229.605L432.715 230.234L432.086 229.605Z" fill="#010101"/>
<path d="M134.203 241.546V242.803L152.428 249.087C152.057 244.311 145.881 242.887 141.744 242.174L154.314 230.862C147.634 230.079 139.616 238.218 134.203 241.546V241.546Z" fill="black"/>
<path d="M431.458 230.234L432.086 230.862L431.458 230.234Z" fill="#050505"/>
<path d="M432.086 230.234L432.715 230.862L432.086 230.234Z" fill="white"/>
<path d="M432.715 230.234L433.343 230.862L432.715 230.234Z" fill="#020202"/>
<path d="M435.228 230.234V230.862H437.114L435.228 230.234Z" fill="#010101"/>
<path d="M121.634 230.862L122.262 231.491L121.634 230.862Z" fill="#0F0E08"/>
<path d="M411.347 230.862L411.976 231.491L411.347 230.862ZM435.228 230.862L435.857 231.491L435.228 230.862Z" fill="#0E0D08"/>
<path d="M381.81 231.49L382.439 232.12L381.81 231.49Z" fill="#010101"/>
<path d="M160.598 239.032V240.289L174.423 245.257L182.593 250.972C181.699 244.298 174.617 243.177 170.024 239.66C175.863 238.56 183.786 238.468 186.364 232.12L160.598 239.032Z" fill="black"/>
<path d="M369.87 232.748L370.498 233.376L369.87 232.748Z" fill="#0E0D08"/>
<path d="M384.953 232.748L385.581 233.376L384.953 232.748Z" fill="#010101"/>
<path d="M146.143 233.376L146.772 234.004L146.143 233.376ZM181.336 234.004L181.965 234.633L181.336 234.004ZM185.107 234.004L185.735 234.633L185.107 234.004ZM443.398 234.004L444.027 234.633L443.398 234.004ZM124.776 234.633L125.405 235.261L124.776 234.633Z" fill="#0E0D08"/>
<path d="M443.398 234.633L444.027 235.261L443.398 234.633Z" fill="#020202"/>
<path d="M143.001 235.261L143.63 235.89L143.001 235.261ZM183.851 235.261L184.478 235.89L183.851 235.261ZM410.091 235.89L410.719 236.518L410.091 235.89ZM433.971 235.89L434.6 236.518L433.971 235.89ZM141.116 236.518L141.744 237.147L141.116 236.518Z" fill="#0E0D08"/>
<path d="M416.375 236.518L417.003 237.147L416.375 236.518ZM57.5322 237.775L58.1612 238.404L57.5322 237.775Z" fill="#0F0D06"/>
<path d="M433.971 237.775L434.6 238.404L433.971 237.775Z" fill="#010101"/>
<path d="M122.262 239.032L122.891 239.66L122.262 239.032Z" fill="#0E0D08"/>
<path d="M249.208 243.431L251.094 239.032C248.419 239.459 246.314 241.526 249.208 243.432V243.431Z" fill="black"/>
<path d="M136.717 239.66L137.345 240.289L136.717 239.66Z" fill="#0E0D08"/>
<path d="M61.3027 240.289L61.9317 240.917L61.3027 240.289Z" fill="#0F0D06"/>
<path d="M388.723 240.289L389.352 240.917L388.723 240.289Z" fill="#0F0E08"/>
<path d="M171.281 240.917L171.91 241.546L171.281 240.917Z" fill="#0E0D08"/>
<path d="M434.6 240.917L435.228 241.546L434.6 240.917Z" fill="#010101"/>
<path d="M124.148 241.546L124.776 242.174L124.148 241.546Z" fill="#0E0D08"/>
<path d="M390.609 241.546L391.237 242.174L390.609 241.546Z" fill="#0F0E07"/>
<path d="M407.577 241.546L408.205 242.174L407.577 241.546Z" fill="#0E0D08"/>
<path d="M29.252 242.174L29.881 242.803L29.252 242.174Z" fill="#0E0B05"/>
<path d="M63.8174 242.174L64.4454 242.803L63.8174 242.174Z" fill="#0F0D06"/>
<path d="M109.065 242.174L109.693 242.803L109.065 242.174Z" fill="#0F0E08"/>
<path d="M439.627 242.174L440.256 242.803L439.627 242.174Z" fill="#020202"/>
<path d="M175.68 242.803L176.309 243.431L175.68 242.803Z" fill="#0E0D08"/>
<path d="M271.833 242.803L271.204 247.202C273.17 246.052 273.504 245.019 273.089 242.802L271.833 242.803Z" fill="black"/>
<path d="M273.09 242.803L273.718 243.431L273.09 242.803Z" fill="#0E0D08"/>
<path d="M298.227 247.202L300.113 242.802C297.675 243.508 295.653 245.26 298.227 247.202Z" fill="black"/>
<path d="M406.948 242.803L407.577 243.431L406.948 242.803Z" fill="#010101"/>
<path d="M438.999 242.803L439.627 243.431L438.999 242.803Z" fill="#020202"/>
<path d="M172.538 244.06L173.166 244.688L172.538 244.06Z" fill="#0E0D08"/>
<path d="M400.664 244.06L401.292 244.688L400.664 244.06Z" fill="#010101"/>
<path d="M413.233 244.06L413.861 244.688L413.233 244.06Z" fill="#0F0E07"/>
<path d="M437.742 244.06L438.371 244.688L437.742 244.06ZM437.114 244.688L437.742 245.316L437.114 244.688Z" fill="#010101"/>
<path d="M179.45 245.316L180.08 245.945L179.45 245.316Z" fill="#0E0D08"/>
<path d="M68.2158 245.945L68.8438 246.573L68.2158 245.945Z" fill="#0F0D06"/>
<path d="M401.92 245.945L402.55 246.573L401.92 245.945Z" fill="#0E0D08"/>
<path d="M42.4502 246.573L43.0782 247.202L42.4502 246.573Z" fill="#0E0B05"/>
<path d="M272.46 246.573L273.09 247.202L272.46 246.573ZM296.97 246.573L297.599 247.202L296.97 246.573Z" fill="#0E0D08"/>
<path d="M317.08 250.972V253.486L323.365 249.087L317.08 250.972Z" fill="black"/>
<path d="M180.08 249.716L180.708 250.344L180.08 249.716ZM319.594 249.716L320.223 250.344L319.594 249.716ZM322.737 249.716L323.365 250.344L322.737 249.716Z" fill="#0E0D08"/>
<path d="M347.246 249.716V257.256C349.606 254.946 349.606 252.027 347.246 249.716V249.716Z" fill="black"/>
<path d="M430.83 249.716L431.458 250.344L430.83 249.716Z" fill="#0F0D06"/>
<path d="M456.596 249.716L457.224 250.344L456.596 249.716Z" fill="#0D0B05"/>
<path d="M318.966 250.344L319.594 250.972L318.966 250.344ZM322.108 250.344L322.737 250.972L322.108 250.344ZM346.618 250.344L347.246 250.972L346.618 250.344Z" fill="#0E0D08"/>
<path d="M409.462 250.344L410.091 250.972L409.462 250.344Z" fill="#0F0E07"/>
<path d="M427.688 250.972L428.315 251.601L427.688 250.972Z" fill="#0F0D06"/>
<path d="M318.337 252.858L318.966 253.486L318.337 252.858ZM228.47 253.486L229.098 254.115L228.47 253.486Z" fill="#0E0D08"/>
<path d="M223.442 262.284L230.983 264.17L226.799 260.136L229.099 254.115C226.068 255.685 224.211 259.012 223.442 262.285V262.284Z" fill="black"/>
<path d="M431.458 254.115L432.086 254.743L431.458 254.115Z" fill="#0E0D05"/>
<path d="M405.691 281.767V282.395C421.505 284.394 428.626 276.836 440.257 267.942C438.586 272.442 430.291 278.219 430.509 282.395C430.744 286.866 437.775 287.279 440.885 286.047C446.825 283.692 450.581 277.131 451.872 271.083C454.55 258.527 438.066 248.247 427.747 256.262C418.9 263.131 414.994 274.867 405.691 281.767V281.767Z" fill="url(#paint3_radial_22_185)"/>
<path d="M43.707 255.372L44.335 256L43.707 255.372Z" fill="#010101"/>
<path d="M109.693 267.94C110.508 272.629 115.157 270.111 118.492 269.883C123.284 269.555 132.184 271.107 134.832 275.482L139.23 274.853C138.106 267.741 127.852 267.753 122.262 267.312C126.377 263.152 132.272 261.914 133.574 255.372L109.693 267.94Z" fill="black"/>
<path d="M452.196 255.372L452.825 256L452.196 255.372Z" fill="#0D0B05"/>
<path d="M78.9004 256L79.5284 256.628L78.9004 256Z" fill="#0F0E07"/>
<path d="M459.738 256.628L460.366 257.257L459.738 256.628Z" fill="#0D0B05"/>
<path d="M61.9316 257.257L62.5596 257.885L61.9316 257.257Z" fill="#0F0D06"/>
<path d="M225.328 257.257L225.956 257.885L225.328 257.257ZM128.547 257.885L129.175 258.514L128.547 257.885ZM225.956 258.514L226.584 259.142L225.956 258.514Z" fill="#0E0D08"/>
<path d="M83.2988 259.77L83.9268 260.4L83.2988 259.77Z" fill="#0F0E07"/>
<path d="M126.033 259.77L126.661 260.4L126.033 259.77ZM131.061 259.77L131.689 260.4L131.061 259.77Z" fill="#0E0D08"/>
<path d="M44.9639 260.4L45.5919 261.028L44.9639 260.4Z" fill="#0E0B05"/>
<path d="M254.864 260.4L247.951 269.197L256.75 272.34L250.465 268.569C251.773 265.825 256.907 263.443 254.865 260.399L254.864 260.4Z" fill="black"/>
<path d="M450.311 260.4L450.939 261.028L450.311 260.4Z" fill="#0E0D05"/>
<path d="M99.6377 261.028L100.267 261.656L99.6377 261.028Z" fill="#0F0E07"/>
<path d="M124.148 261.028L124.776 261.656L124.148 261.028ZM222.814 261.028L223.442 261.656L222.814 261.028Z" fill="#0E0D08"/>
<path d="M85.8135 261.656L86.4415 262.284L85.8135 261.656ZM98.3815 261.656L99.0105 262.284L98.3815 261.656Z" fill="#0F0E07"/>
<path d="M128.547 262.284L129.175 262.913L128.547 262.284ZM199.561 262.284L200.19 262.913L199.561 262.284Z" fill="#0E0D08"/>
<path d="M200.19 262.284L192.648 269.197C195.591 270.192 202.389 274.063 204.588 271.083L196.419 267.941L200.19 262.284ZM362.957 262.284L371.755 269.197V270.454L363.585 274.854C367.885 274.502 371.552 273.196 374.898 270.454C372.453 266.314 367.681 263.195 362.957 262.284Z" fill="black"/>
<path d="M87.6982 262.913L88.3262 263.541L87.6982 262.913Z" fill="#0F0E07"/>
<path d="M451.568 262.913L452.196 263.541L451.568 262.913Z" fill="#010101"/>
<path d="M462.251 262.913L462.88 263.541L462.251 262.913ZM47.4766 263.541L48.1056 264.17L47.4766 263.541Z" fill="#0D0B05"/>
<path d="M251.094 263.541L251.722 264.17L251.094 263.541ZM254.236 263.541L254.864 264.17L254.236 263.541ZM366.728 263.541L367.356 264.17L366.728 263.541Z" fill="#0E0D08"/>
<path d="M421.403 263.541L422.031 264.17L421.403 263.541ZM451.568 263.541L452.196 264.17L451.568 263.541Z" fill="#0E0D05"/>
<path d="M197.047 264.17L197.676 264.798L197.047 264.17ZM199.561 264.17L200.19 264.798L199.561 264.17ZM250.465 264.17L251.094 264.798L250.465 264.17Z" fill="#0E0D08"/>
<path d="M48.7344 264.798L49.3634 265.427L48.7344 264.798Z" fill="#0E0B05"/>
<path d="M161.226 264.798C157.422 273.328 151.562 280.272 144.886 286.784C141.055 290.522 135.081 293.996 133.574 299.363L161.226 293.493L175.68 290.564C167.063 284.424 151.949 291.258 143.63 294.964C149.345 283.49 160.566 278.94 163.111 265.427L162.483 264.798H161.226Z" fill="black"/>
<path d="M198.933 264.798L199.561 265.427L198.933 264.798ZM249.837 264.798L250.465 265.427L249.837 264.798ZM365.471 264.798L366.099 265.427L365.471 264.798ZM123.519 265.427L124.148 266.055L123.519 265.427Z" fill="#0E0D08"/>
<path d="M276.232 271.083L280.002 271.711V265.427C277.275 266.31 276.964 268.51 276.232 271.083Z" fill="black"/>
<path d="M114.721 266.055L115.35 266.684L114.721 266.055Z" fill="#0F0E08"/>
<path d="M367.356 266.055L367.985 266.684L367.356 266.055ZM159.969 266.684L160.598 267.312L159.969 266.684Z" fill="#0E0D08"/>
<path d="M50.6201 267.312L51.2481 267.941L50.6201 267.312Z" fill="#0E0B05"/>
<path d="M124.776 267.312L125.405 267.941L124.776 267.312ZM250.466 267.941L251.094 268.569L250.466 267.941Z" fill="#0E0D08"/>
<path d="M452.196 267.94L452.825 268.569L452.196 267.94Z" fill="#010101"/>
<path d="M373.64 268.569L374.27 269.197L373.64 268.569Z" fill="#0F0E08"/>
<path d="M413.861 268.569L414.49 269.197L413.861 268.569Z" fill="#0F0E07"/>
<path d="M199.561 269.197L200.19 269.826L199.561 269.197Z" fill="#0E0D08"/>
<path d="M437.742 269.197L438.371 269.826L437.742 269.197Z" fill="#0F0D06"/>
<path d="M195.162 269.826L195.791 270.454L195.162 269.826ZM276.232 269.826L276.86 270.454L276.232 269.826Z" fill="#0E0D08"/>
<path d="M305.769 269.826L306.397 276.739C309.312 275.195 311.217 273.039 312.053 269.826L307.653 272.968L305.769 269.826Z" fill="black"/>
<path d="M136.717 270.454L137.345 271.083L136.717 270.454ZM305.14 270.454L305.769 271.083L305.14 270.454ZM310.168 270.454L310.796 271.083L310.168 270.454Z" fill="#0E0D08"/>
<path d="M374.27 270.454L374.898 271.083L374.27 270.454Z" fill="#0F0E08"/>
<path d="M438.999 270.454L439.627 271.083L438.999 270.454Z" fill="#0E0D05"/>
<path d="M53.1328 271.083L53.7618 271.711L53.1328 271.083Z" fill="#0E0B05"/>
<path d="M198.933 271.083L199.561 271.711L198.933 271.083ZM309.539 271.083L310.168 271.711L309.539 271.083ZM367.985 271.711L368.613 272.34L367.985 271.711Z" fill="#0E0D08"/>
<path d="M414.49 272.968L415.118 273.596L414.49 272.968Z" fill="#0E0D05"/>
<path d="M450.94 272.968L451.568 273.596L450.94 272.968Z" fill="#010101"/>
<path d="M465.394 273.596L466.022 274.225L465.394 273.596Z" fill="#0D0B05"/>
<path d="M450.311 274.853L450.939 275.482L450.311 274.853Z" fill="#010101"/>
<path d="M159.34 275.482L159.97 276.11L159.34 275.482Z" fill="#0E0D08"/>
<path d="M70.1006 276.11L70.7296 276.739L70.1006 276.11Z" fill="#0E0B05"/>
<path d="M429.572 276.739L430.201 277.367L429.572 276.739Z" fill="#020202"/>
<path d="M410.719 277.367L411.347 277.996L410.719 277.367Z" fill="#0D0B05"/>
<path d="M428.944 277.367L429.572 277.996L428.944 277.367ZM410.091 277.996L410.719 278.624L410.091 277.996Z" fill="#0E0D05"/>
<path d="M217.158 283.023L218.415 278.624C215.718 279.409 214.237 281.352 217.158 283.024V283.023Z" fill="black"/>
<path d="M57.5322 279.253L58.1612 279.881L57.5322 279.253Z" fill="#0F0D06"/>
<path d="M215.272 279.253L215.901 279.881L215.272 279.253ZM151.171 279.881L151.799 280.509L151.171 279.881Z" fill="#0E0D08"/>
<path d="M423.916 279.88L424.545 280.51L423.916 279.88Z" fill="#0E0D05"/>
<path d="M150.542 280.51L151.171 281.138L150.542 280.51Z" fill="#0E0D08"/>
<path d="M447.169 280.51L447.797 281.138L447.169 280.51ZM420.774 281.138L421.403 281.766L420.774 281.138Z" fill="#010101"/>
<path d="M446.54 281.138L447.169 281.766L446.54 281.138Z" fill="#0E0D05"/>
<path d="M329.65 282.395L329.021 291.193L323.365 287.423C323.955 291.236 326.621 293.044 330.278 293.707L330.906 282.395H329.65Z" fill="black"/>
<path d="M415.118 282.395V283.023H417.003L415.118 282.395Z" fill="#010101"/>
<path d="M174.423 301.877C178.583 301.698 193.068 302.255 195.163 299.363L181.336 297.477L188.878 283.023C184.305 284.453 176.455 297.443 174.423 301.877V301.877ZM225.328 356.551C230.068 353.835 236.239 345.743 238.525 340.841C233.493 342.347 231.294 347.277 227.841 350.895L225.956 337.698C240.653 336.415 247.11 320.356 255.762 310.699C261.027 304.823 267.623 302.277 274.346 298.734C270.384 293.994 264.872 299.004 261.149 301.87C251.174 309.55 245.419 318.858 236.639 327.643L241.667 314.445H241.039C238.309 321.003 235.045 328.002 228.469 331.413L230.983 322.615H230.355C227.713 328.927 224.733 332.038 217.786 332.042L224.071 317.588H223.442L215.272 331.413L212.759 330.785L219.043 318.845H218.415C215.237 323.929 211.887 331.161 205.217 329.528L210.873 318.845C207.725 321.309 206.36 327.204 202.645 328.668C200.949 329.336 197.755 328.095 198.435 325.852C199.318 322.939 204.113 320.069 206.003 317.588C212.439 309.136 217.657 295.358 227.213 290.158C235.037 285.9 246.943 291.295 255.493 291.19C260.392 291.13 265.97 289.45 267.433 284.28C263.438 283.849 259.66 286.428 255.493 286.435C244.931 286.452 227.597 281.191 218.521 288.361C210.259 294.888 209.79 303.647 204.593 311.929C202.055 315.973 197.573 318.709 193.908 321.625C192.551 322.705 190.092 324.275 190.608 326.345C191.239 328.89 195.572 330.255 197.676 331.219C202.502 333.426 207.562 335.084 212.759 336.159C215.504 336.72 219.591 336.63 221.922 338.319C226.178 341.403 224.742 351.91 225.328 356.551V356.551Z" fill="black"/>
<path d="M442.77 284.909L443.398 285.537L442.77 284.909ZM432.086 285.537L432.715 286.165L432.086 285.537ZM440.884 285.537L441.513 286.165L440.884 285.537Z" fill="#010101"/>
<path d="M107.808 286.165L107.18 289.936L109.693 286.166L107.808 286.165Z" fill="black"/>
<path d="M256.121 286.165L256.75 286.794L256.121 286.165Z" fill="#0E0D08"/>
<path d="M434.6 286.165L435.228 286.794L434.6 286.165Z" fill="#010101"/>
<path d="M330.906 286.794L331.535 287.422L330.906 286.794Z" fill="#0E0D08"/>
<path d="M433.973 304.391C432.529 300.128 433.189 294.976 430.42 291.222C426.802 286.313 418.688 286.729 413.233 286.797C411.35 286.82 408.21 286.705 406.991 288.493C405.538 290.623 408.183 295.834 408.754 298.106C411.119 307.522 413.23 320.508 421.405 326.817C426.779 330.963 437.591 328.245 442.075 323.804C449.229 316.721 451.159 300.167 443.893 292.519C434.907 283.061 435.044 299.885 433.971 304.39L433.973 304.391Z" fill="url(#paint4_radial_22_185)"/>
<path d="M62.5596 287.422L63.1876 288.051L62.5596 287.422Z" fill="#0F0D06"/>
<path d="M219.043 287.422L219.671 288.051L219.043 287.422Z" fill="#0E0D08"/>
<path d="M121.634 288.05L122.262 288.68L121.634 288.05Z" fill="#0F0E08"/>
<path d="M143.001 288.05L143.63 288.68L143.001 288.05ZM186.364 288.05L186.992 288.68L186.364 288.05Z" fill="#0E0D08"/>
<path d="M109.065 288.68L109.693 289.308L109.065 288.68Z" fill="#0F0E08"/>
<path d="M124.776 288.68L125.405 289.308L124.776 288.68ZM142.373 288.68L143.001 289.308L142.373 288.68ZM229.098 288.68L229.727 289.308L229.098 288.68ZM141.744 289.308L142.373 289.936L141.744 289.308Z" fill="#0E0D08"/>
<path d="M108.437 289.936L109.065 290.564L108.437 289.936Z" fill="#0F0E08"/>
<path d="M182.593 289.936L183.222 290.564L182.593 289.936ZM216.529 289.936L217.158 290.564L216.529 289.936Z" fill="#0E0D08"/>
<path d="M261.149 289.936L261.777 290.564L261.149 289.936Z" fill="#0E0B05"/>
<path d="M440.884 289.936L441.513 290.564L440.884 289.936Z" fill="#0E0D08"/>
<path d="M472.935 290.565L469.576 306.278L467.195 314.419L471.679 317.588L470.421 311.933H471.05C473.957 318.911 477.019 320.103 484.247 320.103L479.848 310.675C482.747 314.01 483.797 318.723 488.646 319.473L484.247 311.303C488.27 315.669 490.255 318.685 496.188 315.702V314.446C485.718 309.464 484.766 292.707 472.935 290.565V290.565Z" fill="url(#paint5_radial_22_185)"/>
<path d="M372.384 295.592L374.269 291.193C371.701 291.94 370.353 293.381 372.384 295.593V295.592Z" fill="black"/>
<path d="M181.336 291.821L181.965 292.45L181.336 291.821Z" fill="#0E0D08"/>
<path d="M430.83 291.821L431.458 292.45L430.83 291.821Z" fill="#0E0D05"/>
<path d="M222.814 292.45L223.442 293.078L222.814 292.45Z" fill="#0F0E08"/>
<path d="M406.948 292.45L407.577 293.078L406.948 292.45Z" fill="#010101"/>
<path d="M466.022 292.45L466.651 293.078L466.022 292.45Z" fill="#0D0B05"/>
<path d="M161.226 293.078L161.854 293.707L161.226 293.078Z" fill="#0E0D08"/>
<path d="M222.185 293.078L222.814 293.707L222.185 293.078ZM107.808 293.707L108.437 294.335L107.808 293.707ZM110.322 293.707L110.95 294.335L110.322 293.707ZM221.557 293.707L222.185 294.335L221.557 293.707Z" fill="#0F0E08"/>
<path d="M181.965 294.335L182.593 294.964L181.965 294.335ZM212.13 294.335L212.759 294.964L212.13 294.335Z" fill="#0E0D08"/>
<path d="M118.492 294.964L119.12 295.592L118.492 294.964Z" fill="#0F0E08"/>
<path d="M392.494 294.964L393.123 295.592L392.494 294.964Z" fill="#0F0E07"/>
<path d="M433.971 294.964L434.6 295.592L433.971 294.964Z" fill="#010101"/>
<path d="M117.863 296.22L118.492 296.849L117.863 296.22Z" fill="#0F0E08"/>
<path d="M219.671 296.22L220.3 296.849L219.671 296.22Z" fill="#0F0E07"/>
<path d="M287.544 296.22L294.456 303.762L297.599 296.221L294.456 301.248L287.544 296.22ZM351.017 296.22L350.388 305.647L344.104 301.877C343.754 306.02 350.099 310.729 353.53 312.56L352.273 296.22H351.017Z" fill="black"/>
<path d="M176.937 297.477L177.566 298.106L176.937 297.477ZM187.621 297.477L188.249 298.106L187.621 297.477ZM176.309 298.106L176.937 298.734L176.309 298.106Z" fill="#0E0D08"/>
<path d="M390.609 298.106L391.237 298.734L390.609 298.106Z" fill="#0F0E07"/>
<path d="M79.5283 299.363L80.1573 299.991L79.5283 299.363Z" fill="#0F0D06"/>
<path d="M119.12 299.991L119.749 300.62L119.12 299.991Z" fill="#0F0E08"/>
<path d="M174.423 299.991L175.052 300.62L174.423 299.991Z" fill="#0E0D08"/>
<path d="M263.034 299.991L263.663 300.62L263.034 299.991Z" fill="#0F0D06"/>
<path d="M389.352 299.991L389.98 300.62L389.352 299.991ZM393.751 300.62L394.379 301.248L393.751 300.62Z" fill="#0F0E07"/>
<path d="M291.314 301.248L291.943 301.877L291.314 301.248ZM484.247 301.248L484.876 301.877L484.247 301.248ZM208.359 301.877L208.988 302.505L208.359 301.877Z" fill="#0E0D08"/>
<path d="M388.095 301.877L388.723 302.505L388.095 301.877Z" fill="#0F0E07"/>
<path d="M73.8721 302.505L74.5011 303.133L73.8721 302.505ZM259.892 302.505L260.52 303.133L259.892 302.505Z" fill="#0F0D06"/>
<path d="M264.92 302.505L265.548 303.133L264.92 302.505Z" fill="#0E0D08"/>
<path d="M71.9873 303.133L72.6153 303.762L71.9873 303.133Z" fill="#0F0D06"/>
<path d="M292.571 303.133L293.2 303.762L292.571 303.133ZM346.618 303.133L347.246 303.762L346.618 303.133Z" fill="#0E0D08"/>
<path d="M391.237 304.39L391.866 305.019L391.237 304.39Z" fill="#0F0E07"/>
<path d="M260.52 305.647L261.149 306.276L260.52 305.647Z" fill="#0E0D08"/>
<path d="M71.9873 306.276L72.6153 306.904L71.9873 306.276Z" fill="#0F0D06"/>
<path d="M410.719 306.276L411.347 306.904L410.719 306.276ZM142.373 306.904L143.001 307.533L142.373 306.904Z" fill="#0E0D08"/>
<path d="M180.708 306.904C178.738 316.318 172.011 324.793 165.98 332.042C163.106 335.496 158.686 338.969 157.455 343.354C167.87 340.354 179.578 329.774 190.763 330.785C187.886 325.212 174.466 332.944 169.396 333.927C173.472 327.887 179.046 322.623 181.671 315.702C182.772 312.799 183.467 308.894 180.708 306.904V306.904Z" fill="black"/>
<path d="M212.759 306.904L213.387 307.533L212.759 306.904Z" fill="#0F0E07"/>
<path d="M253.608 306.904L254.236 307.533L253.608 306.904Z" fill="#0E0D08"/>
<path d="M79.5283 307.533L80.1573 308.161L79.5283 307.533ZM82.0423 307.533L82.6703 308.161L82.0423 307.533Z" fill="#0F0D06"/>
<path d="M180.08 308.161L180.708 308.789L180.08 308.161Z" fill="#0E0D08"/>
<path d="M383.067 308.161L383.696 308.789L383.067 308.161Z" fill="#0F0E07"/>
<path d="M411.347 308.79L411.976 309.418L411.347 308.79ZM447.797 309.418L448.426 310.046L447.797 309.418Z" fill="#010101"/>
<path d="M489.275 309.418L489.903 310.046L489.275 309.418Z" fill="#0F0E08"/>
<path d="M255.493 310.046L256.121 310.675L255.493 310.046Z" fill="#0E0D08"/>
<path d="M121.634 310.675L122.262 311.303L121.634 310.675Z" fill="#0F0E08"/>
<path d="M77.0137 311.303L77.6427 311.932L77.0137 311.303Z" fill="#0F0D06"/>
<path d="M249.208 311.303L249.837 311.932L249.208 311.303Z" fill="#0E0D08"/>
<path d="M76.3857 311.932L77.0137 312.56L76.3857 311.932Z" fill="#0F0D06"/>
<path d="M351.645 311.932L352.273 312.56L351.645 311.932Z" fill="#0E0D08"/>
<path d="M320.851 321.987C318.193 319.335 315.486 315.673 311.425 316.331L323.365 330.785L326.507 312.56C321.718 313.317 321.952 318.07 320.851 321.987Z" fill="black"/>
<path d="M481.733 312.56L482.362 313.189L481.733 312.56Z" fill="#0F0E07"/>
<path d="M114.093 313.189L114.721 313.817L114.093 313.189ZM127.29 313.189L127.918 313.817L127.29 313.189Z" fill="#0F0E08"/>
<path d="M261.777 318.845L261.149 315.702H259.264L259.892 323.872C263.552 323.239 267.362 316.657 268.062 313.189L261.777 318.845Z" fill="black"/>
<path d="M447.169 313.189L447.797 313.817L447.169 313.189Z" fill="#010101"/>
<path d="M137.974 313.817L138.602 314.445L137.974 313.817ZM247.324 313.817L247.951 314.445L247.324 313.817ZM252.351 313.817L252.979 314.445L252.351 313.817ZM326.507 313.817L327.136 314.445L326.507 313.817Z" fill="#0E0D08"/>
<path d="M384.324 313.817L384.953 314.445L384.324 313.817Z" fill="#0F0E07"/>
<path d="M496.188 314.445L496.816 315.074L496.188 314.445Z" fill="#0D0B05"/>
<path d="M201.447 315.074L202.075 315.702L201.447 315.074Z" fill="#0E0D08"/>
<path d="M466.65 315.074L467.28 315.702L466.65 315.074Z" fill="#0E0B05"/>
<path d="M143.001 315.702L143.63 316.331L143.001 315.702ZM176.937 315.702L177.566 316.331L176.937 315.702Z" fill="#0E0D08"/>
<path d="M224.28 316.122L224.49 316.54L224.28 316.122Z" fill="black"/>
<path d="M381.81 316.33L382.439 316.96L381.81 316.33Z" fill="#0F0E07"/>
<path d="M451.568 316.33L452.196 316.96L451.568 316.33ZM471.05 316.33L471.678 316.96L471.05 316.33Z" fill="#0D0B05"/>
<path d="M180.708 316.96L181.336 317.588L180.708 316.96ZM223.442 316.96L224.071 317.588L223.442 316.96ZM175.68 318.216L176.309 318.845L175.68 318.216ZM445.283 318.216L445.912 318.845L445.283 318.216Z" fill="#0E0D08"/>
<path d="M450.94 318.216L451.568 318.845L450.94 318.216Z" fill="#0D0B05"/>
<path d="M484.876 318.216L485.504 318.845L484.876 318.216Z" fill="#0F0D06"/>
<path d="M88.3262 318.845L88.9552 319.473L88.3262 318.845Z" fill="black"/>
<path d="M197.047 318.845L197.676 319.473L197.047 318.845Z" fill="#0E0D08"/>
<path d="M376.783 318.845L377.411 319.473L376.783 318.845Z" fill="#0F0E07"/>
<path d="M87.0703 319.473L87.6983 320.101L87.0703 319.473ZM88.3263 319.473L88.9553 320.101L88.3263 319.473Z" fill="#0F0D06"/>
<path d="M217.786 319.473L218.415 320.101L217.786 319.473Z" fill="#0F0E08"/>
<path d="M243.552 319.473L244.181 320.101L243.552 319.473ZM444.655 319.473L445.283 320.101L444.655 319.473ZM320.851 320.73L321.48 321.358L320.851 320.73ZM416.375 320.73L417.003 321.358L416.375 320.73Z" fill="#0E0D08"/>
<path d="M99.0098 321.358L99.6378 321.987L99.0098 321.358Z" fill="#0F0E07"/>
<path d="M241.667 321.987L242.296 322.615L241.667 321.987ZM323.365 321.987L323.993 322.615L323.365 321.987Z" fill="#0E0D08"/>
<path d="M138.602 322.615L139.23 323.244L138.602 322.615Z" fill="#0F0E08"/>
<path d="M207.103 322.615L207.731 323.244L207.103 322.615Z" fill="#0E0B05"/>
<path d="M215.272 322.615L215.901 323.244L215.272 322.615Z" fill="#0E0D08"/>
<path d="M220.928 322.615L221.557 323.244L220.928 322.615Z" fill="#0F0E08"/>
<path d="M246.066 322.615L246.695 323.244L246.066 322.615Z" fill="#0E0D08"/>
<path d="M453.453 322.615L454.082 323.244L453.453 322.615Z" fill="#0D0B05"/>
<path d="M191.391 323.244L192.02 323.872L191.391 323.244ZM229.727 323.244L230.355 323.872L229.727 323.244Z" fill="#0E0D08"/>
<path d="M285.03 323.244L281.888 331.414H281.259L276.232 324.501L280.631 338.955H281.259C282.931 334.755 288.849 327.031 285.029 323.244H285.03Z" fill="black"/>
<path d="M317.709 323.244L318.337 323.872L317.709 323.244Z" fill="#0E0D08"/>
<path d="M220.3 323.872L220.928 324.501L220.3 323.872Z" fill="#0F0E08"/>
<path d="M409.462 323.872L410.091 324.501L409.462 323.872Z" fill="#0F0D06"/>
<path d="M198.304 324.5L198.933 325.129L198.304 324.5Z" fill="#0D0B05"/>
<path d="M283.773 324.5L284.401 325.129L283.773 324.5Z" fill="#0E0D08"/>
<path d="M119.749 325.129L120.377 325.757L119.749 325.129Z" fill="#0F0E08"/>
<path d="M218.415 325.129L219.043 325.757L218.415 325.129Z" fill="#0F0E07"/>
<path d="M229.727 325.129L230.355 325.757L229.727 325.129ZM235.383 325.129L236.011 325.757L235.383 325.129Z" fill="#0E0D08"/>
<path d="M82.6699 325.757L83.2989 326.386L82.6699 325.757Z" fill="#0F0D06"/>
<path d="M236.64 325.757L237.268 326.386L236.64 325.757ZM420.146 325.757L420.774 326.386L420.146 325.757ZM170.024 326.386L170.653 327.014L170.024 326.386ZM420.774 326.386L421.403 327.014L420.774 326.386Z" fill="#0E0D08"/>
<path d="M80.7852 327.014L81.4132 327.643L80.7852 327.014Z" fill="#0F0D06"/>
<path d="M205.846 327.014L206.474 327.643L205.846 327.014Z" fill="#0D0B05"/>
<path d="M214.015 327.014L214.644 327.643L214.015 327.014Z" fill="#0F0D06"/>
<path d="M236.64 327.014L237.268 327.643L236.64 327.014Z" fill="#0E0D08"/>
<path d="M352.902 327.643L356.672 348.381C352.667 344.881 340.312 328.756 335.305 334.556C346.866 338.24 351.685 351.748 361.7 357.808L358.567 345.868L354.787 327.014L352.902 327.643Z" fill="black"/>
<path d="M421.403 327.014L422.031 327.643L421.403 327.014Z" fill="#0E0D08"/>
<path d="M433.343 327.643L433.971 328.271L433.343 327.643Z" fill="#010101"/>
<path d="M449.054 327.643L449.683 328.271L449.054 327.643Z" fill="#0E0B05"/>
<path d="M78.9004 328.271L79.5284 328.9L78.9004 328.271Z" fill="#0D0B05"/>
<path d="M95.2402 328.271L95.8682 328.9L95.2402 328.271Z" fill="#0F0E07"/>
<path d="M172.538 328.271L173.166 328.9L172.538 328.271Z" fill="#0E0D08"/>
<path d="M203.332 328.271L203.96 328.9L203.332 328.271ZM205.217 328.271L205.846 328.9L205.217 328.271Z" fill="#0D0B05"/>
<path d="M216.53 328.271L217.158 328.9L216.53 328.271Z" fill="#0E0B05"/>
<path d="M424.545 328.271L425.173 328.9L424.545 328.271Z" fill="#010101"/>
<path d="M448.426 328.271L449.054 328.9L448.426 328.271Z" fill="#0D0B05"/>
<path d="M168.139 328.9L168.767 329.528L168.139 328.9Z" fill="#0E0D08"/>
<path d="M202.075 328.9L202.703 329.528L202.075 328.9ZM210.873 328.9L211.502 329.528L210.873 328.9Z" fill="#0D0B05"/>
<path d="M127.918 329.528L128.547 330.157L127.918 329.528Z" fill="#0F0E08"/>
<path d="M230.355 330.157L230.983 330.785L230.355 330.157Z" fill="#0F0E07"/>
<path d="M93.3535 330.785L93.9815 331.413L93.3535 330.785Z" fill="#0F0D06"/>
<path d="M214.644 330.785L215.272 331.413L214.644 330.785Z" fill="#0E0B05"/>
<path d="M229.098 330.785L229.727 331.413L229.098 330.785Z" fill="#0F0E07"/>
<path d="M177.566 331.413L178.194 332.042L177.566 331.413Z" fill="#0E0D08"/>
<path d="M417.632 331.413L418.26 332.042L417.632 331.413Z" fill="#0F0D06"/>
<path d="M200.19 332.042L200.818 332.67L200.19 332.042Z" fill="#0E0D08"/>
<path d="M386.21 332.042C383.027 339.832 390.795 348.194 393.75 355.294C385.58 351.084 378.326 344.064 368.613 343.982V346.496C382.607 347.718 390.069 362.036 401.293 368.492C401.187 356.779 391.133 343.312 387.466 332.042H386.21Z" fill="black"/>
<path d="M405.062 332.042L405.691 332.67L405.062 332.042Z" fill="#0F0D06"/>
<path d="M173.795 332.67L174.423 333.299L173.795 332.67Z" fill="#0E0D08"/>
<path d="M420.146 332.67L420.774 333.299L420.146 332.67Z" fill="#0F0D06"/>
<path d="M444.027 332.67L444.655 333.299L444.027 332.67Z" fill="#0E0B05"/>
<path d="M236.011 333.299L236.64 333.927L236.011 333.299Z" fill="#0E0D08"/>
<path d="M443.398 333.299L444.027 333.927L443.398 333.299Z" fill="#0D0B05"/>
<path d="M138.602 333.927L139.23 334.556L138.602 333.927ZM353.53 333.927L354.159 334.556L353.53 333.927Z" fill="#0F0E08"/>
<path d="M442.77 333.927L443.398 334.556L442.77 333.927Z" fill="#0E0B05"/>
<path d="M137.974 334.556L138.602 335.184L137.974 334.556Z" fill="#0F0E08"/>
<path d="M207.731 334.556L208.359 335.184L207.731 334.556ZM234.126 334.556L234.754 335.184L234.126 334.556Z" fill="#0E0D08"/>
<path d="M408.834 334.556L409.462 335.184L408.834 334.556Z" fill="#0F0D06"/>
<path d="M137.345 335.184L137.974 335.813L137.345 335.184ZM136.717 335.813L137.345 336.441L136.717 335.813Z" fill="#0F0E08"/>
<path d="M281.888 335.813L282.516 336.441L281.888 335.813Z" fill="#0E0D08"/>
<path d="M136.088 336.441L136.717 337.069L136.088 336.441Z" fill="#0F0E08"/>
<path d="M161.854 336.441L162.483 337.069L161.854 336.441Z" fill="#0E0D08"/>
<path d="M356.673 337.07L357.301 337.698L356.673 337.07Z" fill="#0F0E08"/>
<path d="M385.581 338.955L386.21 339.583L385.581 338.955Z" fill="#0F0E07"/>
<path d="M133.574 339.583L134.203 340.212L133.574 339.583Z" fill="#0F0E08"/>
<path d="M164.997 339.583L165.625 340.212L164.997 339.583ZM163.74 340.212L164.368 340.84L163.74 340.212Z" fill="#0E0D08"/>
<path d="M258.635 341.469L254.236 342.097C255.719 345.621 258.334 348.469 259.563 352.152C260.925 356.232 260.042 361.862 264.291 364.092C266.259 359.673 271.097 352.47 269.947 347.753C266.377 349.509 264.685 353.331 264.291 357.18H263.663L258.635 341.469Z" fill="black"/>
<path d="M131.69 342.097L132.318 342.726L131.69 342.097Z" fill="#0F0E08"/>
<path d="M200.19 342.097C200.19 354.43 198.512 366.027 195.162 377.918C199.535 378.078 201.825 373.531 204.195 370.378C208.875 364.148 213.567 357.281 220.928 354.038V353.409C213.463 352.442 204.132 363.604 201.447 369.749H200.818C203.031 361.195 205 350.504 201.447 342.097H200.19Z" fill="black"/>
<path d="M237.896 342.097L238.525 342.726L237.896 342.097Z" fill="#0E0D08"/>
<path d="M418.889 342.097L419.517 342.726L418.889 342.097Z" fill="#0E0B05"/>
<path d="M433.971 342.097L434.6 342.726L433.971 342.097Z" fill="#0D0B05"/>
<path d="M307.025 355.923L292.571 345.868C293.376 348.44 295.417 349.206 297.323 350.973C301.073 354.45 304.346 362.586 309.539 363.464L310.796 342.726C305.724 344.66 307.026 351.468 307.026 355.923H307.025Z" fill="black"/>
<path d="M387.466 342.726L388.095 343.354L387.466 342.726Z" fill="#0F0E07"/>
<path d="M433.343 342.726L433.971 343.354L433.343 342.726Z" fill="#0E0B05"/>
<path d="M259.264 343.354L259.892 343.982L259.264 343.354Z" fill="#0E0D08"/>
<path d="M355.416 343.982L356.044 344.611L355.416 343.982Z" fill="#0F0E08"/>
<path d="M255.493 344.61L256.121 345.24L255.493 344.61Z" fill="#0E0D08"/>
<path d="M348.503 344.61L349.131 345.24L348.503 344.61ZM352.902 345.24L353.53 345.868L352.902 345.24Z" fill="#0F0E08"/>
<path d="M353.53 345.868L354.159 346.496L353.53 345.868Z" fill="#0F0E07"/>
<path d="M233.497 346.496L234.126 347.125L233.497 346.496ZM295.085 346.496L295.713 347.125L295.085 346.496Z" fill="#0E0D08"/>
<path d="M379.925 347.125L380.554 347.753L379.925 347.125Z" fill="#0F0E08"/>
<path d="M132.946 347.753L133.574 348.381L132.946 347.753Z" fill="#0F0E07"/>
<path d="M269.947 347.753L270.576 348.381L269.947 347.753ZM231.612 349.01L232.24 349.638L231.612 349.01Z" fill="#0E0D08"/>
<path d="M352.273 349.01L352.902 349.638L352.273 349.01Z" fill="#0F0E08"/>
<path d="M393.75 349.01L394.38 349.638L393.75 349.01Z" fill="#0F0D06"/>
<path d="M423.916 349.01L424.545 349.638L423.916 349.01Z" fill="#0E0B05"/>
<path d="M427.059 349.01L427.687 349.638L427.059 349.01Z" fill="#010101"/>
<path d="M134.203 349.638L134.831 350.267L134.203 349.638Z" fill="#0F0E07"/>
<path d="M426.43 349.638L427.059 350.267L426.43 349.638Z" fill="#0E0B05"/>
<path d="M296.97 350.267L297.599 350.895L296.97 350.267Z" fill="#0E0D08"/>
<path d="M385.581 350.267L386.21 350.895L385.581 350.267Z" fill="#0F0D06"/>
<path d="M425.802 350.267L426.43 350.895L425.802 350.267Z" fill="#0E0B05"/>
<path d="M164.997 351.524L165.625 352.152L164.997 351.524ZM259.264 351.524L259.892 352.152L259.264 351.524ZM299.484 352.781L300.113 353.409L299.484 352.781Z" fill="#0E0D08"/>
<path d="M164.368 354.038L164.997 354.666L164.368 354.038Z" fill="#0F0E08"/>
<path d="M305.14 354.666L305.769 355.294L305.14 354.666Z" fill="#0E0D08"/>
<path d="M342.847 354.666C338.415 362.523 344.874 378.712 345.989 387.346H345.361C341.858 379.946 335.111 373.836 329.649 367.863C328.879 367.021 324.899 361.599 323.475 363.88C321.991 366.258 329.265 371.9 330.63 373.52C335.653 379.472 340.19 386.205 343.992 393.001C346.19 396.93 348.105 402.183 352.273 404.313C349.129 388.102 344.15 371.266 344.103 354.666H342.847Z" fill="black"/>
<path d="M385.581 354.666L386.21 355.294L385.581 354.666Z" fill="#0F0D06"/>
<path d="M214.015 355.294L214.644 355.923L214.015 355.294Z" fill="#010101"/>
<path d="M217.158 355.294L217.786 355.923L217.158 355.294ZM263.034 355.294L263.663 355.923L263.034 355.294Z" fill="#0E0D08"/>
<path d="M358.558 355.294L359.186 355.923L358.558 355.294Z" fill="#0F0E07"/>
<path d="M341.59 355.923L342.218 356.551L341.59 355.923Z" fill="#0F0E08"/>
<path d="M423.288 355.923L423.916 356.551L423.288 355.923Z" fill="#0E0B05"/>
<path d="M225.328 356.551L225.956 357.18L225.328 356.551Z" fill="#0E0D08"/>
<path d="M263.663 356.551L264.291 357.18L263.663 356.551Z" fill="#0F0E08"/>
<path d="M408.834 357.18L409.462 357.808L408.834 357.18ZM417.004 357.18L417.632 357.808L417.004 357.18Z" fill="#0E0B05"/>
<path d="M214.015 357.808L214.644 358.437L214.015 357.808ZM303.255 357.808L303.883 358.437L303.255 357.808Z" fill="#0E0D08"/>
<path d="M388.723 357.808L389.352 358.437L388.723 357.808Z" fill="#0F0D06"/>
<path d="M163.111 358.437L163.74 359.065L163.111 358.437Z" fill="#0F0E08"/>
<path d="M411.976 359.065L412.604 359.694L411.976 359.065Z" fill="#0E0B05"/>
<path d="M198.933 359.694L199.561 360.322L198.933 359.694Z" fill="#0E0D08"/>
<path d="M142.373 360.322L143.001 360.95L142.373 360.322Z" fill="#0F0E07"/>
<path d="M305.14 360.322L305.769 360.95L305.14 360.322ZM341.59 360.322L342.218 360.95L341.59 360.322Z" fill="#0F0E08"/>
<path d="M423.288 360.322L423.916 360.95L423.288 360.322Z" fill="#0D0B05"/>
<path d="M133.575 360.951L126.66 380.433L141.115 370.378C140.863 365.521 138.233 362.334 133.575 360.951V360.951Z" fill="url(#paint6_radial_22_185)"/>
<path d="M210.245 361.579L210.873 362.207L210.245 361.579ZM306.397 362.207L307.025 362.836L306.397 362.207Z" fill="#0E0D08"/>
<path d="M160.598 364.721L161.226 365.35L160.598 364.721Z" fill="#0F0E08"/>
<path d="M396.265 364.721L396.893 365.35L396.265 364.721Z" fill="#0F0D06"/>
<path d="M327.136 365.35L327.764 365.978L327.136 365.35Z" fill="#0F0E08"/>
<path d="M189.506 365.978L190.135 366.606L189.506 365.978Z" fill="#0E0D08"/>
<path d="M237.896 365.978L237.268 366.606C240.343 375.053 243.37 382.052 244.86 391.116C245.552 395.326 245.122 400.805 248.58 403.685C252.113 396.98 253.386 389.2 256.613 382.318C258.465 378.367 261.488 374.898 260.52 370.378C254.48 373.348 250.915 386.763 249.208 393.001C246.091 384.693 247.045 370.256 237.896 365.978V365.978Z" fill="black"/>
<path d="M324.622 367.235L325.25 367.863L324.622 367.235ZM325.25 367.863L325.879 368.492L325.25 367.863Z" fill="#0F0E08"/>
<path d="M200.818 368.492L201.447 369.12L200.818 368.492Z" fill="#0E0D08"/>
<path d="M325.879 368.492L326.507 369.12L325.879 368.492Z" fill="#0F0E08"/>
<path d="M151.17 369.12L151.8 369.749L151.17 369.12Z" fill="#0F0E07"/>
<path d="M164.368 369.12L164.997 369.749L164.368 369.12Z" fill="#0F0E08"/>
<path d="M200.818 369.12L201.447 369.749L200.818 369.12Z" fill="white"/>
<path d="M326.507 369.12L327.136 369.749L326.507 369.12Z" fill="#0F0E08"/>
<path d="M411.976 369.12L412.604 369.749L411.976 369.12Z" fill="#010101"/>
<path d="M203.96 369.749L204.589 370.377L203.96 369.749ZM258.635 370.377L259.264 371.006L258.635 370.377Z" fill="#0E0D08"/>
<path d="M342.847 370.377L343.475 371.006L342.847 370.377Z" fill="#0F0E07"/>
<path d="M260.52 371.006L261.149 371.634L260.52 371.006Z" fill="#0E0D08"/>
<path d="M332.163 371.006L332.792 371.634L332.163 371.006Z" fill="#0F0E08"/>
<path d="M332.792 371.634L333.42 372.262L332.792 371.634Z" fill="#0F0D06"/>
<path d="M154.942 372.262L155.57 372.891L154.942 372.262ZM202.075 372.262L202.703 372.891L202.075 372.262Z" fill="#0F0E07"/>
<path d="M280.63 372.262C287.737 386.375 292.998 399.649 296.97 414.997C301.402 412.513 300.792 408.125 300.743 403.685C300.629 393.343 304.601 383.047 303.883 372.891C300.917 373.907 300.387 376.946 299.871 379.804C298.631 386.661 298.609 393.74 296.971 400.543C293.563 392.625 290.861 373.901 280.631 372.263L280.63 372.262Z" fill="black"/>
<path d="M282.516 372.262L283.144 372.891L282.516 372.262Z" fill="#0E0D08"/>
<path d="M383.067 372.262L383.696 372.891L383.067 372.262Z" fill="#0F0D06"/>
<path d="M240.41 372.89L241.039 373.52L240.41 372.89Z" fill="#0E0D08"/>
<path d="M330.278 372.89L330.906 373.52L330.278 372.89ZM163.111 373.52L163.74 374.148L163.111 373.52Z" fill="#0F0E07"/>
<path d="M210.873 373.52L211.502 374.148L210.873 373.52Z" fill="#0E0D08"/>
<path d="M301.37 373.52L301.998 374.148L301.37 373.52Z" fill="#0F0E08"/>
<path d="M408.834 373.52L409.462 374.148L408.834 373.52Z" fill="#0F0D06"/>
<path d="M133.574 374.148L134.203 374.776L133.574 374.148Z" fill="#0D0B05"/>
<path d="M300.74 374.776L301.37 375.405L300.74 374.776ZM173.166 376.033L173.795 376.662L173.166 376.033Z" fill="#0F0E08"/>
<path d="M255.493 376.033L256.121 376.662L255.493 376.033ZM259.263 376.033L259.892 376.662L259.263 376.033Z" fill="#0E0D08"/>
<path d="M332.792 376.033L333.42 376.662L332.792 376.033ZM172.538 376.662L173.166 377.29L172.538 376.662Z" fill="#0F0E07"/>
<path d="M384.953 376.662L385.581 377.29L384.953 376.662Z" fill="#0F0D06"/>
<path d="M406.32 376.662L406.948 377.29L406.32 376.662Z" fill="#0D0B05"/>
<path d="M171.91 377.29L172.538 377.918L171.91 377.29Z" fill="#0F0E08"/>
<path d="M258.635 377.29L259.264 377.918L258.635 377.29Z" fill="#0E0D08"/>
<path d="M286.915 377.29L287.544 377.918L286.915 377.29Z" fill="#0F0E08"/>
<path d="M413.233 377.291L408.834 384.832L422.661 391.116L413.233 377.291Z" fill="url(#paint7_radial_22_185)"/>
<path d="M338.448 377.918L339.076 378.547L338.448 377.918Z" fill="#0F0E07"/>
<path d="M258.007 378.547L258.635 379.175L258.007 378.547Z" fill="#0E0D08"/>
<path d="M284.401 379.175L285.03 379.804L284.401 379.175Z" fill="#0F0E08"/>
<path d="M127.29 379.804L127.918 380.432L127.29 379.804Z" fill="#0D0B05"/>
<path d="M177.566 379.804L178.194 380.432L177.566 379.804Z" fill="#0F0E08"/>
<path d="M126.033 380.432L126.661 381.061L126.033 380.432Z" fill="white"/>
<path d="M253.608 380.432L254.236 381.061L253.608 380.432Z" fill="#0E0D08"/>
<path d="M285.03 380.432L285.658 381.061L285.03 380.432Z" fill="#0F0E08"/>
<path d="M403.178 380.432L403.806 381.061L403.178 380.432Z" fill="#0E0B05"/>
<path d="M285.658 381.69L286.287 382.318L285.658 381.69ZM289.428 381.69L290.058 382.318L289.428 381.69ZM286.287 382.946L286.915 383.574L286.287 382.946ZM290.057 382.946L290.686 383.574L290.057 382.946ZM252.351 383.574L252.979 384.203L252.351 383.574ZM255.493 383.574L256.121 384.203L255.493 383.574Z" fill="#0F0E08"/>
<path d="M364.842 383.574L365.471 384.203L364.842 383.574Z" fill="#0F0D06"/>
<path d="M290.686 384.203L291.314 384.831L290.686 384.203Z" fill="#0F0E08"/>
<path d="M409.462 384.831L410.091 385.46L409.462 384.831Z" fill="#010101"/>
<path d="M164.368 385.46L164.997 386.088L164.368 385.46Z" fill="#0F0E07"/>
<path d="M235.383 386.088L236.011 386.717L235.383 386.088Z" fill="black"/>
<path d="M339.705 386.088L340.333 386.717L339.705 386.088Z" fill="#0F0E07"/>
<path d="M251.094 386.717L251.722 387.345L251.094 386.717Z" fill="#0F0E08"/>
<path d="M369.241 386.717L369.87 387.345L369.241 386.717Z" fill="#0F0D06"/>
<path d="M175.052 387.345L175.68 387.974L175.052 387.345Z" fill="#0F0E07"/>
<path d="M236.64 387.345L237.268 387.974L236.64 387.345Z" fill="#0F0E08"/>
<path d="M371.755 388.602L372.384 389.231L371.755 388.602ZM331.535 389.231L332.163 389.859L331.535 389.231ZM332.792 389.231L333.42 389.859L332.792 389.231Z" fill="#0F0D06"/>
<path d="M160.598 389.859L161.226 390.487L160.598 389.859Z" fill="#0F0E07"/>
<path d="M249.837 389.859L250.465 390.487L249.837 389.859Z" fill="#0F0E08"/>
<path d="M342.218 389.859L342.847 390.487L342.218 389.859ZM182.593 392.373L183.222 393.001L182.593 392.373Z" fill="#0F0E07"/>
<path d="M261.149 392.373L261.777 393.001L261.149 392.373ZM158.084 393L158.712 393.629L158.084 393Z" fill="#0F0E08"/>
<path d="M349.76 393.001L350.388 393.63L349.76 393.001Z" fill="#0F0D06"/>
<path d="M294.456 393.63L295.085 394.258L294.456 393.63ZM185.107 394.258L185.735 394.886L185.107 394.258Z" fill="#0F0E07"/>
<path d="M344.732 394.258L345.361 394.886L344.732 394.258Z" fill="#0F0D06"/>
<path d="M306.397 394.886L307.025 395.515L306.397 394.886Z" fill="#0F0E07"/>
<path d="M186.364 395.515L186.992 396.143L186.364 395.515Z" fill="#0F0E08"/>
<path d="M380.554 396.143L381.182 396.772L380.554 396.143Z" fill="#0E0B05"/>
<path d="M155.57 396.772L156.198 397.4L155.57 396.772Z" fill="#0F0E07"/>
<path d="M245.438 396.772L246.066 397.4L245.438 396.772Z" fill="#0F0E08"/>
<path d="M283.773 396.772L284.401 397.4L283.773 396.772Z" fill="#0F0E07"/>
<path d="M381.182 396.772L381.81 397.4L381.182 396.772Z" fill="#0E0B05"/>
<path d="M209.616 397.4L210.245 398.029L209.616 397.4ZM295.713 398.029L296.342 398.657L295.713 398.029ZM190.763 398.657L191.391 399.286L190.763 398.657ZM313.938 398.657L314.567 399.286L313.938 398.657ZM192.648 399.914L193.277 400.543L192.648 399.914ZM310.168 400.543L310.796 401.171L310.168 400.543ZM225.328 401.171L225.956 401.799L225.328 401.171ZM315.824 401.171L316.452 401.799L315.824 401.171ZM224.699 402.428L225.328 403.056L224.699 402.428ZM198.933 403.056L199.561 403.685L198.933 403.056ZM207.103 403.056L207.731 403.685L207.103 403.056ZM317.081 403.056L317.709 403.685L317.081 403.056ZM200.818 403.685L201.447 404.313L200.818 403.685ZM266.805 404.313L267.433 404.942L266.805 404.313Z" fill="#0F0E07"/>
<path d="M186.364 405.571L185.106 425.053C190.631 419.154 199.84 406.757 186.364 405.571Z" fill="url(#paint8_radial_22_185)"/>
<path d="M227.841 405.57L228.47 406.199L227.841 405.57Z" fill="#0F0E07"/>
<path d="M369.241 408.084L369.87 408.712L369.241 408.084Z" fill="#0E0B05"/>
<path d="M394.38 408.084L395.008 408.712L394.38 408.084Z" fill="#0D0B05"/>
<path d="M301.37 408.712L301.998 409.341L301.37 408.712Z" fill="#0F0E07"/>
<path d="M366.728 409.34L367.356 409.97L366.728 409.34Z" fill="#0E0B05"/>
<path d="M269.319 410.598L269.947 411.226L269.319 410.598ZM295.713 410.598L296.342 411.226L295.713 410.598Z" fill="#0F0E07"/>
<path d="M362.329 411.226L362.957 411.855L362.329 411.226Z" fill="#0D0B05"/>
<path d="M299.484 413.111L300.113 413.74L299.484 413.111Z" fill="#0F0E07"/>
<path d="M317.709 413.111L318.337 413.74L317.709 413.111Z" fill="#0F0D06"/>
<path d="M358.558 413.111L359.186 413.74L358.558 413.111Z" fill="#0E0B05"/>
<path d="M226.584 413.74L227.213 414.368L226.584 413.74ZM298.856 413.74L299.484 414.368L298.856 413.74Z" fill="#0F0E07"/>
<path d="M357.301 413.74L357.93 414.368L357.301 413.74Z" fill="#0E0B05"/>
<path d="M284.401 414.997L285.03 415.625L284.401 414.997Z" fill="#0F0E07"/>
<path d="M318.337 414.997L318.966 415.625L318.337 414.997ZM323.365 414.997L323.993 415.625L323.365 414.997Z" fill="#0F0D06"/>
<path d="M190.135 416.254L190.763 416.882L190.135 416.254Z" fill="#0D0B05"/>
<path d="M236.011 416.882L236.64 417.511L236.011 416.882ZM271.833 418.139L272.461 418.767L271.833 418.139Z" fill="#0F0E07"/>
<path d="M346.618 418.139L347.246 418.767L346.618 418.139ZM344.732 418.767L345.361 419.396L344.732 418.767Z" fill="#0E0B05"/>
<path d="M400.035 419.396L400.664 420.024L400.035 419.396ZM401.292 419.396L401.921 420.024L401.292 419.396Z" fill="#0D0B05"/>
<path d="M340.333 420.024L340.961 420.653L340.333 420.024Z" fill="#0F0D06"/>
<path d="M352.273 424.425C354.694 429.622 360.187 434.97 364.842 438.25L359.187 420.654L352.273 424.425Z" fill="url(#paint9_radial_22_185)"/>
<path d="M325.879 421.281L326.507 421.91L325.879 421.281ZM216.529 422.538L217.158 423.167L216.529 422.538Z" fill="#0F0D06"/>
<path d="M255.493 422.538L256.121 423.167L255.493 422.538Z" fill="#0F0E07"/>
<path d="M353.53 423.167L354.159 423.795L353.53 423.167Z" fill="#0D0B05"/>
<path d="M261.149 423.795L261.777 424.423L261.149 423.795Z" fill="#0F0D06"/>
<path d="M354.787 428.194L355.416 428.823L354.787 428.194ZM355.416 428.823L356.044 429.451L355.416 428.823Z" fill="#0D0B05"/>
<path d="M245.437 451.448H246.067L251.722 431.337L244.569 430.122L244.181 435.736L245.437 451.448Z" fill="url(#paint10_radial_22_185)"/>
<path d="M356.044 429.451L356.673 430.079L356.044 429.451ZM362.329 431.965L362.957 432.593L362.329 431.965Z" fill="#0D0B05"/>
<path d="M297.598 435.107L304.512 455.219C306.064 451.623 310.85 437.739 307.453 434.859C304.823 432.629 300.452 434.353 297.598 435.107V435.107Z" fill="url(#paint11_radial_22_185)"/>
<path d="M298.856 434.479L299.484 435.107L298.856 434.479Z" fill="#0D0B05"/>
<path d="M360.443 434.479L361.072 435.107L360.443 434.479ZM330.906 436.992L331.535 437.621L330.906 436.992Z" fill="#010101"/>
<path d="M363.586 437.62L364.214 438.25L363.586 437.62ZM298.227 438.25L298.856 438.878L298.227 438.25ZM364.214 438.25L365.471 439.506L364.214 438.25Z" fill="#0D0B05"/>
<path d="M364.842 438.25L365.471 438.878L364.842 438.25Z" fill="white"/>
<path d="M334.049 439.506L334.677 440.135L334.049 439.506Z" fill="#0E0B05"/>
<path d="M248.58 440.135L249.208 440.763L248.58 440.135Z" fill="#0D0B05"/>
<path d="M434.9 286.539C432.413 286.086 430.468 284.237 430.468 282.326C430.468 280.521 431.624 278.7 436.33 273.089C440.084 268.613 439.63 268.731 432.684 274.041C425.002 279.914 419.502 282.149 411.834 282.516C408.274 282.686 405.36 282.597 405.36 282.318C405.36 282.039 406.41 280.928 407.692 279.849C408.974 278.769 413.28 273.529 417.26 268.204C424.53 258.477 428.077 255.18 432.748 253.809C440.135 251.642 449.646 257.349 451.787 265.231C453.774 272.55 447.321 284.336 440.251 286.299C438.729 286.722 437.318 287.024 437.115 286.971C436.912 286.918 435.915 286.723 434.899 286.539H434.9Z" fill="#FEF666"/>
<path d="M424.93 328.668C422.511 327.997 419.398 325.473 417.134 322.348C414.438 318.626 412.535 313.532 409.339 301.476C407.939 296.196 406.626 291.329 406.421 290.661C405.388 287.292 412.732 285.579 421.713 287.094C428.78 288.286 431.378 290.657 432.645 297.071C433.125 299.494 433.607 301.808 433.718 302.215C433.828 302.621 434.35 300.678 434.876 297.897C435.461 294.805 436.477 292.09 437.493 290.91L439.153 288.98L441.846 290.797C446.077 293.652 448.472 299.255 448.428 306.193C448.365 316.011 444.322 323.662 437.504 326.867C434.13 328.453 427.552 329.395 424.93 328.667V328.668Z" fill="#FEF67A"/>
<defs>
<radialGradient id="paint0_radial_22_185" cx="0" cy="0" r="1" gradientUnits="userSpaceOnUse" gradientTransform="translate(247.058 254.744) scale(219.487 229.912)">
<stop stop-color="#FFF68E"/>
<stop offset="0.731" stop-color="#EED26A"/>
<stop offset="1" stop-color="#D6AA4A"/>
</radialGradient>
<radialGradient id="paint1_radial_22_185" cx="0" cy="0" r="1" gradientUnits="userSpaceOnUse" gradientTransform="translate(389.669 194.925) scale(22.3104 13.9444)">
<stop stop-color="#FFF68E"/>
<stop offset="0.5" stop-color="#FAEA82"/>
<stop offset="1" stop-color="#D6AA4A"/>
</radialGradient>
<radialGradient id="paint2_radial_22_185" cx="0" cy="0" r="1" gradientUnits="userSpaceOnUse" gradientTransform="translate(438.999 202.269) scale(7.54147 8.4842)">
<stop stop-color="#FFF68E"/>
<stop offset="0.5" stop-color="#FAEA82"/>
<stop offset="1" stop-color="#D6AA4A"/>
</radialGradient>
<radialGradient id="paint3_radial_22_185" cx="0" cy="0" r="1" gradientUnits="userSpaceOnUse" gradientTransform="translate(428.929 270.04) scale(23.2352 16.6088)">
<stop stop-color="#FFF68E"/>
<stop offset="0.5" stop-color="#FAEA82"/>
<stop offset="1" stop-color="#D6AA4A"/>
</radialGradient>
<radialGradient id="paint4_radial_22_185" cx="0" cy="0" r="1" gradientUnits="userSpaceOnUse" gradientTransform="translate(427.528 307.816) scale(20.9606 21.0545)">
<stop stop-color="#FFF68E"/>
<stop offset="0.5" stop-color="#FAEA82"/>
<stop offset="1" stop-color="#D6AA4A"/>
</radialGradient>
<radialGradient id="paint5_radial_22_185" cx="0" cy="0" r="1" gradientUnits="userSpaceOnUse" gradientTransform="translate(426.019 337.18) scale(205.197 209.057)">
<stop stop-color="#FFF68E"/>
<stop offset="0.5" stop-color="#FAEA82"/>
<stop offset="1" stop-color="#D6AA4A"/>
</radialGradient>
<radialGradient id="paint6_radial_22_185" cx="0" cy="0" r="1" gradientUnits="userSpaceOnUse" gradientTransform="translate(133.887 370.693) scale(7.22687 9.74079)">
<stop stop-color="#FFF68E"/>
<stop offset="0.5" stop-color="#FAEA82"/>
<stop offset="1" stop-color="#D6AA4A"/>
</radialGradient>
<radialGradient id="paint7_radial_22_185" cx="0" cy="0" r="1" gradientUnits="userSpaceOnUse" gradientTransform="translate(415.751 384.205) scale(6.91256)">
<stop stop-color="#FFF68E"/>
<stop offset="0.5" stop-color="#FAEA82"/>
<stop offset="1" stop-color="#D6AA4A"/>
</radialGradient>
<radialGradient id="paint8_radial_22_185" cx="0" cy="0" r="1" gradientUnits="userSpaceOnUse" gradientTransform="translate(189.231 415.311) scale(4.11978 9.74077)">
<stop stop-color="#FFF68E"/>
<stop offset="0.5" stop-color="#FAEA82"/>
<stop offset="1" stop-color="#D6AA4A"/>
</radialGradient>
<radialGradient id="paint9_radial_22_185" cx="0" cy="0" r="1" gradientUnits="userSpaceOnUse" gradientTransform="translate(358.555 429.454) scale(6.28467 8.79864)">
<stop stop-color="#FFF68E"/>
<stop offset="0.5" stop-color="#FAEA82"/>
<stop offset="1" stop-color="#D6AA4A"/>
</radialGradient>
<radialGradient id="paint10_radial_22_185" cx="0" cy="0" r="1" gradientUnits="userSpaceOnUse" gradientTransform="translate(247.954 440.785) scale(3.77064 10.6621)">
<stop stop-color="#FFF68E"/>
<stop offset="0.5" stop-color="#FAEA82"/>
<stop offset="1" stop-color="#D6AA4A"/>
</radialGradient>
<radialGradient id="paint11_radial_22_185" cx="0" cy="0" r="1" gradientUnits="userSpaceOnUse" gradientTransform="translate(303.122 444.487) scale(5.52336 10.7301)">
<stop stop-color="#FFF68E"/>
<stop offset="0.5" stop-color="#FAEA82"/>
<stop offset="1" stop-color="#D6AA4A"/>
</radialGradient>
</defs>
</svg>
