<svg height="512" width="512" xmlns:xlink="http://www.w3.org/1999/xlink" xmlns="http://www.w3.org/2000/svg">
<linearGradient id="a">
<stop offset="0" stop-color="#fff68e"/>
<stop offset=".5" stop-color="#faea82"/>
<stop offset="1" stop-color="#d6aa4a"/>
</linearGradient>
<radialGradient id="m" cx="497.432" cy="348.199" gradientTransform="matrix(.39649 0 0 .77025 199.236 17.699)" gradientUnits="userSpaceOnUse" r="9.247" xlink:href="#a"/>
<radialGradient id="l" cx="488.701" cy="285.966" gradientTransform="matrix(.32864 0 0 .92928 199.236 17.699)" gradientUnits="userSpaceOnUse" r="7.616" xlink:href="#a"/>
<radialGradient id="k" cx="501.065" cy="394.906" gradientTransform="matrix(.46705 0 0 .65388 199.236 17.699)" gradientUnits="userSpaceOnUse" r="8.932" xlink:href="#a"/>
<radialGradient id="j" cx="338.417" cy="292.828" gradientTransform="matrix(.3594 0 0 .84976 199.236 17.699)" gradientUnits="userSpaceOnUse" r="7.609" xlink:href="#a"/>
<radialGradient id="i" cx="492.171" cy="412.908" gradientTransform="translate(199.236 17.699) scale(.55263)" gradientUnits="userSpaceOnUse" r="8.303" xlink:href="#a"/>
<radialGradient id="h" cx="178.34" cy="341.682" gradientTransform="matrix(.476 0 0 .64158 199.236 17.699)" gradientUnits="userSpaceOnUse" r="10.078" xlink:href="#a"/>
<radialGradient id="g" cx="509.232" cy="353.121" gradientTransform="matrix(.5475 0 0 .5578 199.236 17.699)" gradientUnits="userSpaceOnUse" r="248.781" xlink:href="#a"/>
<radialGradient id="f" cx="507.447" cy="320.435" gradientTransform="matrix(.5514 0 0 .55387 199.236 17.699)" gradientUnits="userSpaceOnUse" r="25.233" xlink:href="#a"/>
<radialGradient id="e" cx="429.496" cy="326.186" gradientTransform="matrix(.65364 0 0 .46723 199.236 17.699)" gradientUnits="userSpaceOnUse" r="23.596" xlink:href="#a"/>
<radialGradient id="d" cx="551.649" cy="183.26" gradientTransform="matrix(.52102 0 0 .58615 199.236 17.699)" gradientUnits="userSpaceOnUse" r="9.608" xlink:href="#a"/>
<radialGradient id="c" cx="364.332" cy="234.706" gradientTransform="matrix(.69902 0 0 .4369 199.236 17.699)" gradientUnits="userSpaceOnUse" r="21.186" xlink:href="#a"/>
<radialGradient id="b" cx="359.248" cy="159.949" gradientTransform="matrix(1 0 0 1.0475 0 -7.597)" gradientUnits="userSpaceOnUse" r="145.693">
<stop offset="0" stop-color="#fff68e"/>
<stop offset=".731" stop-color="#eed26a"/>
<stop offset="1" stop-color="#d6aa4a"/>
</radialGradient>
<circle style="fill:#fff;stroke-width:5.7529;stroke-dasharray:5.7529,5.7529;stop-color:#000;stroke:none" cx="256" cy="256" r="256"/>
<path d="M291.314 40.443c-4.217 9.801-3.036 21.236-6.109 31.422-.708 2.347-3.028 9.434-6.421 8.944-6.938-1.004-3.344-14.333-11.35-14.6l2.513 19.482c-12.03 1.511-10.39-17.27-15.273-24.9-5.635-8.803-6.992 3.994-6.616 7.932.241 2.524.75 5.024 1.053 7.542.526 4.38.65 8.192.098 12.568-11.497-.135-7.277-15.267-15.712-17.596l.629 18.225c-12.745-.107-18.554-11.611-24.15-21.367-2.336-4.073-5.444-11.941-11.043-9.427 2.62 11.322 8.817 22.158 9.45 33.936.163 3.045-2.711 10.775-6.935 9.353-9.758-3.287-8.448-20.992-16.58-25.65-1.644-.942-4.24-.12-6.045-.042.006 9.391 4.137 20.745 7.42 29.536.706 1.891 2.69 8.54-1.43 8.416-7.363-.221-9.196-14.496-16.674-12.815.915 3.85 3.203 6.976 4.478 10.684.78 2.265 2.223 4.555 2.642 6.912.913 5.155-5.617 5.573-9.005 4.575-8.006-2.36-13.756-8.905-19.482-14.63-1.587-1.585-5.774-7.17-8.416-4.635-2.939 2.819 2.831 7.772 4.468 9.663 4.891 5.654 10.183 12.277 12.52 19.482 1.004 3.096 1.2 7.495-1.873 9.62-3.05 2.106-8.01-1.718-10.47-3.337-7.534-4.958-15.024-13.622-24.51-13.824l-2.22 5.656 6.048 8.17 15.655 17.596-18.225-7.541c.736 4.764 12.15 10.537 9.903 15.448-1.332 2.91-7.936 2.958-10.532 2.588-9.291-1.324-15.866-8.243-24.51-10.722-7.631-2.19-6.21 3.73-1.884 7.15 1.501 1.186 2.948 2.43 4.399 3.679a136.975 136.975 0 0 1 7.541 6.995c3.812 3.81 7.152 7.885 10.684 11.94l-18.225-.628v1.256l17.596 8.17-3.142 12.57c-5.081-.014-9.2-1.398-13.826-3.41-3.152-1.37-6.47-3.649-10.055-3.397-4.28.3-6.824 4.208-3.957 7.859 4.298 5.473 12.908 8.59 18.408 12.855 2.099 1.627 5.14 4.409 2.766 7.187-4.689 5.488-17.326-1.553-23.502.272v1.257c5.732 3.345 17.484 5.254 20.857 11.422 2.637 4.823-4.863 15.757-10.173 15.329-4.73-.383-9.08-5.722-12.569-8.525-8.352-6.709-17.288-14.601-27.023-19.23C35.812 221.92 19.232 234.562 6 242.803c1.692 5.34 8.373-.344 12.569.607 5.648 1.28 9.938 6.535 13.559 10.705 17.496 20.149 32.14 42.995 38.682 69.129 1.722 6.88 4.662 15.111-.48 21.276-1.38 1.653-3.435 1.869-4.956 3.233-1.137 1.02-1.078 2.465.482 2.942 2.879.882 7.076-.458 9.901-1.138 9.225-2.223 19.755-7.2 23.944-16.258 2.605-5.635 3.522-16.6 9.993-18.854 1.431 6.04 8.223 14.031 7.562 20.11-.587 5.4-6.274 11.658-9.6 15.655-1.178 1.416-4.02 4.52-2.32 6.554 1.694 2.023 5.188-2.334 6.243-3.33 4.77-4.504 15.194-11.617 18.024-1.282 2.461 8.988-5.446 23.518-9.396 31.422-1.099 2.2-6.16 9.073-4.184 11.526 2.278 2.826 7.046-4.54 8.061-5.87 3.961-5.187 17.832-20.562 25.202-15.036 8.987 6.739 5.888 11.556 2.482 20.692-.96 2.574-4.503 9.027-2.094 11.475 2.332 2.368 5.393.199 6.585-2.06 2.157-4.09 7.96-16.24 13.765-13.139 3.634 1.942 9.19 5.233 11.304 8.86 3.304 5.669.43 16.983-.45 23.145-.507 3.547-4.321 14.617-1.155 17.18 2.925 2.368 5.29-4.752 6.168-6.497 3.096-6.148 6.657-12.444 11.266-17.596 1.654-1.85 3.992-4.95 6.803-4.423 14.597 2.732-.316 17.272 5.674 24.695 1.212 1.502 4.5 1.394 6.267 1.723l7.541-19.482c3.836 1.478 9.477 1.99 12.306 5.162 2.377 2.666 2.844 7.17 3.53 10.55 1.923 9.463 2.976 18.665 1.76 28.28 1.195.859 3.08 2.853 4.683 1.83 2.029-1.294 2.288-6.575 2.98-8.743 2.218-6.934 5.6-13.563 8.743-20.11 2.07-4.314 7.714-8.907 11.787-2.967 4.178 6.091 2.505 16.746 5.115 23.705 6.675-3.29 7.403-17.185 7.542-23.88l8.656 1.262 5.2 10.678 9.396 27.023c4.862-1.86 3.323-11.21 3.868-15.711.74-6.101 2.155-18.358 6.628-22.898 1.804-1.831 5.39-1.986 7.729-2.869 2.667 6.503 4.13 13.878 7.359 20.101 1.258 2.426 4.127 5.041 7.027 3.554 2.776-1.425 2.671-4.665 2.315-7.315-.875-6.512-2.357-12.915-2.875-19.482 12.459-.88 19.768 9.194 27.596 17.597 3.024 3.247 5.658 7.548 10.11 8.798l-6.46-18.853-3.595-17.597c4.522-1.892 14.089-11.14 18.854-9.792 7.097 2.006 12.52 21.782 21.33 17.133 3.758-1.982 1.815-5.342.05-7.97-2.628-3.912-10.53-13.309-9.675-18.222.634-3.641 6.734-7.882 10.29-7.833 8.148.112 22.313 6.314 27.024 12.858l5.656-.628c-.848-11.251-17.71-16.383-20.122-27.651-.24-1.123-.2-2.477.076-3.592 1.791-7.223 6.136-4.069 10.619-2.128 1.398.605 4.454 2.157 5.61.426 1.277-1.907-.984-4.423-1.813-6.019-1.692-3.258-3.245-7.02-2.54-10.683 5.871 1.536 9.495 5.028 14.454 8.327 1.173.78 3.76 2.733 5.24 1.644 1.557-1.145-.741-3.457-1.482-4.315-2.214-2.568-8.996-8.77-8.327-12.513.452-2.527 4.716-5.234 6.454-6.97 5.746-5.736 12.29-11.582 16.968-18.224h.629c11.1 12.948 45.897 3.868 41.477-15.711-2.767.396-5.338 2.571-8.17 1.595-12.377-4.267-9.386-24.095-23.252-24.22-1.022-12.925-6.215-25.844-12.482-37.078-2.873-5.15-8.846-9.862-10.932-15.107-1.157-2.908-.96-7.517-1.095-10.659 7.27-1.132 3.687-8.492 1.04-12.569-2.95-4.543-6.07-9.933-9.897-13.767-4.702-4.71-11.705-7.78-11.101-15.77.56-7.44 13.383-6.495 15.559-13.197-3.802.163-7.561 1.105-11.312 1.73-9.338 1.555-10.964-1.586-6.604-9.9 3.81-7.264 9.873-12.776 15.222-18.853 1.713-1.945 6.992-6.376 4.272-9.193-2.247-2.327-5.958 1.226-7.863 2.49-6.937 4.598-14.682 7.997-22.624 10.457-2.365.733-9.34 3.46-10.13-.73-1.066-5.66 9.647-6.716 8.245-13.08-4.286 1.019-12.707 7.782-16.824 4.647-4.955-3.773 2.321-13.406 3.1-17.843.787-4.495-2.828-4.66-5.372-1.849-.89.985-1.699 2.062-2.52 3.105-1.421 1.805-2.6 3.556-3.522 5.656-10.293-6.009 9.18-12.991 5.516-18.553-1.306-1.982-3.716.002-4.888 1.028-2.443 2.138-11.628 12.722-13.626 4.953-2.21-8.592 2.252-18.914 4.564-27.02.603-2.117 3.328-7.83.684-9.35-3.86-2.22-5.551 5.269-6.455 7.465-2.785 6.761-7.387 12.64-12.818 17.487-1.79 1.597-4.824 4.696-7.504 3.958-3.89-1.071-3.905-11.861-3.783-15.16.058-1.572.941-4.282-.593-5.42-2.002-1.485-3.048 1.494-3.346 2.908-.972 4.627-3.844 17.845-10.703 9.179-6.206-7.843 3.392-24.11-9.264-27.406l-6.913 21.995c-8.284-1.808-6.446-13.653-4.4-20.11l-3.77-1.257c-.593 2.564-1.437 5.062-2.32 7.541-3.348 9.4-7.825 11.231-11.28.629-2.638-8.092-1.703-16.822-3.015-25.138-.524-3.316-.834-6.68-4.124-8.17z"/>
<path d="M389.042 30.214c-.246 11.919-3.845 20.849-17.103 20.857l4.588 18.773c-4.978-5.218-6.794-12.52-9.038-19.19-1.425-4.233-3.24-8.487-3.894-12.932h-.417c.156 7.531 1.744 15.004.23 22.527-.832 4.136-3.163 7.35-4.401 11.263h-.417l2.502-18.355c-9.312.736-17.352 2.147-23.455-6.674-1.325-1.917-2.349-4.112-3.243-6.258h-.417c1.046 6.98 7.262 15.125-.037 20.98-1.115.894-2.402 1.443-3.717 1.964l6.594 9.995 3.835 5.023c-10.554-6.99-16.832-19.163-22.11-30.453h-.417c1.346 8.985 6.807 17.107 8.165 26.281.472 3.188 1.707 7.697-1.073 10.012l-3.337-15.852c-4.86 2.52-8.599 10.1-15.018 9.03-2.73-.456-4.94-2.666-7.509-3.607 1.21 3.821 4.557 7.435 2.648 11.68-.706 1.57-2.085 2.775-3.065 4.172l13.35 5.006c-2.437 2.914-7.508.626-10.43-.744-5.538-2.596-10.467-6.026-15.434-9.564-2.823-2.01-6.145-4.877-9.595-5.544 2.125 4.556 7.578 8.417 11.263 11.751 3.047 2.757 5.323 5.944 7.893 9.107 2.53 3.115 5.838 6.63 4.622 10.846-4.437-4.474-8.312-7.726-15.018-6.16-2.434.569-4.487 1.999-7.091 1.934-4.638-.114-9.118-2.476-13.35-4.117 2.457 5.267 8.932 8.104 10.313 14.183 1.015 4.466-2.206 10.166-2.804 14.6l14.184 2.086v.834c-12.163 3.218-20.733-3.462-32.121-5.423v.418c7.68 3.633 16.386 9.771 21.863 16.269 1.992 2.363 4.434 5.107 4.417 8.343-2.24-1.816-6.475-6.56-9.594-6.081-2.488.381-3.31 3.143-3.64 5.246-.888 5.679-.949 11.777-.949 17.521-2.39-2.087-2.086-4.994-2.086-7.926-2.968 1.955-6.174 4.407-10.011 3.638-3.882-.778-7.748-5.559-10.43-8.226-5.297-5.27-11.17-10.468-18.771-11.504-3.965-.54-15.97.018-10.604 6.072.553.624 1.107 1.273 1.86 1.665 2.825 1.473 8.853-.405 12.08-.405v.417l-10.428 2.086c4.19 8.781 13.263.909 18.355 6.257-3.479-1.028-9.453-1.028-12.932 0l5.828 7.509 2.678 3.503 9.849 1.086v.417h-8.76c.517 4.594 5.83 3.343 9.177 2.92v.417l-7.092 1.251c1.114 2.586 3.836 10.252 6.42 11.428 2.023.919 4.834-.858 6.512-1.833-2.303 4.199-6.419 2.506-4.171 8.343l6.674-3.337c-1.487 1.677-3.988 3.004-4.992 5.012-1.16 2.317.798 6.516 1.655 8.754l6.674-5.006-6.352 7.13.512 7.47c5.592-2.328 10.123-6.46 12.509-12.097.99-2.338 1.093-5.265 2.272-7.453.863-1.6 3.355-1.342 3.857-3.07.96-3.31-1.083-5.997.551-9.5h.418l1.251 6.674c4.214-1.183 6.725-7.81 7.926-11.68h.834c1.164 5.352-3.68 8.82-5.423 13.349 2.945.681 8.241 2.11 7.926 5.84l-10.429-3.754 7.926 17.52h.418c3.816-5.767 7.503-14.94 12.931-19.19 1.896 6.154-4.672 11.156-7.091 16.27 3.577-.978 10.063-5.781 13.349-3.754-4.597 1.914-8.682 4.672-12.059 8.343-1.11 1.207-3.143 3.234-3.119 5.006.025 1.812 2.253 4.004 3.257 5.423 3.646 5.15 8.053 10.57 13.59 13.766 2.265-4.307 4.18-8.614 5.37-13.35.545-2.173.458-5.1 2.555-6.257 2.042 11.51-6.19 24.196-8.76 35.042 7.842-6.651 12.578-17.405 22.526-21.693-.228 5.363-8.85 8.202-9.312 14.178-.162 2.096 2.444 3.187 3.89 4.188 4.045 2.802 7.468 5.918 12.097 7.79 1.665.673 3.238 2.088 4.785.473 2.812-2.936 3.053-8.643 2.605-12.445-.285-2.408-1.285-6.09.536-7.926l2.904 17.103-1.653 20.024h.418c3.9-9.911 7.355-20.683 15.017-28.367.046 5.227-5.868 12.58-7.926 17.52 7.823 3.66 16.99 5.87 25.447 7.51.662-5.24.469-10.305-.9-15.435-.612-2.298-2.623-5.37-1.186-7.51 5.174 11.135 10.838 22.428 10.846 35.042h.417c.005-7.65 1.339-15.453 2.837-22.944.274-1.368.668-7.005 2.6-7.005 2.11 0 1.284 3.377 1.075 4.502-.949 5.121-2.101 10.27-2.757 15.435l17.937-.448 6.246-1.113-.167-6.365-8.582-15.017c3.264-.745 6.488 5.064 8.004 7.508 5.524 8.91 9.246 20.265 11.603 30.453h.417c-1.09-13.789-4.684-26.512-2.92-40.464 4.06 1.63 1.872 11.903 2.385 15.852.165 1.27-.025 4.59 1.501 5.094 1.428.471 3.93-.758 5.291-1.202 4.91-1.6 9.498-3.909 14.184-6.052 1.79-.82 4.327-1.82 4.455-4.1.452-8.035-6.776-10.319-11.547-14.598 4.21-.438 7.283 2.324 10.429 4.766 4.698 3.647 9.326 7.787 13.166 12.337 2.212 2.622 3.85 6.14 6.44 8.343-1.427-4.48-4.868-8.688-6.988-12.931-4.11-8.225-7.284-17.134-8.447-26.281h.418l7.926 20.858c4.308-1.465 7.805-6.583 10.59-10.012 1.254-1.542 2.806-2.962 2.759-5.006 7.003-2.519-1.977-8.076-3.338-10.429 4.85-.729 9.214 3.964 13.766 5.006-2.029-4.348-5.559-10.029-4.588-15.018h.834l2.92 8.343c7.308-6.756 15.96-13.689 21.4-22.109 7.683-11.891 7.634-26.93 2.26-39.63-1.472-3.477-2.874-8.408-5.468-11.201-3.692-3.975-6.887 2.715-7.346 5.778 1.814.272 3.473.882 5.004 1.919 5.657 3.829 5.949 10.54 3.567 16.436-1.009 2.5-2.879 4.734-3.059 7.509-.223 3.437 1.626 6.703 2.22 10.012.987 5.492-1.701 11.34-5.646 14.978-3.66 3.376-8.79 5.238-13.766 4.502-2.302-.34-4.75-2.513-7.09-1.648-3.67 1.356-4.383 6.908-6.676 9.7-1.035-6.272 3.726-9.883 4.72-15.435.517-2.887-1.597-7.667-2.497-10.429-.712-2.185-1.812-8.332-5.139-7.08-2.148.81-3.227 3.249-4.487 4.994-2.971 4.12-5.674 9.164-10.952 10.43 1.94-5.007 7.198-9.196 10.14-13.767 5.837-9.067 12.027-24.396 4.298-34.206-2.33-2.956-6.068-5.045-9.432-6.625-4.63-2.174-9.723-2.85-14.6-4.222v-.834l5.84-.834-1.252-9.178-3.755 1.252c.043-15.273 15.328-23.605 25.864-31.704l-1.926 5.423 5.2 7.926 10.492 16.269-4.171-.417c.804 5.975 2.232 11.573.125 17.52-1.354 3.823-4.684 7.01-5.693 10.846-.509 1.935.418 3.896.42 5.84.003 2.713-.929 5.319-1.527 7.927 7.472-3.556 8.9-14.457 16.687-17.104-.636-3.692-2.204-7.025-2.466-10.846-.565-8.243 1.064-16.392-.22-24.612-1.406-8.996-5.322-17.056-8.578-25.447l3.755 1.669c.864-5.77 5.619-8.889 8.76-13.349-4.823 1.755-12.23 7.734-17.52 4.585-3.649-2.172-4.973-6.953-8.76-8.757l-5.007 20.024h-.417c-2.2-9.245 2.526-17.99 4.589-26.698-6.357 5.142-10.797 11.63-19.606 12.932l12.097-8.798 2.776-4.061-3.61-3.12-9.178-6.548 4.172.835 1.668-13.35h-.417a24.744 24.744 0 0 1-3.374 4.59c-1.725 1.86-3.987 4.838-6.46 5.688-4.853 1.668-11.555-3.983-16.03-5.272v19.19c-4.261-.712-3.707-5.015-3.752-8.76-.099-8.247-.356-16.36-.002-24.613h-.417c-1.249 9.274-4.29 22.49-13.35 27.115 2.594-4.163 5.06-7.72 6.434-12.514.405-1.413 1.591-3.827.102-4.948-4.204-3.165-10.651-.46-14.105-5.488-3.395-4.94-1.167-11.236-3.276-16.262z" fill="url(#b)" style="fill:url(#b)" transform="translate(-294.149 13.78) scale(1.5065)"/>
<path d="m253.608 72.494.628.628zm-.629 1.885.629.629z" fill="#0f0d06"/>
<path d="m328.393 76.893.628.628z" fill="#0e0b05"/>
<path d="m288.8 78.15.629.628z" fill="#0f0d06"/>
<path d="m327.764 79.407.629.628z" fill="#0d0b05"/>
<path d="m288.172 80.035.629.629z" fill="#0f0d06"/>
<path d="m184.478 85.063.629.628z" fill="#fff"/>
<path d="m285.03 85.063.628.628zm-.629.628.629.629zm14.455.629.628.628zm-86.097.628.628.629zm87.354 0 .628.629zm-113.75.629.63.628zm30.795 0 .628.628zm84.211 0 .629.628z" fill="#0f0d06"/>
<path d="m219.043 89.462.628.628zm56.56 0 .629.628z" fill="#0f0e07"/>
<path d="m374.898 89.462.628.628z" fill="#0d0b05"/>
<path d="m374.478 90.51.21.418z" fill="#fff"/>
<path d="m186.364 90.719.628.628zm128.831 0 .629.628z" fill="#0f0d06"/>
<path d="m214.015 93.233.629.628z" fill="#0f0e07"/>
<path d="m373.64 93.233.63.628z" fill="#0e0b05"/>
<path d="m189.506 98.889.629.628zm3.142 0 .629.628zm.629 1.256.628.629z" fill="#0f0e07"/>
<path d="m286.287 102.66-10.055 45.247c7.745-4.72 9.382-21.93 10.055-30.165h.628c1.346 7.245 2 14.505 4.948 21.367 1.168 2.719 2.45 6.338 5.736 6.285l-8.046-28.28Z"/>
<path d="m263.663 103.288.628.628zm-53.418 1.257.628.628zm-3.142 2.513.628.629zm-3.143 1.257.629.629zm80.441 1.886.629.628z" fill="#0f0e07"/>
<path d="M224.699 110.83c.133 16.068 8.08 30.695 5.028 47.133 3.014-1.844 3.1-6.15 3.14-9.427.09-7.604-1.234-15.057-1.255-22.624h.628c2.189 7.595 8.126 22.699 16.968 23.88-1.061-4.082-4.402-7.172-6.639-10.683-4.97-7.801-9.835-23.543-17.87-28.28z"/>
<path d="m199.561 111.458.629.628z" fill="#0f0e07"/>
<path d="m225.956 111.458.628.628z" fill="#0f0e08"/>
<path d="m312.053 112.086.628.628z" fill="#0f0d06"/>
<path d="m283.773 113.343.628.628zm30.794 0 .628.628z" fill="#0f0e07"/>
<path d="m367.985 113.343.628.628z" fill="#0f0d06"/>
<path d="m313.938 113.971.629.629zm-3.77.629.628.628zm3.142 0 .628.628z" fill="#0f0e07"/>
<path d="m228.47 115.228.628.629zm41.477.629.629.628z" fill="#0f0e08"/>
<path d="m371.755 115.857.629.628z" fill="#0d0b05"/>
<path d="m310.168 117.114.628.628z" fill="#0f0e07"/>
<path d="M353.53 117.742c-6.987 10.973-15.316 25.944-25.766 33.936v.628c7.924-1.413 16.487-11.427 18.854-18.853h.628c-.092 11.179-5.231 23.03-.628 33.936h.628c3.344-11.313 1.602-24.658 4.48-36.45.903-3.698 4.23-9.862 1.804-13.197z"/>
<path d="m191.391 118.999.629.628z" fill="#0f0e07"/>
<path d="m230.983 119.627.629.629zm-34.564 1.257.628.629zm-4.4.629.63.628zm14.455 0 .629.628zm83.583 0 .629.628zm-5.027 1.257.628.628z" fill="#0f0e08"/>
<path d="m353.53 122.77.629.628z" fill="#0f0d06"/>
<path d="m391.866 123.398.628.628zm-235.668.628.629.629z" fill="#fff"/>
<path d="m233.497 124.026.629.629z" fill="#0f0e08"/>
<path d="m391.866 124.026.628.629z" fill="#0e0b05"/>
<path d="m348.503 125.283.628.629z" fill="#0f0e07"/>
<path d="m211.502 126.54.628.629z" fill="#0f0e08"/>
<path d="m329.65 126.54.628.629z" fill="#0f0e07"/>
<path d="m217.158 127.797.628.629z" fill="#0e0d08"/>
<path d="m217.786 128.426.629.628z" fill="#0f0e08"/>
<path d="m345.989 128.426.629.628z" fill="#0f0e07"/>
<path d="m218.415 129.054.628.628z" fill="#010101"/>
<path d="m166.882 129.682.628.629z" fill="#0f0e07"/>
<path d="m386.838 129.682.628.629zm-.628.629.628.628zm-262.69 1.257.628.628z" fill="#0f0d06"/>
<path d="m159.97 131.568.628.628z" fill="#0f0e07"/>
<path d="m234.754 132.196.629.629z" fill="#0e0d08"/>
<path d="m347.246 132.825.628.628z" fill="#0f0e07"/>
<path d="m377.411 132.825.629.628z" fill="#0f0d06"/>
<path d="m383.696 132.825.628.628z" fill="#0e0b05"/>
<path d="m346.618 133.453.628.629z" fill="#0f0e07"/>
<path d="m229.098 135.967.629.628z" fill="#0e0d08"/>
<path d="m387.466 136.595.629.629z" fill="#0f0d06"/>
<path d="m232.24 137.852.629.629z" fill="#0e0d08"/>
<path d="m369.241 138.48.629.63z" fill="#0e0b05"/>
<path d="m242.296 139.11.628.628z" fill="#0e0d08"/>
<path d="m398.778 140.366.629.628z" fill="#0f0d06"/>
<path d="m432.715 140.366.628.628z" fill="#fff"/>
<path d="m243.552 140.994.629.629z" fill="#0e0d08"/>
<path d="m341.59 140.994.628.629z" fill="#0f0e07"/>
<path d="m432.715 140.994.628.629z" fill="#0e0b05"/>
<path d="m430.2 141.623.63.628zm1.886 0 .629.628z" fill="#0d0b05"/>
<path d="m340.333 142.251.628.629z" fill="#0f0e07"/>
<path d="m431.458 142.251.628.629z" fill="#0e0b05"/>
<path d="m240.41 142.88.629.628z" fill="#0e0d08"/>
<path d="M312.053 142.88c-3.71 8.37-5.522 16.146-13.197 21.995v1.257c5.516 1.453 9.36-5.47 10.683-10.055h.629c.545 4.223 1.059 13.003 5.656 14.454l-3.086-14.454z"/>
<path d="m400.664 142.88.628.628z" fill="#0f0d06"/>
<path d="m430.83 142.88.628.628z" fill="#0d0b05"/>
<path d="M177.566 143.508c1.358 15.458 22.149 25.905 19.481 42.735 3.343-1.954 2.465-5.596 1.342-8.799-2.32-6.623-6.203-12.417-8.883-18.853 6.014 5.489 14.9 11.695 23.253 8.17l-13.188-5.465z"/>
<path d="m430.2 143.508.63.629z" fill="#0e0b05"/>
<path d="m429.572 144.137.629.628z" fill="#0d0b05"/>
<path d="m389.98 144.765.629.629z" fill="#0f0d06"/>
<path d="m423.916 144.765.629.629z" fill="#0d0b05"/>
<path d="m428.944 144.765.628.629z" fill="#0e0b05"/>
<path d="m242.296 145.394.628.628z" fill="#0e0d08"/>
<path d="m337.82 145.394.628.628z" fill="#0f0e07"/>
<path d="m428.315 145.394.629.628z" fill="#0d0b05"/>
<path d="m177.566 146.022.628.628zm159.625 0 .628.628z" fill="#0f0e08"/>
<path d="m427.687 146.022.628.628z" fill="#0e0b05"/>
<path d="m181.965 146.65.628.629z" fill="#0f0e07"/>
<path d="m427.059 146.65.628.629z" fill="#0d0b05"/>
<path d="m146.772 147.279.628.628z" fill="#0f0e07"/>
<path d="m335.934 147.279.628.628zm-.629.628.629.629z" fill="#0f0e08"/>
<path d="m138.602 148.536.628.628z" fill="#0f0e07"/>
<path d="m245.438 148.536.628.628z" fill="#0e0d08"/>
<path d="M264.291 148.536c-1.9 6.255-7.236 18.468-5.027 24.51h1.256l4.4-15.083h.628c1.553 5.688 3.18 14.316 10.055 15.082l-10.055-24.51z"/>
<path d="m139.23 149.164.629.629z" fill="#0f0e08"/>
<path d="m424.545 149.164.628.629z" fill="#0d0b05"/>
<path d="m139.859 149.793.628.628z" fill="#0f0e07"/>
<path d="m159.97 149.793.628.628zm169.68 0 .628.628z" fill="#0f0e08"/>
<path d="m140.487 150.421.629.629z" fill="#0f0e07"/>
<path d="m151.8 150.421.628.629z" fill="#0f0e08"/>
<path d="m308.91 150.421.63.629zm3.771 0 .629.629z" fill="#0e0d08"/>
<path d="m329.021 150.421.628.629z" fill="#0f0e08"/>
<path d="m141.116 151.05.628.628z" fill="#0f0e07"/>
<path d="m328.393 151.05.628.628zm-140.144 1.256.629.629z" fill="#0e0d08"/>
<path d="m344.732 152.306.629.629z" fill="#0f0e08"/>
<path d="m181.965 154.192.628.628zm125.06.628.629.629z" fill="#0e0d08"/>
<path d="m161.854 155.449.629.628zm-15.71.628.628.629z" fill="#0f0e08"/>
<path d="m192.648 156.077.629.629zm37.079 0 .628.629z" fill="#0e0d08"/>
<path d="m387.466 156.077.629.629z" fill="#0f0d06"/>
<path d="m230.983 157.334.629.629zm33.937.629.628.628zm45.248 0 .628.628zm-123.804 2.513.628.629z" fill="#0e0d08"/>
<path d="m418.26 160.476.629.629Z" fill="#0d0b05"/>
<path d="m194.534 162.362.628.628z" fill="#0e0d08"/>
<path d="m415.118 162.362.628.628z" fill="#0d0b05"/>
<path d="m188.25 162.99.628.628zm116.262.628.628.629z" fill="#0e0d08"/>
<path d="m222.185 164.247 3.143 26.395h1.256l-.628-18.854c4.098 2.853 9.643 9.888 15.083 7.542-2.1-2.274-5.14-2.673-7.54-4.615-3.9-3.157-5.956-10.046-11.314-10.468z"/>
<path d="m192.648 165.504.629.628zm106.208.628.628.629zm-108.093.629.628.628zm67.872 0 .629.628z" fill="#0e0d08"/>
<path d="m345.989 166.76.629.63zm1.257 0 .628.63z" fill="#0f0e08"/>
<path d="M360.443 168.018c-6.629 6.647-12.166 11.213-21.367 13.825v1.257c5.443 1.564 10.708-1.456 15.083-4.399-.716 3.69-5.421 13.349-1.886 15.711l6.036-18.225z"/>
<path d="m227.841 168.646.629.628zm-71.643.628.629.629zm101.18 0 .629.629zm58.446 0 .628.629z" fill="#0e0d08"/>
<path d="m358.558 169.274.628.629z" fill="#0f0d06"/>
<path d="m113.464 170.531.629.629z" fill="#0f0e07"/>
<path d="m273.718 170.531.628.629z" fill="#0e0d08"/>
<path d="m147.4 171.16.629.628z" fill="#0f0e08"/>
<path d="m418.889 171.16.628.628z" fill="#0d0b05"/>
<path d="m193.277 171.788.628.629zm2.514 0 .628.629zm64.73 0 .628.629zm-109.35.629.628.628z" fill="#0e0d08"/>
<path d="m354.787 173.674.629.628zm3.77.628.63.629z" fill="#0f0e08"/>
<path d="m398.15 174.302.628.629z" fill="#0f0d06"/>
<path d="m111.579 174.93.628.629z" fill="#010101"/>
<path d="m230.983 175.559.629.628zm-33.307.628.628.629zm37.707 0 .628.629z" fill="#0e0d08"/>
<path d="m113.464 176.816.629.628z" fill="#0f0e07"/>
<path d="m350.388 176.816.629.628z" fill="#0f0e08"/>
<path d="m233.497 177.444.629.629zm6.913.629.629.628z" fill="#0e0d08"/>
<path d="m352.902 178.701.628.629z" fill="#0f0e08"/>
<path d="m236.64 179.33.628.628zm1.256.628.629.628zm106.208 0 .628.628z" fill="#0e0d08"/>
<path d="m384.324 179.958.629.628zm-267.718.628.629.629z" fill="#0f0e07"/>
<path d="M439.1 129.497c9.545-2.299 19.982-3.657 29.619-1.669-1.436-4.983-5.156-9.076-8.456-12.932-1.129-1.318-2.567-3.757-4.478-3.901-2.263-.172-4.238 2.01-5.838 3.271-4.686 3.692-8.725 9.625-10.846 15.23z" fill="url(#c)" style="fill:url(#c)" transform="translate(-294.149 13.78) scale(1.5065)"/>
<path d="m347.874 181.843.629.629z" fill="#0e0d08"/>
<path d="m381.81 181.843.629.629z" fill="#0f0e07"/>
<path d="m252.98 182.472-3.772 19.482c3.155-2.39 3.887-10.02 4.4-13.826l5.656 6.284c-.66-4.236-3.135-9.03-6.285-11.94z"/>
<path d="m339.076 183.1.629.629z" fill="#0e0d08"/>
<path d="m352.902 183.1.628.629zm43.363.629.628.628z" fill="#0f0e08"/>
<path d="m314.567 184.357-11.94 11.94 11.311-8.17 1.886 11.313c2.197-3.222 1.045-12.047-1.257-15.083m-133.23 1.886v.628c5.296 5.345 9.655 12.707 12.962 19.482 1.82 3.73 1.304 7.84 5.262 10.055-.315-7.348-3.457-12.919-6.284-19.482 4.451 2.598 10.418 6.48 15.71 5.028v-1.257c-7.13-3.17-12.652-5.867-18.852-10.805-2.642-2.104-5.345-4.825-8.799-3.65z"/>
<path d="m383.696 185.614.628.629zm-127.575 1.257.629.628zm-74.156.628.628.629zm74.785.629.628.628z" fill="#0e0d08"/>
<path d="m400.035 188.128.629.628z" fill="#0f0e08"/>
<path d="m254.864 188.756.629.629z" fill="#0e0d08"/>
<path d="m374.898 188.756.628.629z" fill="#0f0e08"/>
<path d="m406.32 188.756.628.629z" fill="#0f0d06"/>
<path d="m121.005 189.385.629.628z" fill="#0f0e08"/>
<path d="m308.91 189.385.63.628zm5.028 0 .629.628zm37.079 0 .628.628zm-160.882.628.628.629zm62.844 0 .629.629z" fill="#0e0d08"/>
<path d="m425.173 190.013.629.629z" fill="#0f0d06"/>
<path d="m378.04 190.642.628.628z" fill="#0f0e08"/>
<path d="m309.54 191.27.628.629z" fill="#0e0d08"/>
<path d="M139.23 191.899c.59 5.3 4.928 7.278 8.799 10.205 5.311 4.017 10.247 8.367 14.306 13.675 2.643 3.458 4.272 9.436 7.69 11.941-.736-9.24-6.188-20.115-15.083-23.881v-.628c9.045 1.754 18.052 5.116 27.023 1.256v-1.256l-10.684-.42z"/>
<path d="m185.735 191.899.629.628zm119.405.628.629.628zm47.133 0 .629.628zm-158.368.628.629.629zm110.607 0 .628.629z" fill="#0e0d08"/>
<path d="m409.462 193.155.629.629z" fill="#0f0d06"/>
<path d="m370.498 193.784.629.628z" fill="#0f0e08"/>
<path d="m481.65 119.485.835 10.012 9.177 1.251c-1.536-4.052-5.919-9.676-10.011-11.263z" fill="url(#d)" style="fill:url(#d)" transform="translate(-294.149 13.78) scale(1.5065)"/>
<path d="m259.264 194.412.628.629z" fill="#0e0d08"/>
<path d="m279.374 194.412-5.656 10.684 6.284-6.913 3.77 6.284z"/>
<path d="m351.645 194.412.628.629z" fill="#0e0d08"/>
<path d="m431.458 194.412.628.629z" fill="#0d0b05"/>
<path d="m187.62 195.04.63.63zm8.799 0 .628.63z" fill="#0e0d08"/>
<path d="m405.691 195.04.629.63z" fill="#0f0d06"/>
<path d="m119.749 195.67.628.628z" fill="#0f0e08"/>
<path d="m277.488 196.298.629.628zm-77.927.628.629.629zm-3.77 1.257.628.628zm120.661 0 .629.628zm120.662 0 .628.628zm-157.112.628.629.629zm157.74 0 .629.629zm-278.401.629.628.628zm279.03 0 .628.628zm-292.856.628.628.629zm137.001 0 .628.629z" fill="#0e0d08"/>
<path d="m118.492 201.325.628.629z" fill="#0f0e08"/>
<path d="m147.4 201.325.629.629z" fill="#0e0d08"/>
<path d="m371.127 201.325.628.629z" fill="#0d0b05"/>
<path d="m249.837 201.954.628.628zm26.395.628.628.629z" fill="#0e0d08"/>
<path d="m117.863 203.839.629.628z" fill="#0f0e08"/>
<path d="m159.34 203.839.63.628zm37.079 0 .628.628zm-3.142.628.628.629z" fill="#0e0d08"/>
<path d="m369.241 204.467.629.629z" fill="#0d0b05"/>
<path d="m396.265 204.467.628.629z" fill="#0f0e08"/>
<path d="m407.577 205.096.628.628z" fill="#0d0b05"/>
<path d="m153.685 206.353.628.628zm40.849.628.628.629z" fill="#0e0d08"/>
<path d="m445.283 208.238.629.629z" fill="#0d0b05"/>
<path d="m339.705 209.495-10.684 8.17 9.427-5.028-1.257 7.542c2.673-1.865 3.67-7.723 2.514-10.684z"/>
<path d="M402.55 247.202c4.766-2.271 7.048-7.702 8.335-12.57 1.585-5.989 3.643-21.783-3.964-24.758-4.185-1.636-11.175.25-15.684.25-4.083 0-12.794-.623-15.96 2.421-2.922 2.81-.738 13.405 1.414 16.259 2.235 2.965 7.553 3.553 10.775 5.063 6.424 3.012 11.593 7.073 15.083 13.335z" fill="#fff"/>
<path d="m420.146 210.123.628.629z" fill="#0f0d06"/>
<path d="m442.77 210.123.628.629zm3.77 0-.628 1.257z" fill="#0d0b05"/>
<path d="m408.834 210.752.628.628z" fill="#020202"/>
<path d="m446.54 210.752.629.628z" fill="#fff"/>
<path d="m121.005 211.38.629.629z" fill="#0f0e08"/>
<path d="m335.934 211.38.628.629z" fill="#0e0d08"/>
<path d="m104.037 212.009.629.628z" fill="#0f0e07"/>
<path d="m374.27 212.009.628.628zm35.192 0 .629.628zm-210.53.628.63.629zm138.887 0 .629.629z" fill="#0e0d08"/>
<path d="m107.808 213.266.629.628z" fill="#0f0e08"/>
<path d="m332.792 213.266.628.628z" fill="#0e0d08"/>
<path d="m410.09 213.266.629.628z" fill="#020202"/>
<path d="M431.458 213.266v5.656c11.395-4.122 13.977 12.55 1.885 11.94l2.514 14.454c8.42-3.93 12.3-22.88 5.384-29.965-2.086-2.137-6.958-1.862-9.783-2.085z" fill="#fff"/>
<path d="m100.267 213.894.628.629z" fill="#0f0e07"/>
<path d="m165.625 214.523.629.628zm169.052 0 .628.628zm31.422 0 .629.628z" fill="#0e0d08"/>
<path d="m410.719 214.523.628.628zm30.165 0 .629.628z" fill="#020202"/>
<path d="m102.152 215.151.629.628z" fill="#0f0e07"/>
<path d="m364.842 215.151.629.628zm-166.538.628.629.629z" fill="#0e0d08"/>
<path d="M399.407 215.78c-1.288 1.323-3.165 2.285-4.112 3.904-6.642 11.356 18.46 11.65 11.367-.63-.807-1.397-2.24-2.309-3.484-3.275l-3.771 1.886z"/>
<path d="M400.035 215.78v.628h2.514z" fill="#020202"/>
<path d="m411.347 215.78.629.628z" fill="#010101"/>
<path d="m104.037 216.408.629.628z" fill="#0f0e07"/>
<path d="m397.73 216.827.21.419z" fill="#020202"/>
<path d="m398.57 216.617.418.21zm.837.42v.628l3.142-.629z" fill="#010101"/>
<path d="m403.806 216.408.628.628z" fill="#020202"/>
<path d="m396.893 217.036.629.629z" fill="#010101"/>
<path d="m405.063 217.036.628.629z" fill="#050505"/>
<path d="m105.923 217.665.628.628z" fill="#0f0e07"/>
<path d="m396.265 217.665.628.628z" fill="#010101"/>
<path d="m433.343 217.665 1.885 1.257v-.629z" fill="#020202"/>
<path d="m433.971 217.665.629.628z" fill="#050505"/>
<path d="m434.6 217.665.628.628z" fill="#010101"/>
<path d="m435.857 217.665.628.628z" fill="#020202"/>
<path d="m436.485 217.665.629.628z" fill="#010101"/>
<path d="m167.51 218.293.629.629z" fill="#0e0d08"/>
<path d="M267.433 218.293c0 3.2-.617 6.444 2.514 8.17v-6.284l7.541 2.513z"/>
<path d="m268.69 218.293.629.629z" fill="#0e0d08"/>
<path d="m432.086 218.293.629.629z" fill="#020202"/>
<path d="m432.715 218.293 1.256 1.257v-1.257zm3.142 0 .628.629z" fill="#010101"/>
<path d="m270.576 218.922.628.628z" fill="#0e0d08"/>
<path d="m395.008 218.922.628.628z" fill="#010101"/>
<path d="m430.2 218.922.63.628z" fill="#0f0e08"/>
<path d="m430.83 218.922.628.628z" fill="#050505"/>
<path d="m305.769 227.091 3.142-5.655 3.77 2.513c-2.762-7.391-6.87-2.097-6.912 3.142z"/>
<path d="m406.948 219.55.629.629zm23.253 0 .628.629z" fill="#010101"/>
<path d="M229.727 220.179c1.11 4.057 2.852 7.521 6.284 10.055l-3.77-8.17 7.54.628c-1.946-3.53-6.507-2.513-10.054-2.513z"/>
<path d="m238.525 220.179.628.628zm31.422 0 .629.628z" fill="#0e0d08"/>
<path d="m429.572 220.179.629.628z" fill="#fff"/>
<path d="m110.322 220.807.628.629z" fill="#0f0e08"/>
<path d="m310.796 220.807.629.629z" fill="#0e0d08"/>
<path d="m428.944 220.807.628.629z" fill="#fff"/>
<path d="m272.46 221.436.63.628z" fill="#0e0d08"/>
<path d="m197.676 223.95 8.798 10.683-5.027-8.798 7.54-1.257-.628-2.514z"/>
<path d="m232.24 222.064.629.628z" fill="#0e0d08"/>
<path d="m407.577 222.064.628.628z" fill="#050505"/>
<path d="M428.315 222.064v1.885h.629z" fill="#fff"/>
<path d="m230.355 222.692.628.629z" fill="#0e0d08"/>
<path d="m428.315 223.95.629.628z" fill="#050505"/>
<path d="m169.396 224.578.628.628zm28.28 0 .628.628z" fill="#0e0d08"/>
<path d="M428.315 224.578v1.885h.629z" fill="#fff"/>
<path d="m406.53 225.625.209.419zm34.983-.419.628.629z" fill="#010101"/>
<path d="m168.139 225.835.628.628zm99.923 0 .628.628zm-150.827.628.628.628zm115.005 0 .629.628z" fill="#0e0d08"/>
<path d="m395.636 226.463.629.628z" fill="#050505"/>
<path d="m117.863 227.091.629.629z" fill="#0f0e08"/>
<path d="m428.944 227.091.628.629z" fill="#fff"/>
<path d="m404.434 227.72.629.628z" fill="#010101"/>
<path d="m428.944 227.72.628.628z" fill="#050505"/>
<path d="m398.15 228.348.628.629z" fill="#020202"/>
<path d="m398.778 228.348.629.629zm4.19.21.419.21z" fill="#010101"/>
<path d="m429.572 228.348.629.629z" fill="#fff"/>
<path d="m439.837 228.768.21.418z" fill="#010101"/>
<path d="m440.256 228.348.628.629z" fill="#050505"/>
<path d="m119.749 228.977.628.628z" fill="#010101"/>
<path d="m400.664 228.977.628.628z" fill="#050505"/>
<path d="m430.2 228.977.63.628z" fill="#fff"/>
<path d="m376.783 229.605.628.629z" fill="#010101"/>
<path d="m430.83 229.605.628.629z" fill="#fff"/>
<path d="m432.086 229.605.629.629z" fill="#010101"/>
<path d="M134.203 241.546v1.257l18.225 6.284c-.371-4.776-6.547-6.2-10.684-6.913l12.57-11.312c-6.68-.783-14.698 7.356-20.111 10.684z"/>
<path d="m431.458 230.234.628.628z" fill="#050505"/>
<path d="m432.086 230.234.629.628z" fill="#fff"/>
<path d="m432.715 230.234.628.628z" fill="#020202"/>
<path d="M435.228 230.234v.628h1.886z" fill="#010101"/>
<path d="m121.634 230.862.628.629z" fill="#0f0e08"/>
<path d="m411.347 230.862.629.629zm23.881 0 .629.629z" fill="#0e0d08"/>
<path d="m381.81 231.49.629.63z" fill="#010101"/>
<path d="M160.598 239.032v1.257l13.825 4.968 8.17 5.715c-.894-6.674-7.976-7.795-12.569-11.312 5.839-1.1 13.762-1.192 16.34-7.54z"/>
<path d="m369.87 232.748.628.628z" fill="#0e0d08"/>
<path d="m384.953 232.748.628.628z" fill="#010101"/>
<path d="m146.143 233.376.629.628zm35.193.628.629.629zm3.771 0 .628.629zm258.291 0 .629.629zm-318.622.629.629.628z" fill="#0e0d08"/>
<path d="m443.398 234.633.629.628z" fill="#020202"/>
<path d="m143.001 235.261.629.629zm40.85 0 .627.629zm226.24.629.628.628zm23.88 0 .629.628zm-292.855.628.628.629z" fill="#0e0d08"/>
<path d="m416.375 236.518.628.629zm-358.843 1.257.629.629z" fill="#0f0d06"/>
<path d="m433.971 237.775.629.629z" fill="#010101"/>
<path d="m122.262 239.032.629.628z" fill="#0e0d08"/>
<path d="m249.208 243.431 1.886-4.399c-2.675.427-4.78 2.494-1.886 4.4z"/>
<path d="m136.717 239.66.628.629z" fill="#0e0d08"/>
<path d="m61.303 240.289.629.628z" fill="#0f0d06"/>
<path d="m388.723 240.289.629.628z" fill="#0f0e08"/>
<path d="m171.281 240.917.629.629z" fill="#0e0d08"/>
<path d="m434.6 240.917.628.629z" fill="#010101"/>
<path d="m124.148 241.546.628.628z" fill="#0e0d08"/>
<path d="m390.609 241.546.628.628z" fill="#0f0e07"/>
<path d="m407.577 241.546.628.628z" fill="#0e0d08"/>
<path d="m29.252 242.174.629.629z" fill="#0e0b05"/>
<path d="m63.817 242.174.628.629z" fill="#0f0d06"/>
<path d="m109.065 242.174.628.629z" fill="#0f0e08"/>
<path d="m439.627 242.174.629.629z" fill="#020202"/>
<path d="m175.68 242.803.629.628z" fill="#0e0d08"/>
<path d="m271.833 242.803-.629 4.399c1.966-1.15 2.3-2.183 1.885-4.4z"/>
<path d="m273.09 242.803.628.628z" fill="#0e0d08"/>
<path d="m298.227 247.202 1.886-4.4c-2.438.706-4.46 2.458-1.886 4.4z"/>
<path d="m406.948 242.803.629.628z" fill="#010101"/>
<path d="m438.999 242.803.628.628z" fill="#020202"/>
<path d="m172.538 244.06.628.628z" fill="#0e0d08"/>
<path d="m400.664 244.06.628.628z" fill="#010101"/>
<path d="m413.233 244.06.628.628z" fill="#0f0e07"/>
<path d="m437.742 244.06.629.628zm-.628.628.628.628z" fill="#010101"/>
<path d="m179.45 245.316.63.629z" fill="#0e0d08"/>
<path d="m68.216 245.945.628.628z" fill="#0f0d06"/>
<path d="m401.92 245.945.63.628z" fill="#0e0d08"/>
<path d="m42.45 246.573.628.629z" fill="#0e0b05"/>
<path d="m272.46 246.573.63.629zm24.51 0 .629.629z" fill="#0e0d08"/>
<path d="M317.08 250.972v2.514l6.285-4.399z"/>
<path d="m180.08 249.716.628.628zm139.514 0 .629.628zm3.143 0 .628.628z" fill="#0e0d08"/>
<path d="M347.246 249.716v7.54c2.36-2.31 2.36-5.229 0-7.54z"/>
<path d="m430.83 249.716.628.628z" fill="#0f0d06"/>
<path d="m456.596 249.716.628.628z" fill="#0d0b05"/>
<path d="m318.966 250.344.628.628zm3.142 0 .629.628zm24.51 0 .628.628z" fill="#0e0d08"/>
<path d="m409.462 250.344.629.628z" fill="#0f0e07"/>
<path d="m427.687 250.972.628.629z" fill="#0f0d06"/>
<path d="m318.337 252.858.629.628zm-89.867.628.628.629z" fill="#0e0d08"/>
<path d="m223.442 262.284 7.541 1.886-4.184-4.034 2.3-6.021c-3.031 1.57-4.888 4.897-5.657 8.17z"/>
<path d="m431.458 254.115.628.628z" fill="#0e0d05"/>
<path d="M464.547 177.887v.417c10.497 1.327 15.224-3.69 22.944-9.594-1.109 2.987-6.615 6.822-6.47 9.594.156 2.968 4.823 3.242 6.887 2.424 3.943-1.563 6.436-5.918 7.293-9.933 1.778-8.334-9.164-15.158-16.014-9.838-5.872 4.56-8.465 12.35-14.64 16.93z" fill="url(#e)" style="fill:url(#e)" transform="translate(-294.149 13.78) scale(1.5065)"/>
<path d="m43.707 255.372.628.628z" fill="#010101"/>
<path d="M109.693 267.94c.815 4.689 5.464 2.171 8.799 1.943 4.792-.328 13.692 1.224 16.34 5.599l4.398-.629c-1.124-7.112-11.378-7.1-16.968-7.541 4.115-4.16 10.01-5.398 11.312-11.94z"/>
<path d="m452.196 255.372.629.628z" fill="#0d0b05"/>
<path d="m78.9 256 .628.628z" fill="#0f0e07"/>
<path d="m459.738 256.628.628.629z" fill="#0d0b05"/>
<path d="m61.932 257.257.628.628z" fill="#0f0d06"/>
<path d="m225.328 257.257.628.628zm-96.781.628.628.629zm97.409.629.628.628z" fill="#0e0d08"/>
<path d="m83.299 259.77.628.63z" fill="#0f0e07"/>
<path d="m126.033 259.77.628.63zm5.028 0 .628.63z" fill="#0e0d08"/>
<path d="m44.964 260.4.628.628z" fill="#0e0b05"/>
<path d="m254.864 260.4-6.913 8.797 8.799 3.143-6.285-3.771c1.308-2.744 6.442-5.126 4.4-8.17z"/>
<path d="m450.311 260.4.628.628z" fill="#0e0d05"/>
<path d="m99.638 261.028.629.628z" fill="#0f0e07"/>
<path d="m124.148 261.028.628.628zm98.666 0 .628.628z" fill="#0e0d08"/>
<path d="m85.813 261.656.628.628zm12.568 0 .629.628z" fill="#0f0e07"/>
<path d="m128.547 262.284.628.629zm71.014 0 .629.629z" fill="#0e0d08"/>
<path d="m200.19 262.284-7.542 6.913c2.943.995 9.741 4.866 11.94 1.886l-8.169-3.142zm162.767 0 8.798 6.913v1.257l-8.17 4.4c4.3-.352 7.967-1.658 11.313-4.4-2.445-4.14-7.217-7.259-11.941-8.17z"/>
<path d="m87.698 262.913.628.628z" fill="#0f0e07"/>
<path d="m451.568 262.913.628.628z" fill="#010101"/>
<path d="m462.251 262.913.629.628zm-414.774.628.629.629z" fill="#0d0b05"/>
<path d="m251.094 263.541.628.629zm3.142 0 .628.629zm112.492 0 .628.629z" fill="#0e0d08"/>
<path d="m421.403 263.541.628.629zm30.165 0 .628.629z" fill="#0e0d05"/>
<path d="m197.047 264.17.629.628zm2.514 0 .629.628zm50.904 0 .629.628z" fill="#0e0d08"/>
<path d="m48.734 264.798.629.629z" fill="#0e0b05"/>
<path d="M161.226 264.798c-3.804 8.53-9.664 15.474-16.34 21.986-3.831 3.738-9.805 7.212-11.312 12.579l27.652-5.87 14.454-2.929c-8.617-6.14-23.731.694-32.05 4.4 5.715-11.474 16.936-16.024 19.481-29.537l-.628-.629z"/>
<path d="m198.933 264.798.628.629zm50.904 0 .628.629zm115.634 0 .628.629zm-241.952.629.629.628z" fill="#0e0d08"/>
<path d="m276.232 271.083 3.77.628v-6.284c-2.727.883-3.038 3.083-3.77 5.656z"/>
<path d="m114.721 266.055.629.629z" fill="#0f0e08"/>
<path d="m367.356 266.055.629.629zm-207.387.629.629.628z" fill="#0e0d08"/>
<path d="m50.62 267.312.628.629z" fill="#0e0b05"/>
<path d="m124.776 267.312.629.629zm125.69.629.628.628z" fill="#0e0d08"/>
<path d="m452.196 267.94.629.629z" fill="#010101"/>
<path d="m373.64 268.569.63.628z" fill="#0f0e08"/>
<path d="m413.861 268.569.629.628z" fill="#0f0e07"/>
<path d="m199.561 269.197.629.629z" fill="#0e0d08"/>
<path d="m437.742 269.197.629.629z" fill="#0f0d06"/>
<path d="m195.162 269.826.629.628zm81.07 0 .628.628z" fill="#0e0d08"/>
<path d="m305.769 269.826.628 6.913c2.915-1.544 4.82-3.7 5.656-6.913l-4.4 3.142z"/>
<path d="m136.717 270.454.628.629zm168.423 0 .629.629zm5.028 0 .628.629z" fill="#0e0d08"/>
<path d="m374.27 270.454.628.629z" fill="#0f0e08"/>
<path d="m438.999 270.454.628.629z" fill="#0e0d05"/>
<path d="m53.133 271.083.629.628z" fill="#0e0b05"/>
<path d="m198.933 271.083.628.628zm110.606 0 .629.628zm58.446.628.628.629z" fill="#0e0d08"/>
<path d="m414.49 272.968.628.628z" fill="#0e0d05"/>
<path d="m450.94 272.968.628.628z" fill="#010101"/>
<path d="m465.394 273.596.628.629z" fill="#0d0b05"/>
<path d="m450.311 274.853.628.629z" fill="#010101"/>
<path d="m159.34 275.482.63.628z" fill="#0e0d08"/>
<path d="m70.101 276.11.629.629z" fill="#0e0b05"/>
<path d="m429.572 276.739.629.628z" fill="#020202"/>
<path d="m410.719 277.367.628.629z" fill="#0d0b05"/>
<path d="m428.944 277.367.628.629zm-18.853.629.628.628z" fill="#0e0d05"/>
<path d="m217.158 283.023 1.257-4.399c-2.697.785-4.178 2.728-1.257 4.4z"/>
<path d="m57.532 279.253.629.628z" fill="#0f0d06"/>
<path d="m215.272 279.253.629.628zm-64.101.628.628.628z" fill="#0e0d08"/>
<path d="m423.916 279.88.629.63z" fill="#0e0d05"/>
<path d="m150.542 280.51.629.628z" fill="#0e0d08"/>
<path d="m447.169 280.51.628.628zm-26.395.628.629.628z" fill="#010101"/>
<path d="m446.54 281.138.629.628z" fill="#0e0d05"/>
<path d="m329.65 282.395-.629 8.798-5.656-3.77c.59 3.813 3.256 5.621 6.913 6.284l.628-11.312z"/>
<path d="M415.118 282.395v.628h1.885z" fill="#010101"/>
<path d="M174.423 301.877c4.16-.179 18.645.378 20.74-2.514l-13.827-1.886 7.542-14.454c-4.573 1.43-12.423 14.42-14.455 18.854m50.905 54.674c4.74-2.716 10.911-10.808 13.197-15.71-5.032 1.506-7.231 6.436-10.684 10.054l-1.885-13.197c14.697-1.283 21.154-17.342 29.806-26.999 5.265-5.876 11.861-8.422 18.584-11.965-3.962-4.74-9.474.27-13.197 3.136-9.975 7.68-15.73 16.988-24.51 25.773l5.028-13.198h-.628c-2.73 6.558-5.994 13.557-12.57 16.968l2.514-8.798h-.628c-2.642 6.312-5.622 9.423-12.569 9.427l6.285-14.454h-.629l-8.17 13.825-2.513-.628 6.284-11.94h-.628c-3.178 5.084-6.528 12.316-13.198 10.683l5.656-10.683c-3.148 2.464-4.513 8.359-8.228 9.823-1.696.668-4.89-.573-4.21-2.816.883-2.913 5.678-5.783 7.568-8.264 6.436-8.452 11.654-22.23 21.21-27.43 7.824-4.258 19.73 1.137 28.28 1.032 4.899-.06 10.477-1.74 11.94-6.91-3.995-.431-7.773 2.148-11.94 2.155-10.562.017-27.896-5.244-36.972 1.926-8.262 6.527-8.731 15.286-13.928 23.568-2.538 4.044-7.02 6.78-10.685 9.696-1.357 1.08-3.816 2.65-3.3 4.72.631 2.545 4.964 3.91 7.068 4.874a70.717 70.717 0 0 0 15.083 4.94c2.745.561 6.832.471 9.163 2.16 4.256 3.084 2.82 13.591 3.406 18.232z"/>
<path d="m442.77 284.909.628.628zm-10.684.628.629.628zm8.798 0 .629.628z" fill="#010101"/>
<path d="m107.808 286.165-.628 3.771 2.513-3.77z"/>
<path d="m256.121 286.165.629.629z" fill="#0e0d08"/>
<path d="m434.6 286.165.628.629z" fill="#010101"/>
<path d="m330.906 286.794.629.628z" fill="#0e0d08"/>
<path d="M483.32 192.905c-.958-2.83-.52-6.25-2.358-8.742-2.402-3.258-7.788-2.982-11.409-2.937-1.25.015-3.334-.061-4.143 1.126-.965 1.414.791 4.873 1.17 6.381 1.57 6.25 2.971 14.87 8.398 19.058 3.567 2.752 10.744.948 13.72-2 4.749-4.702 6.03-15.69 1.207-20.767-5.965-6.278-5.874 4.89-6.586 7.88z" fill="url(#f)" style="fill:url(#f)" transform="translate(-294.149 13.78) scale(1.5065)"/>
<path d="m62.56 287.422.628.629z" fill="#0f0d06"/>
<path d="m219.043 287.422.628.629z" fill="#0e0d08"/>
<path d="m121.634 288.05.628.63z" fill="#0f0e08"/>
<path d="m143.001 288.05.629.63zm43.363 0 .628.63z" fill="#0e0d08"/>
<path d="m109.065 288.68.628.628z" fill="#0f0e08"/>
<path d="m124.776 288.68.629.628zm17.597 0 .628.628zm86.725 0 .629.628zm-87.354.628.629.628z" fill="#0e0d08"/>
<path d="m108.437 289.936.628.628z" fill="#0f0e08"/>
<path d="m182.593 289.936.629.628zm33.936 0 .629.628z" fill="#0e0d08"/>
<path d="m261.149 289.936.628.628z" fill="#0e0b05"/>
<path d="m440.884 289.936.629.628z" fill="#0e0d08"/>
<path d="m509.183 183.727-2.23 10.43-1.58 5.404 2.976 2.104-.835-3.754h.418c1.929 4.632 3.962 5.423 8.76 5.423l-2.92-6.258c1.924 2.214 2.621 5.342 5.84 5.84l-2.92-5.423c2.67 2.898 3.988 4.9 7.926 2.92v-.834c-6.95-3.307-7.582-14.43-15.435-15.852z" fill="url(#g)" style="fill:url(#g)" transform="translate(-294.149 13.78) scale(1.5065)"/>
<path d="m372.384 295.592 1.885-4.399c-2.568.747-3.916 2.188-1.885 4.4z"/>
<path d="m181.336 291.821.629.629z" fill="#0e0d08"/>
<path d="m430.83 291.821.628.629z" fill="#0e0d05"/>
<path d="m222.814 292.45.628.628z" fill="#0f0e08"/>
<path d="m406.948 292.45.629.628z" fill="#010101"/>
<path d="m466.022 292.45.629.628z" fill="#0d0b05"/>
<path d="m161.226 293.078.628.629z" fill="#0e0d08"/>
<path d="m222.185 293.078.629.629zm-114.377.629.629.628zm2.514 0 .628.628zm111.235 0 .628.628z" fill="#0f0e08"/>
<path d="m181.965 294.335.628.629zm30.165 0 .629.629z" fill="#0e0d08"/>
<path d="m118.492 294.964.628.628z" fill="#0f0e08"/>
<path d="m392.494 294.964.629.628z" fill="#0f0e07"/>
<path d="m433.971 294.964.629.628z" fill="#010101"/>
<path d="m117.863 296.22.629.629z" fill="#0f0e08"/>
<path d="m219.671 296.22.629.629z" fill="#0f0e07"/>
<path d="m287.544 296.22 6.912 7.542 3.143-7.541-3.143 5.027zm63.473 0-.629 9.427-6.284-3.77c-.35 4.143 5.995 8.852 9.426 10.683l-1.257-16.34z"/>
<path d="m176.937 297.477.629.629zm10.684 0 .628.629zm-11.312.629.628.628z" fill="#0e0d08"/>
<path d="m390.609 298.106.628.628z" fill="#0f0e07"/>
<path d="m79.528 299.363.629.628z" fill="#0f0d06"/>
<path d="m119.12 299.991.629.629z" fill="#0f0e08"/>
<path d="m174.423 299.991.629.629z" fill="#0e0d08"/>
<path d="m263.034 299.991.629.629z" fill="#0f0d06"/>
<path d="m389.352 299.991.628.629zm4.399.629.628.628z" fill="#0f0e07"/>
<path d="m291.314 301.248.629.629zm192.933 0 .629.629zm-275.888.629.629.628z" fill="#0e0d08"/>
<path d="m388.095 301.877.628.628z" fill="#0f0e07"/>
<path d="m73.872 302.505.629.628zm186.02 0 .628.628z" fill="#0f0d06"/>
<path d="m264.92 302.505.628.628z" fill="#0e0d08"/>
<path d="m71.987 303.133.628.629z" fill="#0f0d06"/>
<path d="m292.571 303.133.629.629zm54.047 0 .628.629z" fill="#0e0d08"/>
<path d="m391.237 304.39.629.629z" fill="#0f0e07"/>
<path d="m260.52 305.647.629.629z" fill="#0e0d08"/>
<path d="m71.987 306.276.628.628z" fill="#0f0d06"/>
<path d="m410.719 306.276.628.628zm-268.346.628.628.629z" fill="#0e0d08"/>
<path d="M180.708 306.904c-1.97 9.414-8.697 17.889-14.728 25.138-2.874 3.454-7.294 6.927-8.525 11.312 10.415-3 22.123-13.58 33.308-12.569-2.877-5.573-16.297 2.159-21.367 3.142 4.076-6.04 9.65-11.304 12.275-18.225 1.101-2.903 1.796-6.808-.963-8.798z"/>
<path d="m212.759 306.904.628.629z" fill="#0f0e07"/>
<path d="m253.608 306.904.628.629z" fill="#0e0d08"/>
<path d="m79.528 307.533.629.628zm2.514 0 .628.628z" fill="#0f0d06"/>
<path d="m180.08 308.161.628.628z" fill="#0e0d08"/>
<path d="m383.067 308.161.629.628z" fill="#0f0e07"/>
<path d="m411.347 308.79.629.628zm36.45.628.629.628z" fill="#010101"/>
<path d="m489.275 309.418.628.628z" fill="#0f0e08"/>
<path d="m255.493 310.046.628.629z" fill="#0e0d08"/>
<path d="m121.634 310.675.628.628z" fill="#0f0e08"/>
<path d="m77.014 311.303.629.629z" fill="#0f0d06"/>
<path d="m249.208 311.303.629.629z" fill="#0e0d08"/>
<path d="m76.386 311.932.628.628z" fill="#0f0d06"/>
<path d="m351.645 311.932.628.628z" fill="#0e0d08"/>
<path d="M320.851 321.987c-2.658-2.652-5.365-6.314-9.426-5.656l11.94 14.454 3.142-18.225c-4.789.757-4.555 5.51-5.656 9.427z"/>
<path d="m481.733 312.56.629.629z" fill="#0f0e07"/>
<path d="m114.093 313.189.628.628zm13.197 0 .628.628z" fill="#0f0e08"/>
<path d="m261.777 318.845-.628-3.143h-1.885l.628 8.17c3.66-.633 7.47-7.215 8.17-10.683z"/>
<path d="m447.169 313.189.628.628z" fill="#010101"/>
<path d="m137.974 313.817.628.628zm109.35 0 .627.628zm5.027 0 .628.628zm74.156 0 .629.628z" fill="#0e0d08"/>
<path d="m384.324 313.817.629.628z" fill="#0f0e07"/>
<path d="m496.188 314.445.628.629z" fill="#0d0b05"/>
<path d="m201.447 315.074.628.628z" fill="#0e0d08"/>
<path d="m466.65 315.074.63.628z" fill="#0e0b05"/>
<path d="m143.001 315.702.629.629zm33.936 0 .629.629z" fill="#0e0d08"/>
<path d="m224.28 316.122.21.418z"/>
<path d="m381.81 316.33.629.63z" fill="#0f0e07"/>
<path d="m451.568 316.33.628.63zm19.482 0 .628.63z" fill="#0d0b05"/>
<path d="m180.708 316.96.628.628zm42.734 0 .629.628zm-47.762 1.256.629.629zm269.603 0 .629.629z" fill="#0e0d08"/>
<path d="m450.94 318.216.628.629z" fill="#0d0b05"/>
<path d="m484.876 318.216.628.629z" fill="#0f0d06"/>
<path d="m88.326 318.845.629.628z"/>
<path d="m197.047 318.845.629.628z" fill="#0e0d08"/>
<path d="m376.783 318.845.628.628z" fill="#0f0e07"/>
<path d="m87.07 319.473.628.628zm1.256 0 .629.628z" fill="#0f0d06"/>
<path d="m217.786 319.473.629.628z" fill="#0f0e08"/>
<path d="m243.552 319.473.629.628zm201.103 0 .628.628zm-123.804 1.257.629.628zm95.524 0 .628.628z" fill="#0e0d08"/>
<path d="m99.01 321.358.628.629z" fill="#0f0e07"/>
<path d="m241.667 321.987.629.628zm81.698 0 .628.628z" fill="#0e0d08"/>
<path d="m138.602 322.615.628.629z" fill="#0f0e08"/>
<path d="m207.103 322.615.628.629z" fill="#0e0b05"/>
<path d="m215.272 322.615.629.629z" fill="#0e0d08"/>
<path d="m220.928 322.615.629.629z" fill="#0f0e08"/>
<path d="m246.066 322.615.629.629z" fill="#0e0d08"/>
<path d="m453.453 322.615.629.629z" fill="#0d0b05"/>
<path d="m191.391 323.244.629.628zm38.336 0 .628.628z" fill="#0e0d08"/>
<path d="m285.03 323.244-3.142 8.17h-.629l-5.027-6.913 4.399 14.454h.628c1.672-4.2 7.59-11.924 3.77-15.711z"/>
<path d="m317.709 323.244.628.628z" fill="#0e0d08"/>
<path d="m220.3 323.872.628.629z" fill="#0f0e08"/>
<path d="m409.462 323.872.629.629z" fill="#0f0d06"/>
<path d="m198.304 324.5.629.629z" fill="#0d0b05"/>
<path d="m283.773 324.5.628.629z" fill="#0e0d08"/>
<path d="m119.749 325.129.628.628z" fill="#0f0e08"/>
<path d="m218.415 325.129.628.628z" fill="#0f0e07"/>
<path d="m229.727 325.129.628.628zm5.656 0 .628.628z" fill="#0e0d08"/>
<path d="m82.67 325.757.629.629z" fill="#0f0d06"/>
<path d="m236.64 325.757.628.629zm183.506 0 .628.629zm-250.122.629.629.628zm250.75 0 .629.628z" fill="#0e0d08"/>
<path d="m80.785 327.014.628.629z" fill="#0f0d06"/>
<path d="m205.846 327.014.628.629z" fill="#0d0b05"/>
<path d="m214.015 327.014.629.629z" fill="#0f0d06"/>
<path d="m236.64 327.014.628.629z" fill="#0e0d08"/>
<path d="m352.902 327.643 3.77 20.738c-4.005-3.5-16.36-19.625-21.367-13.825 11.561 3.684 16.38 17.192 26.395 23.252l-3.133-11.94-3.78-18.854z"/>
<path d="m421.403 327.014.628.629z" fill="#0e0d08"/>
<path d="m433.343 327.643.628.628z" fill="#010101"/>
<path d="m449.054 327.643.629.628z" fill="#0e0b05"/>
<path d="m78.9 328.271.628.629z" fill="#0d0b05"/>
<path d="m95.24 328.271.628.629z" fill="#0f0e07"/>
<path d="m172.538 328.271.628.629z" fill="#0e0d08"/>
<path d="m203.332 328.271.628.629zm1.885 0 .629.629z" fill="#0d0b05"/>
<path d="m216.53 328.271.628.629z" fill="#0e0b05"/>
<path d="m424.545 328.271.628.629z" fill="#010101"/>
<path d="m448.426 328.271.628.629z" fill="#0d0b05"/>
<path d="m168.139 328.9.628.628z" fill="#0e0d08"/>
<path d="m202.075 328.9.628.628zm8.798 0 .629.628z" fill="#0d0b05"/>
<path d="m127.918 329.528.629.629z" fill="#0f0e08"/>
<path d="m230.355 330.157.628.628z" fill="#0f0e07"/>
<path d="m93.354 330.785.628.628z" fill="#0f0d06"/>
<path d="m214.644 330.785.628.628z" fill="#0e0b05"/>
<path d="m229.098 330.785.629.628z" fill="#0f0e07"/>
<path d="m177.566 331.413.628.629z" fill="#0e0d08"/>
<path d="m417.632 331.413.628.629z" fill="#0f0d06"/>
<path d="m200.19 332.042.628.628z" fill="#0e0d08"/>
<path d="M386.21 332.042c-3.183 7.79 4.585 16.152 7.54 23.252-8.17-4.21-15.424-11.23-25.137-11.312v2.514c13.994 1.222 21.456 15.54 32.68 21.996-.106-11.713-10.16-25.18-13.827-36.45z"/>
<path d="m405.063 332.042.628.628z" fill="#0f0d06"/>
<path d="m173.795 332.67.628.629z" fill="#0e0d08"/>
<path d="m420.146 332.67.628.629z" fill="#0f0d06"/>
<path d="m444.027 332.67.628.629z" fill="#0e0b05"/>
<path d="m236.011 333.299.629.628z" fill="#0e0d08"/>
<path d="m443.398 333.299.629.628z" fill="#0d0b05"/>
<path d="m138.602 333.927.628.629zm214.928 0 .629.629z" fill="#0f0e08"/>
<path d="m442.77 333.927.628.629z" fill="#0e0b05"/>
<path d="m137.974 334.556.628.628z" fill="#0f0e08"/>
<path d="m207.731 334.556.628.628zm26.395 0 .628.628z" fill="#0e0d08"/>
<path d="m408.834 334.556.628.628z" fill="#0f0d06"/>
<path d="m137.345 335.184.629.629zm-.628.629.628.628z" fill="#0f0e08"/>
<path d="m281.888 335.813.628.628z" fill="#0e0d08"/>
<path d="m136.088 336.441.629.628z" fill="#0f0e08"/>
<path d="m161.854 336.441.629.628z" fill="#0e0d08"/>
<path d="m356.673 337.07.628.628z" fill="#0f0e08"/>
<path d="m385.581 338.955.629.628z" fill="#0f0e07"/>
<path d="m133.574 339.583.629.629z" fill="#0f0e08"/>
<path d="m164.997 339.583.628.629zm-1.257.629.628.628z" fill="#0e0d08"/>
<path d="m258.635 341.469-4.399.628c1.483 3.524 4.098 6.372 5.327 10.055 1.362 4.08.479 9.71 4.728 11.94 1.968-4.419 6.806-11.622 5.656-16.339-3.57 1.756-5.262 5.578-5.656 9.427h-.628z"/>
<path d="m131.69 342.097.628.629z" fill="#0f0e08"/>
<path d="M200.19 342.097c0 12.333-1.678 23.93-5.028 35.821 4.373.16 6.663-4.387 9.033-7.54 4.68-6.23 9.372-13.097 16.733-16.34v-.629c-7.465-.967-16.796 10.195-19.481 16.34h-.629c2.213-8.554 4.182-19.245.629-27.652z"/>
<path d="m237.896 342.097.629.629z" fill="#0e0d08"/>
<path d="m418.889 342.097.628.629z" fill="#0e0b05"/>
<path d="m433.971 342.097.629.629z" fill="#0d0b05"/>
<path d="m307.025 355.923-14.454-10.055c.805 2.572 2.846 3.338 4.752 5.105 3.75 3.477 7.023 11.613 12.216 12.491l1.257-20.738c-5.072 1.934-3.77 8.742-3.77 13.197z"/>
<path d="m387.466 342.726.629.628z" fill="#0f0e07"/>
<path d="m433.343 342.726.628.628z" fill="#0e0b05"/>
<path d="m259.264 343.354.628.628z" fill="#0e0d08"/>
<path d="m355.416 343.982.628.629z" fill="#0f0e08"/>
<path d="m255.493 344.61.628.63z" fill="#0e0d08"/>
<path d="m348.503 344.61.628.63zm4.399.63.628.628z" fill="#0f0e08"/>
<path d="m353.53 345.868.629.628z" fill="#0f0e07"/>
<path d="m233.497 346.496.629.629zm61.588 0 .628.629z" fill="#0e0d08"/>
<path d="m379.925 347.125.629.628z" fill="#0f0e08"/>
<path d="m132.946 347.753.628.628z" fill="#0f0e07"/>
<path d="m269.947 347.753.629.628zm-38.335 1.257.628.628z" fill="#0e0d08"/>
<path d="m352.273 349.01.629.628z" fill="#0f0e08"/>
<path d="m393.75 349.01.63.628z" fill="#0f0d06"/>
<path d="m423.916 349.01.629.628z" fill="#0e0b05"/>
<path d="m427.059 349.01.628.628z" fill="#010101"/>
<path d="m134.203 349.638.628.629z" fill="#0f0e07"/>
<path d="m426.43 349.638.629.629z" fill="#0e0b05"/>
<path d="m296.97 350.267.629.628z" fill="#0e0d08"/>
<path d="m385.581 350.267.629.628z" fill="#0f0d06"/>
<path d="m425.802 350.267.628.628z" fill="#0e0b05"/>
<path d="m164.997 351.524.628.628zm94.267 0 .628.628zm40.22 1.257.629.628z" fill="#0e0d08"/>
<path d="m164.368 354.038.629.628z" fill="#0f0e08"/>
<path d="m305.14 354.666.629.628z" fill="#0e0d08"/>
<path d="M342.847 354.666c-4.432 7.857 2.027 24.046 3.142 32.68h-.628c-3.503-7.4-10.25-13.51-15.712-19.483-.77-.842-4.75-6.264-6.174-3.983-1.484 2.378 5.79 8.02 7.155 9.64 5.023 5.952 9.56 12.685 13.362 19.481 2.198 3.929 4.113 9.182 8.281 11.312-3.144-16.211-8.123-33.047-8.17-49.647z"/>
<path d="m385.581 354.666.629.628z" fill="#0f0d06"/>
<path d="m214.015 355.294.629.629z" fill="#010101"/>
<path d="m217.158 355.294.628.629zm45.876 0 .629.629z" fill="#0e0d08"/>
<path d="m358.558 355.294.628.629z" fill="#0f0e07"/>
<path d="m341.59 355.923.628.628z" fill="#0f0e08"/>
<path d="m423.288 355.923.628.628z" fill="#0e0b05"/>
<path d="m225.328 356.551.628.629z" fill="#0e0d08"/>
<path d="m263.663 356.551.628.629z" fill="#0f0e08"/>
<path d="m408.834 357.18.628.628zm8.17 0 .628.628z" fill="#0e0b05"/>
<path d="m214.015 357.808.629.629zm89.24 0 .628.629z" fill="#0e0d08"/>
<path d="m388.723 357.808.629.629z" fill="#0f0d06"/>
<path d="m163.111 358.437.629.628z" fill="#0f0e08"/>
<path d="m411.976 359.065.628.629z" fill="#0e0b05"/>
<path d="m198.933 359.694.628.628z" fill="#0e0d08"/>
<path d="m142.373 360.322.628.628z" fill="#0f0e07"/>
<path d="m305.14 360.322.629.628zm36.45 0 .628.628z" fill="#0f0e08"/>
<path d="m423.288 360.322.628.628z" fill="#0d0b05"/>
<path d="m283.919 230.449-4.59 12.932 9.595-6.675c-.167-3.224-1.913-5.339-5.005-6.257z" fill="url(#h)" style="fill:url(#h)" transform="translate(-294.149 13.78) scale(1.5065)"/>
<path d="m210.245 361.579.628.628zm96.152.628.628.629z" fill="#0e0d08"/>
<path d="m160.598 364.721.628.629z" fill="#0f0e08"/>
<path d="m396.265 364.721.628.629z" fill="#0f0d06"/>
<path d="m327.136 365.35.628.628z" fill="#0f0e08"/>
<path d="m189.506 365.978.629.628z" fill="#0e0d08"/>
<path d="m237.896 365.978-.628.628c3.075 8.447 6.102 15.446 7.592 24.51.692 4.21.262 9.689 3.72 12.569 3.533-6.705 4.806-14.485 8.033-21.367 1.852-3.951 4.875-7.42 3.907-11.94-6.04 2.97-9.605 16.385-11.312 22.623-3.117-8.308-2.163-22.745-11.312-27.023z"/>
<path d="m324.622 367.235.628.628zm.628.628.629.629z" fill="#0f0e08"/>
<path d="m200.818 368.492.629.628z" fill="#0e0d08"/>
<path d="m325.879 368.492.628.628z" fill="#0f0e08"/>
<path d="m151.17 369.12.63.629z" fill="#0f0e07"/>
<path d="m164.368 369.12.629.629z" fill="#0f0e08"/>
<path d="m200.818 369.12.629.629z" fill="#fff"/>
<path d="m326.507 369.12.629.629z" fill="#0f0e08"/>
<path d="m411.976 369.12.628.629z" fill="#010101"/>
<path d="m203.96 369.749.629.628zm54.675.628.629.629z" fill="#0e0d08"/>
<path d="m342.847 370.377.628.629z" fill="#0f0e07"/>
<path d="m260.52 371.006.629.628z" fill="#0e0d08"/>
<path d="m332.163 371.006.629.628z" fill="#0f0e08"/>
<path d="m332.792 371.634.628.628z" fill="#0f0d06"/>
<path d="m154.942 372.262.628.629zm47.133 0 .628.629z" fill="#0f0e07"/>
<path d="M280.63 372.262c7.107 14.113 12.368 27.387 16.34 42.735 4.432-2.484 3.822-6.872 3.773-11.312-.114-10.342 3.858-20.638 3.14-30.794-2.966 1.016-3.496 4.055-4.012 6.913-1.24 6.857-1.262 13.936-2.9 20.739-3.408-7.918-6.11-26.642-16.34-28.28z"/>
<path d="m282.516 372.262.628.629z" fill="#0e0d08"/>
<path d="m383.067 372.262.629.629z" fill="#0f0d06"/>
<path d="m240.41 372.89.629.63z" fill="#0e0d08"/>
<path d="m330.278 372.89.628.63zm-167.167.63.629.628z" fill="#0f0e07"/>
<path d="m210.873 373.52.629.628z" fill="#0e0d08"/>
<path d="m301.37 373.52.628.628z" fill="#0f0e08"/>
<path d="m408.834 373.52.628.628z" fill="#0f0d06"/>
<path d="m133.574 374.148.629.628z" fill="#0d0b05"/>
<path d="m300.74 374.776.63.629zm-127.574 1.257.629.629z" fill="#0f0e08"/>
<path d="m255.493 376.033.628.629zm3.77 0 .629.629z" fill="#0e0d08"/>
<path d="m332.792 376.033.628.629zm-160.254.629.628.628z" fill="#0f0e07"/>
<path d="m384.953 376.662.628.628z" fill="#0f0d06"/>
<path d="m406.32 376.662.628.628z" fill="#0d0b05"/>
<path d="m171.91 377.29.628.628z" fill="#0f0e08"/>
<path d="m258.635 377.29.629.628z" fill="#0e0d08"/>
<path d="m286.915 377.29.629.628z" fill="#0f0e08"/>
<path d="m469.553 241.295-2.92 5.006 9.178 4.171z" fill="url(#i)" style="fill:url(#i)" transform="translate(-294.149 13.78) scale(1.5065)"/>
<path d="m338.448 377.918.628.629z" fill="#0f0e07"/>
<path d="m258.007 378.547.628.628z" fill="#0e0d08"/>
<path d="m284.401 379.175.629.629z" fill="#0f0e08"/>
<path d="m127.29 379.804.628.628z" fill="#0d0b05"/>
<path d="m177.566 379.804.628.628z" fill="#0f0e08"/>
<path d="m126.033 380.432.628.629z" fill="#fff"/>
<path d="m253.608 380.432.628.629z" fill="#0e0d08"/>
<path d="m285.03 380.432.628.629z" fill="#0f0e08"/>
<path d="m403.178 380.432.628.629z" fill="#0e0b05"/>
<path d="m285.658 381.69.629.628zm3.77 0 .63.628zm-3.141 1.256.628.628zm3.77 0 .629.628zm-37.706.628.628.629zm3.142 0 .628.629z" fill="#0f0e08"/>
<path d="m364.842 383.574.629.629z" fill="#0f0d06"/>
<path d="m290.686 384.203.628.628z" fill="#0f0e08"/>
<path d="m409.462 384.831.629.629z" fill="#010101"/>
<path d="m164.368 385.46.629.628z" fill="#0f0e07"/>
<path d="m235.383 386.088.628.629z"/>
<path d="m339.705 386.088.628.629z" fill="#0f0e07"/>
<path d="m251.094 386.717.628.628z" fill="#0f0e08"/>
<path d="m369.241 386.717.629.628z" fill="#0f0d06"/>
<path d="m175.052 387.345.628.629z" fill="#0f0e07"/>
<path d="m236.64 387.345.628.629z" fill="#0f0e08"/>
<path d="m371.755 388.602.629.629zm-40.22.629.628.628zm1.257 0 .628.628z" fill="#0f0d06"/>
<path d="m160.598 389.859.628.628z" fill="#0f0e07"/>
<path d="m249.837 389.859.628.628z" fill="#0f0e08"/>
<path d="m342.218 389.859.629.628zm-159.625 2.514.629.628z" fill="#0f0e07"/>
<path d="m261.149 392.373.628.628zM158.084 393l.628.629z" fill="#0f0e08"/>
<path d="m349.76 393.001.628.629z" fill="#0f0d06"/>
<path d="m294.456 393.63.629.628zm-109.349.628.628.628z" fill="#0f0e07"/>
<path d="m344.732 394.258.629.628z" fill="#0f0d06"/>
<path d="m306.397 394.886.628.629z" fill="#0f0e07"/>
<path d="m186.364 395.515.628.628z" fill="#0f0e08"/>
<path d="m380.554 396.143.628.629z" fill="#0e0b05"/>
<path d="m155.57 396.772.628.628z" fill="#0f0e07"/>
<path d="m245.438 396.772.628.628z" fill="#0f0e08"/>
<path d="m283.773 396.772.628.628z" fill="#0f0e07"/>
<path d="m381.182 396.772.628.628z" fill="#0e0b05"/>
<path d="m209.616 397.4.629.629zm86.097.629.629.628zm-104.95.628.628.629zm123.175 0 .629.629zm-121.29 1.257.629.629zm117.52.629.628.628zm-84.84.628.628.628zm90.496 0 .628.628zm-91.125 1.257.629.628zm-25.766.628.628.629zm8.17 0 .628.629zm109.978 0 .628.629zm-116.263.629.629.628zm65.987.628.628.629z" fill="#0f0e07"/>
<path d="m318.96 260.067-.835 12.932c3.667-3.916 9.78-12.145.835-12.932z" fill="url(#j)" style="fill:url(#j)" transform="translate(-294.149 13.78) scale(1.5065)"/>
<path d="m227.841 405.57.629.629z" fill="#0f0e07"/>
<path d="m369.241 408.084.629.628z" fill="#0e0b05"/>
<path d="m394.38 408.084.628.628z" fill="#0d0b05"/>
<path d="m301.37 408.712.628.629z" fill="#0f0e07"/>
<path d="m366.728 409.34.628.63z" fill="#0e0b05"/>
<path d="m269.319 410.598.628.628zm26.394 0 .629.628z" fill="#0f0e07"/>
<path d="m362.329 411.226.628.629z" fill="#0d0b05"/>
<path d="m299.484 413.111.629.629z" fill="#0f0e07"/>
<path d="m317.709 413.111.628.629z" fill="#0f0d06"/>
<path d="m358.558 413.111.628.629z" fill="#0e0b05"/>
<path d="m226.584 413.74.629.628zm72.272 0 .628.628z" fill="#0f0e07"/>
<path d="m357.301 413.74.629.628z" fill="#0e0b05"/>
<path d="m284.401 414.997.629.628z" fill="#0f0e07"/>
<path d="m318.337 414.997.629.628zm5.028 0 .628.628z" fill="#0f0d06"/>
<path d="m190.135 416.254.628.628z" fill="#0d0b05"/>
<path d="m236.011 416.882.629.629zm35.822 1.257.628.628z" fill="#0f0e07"/>
<path d="m346.618 418.139.628.628zm-1.886.628.629.629z" fill="#0e0b05"/>
<path d="m400.035 419.396.629.628zm1.257 0 .629.628z" fill="#0d0b05"/>
<path d="m340.333 420.024.628.629z" fill="#0f0d06"/>
<path d="M429.089 272.582c1.607 3.45 5.253 7 8.343 9.177l-3.754-11.68z" fill="url(#k)" style="fill:url(#k)" transform="translate(-294.149 13.78) scale(1.5065)"/>
<path d="m325.879 421.281.628.629zm-109.35 1.257.629.629z" fill="#0f0d06"/>
<path d="m255.493 422.538.628.629z" fill="#0f0e07"/>
<path d="m353.53 423.167.629.628z" fill="#0d0b05"/>
<path d="m261.149 423.795.628.628z" fill="#0f0d06"/>
<path d="m354.787 428.194.629.629zm.629.629.628.628z" fill="#0d0b05"/>
<path d="M358.172 290.52h.418l3.754-13.35-4.748-.806-.258 3.726z" fill="url(#l)" style="fill:url(#l)" transform="translate(-294.149 13.78) scale(1.5065)"/>
<path d="m356.044 429.451.629.628zm6.285 2.514.628.628z" fill="#0d0b05"/>
<path d="m392.796 279.673 4.59 13.35c1.03-2.387 4.207-11.603 1.952-13.515-1.746-1.48-4.647-.336-6.542.165z" fill="url(#m)" style="fill:url(#m)" transform="translate(-294.149 13.78) scale(1.5065)"/>
<path d="m298.856 434.479.628.628z" fill="#0d0b05"/>
<path d="m360.443 434.479.629.628zm-29.537 2.513.629.629z" fill="#010101"/>
<path d="m363.586 437.62.628.63zm-65.359.63.629.628zm65.987 0 1.257 1.256z" fill="#0d0b05"/>
<path d="m364.842 438.25.629.628z" fill="#fff"/>
<path d="m334.049 439.506.628.629z" fill="#0e0b05"/>
<path d="m248.58 440.135.628.628z" fill="#0d0b05"/>
<path d="M434.9 286.539c-2.487-.453-4.432-2.302-4.432-4.213 0-1.805 1.156-3.626 5.862-9.237 3.754-4.476 3.3-4.358-3.646.952-7.682 5.873-13.182 8.108-20.85 8.475-3.56.17-6.474.081-6.474-.198s1.05-1.39 2.332-2.469c1.282-1.08 5.588-6.32 9.568-11.645 7.27-9.727 10.817-13.024 15.488-14.395 7.387-2.167 16.898 3.54 19.039 11.422 1.987 7.319-4.466 19.105-11.536 21.068-1.522.423-2.933.725-3.136.672-.203-.053-1.2-.248-2.216-.432z" fill="#fef666"/>
<path d="M424.93 328.668c-2.419-.671-5.532-3.195-7.796-6.32-2.696-3.722-4.599-8.816-7.795-20.872-1.4-5.28-2.713-10.147-2.918-10.815-1.033-3.369 6.311-5.082 15.292-3.567 7.067 1.192 9.665 3.563 10.932 9.977.48 2.423.962 4.737 1.073 5.144.11.406.632-1.537 1.158-4.318.585-3.092 1.601-5.807 2.617-6.987l1.66-1.93 2.693 1.817c4.231 2.855 6.626 8.458 6.582 15.396-.063 9.818-4.106 17.469-10.924 20.674-3.374 1.586-9.952 2.528-12.574 1.8z" fill="#fef67a"/>
<circle cx="434.5" cy="434.5" r="77.5" fill="#fff"/>
<path d="M425.077 383.035h-35.382a1.513 1.513 0 0 0 0 3.028h32.771c.234-.348.476-.694.726-1.039l1.108-1.53z" fill="#e91f63"/>
<path d="M414.021 402.627c-.263.699-.54 1.435-.82 2.205H375.77a1.514 1.514 0 0 1 0-3.027h38.595l-.109.196z" fill="#e91f63" fill-opacity=".7"/>
<path d="M409.981 420.271h-40.266a1.514 1.514 0 0 0 0 3.028h39.851l.025-.131.009-.045c.188-.955.311-1.593.388-2.094a32.024 32.024 0 0 1-.007-.758z" fill="#e91f63" fill-opacity=".3"/>
<path d="M411.238 439.041h-43.037a1.513 1.513 0 0 0 0 3.027h45.341a48.1 48.1 0 0 0-.91-1.146 15.72 15.72 0 0 1-1.394-1.881z" fill="#e91f63"/>
<path d="M422.95 457.508h-50.208a1.513 1.513 0 0 0 0 3.027h51.827c-.299-.577-.6-1.152-.904-1.726l-.715-1.301z" fill="#e91f63" fill-opacity=".6"/>
<path d="M431.847 476.277h-46.995a1.514 1.514 0 0 0 0 3.028h48.221c-.401-1.013-.81-2.022-1.226-3.028zm16.361-102.063c-.594 2.65-4.774-.583-5.567 2.416-4.681-3.297-.287 3.568-.907 4.002l-.038-.007-.372-.113c-.23-.137-.56-.362-1.028-.795-4.15 2.151-5.404 8.069-9.75 10.636-3.452 4.764-5.167 10.326-8.025 15.473-1.903 5.057-3.702 10.134-3.432 15.619-.448 4.333-2.816 9.88.477 13.611 4.823 5.851 8.423 12.775 12.089 19.435 5.731 10.792 10.419 22.137 14.341 33.647.902-2.5.33 5.446 1.953 6.309.166-3.997.605-10.315 1.172-15.18.545-12.904-3.392-25.427-3.272-38.289.032-.537.054-1.091.086-1.638l.306-1.556-.189-.038c.446-6.278 1.481-12.972 6.866-16.837 5.451-3.689 12.452-3.51 18.54-5.621a18.854 18.854 0 0 1 4.131-.967c.012-.001.027.009.038.008 4.025-.424 8.067.41 11.881 1.827.056.021.126.054.182.075.347.131.723.268 1.065.407 2.831.824 8.409 3.097 9.848 1.308-3.308-4.176-9.096-5.063-13.709-7.361-.74-.291-1.657-.63-2.588-.904l-4.545-2.001-1.119-.536-.007.038-16.373-6.661a8.372 8.372 0 0 0-.702-.848l16.133 5.312.015-.076c.558.245 1.116.465 1.691.649l-.007.038 11.272 4.469c1.87 1.152 3.912 2.135 5.904 2.666 3.237 1.142 6.501 6.953 7.535 7.409.496-5.347-4.269-8.723-8.309-11.111-4.584-3.467-12.18-4.862-11.687-11.852-.12-.517-.237-1.033-.406-1.545l-1.452-3.015.083-.023c-2.072-3.717-5.411-6.775-9.273-8.458-3.728-2.175-7.956-4.435-12.117-5.823-2.268 3.949-2.379-3.955-6.277-2.381-3.098-.238-2.842.644-4.714-1.718zm19.323 16.692c1.103.187 2.313.635 3.492 1.319 3.128 1.821 4.834 4.704 3.823 6.438-1.011 1.733-4.38 1.651-7.506-.178-3.127-1.828-4.844-4.655-3.83-6.401.632-1.087 2.188-1.489 4.021-1.178z" fill="#e91f63"/>
<path d="M466.591 399.038c3.134 2.005 6.718 2.001 8.004-.009 1.286-2.01-.212-5.265-3.347-7.27-3.134-2.005-6.717-2.001-8.003.009-1.286 2.01.212 5.265 3.346 7.27z"/>
<path fill-rule="evenodd" clip-rule="evenodd" d="M471.284 399.026c1.138-.001 1.765-.39 2.036-.812.27-.423.36-1.156-.116-2.189-.467-1.015-1.411-2.121-2.771-2.991-1.36-.87-2.76-1.264-3.878-1.263-1.137.002-1.765.39-2.035.813-.27.422-.36 1.155.116 2.188.467 1.015 1.411 2.121 2.771 2.991 1.36.87 2.76 1.264 3.877 1.263zm3.311.003c-1.286 2.01-4.87 2.014-8.004.009-3.134-2.005-4.632-5.26-3.346-7.27 1.286-2.01 4.869-2.014 8.003-.009 3.135 2.005 4.633 5.26 3.347 7.27z" fill="#fff"/>
</svg>
