<svg width="512" height="512" viewBox="0 0 512 512" fill="none" xmlns="http://www.w3.org/2000/svg">
<circle cx="256" cy="256" r="256" fill="white"/>
<path fill-rule="evenodd" clip-rule="evenodd" d="M281.904 192.046C291.105 183.433 303.139 178.955 315.832 179.41L315.847 179.414C341.996 180.333 362.464 202.269 361.582 228.371C361.18 240.956 355.866 252.631 346.631 261.285C337.377 269.897 325.282 274.376 312.596 273.993C286.493 273.036 266.018 251.069 266.899 224.96C267.283 212.325 272.707 200.658 281.904 192.046ZM302.575 217.151C302.575 224.845 311.96 231.123 323.579 231.123C335.192 231.123 344.603 224.845 344.611 217.151C344.611 209.385 335.199 203.142 323.579 203.142C311.96 203.142 302.575 209.385 302.575 217.151Z" fill="#73BA25"/>
<path fill-rule="evenodd" clip-rule="evenodd" d="M430.46 289.715C429.631 290.281 428.692 290.921 427.662 291.601L427.705 291.597H427.708L427.678 291.618C412.058 302.531 375.617 327.992 328.839 323.834C286.784 320.121 231.887 296.045 165.68 252.485C168.632 259.379 182.437 291.949 184.695 297.461L185.619 298.529C195.203 303.505 287.172 350.283 332.83 349.361C369.594 348.595 408.943 330.685 424.684 321.227L429.645 320.308C431.067 321.422 430.837 323.524 430.446 325.51C429.48 330.023 427.271 338.253 425.773 342.161L424.511 345.342C422.706 350.161 420.98 354.639 417.645 357.399C408.364 365.816 393.566 372.515 370.377 382.582C334.532 398.237 276.376 408.189 222.399 407.848C203.046 407.42 184.369 405.276 167.961 403.362L167.841 403.349C123.92 398.398 90.6415 394.647 77.955 424.301C36.4503 380.409 11 321.177 11 256C11 200.694 29.3253 149.669 60.235 108.664C100.08 118.449 129.031 127.838 136.487 130.339C136.579 126.668 137.192 93.8263 137.192 93.8263L137.668 92.678L138.933 92.3297C146.37 93.4015 305.082 116.904 372.017 155.831C378.843 159.819 382.816 164.013 386.864 168.286C387.716 169.185 388.571 170.088 389.457 170.993C407.935 190.093 432.389 269.518 435 285.901L433.969 287.505C433.333 287.755 432.115 288.586 430.46 289.715ZM267.662 177.611C254.406 189.936 246.811 206.74 246.14 224.845H246.179C244.914 262.204 274.283 293.671 311.657 295.046C329.89 295.658 347.156 289.266 360.421 276.826C373.647 264.539 381.237 247.735 381.943 229.63C383.208 192.306 353.808 160.765 316.388 159.43C298.235 158.855 280.927 165.244 267.662 177.611Z" fill="#73BA25"/>
</svg>
