<?xml version="1.0" encoding="UTF-8"?>
<svg xmlns="http://www.w3.org/2000/svg" xmlns:xlink="http://www.w3.org/1999/xlink" width="512" height="512" viewBox="0 0 512 512" version="1.1">
<g id="surface1">
<path style=" stroke:none;fill-rule:nonzero;fill:rgb(0%,13.333334%,16.862746%);fill-opacity:1;" d="M 383.992188 477.699219 L 127.996094 477.699219 L 0.00390625 255.996094 L 128 34.304688 L 383.996094 34.304688 L 511.992188 256 Z M 383.992188 477.699219 "/>
<path style=" stroke:none;fill-rule:nonzero;fill:rgb(0%,40.000001%,50.196081%);fill-opacity:1;" d="M 137.921875 51.523438 L 84.453125 144.066406 L 137.292969 174.574219 L 173.148438 112.5 L 244.832031 112.5 L 244.832031 51.484375 Z M 267.164062 51.523438 L 267.164062 112.539062 L 338.847656 112.539062 L 374.703125 174.574219 L 427.542969 144.066406 L 374.074219 51.457031 Z M 438.714844 163.476562 L 385.875 193.984375 L 421.703125 256.035156 L 385.847656 318.144531 L 438.6875 348.652344 L 492.15625 256.042969 Z M 73.285156 163.476562 L 19.847656 256 L 73.316406 348.609375 L 126.152344 318.101562 L 90.296875 255.996094 L 126.125 193.945312 Z M 137.285156 337.449219 L 84.445312 367.957031 L 137.886719 460.515625 L 244.792969 460.515625 L 244.792969 399.5 L 173.148438 399.5 Z M 374.636719 337.449219 L 338.808594 399.5 L 267.167969 399.5 L 267.167969 460.515625 L 374.082031 460.515625 L 427.515625 367.957031 Z M 374.636719 337.449219 "/>
<path style=" stroke:none;fill-rule:nonzero;fill:rgb(0%,53.333336%,66.666669%);fill-opacity:1;" d="M 183.914062 131.144531 L 153.40625 183.921875 L 199.023438 210.261719 L 214.292969 183.8125 L 244.800781 183.8125 L 244.800781 131.136719 Z M 267.167969 131.144531 L 267.167969 183.820312 L 297.675781 183.820312 L 312.945312 210.265625 L 358.5625 183.929688 L 328.054688 131.148438 Z M 142.269531 203.269531 L 111.863281 255.996094 L 142.371094 308.773438 L 187.984375 282.433594 L 172.714844 255.988281 L 187.953125 229.597656 Z M 369.722656 203.269531 L 324.105469 229.609375 L 339.34375 256 L 324.070312 282.445312 L 369.6875 308.785156 L 400.195312 256.003906 Z M 199.085938 301.789062 L 153.472656 328.128906 L 183.910156 380.859375 L 244.824219 380.859375 L 244.824219 328.183594 L 214.316406 328.183594 Z M 312.910156 301.789062 L 297.671875 328.179688 L 267.164062 328.179688 L 267.164062 380.855469 L 328.078125 380.855469 L 358.519531 328.125 Z M 312.910156 301.789062 "/>
<path style=" stroke:none;fill-rule:nonzero;fill:rgb(0%,66.666669%,83.137256%);fill-opacity:1;" d="M 286.265625 308.421875 L 225.730469 308.421875 L 195.460938 256 L 225.730469 203.574219 L 286.265625 203.574219 L 316.535156 256 Z M 286.265625 308.421875 "/>
</g>
</svg>
