<svg width="512" height="512" viewBox="0 0 135.467 135.467" xmlns="http://www.w3.org/2000/svg">
<path style="display:inline;fill:#dc322f;fill-opacity:1;stroke:none;stroke-width:1.40735;stroke-dasharray:1.40735,1.40735;stop-color:#000" d="M268.037 181.63a64 64 0 0 0-64 64 64 64 0 0 0 1.248 11.952l-.431-1.756c-23.591 16.414-25.567 32.78 10.568 26.242l.015-.006c2.941-.87 5.838-1.754 8.694-2.656 1.215-.383 2.426-.772 3.635-1.166a446.435 446.435 0 0 0 8.244-2.766l.25-.085a398.897 398.897 0 0 0 19.726-7.424c.126-.05.254-.096.38-.147.006 0 .01 0 .017-.002a47.5 47.5 0 0 1-.008-.01c10.857-4.437 21.17-9.248 31.123-14.517a14 14 0 0 0 8.01 2.521 14 14 0 0 0 14-14 14 14 0 0 0-.055-1.236c9.57-6.034 18.925-12.591 28.26-19.762 1.28-2.424-.513-8.229-6.125-6.785-8.344 6.772-16.98 12.819-25.809 18.271a14 14 0 0 0-10.271-4.488 14 14 0 0 0-14 14 14 14 0 0 0 .488 3.63c-10.664 5.278-21.473 9.898-32.272 14.06a47.5 47.5 0 0 1-7.795-25.786 47.5 47.5 0 0 1 47.5-47.5 47.5 47.5 0 0 1 2.56.07 64 64 0 0 0-23.952-4.654zm63.031 74.882a47.5 47.5 0 0 1-41.638 24.703 47.5 47.5 0 0 1-27.344-8.676.42.42 0 0 1-.006.012c-12.355 5.049-25.251 10.103-42.24 15.187a64 64 0 0 0 48.197 21.893 64 64 0 0 0 63.031-53.12zm-124.162 7.646a64 64 0 0 0 3.47 8.977l-.11.035c-18.376 4.448-8.025-2.432-2.924-7.24z" transform="scale(.26458)"/>
</svg>
