<svg width="512" height="512" viewBox="0 0 136.095 136.095" xmlns="http://www.w3.org/2000/svg">
<ellipse cx="65.985" cy="70.068" fill="#4c5263" rx="65.985" ry="65.952" style="stroke-width:1.03076"/>
<path d="M42.272-.006C32.227 32.952 17.142 64.116.343 94.112c-.223 2.31 5.117 2.327 6.965 3.086 20.456 3.565 41.199 5.131 61.861 7.02 1.27-.539 5.327 1.71 4.542-.897-1.624-20.926-3.2-41.856-4.922-62.774-8.104-13.038-15.53-26.56-24.72-38.883-.541-.611-1.043-1.296-1.797-1.67Zm2.062 9.274c6.381 11.299 14.465 21.54 20.62 32.976 1.478 19.146 2.662 38.312 4.012 57.466-20-1.77-40.055-3.374-59.871-6.698-5.75-.659.47-5.815 1.308-8.756 12.713-22.807 25.51-45.928 32.907-71.103.362-1.29.704-2.584 1.023-3.885z" fill="#4c5263" style="color:#000;text-indent:0;text-decoration-line:none;text-decoration-style:solid;text-decoration-color:#000;text-transform:none;white-space:normal;isolation:auto;mix-blend-mode:normal;fill-rule:evenodd;stroke-width:1.03076"/>
<path d="M130.579 83.619c-9.636 12.992-27.435 19.936-48.639 23.015-22.122 3.213-47.775 2.258-70.665.304 1.096 1.636 2.3 3.223 3.539 4.756 22.035 1.746 46.311 2.46 67.767-.657 17.894-2.598 34.065-7.87 45.157-17.669a63.657 63.625 0 0 0 2.84-9.748z" fill="#fff" style="color:#000;text-indent:0;text-decoration-line:none;text-decoration-style:solid;text-decoration-color:#000;text-transform:none;white-space:normal;isolation:auto;mix-blend-mode:normal;fill-rule:evenodd;stroke-width:1.03076"/>
<path d="m77.327 48.427-1.061 4.637c9.392 6.439 19.497 12.114 27.524 20.308 4.248 4.296 7.532 10.135 6.885 16.359-.206 2.915-1.194 5.683-1.92 8.493 5.737-1.947 11.482-4.258 16.046-8.368 4.98-4.219 8.513-9.828 11.294-15.666-3.396-3.576-7.125-6.872-11.494-9.221-10.424-5.775-21.936-9.172-33.257-12.706-4.644-1.38-9.31-2.692-14.017-3.836zm12.306 8.193c12.819 3.635 25.837 7.596 37.09 14.934 1.578 1.419 5.496 2.721 3.015 5.07-3.5 6-8.49 11.268-14.772 14.367.958-7.906-2.87-15.599-8.342-21.092-5.038-5.165-11.034-9.26-16.99-13.28Z" fill="#4c5263" style="color:#000;text-indent:0;text-decoration-line:none;text-decoration-style:solid;text-decoration-color:#000;text-transform:none;white-space:normal;isolation:auto;mix-blend-mode:normal;fill-rule:evenodd;stroke-width:1.03076"/>
<ellipse cx="66.068" cy="69.995" fill="none" rx="66.063" ry="66.029" style="stroke-width:1.03076"/>
<path d="M82.575 111.04c-22.423 3.163-45.262 2.379-67.763.659 14.48 18.456 39.646 27.757 62.892 23.275 22.435-3.854 42.1-20.276 50.022-41.581-13.323 9.446-29.063 15.178-45.15 17.648z" fill="#5294e2" style="stroke-width:1.03076"/>
<path d="M70.11 44.305c9.937 20.46 9.946 40.704 4.124 55.647 8.198.05 21.577.969 36.085-6.183-11.925-27.215-40.21-49.464-40.21-49.464zM44.333 9.268c-6.703 27.341-26 60.987-38.148 82.44l10.738 2.572c6.775.967 15.118 1.922 23.219 2.763C55 98.586 66.853 99.77 69.08 99.953c-.318-4.132-3.376-49.053-4.125-57.709-7.498-13.58-13.58-20.598-20.62-32.976zm45.365 47.403c6.166 4.13 12.042 7.9 16.496 12.366 6.032 6.05 9.114 14.2 8.248 22.671 8.081-4.058 13.424-10.826 16.497-16.488-5.373-4.945-14.703-9.838-24.745-13.396-5.536-1.962-11.367-3.744-16.496-5.153z" fill="#fff" fill-rule="evenodd" style="stroke-width:1.03076"/>
</svg>
