<svg width="512" height="512" viewBox="0 0 512 512" fill="none" xmlns="http://www.w3.org/2000/svg">
<g clip-path="url(#clip0_2_463)">
<circle cx="256" cy="256" r="256" fill="white"/>
<path d="M256 512C397.385 512 512 397.385 512 256C512 114.615 397.385 0 256 0C114.615 0 0 114.615 0 256C0 397.385 114.615 512 256 512Z" fill="#DD4814"/>
<path fill-rule="evenodd" clip-rule="evenodd" d="M388.553 414.749C388.553 422.09 386.376 429.265 382.296 435.367C378.217 441.47 372.419 446.225 365.637 449.032C358.854 451.838 351.391 452.57 344.193 451.134C336.994 449.697 330.383 446.158 325.197 440.964C320.01 435.77 316.481 429.153 315.056 421.953C313.631 414.752 314.374 407.29 317.19 400.512C320.007 393.734 324.771 387.943 330.88 383.873C336.989 379.803 344.167 377.637 351.508 377.648C361.338 377.663 370.76 381.578 377.706 388.534C384.652 395.491 388.553 404.919 388.553 414.749Z" fill="#F9F9F9"/>
<path d="M386.906 106.765C391.971 86.9098 379.981 66.7087 360.126 61.6441C340.272 56.5795 320.07 68.5692 315.006 88.424C309.941 108.279 321.931 128.48 341.786 133.545C361.641 138.609 381.842 126.619 386.906 106.765Z" fill="#F9F9F9"/>
<path d="M108.356 259.527C110.045 239.106 94.8609 221.182 74.4401 219.492C54.0193 217.803 36.0952 232.987 34.4056 253.408C32.7159 273.829 47.9005 291.753 68.3213 293.443C88.7421 295.132 106.666 279.948 108.356 259.527Z" fill="#F9F9F9"/>
<path fill-rule="evenodd" clip-rule="evenodd" d="M242.903 232.615L256.282 214.401L251.447 195.176L260.104 169.542L239.53 190.342L236.607 189.892L242.003 176.569L222.834 195.963L204.565 207.15L184.89 243.577L195.739 270.278L199.168 291.021L203.609 301.534L188.6 319.241H209.512L212.21 300.465L220.642 287.536L234.527 290.01L250.267 283.826L261.847 277.867L273.315 285.344L259.823 301.365L245.882 314.126L267.356 314.463L267.468 305.806L284.052 292.82L290.01 300.241L272.809 324.75L294.789 324.806L293.721 312.552L309.629 297.992L301.534 281.69L300.579 261.902L316.825 252.515L325.875 254.257L338.186 249.929L341.784 225.026L322.559 230.928L310.866 248.074L290.966 258.586L262.971 247.343L242.903 232.615Z" fill="#F9F9F9"/>
<path fill-rule="evenodd" clip-rule="evenodd" d="M214.571 160.773C229.808 153.991 246.43 150.904 263.086 151.762C279.741 152.62 295.959 157.399 310.418 165.711C324.877 174.022 337.168 185.631 346.292 199.592C355.415 213.553 361.113 229.471 362.921 246.05L420.428 245.263C417.505 206.183 400.602 169.463 372.814 141.829C365.494 145.477 357.38 147.247 349.205 146.979C341.03 146.71 333.05 144.412 325.984 140.291C318.919 136.17 312.99 130.355 308.731 123.372C304.473 116.388 302.019 108.455 301.591 100.286C287.277 96.3038 272.489 94.2804 257.631 94.2714C232.479 94.1995 207.654 99.9727 185.115 111.136L214.571 160.773Z" fill="#F9F9F9"/>
<path fill-rule="evenodd" clip-rule="evenodd" d="M194.67 342.739C181.206 332.805 170.289 319.821 162.814 304.852C155.339 289.883 151.518 273.355 151.666 256.624C151.815 239.893 155.927 223.436 163.666 208.601C171.405 193.767 182.55 180.979 196.187 171.285L166.787 121.873C133.694 144.012 109.825 177.476 99.6675 215.975C106.228 220.549 111.579 226.649 115.26 233.75C118.94 240.85 120.84 248.739 120.796 256.736C120.752 264.734 118.765 272.601 115.006 279.661C111.247 286.72 105.829 292.76 99.2178 297.261C109.107 336.364 133.141 370.413 166.675 392.826L194.67 342.739Z" fill="#F9F9F9"/>
<path fill-rule="evenodd" clip-rule="evenodd" d="M363.089 267.243C361.529 284.155 355.926 300.444 346.754 314.738C337.581 329.031 325.107 340.911 310.383 349.375C295.659 357.84 279.115 362.641 262.148 363.374C245.18 364.107 228.284 360.751 212.885 353.588L184.777 403.731C221.097 421.964 262.918 425.974 302.04 414.974C302.06 406.436 304.289 398.049 308.51 390.628C312.731 383.207 318.801 377.004 326.13 372.624C333.458 368.244 341.796 365.835 350.331 365.632C358.867 365.429 367.309 367.438 374.838 371.464C402.297 343.261 418.577 306.045 420.653 266.737L363.089 267.243Z" fill="#F9F9F9"/>
</g>
<defs>
<clipPath id="clip0_2_463">
<rect width="512" height="512" fill="white"/>
</clipPath>
</defs>
</svg>
