<svg width="512" height="512" viewBox="0 0 512 512" fill="none" xmlns="http://www.w3.org/2000/svg">
<ellipse cx="245.5" cy="255.5" rx="235.5" ry="240.5" fill="white"/>
<path fill-rule="evenodd" clip-rule="evenodd" d="M246.336 0.268936C196.488 2.75147 152.156 17.3047 112.865 44.0864C-19.9773 134.635 -37.4995 323.632 76.4028 437.376C190.289 551.106 379.335 532.287 468.581 398.334C554.035 270.071 508.276 95.8034 371.123 27.1818C332.705 7.96041 287.533 -1.78151 246.336 0.268936ZM321.475 40.8444C357.078 51.1324 389.726 70.3591 414.413 95.5781C420.131 101.421 422.409 106.048 422.682 112.377C423.419 129.472 403.517 140.749 389.328 131.273C388.461 130.694 385.517 128.039 382.786 125.371C360.514 103.626 339.057 90.9497 309.578 82.1223C306.891 81.3178 304.088 80.3555 303.349 79.9844C285.377 70.9635 289.698 43.0075 309.528 40.0054C314.916 39.1889 316.012 39.2658 321.475 40.8444ZM264.892 106.416C360.117 112.662 425.113 202.584 401.411 295.286C377.875 387.331 275.349 434.971 189.782 393.62C169.767 383.948 148.309 367.054 143.735 357.367C137.598 344.372 146.668 330.486 161.641 329.949C168.555 329.7 172.393 331.295 178.311 336.88C226.854 382.674 300.74 377.898 341.884 326.301C391.059 264.634 361.23 171.774 285.304 150.158C246.713 139.172 208.197 149.294 177.08 178.6C165.526 189.482 150.414 187.481 143.89 174.205C139.776 165.831 141.745 153.388 147.661 150.383C148.28 150.069 150.162 148.488 151.845 146.867C180.955 118.845 223.312 103.688 264.892 106.416ZM261.976 176.925C304.761 180.81 336.521 216.691 335.185 259.632C333.825 303.31 298.725 337.567 255.331 337.567C203.732 337.567 165.917 289.507 177.532 238.69C186.338 200.165 222.954 173.382 261.976 176.925ZM67.4654 184.761C76.7315 187.036 83.1585 196.768 81.8556 206.552C81.6886 207.808 81.0325 210.871 80.3989 213.359C72.8016 243.134 72.8122 269.709 80.4321 300.058C82.2479 307.293 82.2413 311.063 80.4016 315.639C74.4239 330.503 53.8359 333.347 43.5957 320.725C37.7412 313.508 32.022 281.83 32.0154 256.584C32.0101 234.298 37.2866 202.098 42.0568 195.313C48.4812 186.174 57.6718 182.357 67.4654 184.761ZM130.361 202.384C144.026 204.54 151.477 216.569 147.923 230.738C143.231 249.451 143.186 264.096 147.765 283.07C150.159 292.993 148.852 299.021 142.967 305.186C131.459 317.247 113.156 311.661 108.794 294.756C102.964 272.161 102.332 249.653 106.913 227.793C109.439 215.735 111.185 210.958 114.146 207.997C118.394 203.749 124.849 201.515 130.361 202.384ZM250.975 216.163C220.345 220.422 204.385 255.047 221.329 280.481C243.666 314.005 296.305 297.883 296.305 257.518C296.305 233.707 273.623 213.014 250.975 216.163ZM401.91 381.043C418.376 384.684 425.17 404.219 414.307 416.696C405.038 427.342 384.802 443.127 368.276 452.602C350.354 462.878 320.193 474.604 310.474 475.074C292.251 475.957 281.182 455.397 292.329 441.371C295.469 437.419 298.629 435.588 306.3 433.278C336.556 424.167 356.721 412.16 380.766 388.936C388.478 381.487 394.22 379.344 401.91 381.043Z" fill="#049CFC"/>
</svg>
