<svg width="512" height="512" fill="none" xmlns="http://www.w3.org/2000/svg">
<circle cx="256" cy="256" r="256" fill="#fff"/>
<path fill-rule="evenodd" clip-rule="evenodd" d="M246.885 9.604c-48.043 2.392-90.77 16.419-128.638 42.23C-9.787 139.106-26.674 321.26 83.104 430.887c109.763 109.612 291.965 91.474 377.979-37.628 82.361-123.62 38.259-291.579-93.929-357.716-37.027-18.525-80.563-27.914-120.269-25.938Zm72.419 39.106c34.313 9.916 65.779 28.446 89.573 52.752 5.511 5.631 7.707 10.091 7.97 16.191.71 16.476-18.472 27.345-32.147 18.212-.836-.558-3.673-3.117-6.306-5.688-21.465-20.958-42.145-33.175-70.557-41.683-2.589-.776-5.291-1.703-6.004-2.06-17.321-8.695-13.156-35.639 5.956-38.532 5.193-.787 6.249-.713 11.515.808Zm-54.535 63.198c91.777 6.019 154.421 92.686 131.576 182.032-22.684 88.712-121.498 134.627-203.967 94.774-19.29-9.322-39.971-25.604-44.38-34.941-5.914-12.524 2.827-25.908 17.258-26.425 6.664-.24 10.363 1.298 16.067 6.68 46.785 44.137 117.996 39.533 157.651-10.196 47.394-59.434 18.645-148.932-54.532-169.766-37.194-10.589-74.315-.833-104.306 27.413-11.135 10.488-25.701 8.559-31.988-4.236-3.966-8.071-2.067-20.064 3.634-22.96.597-.302 2.411-1.826 4.033-3.389 28.056-27.007 68.88-41.615 108.954-38.986Zm-2.81 67.956c41.236 3.744 71.846 38.326 70.558 79.713-1.31 42.097-35.139 75.114-76.963 75.114-49.731 0-86.176-46.321-74.982-95.298 8.487-37.13 43.778-62.943 81.387-59.529ZM74.49 187.416c8.93 2.193 15.125 11.573 13.87 21.003-.162 1.21-.794 4.162-1.404 6.56-7.323 28.697-7.313 54.31.031 83.56 1.75 6.973 1.744 10.606-.029 15.018-5.761 14.325-25.604 17.066-35.473 4.901-5.643-6.956-11.155-37.487-11.161-61.819-.005-21.479 5.08-52.514 9.678-59.053 6.191-8.808 15.05-12.487 24.488-10.17Zm60.619 16.985c13.17 2.079 20.351 13.672 16.926 27.327-4.522 18.037-4.566 32.151-.152 50.438 2.307 9.564 1.047 15.374-4.624 21.315-11.092 11.625-28.733 6.241-32.937-10.052-5.618-21.777-6.227-43.47-1.813-64.539 2.435-11.621 4.118-16.225 6.972-19.079 4.094-4.094 10.315-6.248 15.628-5.41Zm116.247 13.281c-29.521 4.104-44.903 37.476-28.572 61.989 21.527 32.31 72.261 16.772 72.261-22.132 0-22.949-21.861-42.892-43.689-39.857Zm145.471 158.91c15.869 3.509 22.418 22.337 11.948 34.362-8.934 10.26-28.438 25.475-44.365 34.606-17.273 9.904-46.342 21.206-55.709 21.659-17.564.851-28.232-18.965-17.488-32.483 3.026-3.809 6.071-5.573 13.465-7.8 29.16-8.781 48.595-20.353 71.77-42.737 7.433-7.179 12.967-9.245 20.379-7.607Z" fill="#049CFC"/>
</svg>
