<svg width="512" height="512" viewBox="0 0 512 512" fill="none" xmlns="http://www.w3.org/2000/svg">
<circle cx="256" cy="256" r="256" fill="white"/>
<path fill-rule="evenodd" clip-rule="evenodd" d="M248.81 0.0703967C110.489 3.37588 0.108937 116.526 8.63529e-05 255.124C-0.144589 436.778 181.527 560.415 350.496 493.656C468.098 447.191 534.117 319.986 504.756 196.428C502.982 188.961 501.666 184.246 498.912 175.484C482.012 121.731 441.252 69.9361 391.266 38.6945C385.347 34.995 382.367 33.3264 370.22 26.9083C336.412 9.04714 291.216 -0.943707 248.81 0.0703967ZM317.978 80.5773C333.797 89.9302 335.525 90.9512 364.825 108.246C389.273 122.678 393.227 125.015 395.591 126.43C398.31 128.057 399.904 126.877 375.848 141.038C352.368 154.859 319.181 174.415 308.315 180.833C304.212 183.255 300.306 185.533 299.635 185.893L298.413 186.546V127.776V69.0046L300.479 70.2296C301.616 70.9033 309.49 75.5591 317.978 80.5773ZM269.934 100.037C278.066 100.777 277.453 99.8356 277.453 111.552C277.453 123.717 278.248 122.776 268.892 121.684C213.207 115.189 157.397 147.011 132.892 199.229L130.037 205.312L125.078 202.337C122.35 200.7 118.32 198.319 116.122 197.044C111.321 194.259 111.364 194.821 115.354 186.711C122.658 171.871 138.693 149.79 146.736 143.493C147.556 142.852 149.59 141.036 151.257 139.46C181.027 111.298 226.754 96.1085 269.934 100.037ZM270.58 153.699C273.308 154.174 275.85 154.674 276.229 154.811C276.748 154.997 276.918 157.724 276.918 165.89V176.724L275.127 176.356C232.886 167.681 192.732 189.267 179.071 227.996C177.158 233.416 177.589 233.305 171.849 229.878C169.163 228.274 165.051 225.859 162.713 224.51C157.848 221.703 157.965 221.995 159.85 217.356C177.737 173.333 225.547 145.848 270.58 153.699ZM384.033 166.253C416.972 212.496 421.43 275.045 395.434 326.209C389.016 338.842 381.18 350.563 379.567 349.944C374.841 348.131 361.817 339.496 362.462 338.603C382.653 310.666 390.205 287.975 390.156 255.4C390.11 225.521 378.98 191.54 363.846 175.074C362.425 173.528 361.941 173.956 371.887 167.942C381.904 161.883 381.01 162.007 384.033 166.253ZM336.556 191.881C338.665 194.125 343.632 201.633 346.516 206.931C365.641 242.071 362.491 285.382 338.478 317.444L334.178 323.186L332.373 322.223C327.073 319.397 315.512 312.381 315.506 311.987C315.502 311.735 316.952 309.751 318.728 307.578C343.313 277.486 343.427 233.339 318.995 204.331C315.855 200.603 315.389 201.258 325.281 195.471C335.137 189.704 334.656 189.857 336.556 191.881ZM86.1204 203.948C92.0879 207.477 100.194 212.278 104.134 214.617C108.075 216.955 115.64 221.415 120.944 224.528C126.249 227.64 131.705 230.87 133.07 231.704C134.434 232.537 140.386 236.067 146.297 239.549C170.064 253.545 173.303 255.505 173.303 255.875C173.303 256.087 171.009 257.609 168.205 259.255C165.401 260.903 160.751 263.646 157.871 265.354C148.405 270.964 131.38 281.001 116.811 289.56C108.929 294.191 101.365 298.659 100.001 299.49C93.6366 303.37 75.6955 313.878 74.9418 314.166C74.0558 314.506 73.5805 198.781 74.4651 197.898C75.0162 197.345 74.5367 197.096 86.1204 203.948ZM178.24 281.441C189.643 319.508 233.996 344.914 272.784 335.598C274.603 335.161 276.277 334.795 276.505 334.784C277.51 334.737 276.966 356.721 275.953 357.035C269.641 358.989 251.765 359.576 241.632 358.162C205.182 353.079 173.417 328.392 160.06 294.768C157.936 289.421 157.262 290.363 167.527 284.324C177.77 278.299 177.333 278.417 178.24 281.441ZM132.748 312.177C157.221 366.002 214.509 397.307 274.3 389.526L276.918 389.186V399.968C276.918 409.757 276.83 410.774 275.953 411.039C275.423 411.197 271.269 411.617 266.722 411.97C204.499 416.797 143.649 381.977 115.578 325.481C111.196 316.661 110.708 317.857 121.22 311.615C131.014 305.801 129.823 305.743 132.748 312.177ZM325.694 343.047C338.729 350.712 352.617 358.892 356.558 361.226C360.499 363.56 367.939 367.952 373.092 370.986C378.246 374.02 385.748 378.439 389.765 380.806C396.808 384.959 398.028 386.086 396.223 386.779C395.758 386.956 390.488 389.996 384.511 393.532C378.534 397.069 367.567 403.55 360.141 407.936C352.714 412.321 341.925 418.697 336.166 422.104C330.406 425.51 321.354 430.854 316.049 433.977C310.744 437.099 304.807 440.607 302.856 441.773C300.905 442.937 299.107 443.891 298.86 443.891C298.614 443.891 298.413 417.581 298.413 385.424V326.959L300.204 328.035C301.189 328.626 312.66 335.382 325.694 343.047Z" fill="#84A454"/>
</svg>
