<svg width="512" height="512" viewBox="0 0 512 512" fill="none" xmlns="http://www.w3.org/2000/svg">
<circle cx="256" cy="256" r="256" fill="white"/>
<path d="M512 256.002C512 397.381 397.382 511.998 255.995 511.998C114.611 511.998 0 397.381 0 256.002C0 114.613 114.611 0 255.995 0C397.382 0 512 114.613 512 256.002Z" fill="#F47421"/>
<path d="M325.947 134.832C342.293 144.272 363.19 138.673 372.623 122.332C382.061 105.984 376.467 85.0892 360.119 75.6509C343.775 66.2159 322.88 71.8135 313.442 88.1614C304.007 104.503 309.604 125.397 325.947 134.832ZM255.997 355.838C240.968 355.838 226.725 352.496 213.94 346.549L190.192 389.107C210.029 398.929 232.362 404.479 255.997 404.479C269.743 404.479 283.033 402.574 295.664 399.077C297.898 385.35 306.049 372.698 319.044 365.194C332.016 357.705 347.029 356.963 360.024 361.874C385.296 337.024 401.741 303.215 404.135 265.563L355.425 264.854C350.942 315.855 308.156 355.838 255.997 355.838ZM255.997 156.159C308.156 156.159 350.942 196.15 355.425 247.145L404.135 246.434C401.738 208.786 385.293 174.976 360.017 150.128C347.024 155.036 332.013 154.292 319.039 146.801C306.046 139.3 297.897 126.65 295.662 112.921C283.033 109.427 269.743 107.521 255.997 107.521C232.362 107.521 210.031 113.069 190.195 122.895L213.942 165.448C226.725 159.5 240.968 156.159 255.997 156.159V156.159ZM156.16 255.998C156.16 222.22 172.946 192.387 198.612 174.321L173.626 132.463C143.716 152.448 121.465 182.996 112.224 218.779C123.02 227.578 129.918 240.979 129.918 256.002C129.918 271.023 123.019 284.423 112.222 293.221C121.462 329.006 143.713 359.554 173.624 379.539L198.612 337.679C172.946 319.615 156.16 289.781 156.16 255.998ZM325.952 377.163C309.604 386.601 304.007 407.494 313.443 423.835C322.882 440.183 343.774 445.784 360.122 436.346C376.465 426.909 382.065 406.015 372.626 389.668C363.191 373.329 342.295 367.728 325.952 377.163ZM81.9208 221.825C63.0408 221.825 47.7422 237.122 47.7422 256.002C47.7422 274.877 63.0408 290.175 81.9208 290.175C100.794 290.175 116.094 274.877 116.094 256.002C116.094 237.122 100.794 221.825 81.9208 221.825Z" fill="white"/>
</svg>
