<?xml version="1.0" encoding="UTF-8"?>
<svg xmlns="http://www.w3.org/2000/svg" xmlns:xlink="http://www.w3.org/1999/xlink" width="512" height="512" viewBox="0 0 512 512" version="1.1">
<g id="surface1">
<path style=" stroke:none;fill-rule:evenodd;fill:rgb(86.666667%,40.784314%,16.470589%);fill-opacity:1;" d="M 256 512 C 397.382812 512 512 397.382812 512 256 C 512 114.617188 397.382812 0 256 0 C 114.617188 0 0 114.617188 0 256 C 0 397.382812 114.617188 512 256 512 Z M 256 512 "/>
<path style=" stroke:none;fill-rule:evenodd;fill:rgb(100%,100%,100%);fill-opacity:1;" d="M 367.339844 71.109375 L 308.453125 104.722656 C 330.417969 112.085938 350.515625 124.148438 367.339844 140.070312 Z M 42.667969 253.6875 L 102.066406 219.78125 C 99.597656 230.914062 98.351562 242.28125 98.355469 253.6875 C 98.355469 265.324219 99.636719 276.667969 102.0625 287.59375 Z M 121.09375 255.625 C 121.074219 254.332031 121.074219 253.039062 121.09375 251.746094 Z M 367.339844 436.148438 L 308.574219 402.601562 C 330.492188 395.238281 350.546875 383.191406 367.339844 367.296875 Z M 204.933594 154.746094 C 221.203125 146.269531 239.285156 141.859375 257.628906 141.890625 C 316.253906 141.890625 364.441406 185.980469 370.136719 242.457031 L 393.480469 242.457031 C 387.707031 173.277344 329.101562 118.910156 257.628906 118.910156 C 235.207031 118.871094 213.117188 124.335938 193.300781 134.832031 L 204.933594 154.742188 Z M 174.21875 147.078125 L 185.96875 167.203125 C 160.6875 187.699219 144.554688 218.828125 144.554688 253.6875 C 144.535156 275.726562 151.113281 297.265625 163.445312 315.535156 L 261.195312 204.46875 L 276.765625 231.984375 L 167.484375 354.78125 C 139.167969 330.089844 121.3125 293.949219 121.3125 253.683594 C 121.3125 210.3125 142.03125 171.730469 174.21875 147.070312 Z M 393.480469 264.921875 L 370.101562 264.921875 C 369.503906 270.398438 368.511719 275.824219 367.136719 281.160156 L 313.425781 222.132812 L 184.25 367.292969 C 206.203125 381.171875 231.65625 388.515625 257.628906 388.464844 C 329.097656 388.464844 387.710938 334.109375 393.480469 264.921875 Z M 393.480469 264.921875 "/>
</g>
</svg>
