<?xml version="1.0" encoding="UTF-8"?>
<svg xmlns="http://www.w3.org/2000/svg" xmlns:xlink="http://www.w3.org/1999/xlink" width="512" height="512" viewBox="0 0 512 512" version="1.1">
<g id="surface1">
<path style=" stroke:none;fill-rule:nonzero;fill:rgb(100%,100%,100%);fill-opacity:1;" d="M 481 255.5 C 481 388.324219 375.5625 496 245.5 496 C 115.4375 496 10 388.324219 10 255.5 C 10 122.675781 115.4375 15 245.5 15 C 375.5625 15 481 122.675781 481 255.5 Z M 481 255.5 "/>
<path style=" stroke:none;fill-rule:evenodd;fill:rgb(1.568628%,61.176473%,98.823529%);fill-opacity:1;" d="M 246.335938 0.269531 C 196.488281 2.75 152.15625 17.304688 112.863281 44.085938 C -19.976562 134.636719 -37.5 323.632812 76.402344 437.375 C 190.289062 551.105469 379.335938 532.285156 468.582031 398.335938 C 554.035156 270.070312 508.277344 95.804688 371.121094 27.183594 C 332.703125 7.960938 287.53125 -1.78125 246.335938 0.269531 Z M 321.476562 40.84375 C 357.078125 51.132812 389.726562 70.359375 414.414062 95.578125 C 420.132812 101.421875 422.410156 106.046875 422.683594 112.378906 C 423.417969 129.472656 403.515625 140.75 389.328125 131.273438 C 388.460938 130.695312 385.515625 128.039062 382.785156 125.371094 C 360.515625 103.625 339.058594 90.949219 309.578125 82.121094 C 306.890625 81.316406 304.089844 80.355469 303.347656 79.984375 C 285.378906 70.964844 289.699219 43.007812 309.527344 40.003906 C 314.914062 39.1875 316.011719 39.265625 321.476562 40.84375 Z M 264.890625 106.414062 C 360.117188 112.660156 425.113281 202.585938 401.410156 295.285156 C 377.875 387.332031 275.347656 434.972656 189.78125 393.621094 C 169.765625 383.949219 148.308594 367.054688 143.734375 357.367188 C 137.597656 344.371094 146.667969 330.484375 161.640625 329.949219 C 168.554688 329.699219 172.394531 331.296875 178.3125 336.878906 C 226.855469 382.675781 300.738281 377.898438 341.882812 326.300781 C 391.058594 264.632812 361.230469 171.773438 285.304688 150.15625 C 246.714844 139.171875 208.195312 149.292969 177.078125 178.601562 C 165.527344 189.480469 150.414062 187.480469 143.890625 174.203125 C 139.777344 165.832031 141.746094 153.386719 147.660156 150.382812 C 148.28125 150.070312 150.160156 148.488281 151.84375 146.867188 C 180.953125 118.84375 223.3125 103.6875 264.890625 106.414062 Z M 261.976562 176.925781 C 304.761719 180.808594 336.519531 216.691406 335.183594 259.632812 C 333.824219 303.308594 298.726562 337.566406 255.332031 337.566406 C 203.730469 337.566406 165.917969 289.507812 177.53125 238.691406 C 186.339844 200.164062 222.953125 173.382812 261.976562 176.925781 Z M 67.464844 184.761719 C 76.730469 187.035156 83.160156 196.769531 81.855469 206.550781 C 81.6875 207.808594 81.03125 210.871094 80.398438 213.359375 C 72.800781 243.132812 72.8125 269.710938 80.433594 300.058594 C 82.246094 307.292969 82.242188 311.0625 80.402344 315.640625 C 74.425781 330.503906 53.835938 333.347656 43.597656 320.726562 C 37.742188 313.507812 32.023438 281.828125 32.015625 256.585938 C 32.011719 234.296875 37.285156 202.097656 42.054688 195.3125 C 48.480469 186.175781 57.671875 182.355469 67.464844 184.761719 Z M 130.359375 202.382812 C 144.027344 204.539062 151.476562 216.570312 147.921875 230.738281 C 143.230469 249.449219 143.1875 264.097656 147.765625 283.070312 C 150.160156 292.992188 148.851562 299.019531 142.96875 305.1875 C 131.460938 317.246094 113.15625 311.660156 108.792969 294.757812 C 102.964844 272.160156 102.332031 249.652344 106.914062 227.792969 C 109.4375 215.734375 111.183594 210.957031 114.144531 207.996094 C 118.394531 203.75 124.847656 201.515625 130.359375 202.382812 Z M 250.976562 216.164062 C 220.34375 220.421875 204.386719 255.046875 221.328125 280.480469 C 243.664062 314.003906 296.304688 297.882812 296.304688 257.519531 C 296.304688 233.707031 273.621094 213.015625 250.976562 216.164062 Z M 401.910156 381.042969 C 418.375 384.683594 425.171875 404.21875 414.308594 416.695312 C 405.039062 427.34375 384.800781 443.128906 368.277344 452.601562 C 350.355469 462.878906 320.191406 474.605469 310.472656 475.074219 C 292.25 475.957031 281.183594 455.398438 292.328125 441.371094 C 295.46875 437.417969 298.628906 435.589844 306.300781 433.277344 C 336.554688 424.167969 356.722656 412.160156 380.765625 388.9375 C 388.476562 381.488281 394.21875 379.34375 401.910156 381.042969 Z M 401.910156 381.042969 "/>
</g>
</svg>
