<?xml version="1.0" encoding="UTF-8"?>
<svg xmlns="http://www.w3.org/2000/svg" xmlns:xlink="http://www.w3.org/1999/xlink" width="512" height="512" viewBox="0 0 512 512" version="1.1">
<defs>
<clipPath id="clip1">
  <path d="M 236 309 L 451 309 L 451 501 L 236 501 Z M 236 309 "/>
</clipPath>
<clipPath id="clip2">
  <path d="M 316.644531 312.023438 C 373.039062 320.660156 405.429688 342.566406 412.328125 350.550781 C 419.230469 358.53125 442.402344 388.621094 453.816406 428.828125 C 459.941406 450.394531 464.765625 477.746094 468.292969 510.890625 C 453.199219 507.46875 437.675781 506.105469 421.730469 506.804688 C 370.246094 509.054688 324.753906 502.859375 293.679688 464.042969 C 272.960938 438.164062 253.910156 388.464844 236.523438 314.949219 C 267.054688 309.496094 293.761719 308.519531 316.644531 312.023438 Z M 316.644531 312.023438 "/>
</clipPath>
<clipPath id="clip3">
  <path d="M 255 159 L 479 159 L 479 329 L 255 329 Z M 255 159 "/>
</clipPath>
<clipPath id="clip4">
  <path d="M 282.597656 240.214844 C 310.871094 187.0625 341.761719 162.785156 351.210938 158.835938 C 360.660156 154.882812 395.226562 142.835938 434.203125 146.265625 C 455.109375 148.105469 480.542969 153.378906 510.5 162.078125 C 501.972656 175.898438 495.066406 190.902344 489.789062 207.09375 C 472.738281 259.359375 450.597656 302.523438 405.566406 319.25 C 375.546875 330.402344 325.546875 331.097656 255.5625 321.347656 C 262.113281 288.828125 271.125 261.785156 282.597656 240.214844 Z M 282.597656 240.214844 "/>
</clipPath>
<clipPath id="clip5">
  <path d="M 214 37 L 287 37 L 287 317 L 214 317 Z M 214 37 "/>
</clipPath>
<clipPath id="clip6">
  <path d="M 204.230469 251.183594 C 175.582031 198.261719 171.5 157.359375 173.050781 146.589844 C 174.601562 135.820312 182.207031 97.625 204.488281 63.078125 C 216.4375 44.546875 233.414062 23.519531 255.425781 0 C 262.285156 14.855469 270.910156 28.792969 281.300781 41.8125 C 314.851562 83.847656 338.527344 126.066406 329.449219 176.335938 C 323.398438 209.855469 298.921875 256.726562 256.023438 316.960938 C 233.117188 294.582031 215.851562 272.660156 204.230469 251.183594 Z M 204.230469 251.183594 "/>
</clipPath>
<clipPath id="clip7">
  <path d="M 25 168 L 256 168 L 256 337 L 25 337 Z M 25 168 "/>
</clipPath>
<clipPath id="clip8">
  <path d="M 176.632812 336.210938 C 119.671875 336.363281 84.691406 319.679688 76.796875 312.847656 C 68.898438 306.011719 41.949219 279.808594 25.285156 241.78125 C 16.34375 221.382812 7.917969 195.054688 0 162.800781 C 15.394531 163.859375 30.9375 162.8125 46.628906 159.660156 C 97.277344 149.488281 143.125 148.601562 179.066406 182.222656 C 203.023438 204.636719 228.515625 250.878906 255.539062 320.953125 C 226.046875 331.0625 199.746094 336.148438 176.632812 336.210938 Z M 176.632812 336.210938 "/>
</clipPath>
<clipPath id="clip9">
  <path d="M 49 320 L 269 320 L 269 499 L 49 499 Z M 49 320 "/>
</clipPath>
<clipPath id="clip10">
  <path d="M 247.425781 404.707031 C 222.867188 459.953125 193.71875 486.605469 184.5625 491.292969 C 175.410156 495.976562 141.761719 510.722656 102.65625 510.386719 C 81.683594 510.203125 55.957031 506.957031 25.484375 500.644531 C 33.042969 486.1875 38.902344 470.679688 43.0625 454.117188 C 56.488281 400.644531 75.617188 355.847656 119.382812 335.605469 C 148.558594 322.113281 198.375 317.464844 268.835938 321.660156 C 264.527344 354.609375 257.390625 382.289062 247.425781 404.707031 Z M 247.425781 404.707031 "/>
</clipPath>
</defs>
<g id="surface1">
<path style=" stroke:none;fill-rule:nonzero;fill:rgb(98.431373%,74.117649%,30.588236%);fill-opacity:1;" d="M 316.644531 312.023438 C 373.039062 320.660156 405.429688 342.566406 412.328125 350.550781 C 419.230469 358.53125 442.402344 388.621094 453.816406 428.828125 C 459.941406 450.394531 464.765625 477.746094 468.292969 510.890625 C 453.199219 507.46875 437.675781 506.105469 421.730469 506.804688 C 370.246094 509.054688 324.753906 502.859375 293.679688 464.042969 C 272.960938 438.164062 253.910156 388.464844 236.523438 314.949219 C 267.054688 309.496094 293.761719 308.519531 316.644531 312.023438 Z M 316.644531 312.023438 "/>
<g clip-path="url(#clip1)" clip-rule="nonzero">
<g clip-path="url(#clip2)" clip-rule="nonzero">
<path style="fill:none;stroke-width:15.26;stroke-linecap:round;stroke-linejoin:miter;stroke:rgb(99.215686%,86.274511%,44.313726%);stroke-opacity:1;stroke-miterlimit:1;" d="M 379.999098 325.999872 C 331.803712 287.13393 318.114646 266.340706 273.4993 217.38468 " transform="matrix(1.41932,-0.120179,0.111803,1.525654,-156.467737,15.797094)"/>
</g>
</g>
<path style=" stroke:none;fill-rule:nonzero;fill:rgb(98.431373%,74.117649%,30.588236%);fill-opacity:1;" d="M 282.597656 240.214844 C 310.871094 187.0625 341.761719 162.785156 351.210938 158.835938 C 360.660156 154.882812 395.226562 142.835938 434.203125 146.265625 C 455.109375 148.105469 480.542969 153.378906 510.5 162.078125 C 501.972656 175.898438 495.066406 190.902344 489.789062 207.09375 C 472.738281 259.359375 450.597656 302.523438 405.566406 319.25 C 375.546875 330.402344 325.546875 331.097656 255.5625 321.347656 C 262.113281 288.828125 271.125 261.785156 282.597656 240.214844 Z M 282.597656 240.214844 "/>
<g clip-path="url(#clip3)" clip-rule="nonzero">
<g clip-path="url(#clip4)" clip-rule="nonzero">
<path style="fill:none;stroke-width:15.26;stroke-linecap:round;stroke-linejoin:miter;stroke:rgb(99.215686%,86.274511%,44.313726%);stroke-opacity:1;stroke-miterlimit:1;" d="M 260.776392 212.519375 C 311.909673 192.510301 349.097136 177.251624 409.886917 165.000501 " transform="matrix(1.387784,-0.341689,0.317874,1.491754,-173.428362,86.659755)"/>
</g>
</g>
<path style=" stroke:none;fill-rule:nonzero;fill:rgb(98.431373%,74.117649%,30.588236%);fill-opacity:1;" d="M 204.230469 251.183594 C 175.582031 198.261719 171.5 157.359375 173.050781 146.589844 C 174.601562 135.820312 182.207031 97.625 204.488281 63.078125 C 216.4375 44.546875 233.414062 23.519531 255.425781 0 C 262.285156 14.855469 270.910156 28.792969 281.300781 41.8125 C 314.851562 83.847656 338.527344 126.066406 329.449219 176.335938 C 323.398438 209.855469 298.921875 256.726562 256.023438 316.960938 C 233.117188 294.582031 215.851562 272.660156 204.230469 251.183594 Z M 204.230469 251.183594 "/>
<g clip-path="url(#clip5)" clip-rule="nonzero">
<g clip-path="url(#clip6)" clip-rule="nonzero">
<path style="fill:none;stroke-width:15.26;stroke-linecap:round;stroke-linejoin:miter;stroke:rgb(99.215686%,86.274511%,44.313726%);stroke-opacity:1;stroke-miterlimit:1;" d="M 259.915197 215.673805 C 265.752378 162.09735 273.001101 111.046401 291.08915 59.000764 " transform="matrix(1.387793,-0.341687,0.317873,1.491765,-173.101349,81.657098)"/>
</g>
</g>
<path style=" stroke:none;fill-rule:nonzero;fill:rgb(98.431373%,74.117649%,30.588236%);fill-opacity:1;" d="M 176.632812 336.210938 C 119.671875 336.363281 84.691406 319.679688 76.796875 312.847656 C 68.898438 306.011719 41.949219 279.808594 25.285156 241.78125 C 16.34375 221.382812 7.917969 195.054688 0 162.800781 C 15.394531 163.859375 30.9375 162.8125 46.628906 159.660156 C 97.277344 149.488281 143.125 148.601562 179.066406 182.222656 C 203.023438 204.636719 228.515625 250.878906 255.539062 320.953125 C 226.046875 331.0625 199.746094 336.148438 176.632812 336.210938 Z M 176.632812 336.210938 "/>
<g clip-path="url(#clip7)" clip-rule="nonzero">
<g clip-path="url(#clip8)" clip-rule="nonzero">
<path style="fill:none;stroke-width:15.26;stroke-linecap:round;stroke-linejoin:miter;stroke:rgb(99.215686%,86.274511%,44.313726%);stroke-opacity:1;stroke-miterlimit:1;" d="M 140.99952 109.998886 C 179.372256 149.705253 212.971974 181.654173 259.389818 213.001421 " transform="matrix(1.387793,-0.341687,0.317873,1.491765,-174.147753,85.464151)"/>
</g>
</g>
<path style=" stroke:none;fill-rule:nonzero;fill:rgb(98.431373%,74.117649%,30.588236%);fill-opacity:1;" d="M 247.425781 404.707031 C 222.867188 459.953125 193.71875 486.605469 184.5625 491.292969 C 175.410156 495.976562 141.761719 510.722656 102.65625 510.386719 C 81.683594 510.203125 55.957031 506.957031 25.484375 500.644531 C 33.042969 486.1875 38.902344 470.679688 43.0625 454.117188 C 56.488281 400.644531 75.617188 355.847656 119.382812 335.605469 C 148.558594 322.113281 198.375 317.464844 268.835938 321.660156 C 264.527344 354.609375 257.390625 382.289062 247.425781 404.707031 Z M 247.425781 404.707031 "/>
<g clip-path="url(#clip9)" clip-rule="nonzero">
<g clip-path="url(#clip10)" clip-rule="nonzero">
<path style="fill:none;stroke-width:15.26;stroke-linecap:round;stroke-linejoin:miter;stroke:rgb(99.215686%,86.274511%,44.313726%);stroke-opacity:1;stroke-miterlimit:1;" d="M 105.533565 267.719863 C 164.487357 254.560835 200.133686 237.021914 252.96081 210.080922 " transform="matrix(1.359593,-0.454129,0.422478,1.461451,-176.658617,122.439714)"/>
</g>
</g>
<path style=" stroke:none;fill-rule:nonzero;fill:rgb(99.215686%,86.274511%,44.313726%);fill-opacity:1;" d="M 328.597656 306.171875 C 329.179688 320.890625 308.804688 321.902344 308.664062 339.875 C 308.546875 355.5 305.691406 369.242188 294.125 377.140625 C 282.558594 385.039062 267.710938 376.714844 254.636719 377.3125 C 241.566406 377.90625 231.859375 387.347656 219.710938 380.53125 C 207.566406 373.714844 207.394531 362.808594 200.378906 350.9375 C 193.363281 339.066406 179.777344 330.40625 179.199219 315.691406 C 178.617188 300.976562 192.246094 293.941406 198.300781 281.472656 C 204.355469 269.007812 202.679688 249.886719 214.246094 241.988281 C 225.8125 234.089844 238.449219 243.660156 251.523438 243.066406 C 264.59375 242.46875 278.832031 232.613281 290.976562 239.429688 C 303.125 246.246094 301.015625 263.707031 308.03125 275.578125 C 315.046875 287.449219 328.019531 291.457031 328.597656 306.171875 Z M 328.597656 306.171875 "/>
<path style=" stroke:none;fill-rule:nonzero;fill:rgb(99.607843%,93.333334%,81.960785%);fill-opacity:1;" d="M 305.300781 341.03125 C 299.605469 352.96875 280.003906 341.066406 273.636719 351.03125 C 267.132812 361.21875 266.261719 373.597656 254.390625 372.882812 C 243.570312 372.226562 246.867188 351.527344 237.886719 346 C 228.90625 340.46875 208.945312 354.328125 203.90625 341.683594 C 198.660156 328.523438 219.945312 328.144531 219.652344 313.773438 C 219.355469 299.402344 196.019531 291.332031 201.402344 281.226562 C 206.789062 271.117188 226.351562 281.988281 235.292969 276.394531 C 244.238281 270.796875 245.5 246.429688 256.335938 246.390625 C 267.171875 246.351562 264.660156 271.183594 273.636719 276.714844 C 282.617188 282.242188 303.601562 269.96875 309.050781 280.035156 C 314.503906 290.105469 285.796875 298.367188 285.832031 309.492188 C 285.867188 320.617188 310.246094 330.667969 305.300781 341.03125 Z M 305.300781 341.03125 "/>
</g>
</svg>
