<svg xmlns="http://www.w3.org/2000/svg" width="512" height="512">
<circle cx="255.567" cy="256.557" r="254.144" fill="#fff"/>
<g transform="matrix(2.42206 0 0 2.42304 -54.45 1.124)">
<path fill="#ABC2AB" d="M128.221 0a105.235 105.235 0 0 0-61.359 19.9l23.903 23.903A72.014 72.014 0 0 1 128.22 33.22c39.773 0 72.015 32.241 72.014 72.014a72.014 72.014 0 0 1-10.601 37.437l23.948 23.948a105.235 105.235 0 0 0 19.874-61.385C233.456 47.115 186.341 0 128.221 0z"/>
<path fill="#478061" d="m189.58 190.57-23.902-23.903a72.014 72.014 0 0 1-37.457 10.582c-39.772 0-72.014-32.242-72.014-72.014a72.014 72.014 0 0 1 10.601-37.437L42.86 43.85a105.235 105.235 0 0 0-19.874 61.385c0 58.12 47.116 105.235 105.235 105.235a105.235 105.235 0 0 0 61.36-19.9z"/>
<circle cx="128.204" cy="105.235" r="33.503" fill="#ABC2AB"/>
</g>
</svg>
