<svg width="512" height="512" fill="none" xmlns="http://www.w3.org/2000/svg"><circle cx="256" cy="256" r="256" fill="#fff"/><path d="M511.282 256.012C511.282 115.02 396.986.721 255.996.721 115.069.72.818 114.924.718 255.832v197.553c.075 31.994 26.024 57.894 58.038 57.894H256.1c140.943-.055 255.182-114.313 255.182-255.267Z" fill="#294172"/><path d="M147.898 272.487h91.747v91.747c0 50.644-41.103 91.747-91.747 91.747-50.645 0-91.748-41.103-91.748-91.747s41.103-91.747 91.748-91.747Z" stroke="#3C6EB4" stroke-width="29.21"/><path d="M267.712 244.55v119.556c0 66.165-53.646 119.811-119.813 119.811-10.039 0-17.175-1.133-26.468-3.562-13.55-3.546-24.623-14.655-24.627-27.577 0-15.619 11.337-26.981 28.285-26.981 8.066 0 10.993 1.549 22.81 1.549 34.884 0 63.18-28.256 63.241-63.14v-54.952c0-4.924-4.001-8.914-8.933-8.914l-41.546-.008c-15.479 0-27.985-12.346-27.985-27.868-.008-15.618 12.635-27.914 28.281-27.914" fill="#fff"/><path d="M467.233 467.098v-10.607l-4.849 11.118-4.72-11.118.001 10.607h-2.72v-16.75h2.852l4.667 10.701 4.597-10.701h2.887v16.75h-2.715Zm-19.815-13.945v13.945h-2.842v-13.945h-4.765v-2.805h12.367v2.805" fill="#3C6EB4"/><g clip-path="url(#a)"><path d="M425.371 382.145c5.016 0 9.082-3.592 9.082-8.023 0-4.431-4.066-8.022-9.082-8.022-5.016 0-9.082 3.591-9.082 8.022s4.066 8.023 9.082 8.023Z" fill="#000"/><path d="m397.76 356.995.027-1.041-1.224.239-.282.055-2.034.397 1.201 1.024c-.328.145-.801.198-1.536.279l-.01.001c-.645.072-1.531.171-2.26.567a2.713 2.713 0 0 0-1.152 1.172 5.75 5.75 0 0 0-.817-.218c-.431-.075-1.155-.125-1.653.414-.504.546-.367 1.245-.282 1.557.106.387.305.796.508 1.164.219.395.494.831.761 1.245l-.375.299c-2.265 1.804-3.398 4.542-4.432 7.043l-.027.066c-1.081 2.614-2.084 5.018-3.993 6.72l-.155.138-.087.189c-1.423 3.082-2.302 6.275-3.073 9.44-.176.72-.346 1.436-.515 2.15-.579 2.449-1.151 4.862-1.923 7.255l-.023.07-.012.073c-.99 5.926-1.907 12.062-.393 18.23.096 1.103.097 2.307.097 3.598v.13c0 1.35.005 2.783.139 4.178.268 2.783 1.072 5.617 3.601 7.56 5.797 4.759 10.721 10.662 15.634 16.551.567.68 1.133 1.359 1.7 2.036 8.59 10.564 16.163 21.964 22.94 33.721l1.209 2.097c.264.865.577 1.824.938 2.636.208.466.449.925.731 1.303.269.359.662.764 1.21.93l1.52.46-.242-1.57c-.68-4.407-1.562-11.418-1.99-16.855l-.003-.037-.005-.036c-1.112-7.25-3.45-14.13-5.812-20.906l-.347-.994c-2.252-6.453-4.475-12.822-5.721-19.461-.04-.296-.084-.595-.127-.89l-.001-.004c-.041-.28-.082-.557-.12-.832v-2.708h-.329c-.776-6.729-.789-13.461 3.732-18.287 2.451-2.468 5.528-4.041 8.858-5.466.827-.355 1.676-.701 2.533-1.052 2.541-1.038 5.16-2.108 7.542-3.498l.005-.003a20.177 20.177 0 0 1 4.01-1.828c.044-.007.097-.018.154-.035 4.132-1.275 8.585-1.247 12.986-.531l.16-.987-.164.986.004.001.013.003.045.009c.032.007.093.021.154.031l.302.05c.321.052.633.104.928.161l.052.01.051.005c.503.045 1.126.119 1.815.201 1.401.168 3.078.368 4.577.419 1.138.038 2.282-.002 3.248-.226.939-.218 1.934-.662 2.436-1.62l.068-.13.267.232c.32.278.625.542.924.795.348.294.68.563.974.771.257.182.612.413.982.496l1.355.305-.141-1.382c-.343-3.347-2.195-5.741-4.534-7.49-2.299-1.72-5.128-2.863-7.607-3.74-1.511-.729-3.186-1.264-4.801-1.764l-.4-.123c-1.516-.468-2.969-.917-4.295-1.489-1.435-.62-2.648-1.355-3.553-2.34-.891-.969-1.529-2.226-1.747-3.974l-.019-.15-.061-.137-.044-.096c-.227-.505-.474-1.055-.776-1.593l-.033-.057-.039-.053-1.529-2.038.154-.077-.823-.972c-3.207-3.784-7.704-6.532-12.508-7.603-4.566-1.58-9.759-3.167-14.715-3.802l-.812-.104-.263.775c-.12.354-.225.577-.303.711a1.988 1.988 0 0 1-.113-.094 11.667 11.667 0 0 1-.743-.757l-.003-.003-.03-.032c-.548-.589-1.309-1.405-2.234-1.866a3.431 3.431 0 0 0-1.698-.381c-.565.025-1.126.198-1.678.52-.8.104-1.39.232-1.845.335l-.004.001c-.531.12-.746.169-.929.171-.164.001-.356-.018-1.146-.643Zm47.344 31.21a36.66 36.66 0 0 0-3.062-.439l-5.348-1.197-.25-.064 12.241 2.265c.383.142.771.278 1.162.407l-.444-.075c-1.462-.248-2.874-.51-4.214-.878l-.042-.011-.043-.008Zm-9.701 8.093h-.001.001Zm-13.783-23.97c1.116-.03 2.423.176 3.769.639 1.785.617 3.211 1.563 4.089 2.544.903 1.01 1.079 1.865.884 2.428-.193.559-.862 1.121-2.206 1.352-1.305.225-3.019.081-4.805-.54-1.791-.623-3.218-1.558-4.095-2.526-.899-.993-1.076-1.835-.88-2.406.248-.718 1.287-1.439 3.244-1.491Z" fill="#F60" stroke="#fff" stroke-width="2"/></g><defs><clipPath id="a"><path fill="#fff" transform="translate(340 344)" d="M0 0h155v155H0z"/></clipPath></defs></svg>