<?xml version="1.0" encoding="UTF-8" standalone="no"?>
<svg
   width="512"
   height="512"
   version="1.1"
   viewBox="0 0 135.47 135.47"
   id="svg8"
   sodipodi:docname="kali.svg"
   inkscape:version="1.1.1 (3bf5ae0d25, 2021-09-20)"
   xmlns:inkscape="http://www.inkscape.org/namespaces/inkscape"
   xmlns:sodipodi="http://sodipodi.sourceforge.net/DTD/sodipodi-0.dtd"
   xmlns="http://www.w3.org/2000/svg"
   xmlns:svg="http://www.w3.org/2000/svg"
   xmlns:rdf="http://www.w3.org/1999/02/22-rdf-syntax-ns#"
   xmlns:cc="http://creativecommons.org/ns#"
   xmlns:dc="http://purl.org/dc/elements/1.1/">
  <metadata
     id="metadata14">
    <rdf:RDF>
      <cc:Work
         rdf:about="">
        <dc:format>image/svg+xml</dc:format>
        <dc:type
           rdf:resource="http://purl.org/dc/dcmitype/StillImage" />
      </cc:Work>
    </rdf:RDF>
  </metadata>
  <defs
     id="defs12" />
  <sodipodi:namedview
     pagecolor="#ffffff"
     bordercolor="#666666"
     borderopacity="1"
     objecttolerance="10"
     gridtolerance="10"
     guidetolerance="10"
     inkscape:pageopacity="0"
     inkscape:pageshadow="2"
     inkscape:window-width="1920"
     inkscape:window-height="1003"
     id="namedview10"
     showgrid="false"
     inkscape:zoom="0.95188854"
     inkscape:cx="172.28908"
     inkscape:cy="275.76758"
     inkscape:window-x="0"
     inkscape:window-y="0"
     inkscape:window-maximized="1"
     inkscape:current-layer="svg8"
     inkscape:pagecheckerboard="false" />
  <circle
     style="fill:#ffffff;stroke:none;stroke-width:0.719674;stroke-dasharray:0.719674, 0.719674;stop-color:#000000"
     id="path106"
     cx="67.735001"
     cy="67.735001"
     r="67.735001" />
  <path
     d="m 71.286575,40.089812 c 0,0 -8.996159,-0.598598 -24.315705,4.194948 -15.612018,4.884989 -24.466346,11.809001 -24.466346,11.809001 0,0 23.269148,-12.992103 49.533493,-13.730331 z m 33.554995,14.125873 1.16954,-0.07632 c 0,0 -6.700604,-8.129842 -19.52603,-12.09002 7.209524,2.930623 13.484545,6.81363 18.35614,12.165781 z m 1.91402,3.377876 c 0.17981,-0.311765 0.76027,0.990441 1.20108,1.537505 0.0187,0.109236 0.0497,0.175897 -0.2059,0.123314 -0.0215,-0.112294 -0.0586,-0.144862 -0.0586,-0.144862 0,0 -0.61691,-0.367062 -0.80605,-0.627441 -0.18929,-0.260371 -0.22288,-0.715808 -0.1306,-0.888516 z m 15.73976,38.699698 c 0,0 1.42245,-16.33087 -24.235541,-20.096008 -3.251988,-0.477143 -7.364568,-0.844381 -11.524454,-0.854899 -20.564663,0.271902 -21.314343,-23.718428 -5.81808,-24.92972 6.42214,-0.529903 14.090635,2.934499 21.587435,6.425664 -0.0278,0.931065 0.0107,1.758444 0.62234,2.523012 0.6115,0.764321 2.96058,1.598201 3.71123,2.028893 0.75059,0.430841 3.15517,1.959651 4.62872,3.877633 0.31956,-0.597753 2.98824,-2.334843 2.98824,-2.334843 0,0 -0.63931,0.01391 -2.12659,-0.541945 -1.48747,-0.555856 -3.25252,-2.237676 -3.29427,-2.334844 -0.0417,-0.09736 -0.0694,-0.250196 0.27818,-0.319737 0.26393,-0.222208 -0.33382,-0.944984 -0.59793,-1.208914 -0.26393,-0.264106 -2.02934,-3.265909 -2.07092,-3.335503 -0.0417,-0.06954 -0.0557,-0.138924 -0.18065,-0.222376 -0.38929,-0.125181 -2.09893,0.180646 -2.09893,0.180646 0,0 -2.62934,-1.29137 -3.53565,-4.075581 0.0132,0.487671 -0.45087,1.020129 0,2.140508 -1.370919,-0.57994 -2.548471,-1.569042 -3.477246,-4.013298 -0.552799,1.390211 0,2.274147 0,2.274147 0,0 -3.22829,-0.902083 -3.744785,-3.879308 -0.566885,1.336474 0,2.140332 0,2.140332 0,0 -5.262912,-2.746066 -14.007827,-2.785884 -5.854727,-0.53703 -7.073595,-10.836443 -6.531201,-12.570133 0,0 -8.44469,-4.450597 -25.068027,-6.416855 -16.623338,-1.966434 -30.256765,-0.29633 -30.256765,-0.29633 0,0 29.441895,-1.41294 53.028182,8.136009 0.801814,3.586218 3.213845,9.55908 4.512967,12.430063 -3.717302,2.570142 -7.909167,4.986913 -8.561943,13.558547 -0.652548,8.571282 6.716726,16.11063 15.855157,16.343198 8.677435,0.462221 14.672934,0.527868 21.939808,4.295375 6.93643,3.835349 12.62387,15.522171 13.18679,26.032662 0.60792,-7.79843 -2.31863,-24.568539 -15.97497,-29.660372 19.08733,3.34026 20.7664,17.490181 20.7664,17.490181 z m -51.658319,-57.483981 -0.686807,-2.2153 c 0,0 -11.332412,-2.012419 -26.56915,-0.929391 -15.236737,1.083027 -30.620592,6.416678 -30.620592,6.416678 0,0 31.477747,-7.920531 57.875994,-3.272075"
     style="fill:#000000;stroke:none;stroke-width:0.88094;paint-order:stroke fill markers"
     id="path6" />
  <circle
     cx="114.96429"
     cy="114.96429"
     r="20.505713"
     fill="#ffffff"
     id="circle6"
     style="stroke-width:0.26459" />
  <path
     d="m 112.47106,101.34717 h -9.36172 c -0.2212,0 -0.40033,0.17939 -0.40033,0.40059 0,0.2212 0.17913,0.40059 0.40033,0.40059 h 8.67087 c 0.0619,-0.0921 0.12595,-0.18362 0.19209,-0.27491 l 0.29317,-0.40482 z"
     fill="#e91f63"
     id="path8"
     style="stroke-width:0.26459" />
  <path
     d="m 109.54575,106.53102 c -0.0696,0.18495 -0.14288,0.37968 -0.21696,0.58342 h -9.903869 c -0.22119,0 -0.40058,-0.17939 -0.40058,-0.40059 0,-0.2212 0.17939,-0.40033 0.40058,-0.40033 h 10.211849 l -0.0288,0.0519 z"
     fill="#e91f63"
     fill-opacity="0.7"
     id="path10"
     style="stroke-width:0.26459" />
  <path
     d="M 108.47681,111.19944 H 97.822831 c -0.22119,0 -0.40059,0.17939 -0.40059,0.40059 0,0.2212 0.1794,0.40059 0.40059,0.40059 H 108.367 c 0.002,-0.0116 0.005,-0.0233 0.007,-0.0347 l 0.002,-0.0119 c 0.0497,-0.25268 0.0823,-0.42149 0.10266,-0.55405 -0.001,-0.0672 -0.002,-0.13388 -0.002,-0.20056 z"
     fill="#e91f63"
     fill-opacity="0.3"
     id="path12"
     style="stroke-width:0.26459" />
  <path
     d="M 108.8094,116.16579 H 97.422241 c -0.22119,0 -0.40032,0.17939 -0.40032,0.40059 0,0.2212 0.17913,0.40032 0.40032,0.40032 h 11.996769 c -0.0788,-0.10239 -0.15902,-0.20346 -0.24078,-0.30322 -0.14049,-0.16298 -0.26273,-0.32941 -0.36883,-0.49769 z"
     fill="#e91f63"
     id="path14"
     style="stroke-width:0.26459" />
  <path
     d="M 111.90827,121.05197 H 98.623751 c -0.2212,0 -0.40033,0.17939 -0.40033,0.40033 0,0.22119 0.17913,0.40059 0.40033,0.40059 h 13.712889 c -0.0791,-0.15267 -0.15875,-0.30481 -0.23919,-0.45669 -0.0638,-0.11562 -0.12673,-0.23045 -0.18918,-0.34423 z"
     fill="#e91f63"
     fill-opacity="0.6"
     id="path16"
     style="stroke-width:0.26459" />
  <path
     d="m 114.26233,126.01806 h -12.4344 c -0.2212,0 -0.40059,0.17939 -0.40059,0.40059 0,0.22119 0.17939,0.40059 0.40059,0.40059 h 12.75879 c -0.1061,-0.26803 -0.21432,-0.535 -0.32439,-0.80118 z"
     fill="#e91f63"
     id="path18"
     style="stroke-width:0.26459" />
  <path
     d="m 118.59128,99.013222 c -0.15716,0.701163 -1.26315,-0.154256 -1.47297,0.639249 -1.23854,-0.872353 -0.0759,0.944059 -0.23998,1.058889 l -0.0101,-0.002 -0.0984,-0.0299 c -0.0609,-0.0362 -0.14817,-0.0958 -0.272,-0.21035 -1.09805,0.56913 -1.42985,2.13498 -2.57975,2.81418 -0.91337,1.26051 -1.36714,2.73216 -2.12334,4.094 -0.50351,1.33803 -0.97951,2.68135 -0.90807,4.13263 -0.11853,1.14647 -0.74508,2.61415 0.12621,3.60133 1.27612,1.54812 2.22864,3.38014 3.19863,5.1423 1.51636,2.85546 2.75676,5.85723 3.79448,8.90266 0.23866,-0.66148 0.0873,1.44095 0.51674,1.6693 0.0439,-1.05757 0.16008,-2.72925 0.3101,-4.01648 0.1442,-3.41427 -0.89749,-6.72772 -0.86573,-10.13088 0.008,-0.14208 0.0143,-0.28867 0.0228,-0.4334 l 0.081,-0.4117 -0.05,-0.0101 c 0.118,-1.6611 0.39185,-3.43226 1.81667,-4.4549 1.44228,-0.97607 3.29467,-0.92871 4.9055,-1.48726 0.35905,-0.12674 0.72735,-0.21432 1.09302,-0.25586 0.003,-2.6e-4 0.007,0.002 0.0101,0.002 1.06498,-0.11219 2.13445,0.10848 3.14359,0.4834 0.0148,0.006 0.0333,0.0143 0.0482,0.0199 0.0918,0.0347 0.1913,0.0709 0.28179,0.10769 0.74905,0.21802 2.22493,0.81943 2.60568,0.34608 -0.87527,-1.10493 -2.40671,-1.33962 -3.62726,-1.94765 -0.1958,-0.077 -0.43843,-0.16669 -0.68476,-0.23919 l -1.20256,-0.52944 -0.29608,-0.14182 -0.002,0.0101 -4.33213,-1.76243 c -0.0587,-0.0791 -0.12356,-0.16113 -0.18574,-0.22437 l 4.26862,1.4055 0.004,-0.0201 c 0.14764,0.0648 0.29529,0.12304 0.44743,0.17172 l -0.002,0.0101 2.98246,1.18246 c 0.49478,0.3048 1.03508,0.5649 1.56214,0.70539 0.85648,0.30216 1.7201,1.8397 1.99368,1.96035 0.13124,-1.41476 -1.12953,-2.30802 -2.19847,-2.93986 -1.21288,-0.91733 -3.22271,-1.28643 -3.09227,-3.13592 -0.0318,-0.13679 -0.0627,-0.27332 -0.10742,-0.40879 l -0.38418,-0.79774 0.022,-0.006 c -0.54823,-0.98348 -1.4317,-1.7926 -2.45354,-2.2379 -0.9864,-0.57549 -2.10508,-1.17346 -3.20604,-1.54071 -0.60009,1.04486 -0.62946,-1.046456 -1.66083,-0.629992 -0.8197,-0.06297 -0.75196,0.170396 -1.24728,-0.454565 z m 5.11267,4.416538 c 0.29185,0.0495 0.612,0.16801 0.92395,0.34899 0.82764,0.48182 1.27903,1.24463 1.01153,1.70343 -0.2675,0.45854 -1.15891,0.43684 -1.98601,-0.0471 -0.82738,-0.48367 -1.28168,-1.23167 -1.01338,-1.69364 0.16722,-0.28761 0.57892,-0.39398 1.06391,-0.31169 z"
     fill="#e91f63"
     id="path20"
     style="stroke-width:0.26459" />
  <path
     d="m 123.45524,105.5814 c 0.82922,0.53051 1.77751,0.52945 2.11778,-0.002 0.34026,-0.53182 -0.0561,-1.39306 -0.88559,-1.92357 -0.82922,-0.5305 -1.77725,-0.52944 -2.11751,0.002 -0.34026,0.53182 0.0561,1.39306 0.88532,1.92356 z"
     fill="#000000"
     id="path22"
     style="stroke-width:0.26459" />
  <path
     fill-rule="evenodd"
     clip-rule="evenodd"
     d="m 124.69696,105.57823 c 0.3011,-2.7e-4 0.467,-0.10319 0.5387,-0.21485 0.0714,-0.11192 0.0953,-0.30586 -0.0307,-0.57919 -0.12356,-0.26855 -0.37334,-0.56119 -0.73318,-0.79138 -0.35984,-0.2302 -0.73027,-0.33445 -1.02608,-0.33418 -0.30084,5.3e-4 -0.467,0.10319 -0.53844,0.21511 -0.0714,0.11166 -0.0952,0.3056 0.0307,0.57892 0.12357,0.26856 0.37334,0.5612 0.73318,0.79139 0.35985,0.23019 0.73027,0.33444 1.02582,0.33418 z m 0.87606,7.9e-4 c -0.34027,0.53183 -1.28856,0.53289 -2.11778,0.002 -0.82923,-0.5305 -1.22558,-1.39174 -0.88532,-1.92356 0.34026,-0.53183 1.28829,-0.53289 2.11751,-0.002 0.82949,0.53051 1.22585,1.39175 0.88559,1.92357 z"
     fill="#ffffff"
     id="path24"
     style="stroke-width:0.26459" />
</svg>
