<svg width="512" height="512" fill="none" xmlns="http://www.w3.org/2000/svg"><g clip-path="url(#a)"><circle cx="256" cy="256" r="256" fill="#fff"/><path d="M256 492c130.339 0 236-105.661 236-236S386.339 20 256 20 20 125.661 20 256s105.661 236 236 236Z" stroke="#000" stroke-width="20"/><path d="M116 126v180c0 43.946 36.054 80 80 80h120c43.946 0 80-36.054 80-80V206c0-32.9-27.1-60-60-60-15.37 0-29.333 6.075-40 15.732C285.334 152.075 271.37 146 256 146c-32.9 0-60 27.1-60 60v100h40V206c0-11.283 8.718-20 20-20 11.283 0 20 8.717 20 20v100h40V206c0-11.283 8.718-20 20-20 11.283 0 20 8.717 20 20v100c0 22.328-17.672 40-40 40H196c-22.328 0-40-17.672-40-40V126h-40Z" fill="#000"/><g clip-path="url(#b)"><path d="M425.371 382.145c5.016 0 9.082-3.592 9.082-8.023 0-4.431-4.066-8.022-9.082-8.022-5.016 0-9.082 3.591-9.082 8.022s4.066 8.023 9.082 8.023Z" fill="#000"/><path d="m397.76 356.995.027-1.041-1.224.239-.282.055-2.034.397 1.2 1.024c-.327.145-.8.198-1.535.279l-.011.001c-.644.072-1.53.171-2.259.567a2.713 2.713 0 0 0-1.152 1.172 5.726 5.726 0 0 0-.818-.218c-.43-.075-1.154-.125-1.652.414-.504.546-.367 1.245-.282 1.557.106.387.305.796.508 1.164.218.395.493.831.76 1.245l-.375.299c-2.264 1.804-3.397 4.542-4.431 7.043l-.027.066c-1.082 2.614-2.084 5.018-3.993 6.72l-.155.138-.088.189c-1.423 3.082-2.301 6.275-3.073 9.44-.175.72-.345 1.436-.514 2.15-.579 2.449-1.151 4.862-1.924 7.255l-.022.07-.012.073c-.99 5.926-1.907 12.062-.393 18.23.096 1.103.097 2.307.097 3.598v.13c0 1.35.004 2.783.139 4.178.268 2.783 1.072 5.617 3.601 7.56 5.797 4.759 10.721 10.662 15.634 16.551.566.68 1.133 1.359 1.7 2.036 8.589 10.564 16.163 21.964 22.94 33.721l1.209 2.097c.264.865.577 1.824.938 2.636.208.466.449.925.731 1.303.269.359.662.764 1.209.93l1.521.46-.242-1.57c-.68-4.407-1.562-11.418-1.99-16.855l-.003-.037-.006-.036c-1.112-7.25-3.449-14.13-5.811-20.906l-.347-.994c-2.252-6.453-4.475-12.822-5.721-19.461-.04-.296-.084-.595-.128-.89v-.004c-.041-.28-.082-.557-.12-.832v-2.708h-.329c-.776-6.729-.789-13.461 3.731-18.287 2.452-2.468 5.529-4.041 8.859-5.466.827-.355 1.676-.701 2.533-1.052 2.541-1.038 5.16-2.108 7.542-3.498l.005-.003a20.169 20.169 0 0 1 4.009-1.828c.045-.007.098-.018.154-.035 4.133-1.275 8.586-1.247 12.987-.531l.16-.987-.164.986.003.001.013.003.046.009c.031.007.093.021.154.031l.302.05c.321.052.633.104.928.161l.051.01.052.005c.503.045 1.125.119 1.815.201 1.401.168 3.078.368 4.577.419 1.138.038 2.282-.002 3.248-.226.939-.218 1.934-.662 2.436-1.62l.068-.13.267.232c.32.278.625.542.924.795.348.294.68.563.973.771.258.182.613.413.983.496l1.355.305-.141-1.382c-.343-3.347-2.195-5.741-4.534-7.49-2.299-1.72-5.128-2.863-7.607-3.74-1.511-.729-3.186-1.264-4.801-1.764l-.4-.123c-1.516-.468-2.969-.917-4.295-1.489-1.436-.62-2.648-1.355-3.553-2.34-.891-.969-1.529-2.226-1.747-3.974l-.019-.15-.061-.137-.044-.096c-.227-.505-.474-1.055-.776-1.593l-.033-.057-.039-.053-1.529-2.038.154-.077-.824-.972c-3.206-3.784-7.703-6.532-12.507-7.603-4.566-1.58-9.759-3.167-14.716-3.802l-.811-.104-.263.775c-.12.354-.225.577-.303.711a1.988 1.988 0 0 1-.113-.094c-.211-.186-.444-.436-.744-.757l-.002-.003-.03-.032c-.548-.589-1.309-1.405-2.235-1.866a3.425 3.425 0 0 0-1.697-.381c-.565.025-1.126.198-1.678.52-.8.104-1.39.232-1.845.335l-.004.001c-.531.12-.747.169-.929.171-.164.001-.357-.018-1.146-.643Zm47.344 31.21a36.66 36.66 0 0 0-3.062-.439l-5.348-1.197-.25-.064 12.241 2.265c.383.142.771.278 1.162.407l-.444-.075c-1.463-.248-2.874-.51-4.214-.878l-.042-.011-.043-.008Zm-9.701 8.093h-.001.001Zm-13.783-23.97c1.116-.03 2.423.176 3.769.639 1.784.617 3.211 1.563 4.089 2.544.903 1.01 1.079 1.865.884 2.428-.194.559-.862 1.121-2.206 1.352-1.305.225-3.019.081-4.805-.54-1.791-.623-3.218-1.558-4.095-2.526-.899-.993-1.076-1.835-.88-2.406.248-.718 1.287-1.439 3.244-1.491Z" fill="#F60" stroke="#fff" stroke-width="2"/></g></g><defs><clipPath id="a"><path fill="#fff" d="M0 0h512v512H0z"/></clipPath><clipPath id="b"><path fill="#fff" transform="translate(340 344)" d="M0 0h155v155H0z"/></clipPath></defs></svg>