<svg width="512" height="512" fill="none" xmlns="http://www.w3.org/2000/svg"><circle cx="256" cy="256" r="256" fill="#fff"/><path fill-rule="evenodd" clip-rule="evenodd" d="m156.206 261.569 124.705 216.072-57.31.537-33.293-58.05-33.531 57.74-28.475-.011-14.584-25.202 47.771-82.163-33.911-59.026 28.628-49.897Z" fill="#5277C3"/><path fill-rule="evenodd" clip-rule="evenodd" d="M201.217 172.567 76.491 388.626l-29.12-49.375 33.614-57.864-66.758-.176L0 256.539l14.528-25.234 95.023.3 34.151-58.889 57.515-.149ZM210.786 345.281l249.43.013-28.189 49.912-66.907-.185 33.227 57.915-14.248 24.66-29.113.033-47.251-82.462-68.062-.138-28.887-49.748ZM355.963 250.609 231.258 34.538l57.31-.538 33.293 58.05 33.531-57.74 28.475.011 14.584 25.203-47.771 82.162 33.911 59.027-28.628 49.896Z" fill="#7EBAE4"/><path fill-rule="evenodd" clip-rule="evenodd" d="m156.206 261.569 124.705 216.072-57.31.537-33.293-58.05-33.531 57.74-28.475-.011-14.584-25.202 47.771-82.163-33.911-59.026 28.628-49.897ZM301.052 166.351l-249.43-.012 28.189-49.913 66.907.186-33.227-57.916 14.248-24.66 29.113-.032 47.251 82.462 68.062.138 28.887 49.747ZM310.783 339.566l124.726-216.06 29.12 49.375-33.614 57.865 66.757.175L512 255.593l-14.529 25.235-95.022-.301-34.151 58.889-57.515.15Z" fill="#5277C3"/><path fill-rule="evenodd" clip-rule="evenodd" d="m156.354 261.43 124.705 216.072-57.31.537-33.293-58.05-33.531 57.74-28.475-.011-14.584-25.202 47.771-82.162-33.911-59.027 28.628-49.897Z" fill="url(#a)"/><path fill-rule="evenodd" clip-rule="evenodd" d="m156.354 261.43 124.705 216.072-57.31.537-33.293-58.05-33.531 57.74-28.475-.011-14.584-25.202 47.771-82.162-33.911-59.027 28.628-49.897Z" fill="url(#b)"/><g clip-path="url(#c)"><path d="M425.371 382.145c5.016 0 9.082-3.592 9.082-8.023 0-4.431-4.066-8.022-9.082-8.022-5.016 0-9.082 3.591-9.082 8.022s4.066 8.023 9.082 8.023Z" fill="#000"/><path d="m397.76 356.995.027-1.041-1.224.239-.282.055-2.034.397 1.201 1.024c-.328.145-.801.198-1.535.279l-.011.001c-.645.072-1.531.171-2.26.567a2.713 2.713 0 0 0-1.152 1.172 5.715 5.715 0 0 0-.817-.218c-.431-.075-1.155-.125-1.653.414-.504.546-.367 1.245-.282 1.557.106.387.305.796.508 1.164.219.395.494.831.761 1.245l-.375.299c-2.265 1.804-3.397 4.542-4.432 7.043l-.027.066c-1.081 2.614-2.084 5.018-3.993 6.72l-.155.138-.087.189c-1.423 3.082-2.302 6.275-3.073 9.44-.176.72-.346 1.436-.515 2.15-.579 2.449-1.15 4.862-1.923 7.255l-.023.07-.012.073c-.99 5.926-1.906 12.062-.393 18.23.097 1.103.097 2.307.097 3.598v.13c0 1.35.005 2.783.139 4.178.268 2.783 1.072 5.617 3.601 7.56 5.798 4.759 10.721 10.662 15.634 16.551.567.68 1.133 1.359 1.701 2.036 8.589 10.564 16.162 21.964 22.939 33.721l1.209 2.097c.264.865.577 1.824.938 2.636.208.466.449.925.731 1.303.269.359.662.764 1.21.93l1.52.46-.242-1.57c-.68-4.407-1.562-11.418-1.99-16.855l-.003-.037-.005-.036c-1.112-7.25-3.45-14.13-5.812-20.906l-.347-.994c-2.252-6.453-4.475-12.822-5.721-19.461-.04-.296-.084-.595-.127-.89l-.001-.004c-.041-.28-.082-.557-.12-.832v-2.708h-.329c-.776-6.729-.789-13.461 3.732-18.287 2.451-2.468 5.528-4.041 8.858-5.466.827-.355 1.676-.701 2.533-1.052 2.541-1.038 5.16-2.108 7.542-3.498l.005-.003a20.177 20.177 0 0 1 4.01-1.828c.045-.007.097-.018.154-.035 4.132-1.275 8.585-1.247 12.986-.531l.16-.987-.164.986.004.001.013.003.045.009c.032.007.093.021.154.031l.303.05c.32.052.633.104.928.161l.051.01.052.005c.502.045 1.125.119 1.814.201 1.401.168 3.078.368 4.577.419 1.138.038 2.282-.002 3.249-.226.939-.218 1.933-.662 2.435-1.62l.068-.13.268.232c.319.278.624.542.923.795.348.294.68.563.974.771.257.182.613.413.982.496l1.355.305-.141-1.382c-.343-3.347-2.195-5.741-4.533-7.49-2.3-1.72-5.129-2.863-7.607-3.74-1.512-.729-3.187-1.264-4.802-1.764a98.627 98.627 0 0 1-.399-.123c-1.516-.468-2.97-.917-4.296-1.489-1.435-.62-2.647-1.355-3.553-2.34-.891-.969-1.529-2.226-1.747-3.974l-.018-.15-.062-.137-.043-.096c-.228-.505-.475-1.055-.777-1.593l-.032-.057-.04-.053-1.529-2.038.154-.077-.823-.972c-3.207-3.784-7.704-6.532-12.508-7.603-4.566-1.58-9.758-3.167-14.715-3.802l-.812-.104-.263.775c-.12.354-.225.577-.303.711a2.416 2.416 0 0 1-.113-.094 11.667 11.667 0 0 1-.743-.757l-.003-.003-.029-.032c-.549-.589-1.309-1.405-2.235-1.866a3.431 3.431 0 0 0-1.698-.381c-.564.025-1.125.198-1.678.52-.799.104-1.39.232-1.845.335l-.004.001c-.531.12-.746.169-.929.171-.164.001-.356-.018-1.146-.643Zm47.344 31.21a36.598 36.598 0 0 0-3.062-.439l-5.348-1.197-.25-.064 12.242 2.265c.382.142.77.278 1.161.407l-.444-.075c-1.462-.248-2.874-.51-4.214-.878l-.042-.011-.043-.008Zm-9.701 8.093h-.001.001Zm-13.783-23.97c1.116-.03 2.423.176 3.769.639 1.785.617 3.211 1.563 4.089 2.544.903 1.01 1.079 1.865.884 2.428-.193.559-.862 1.121-2.206 1.352-1.305.225-3.019.081-4.805-.54-1.79-.623-3.218-1.558-4.095-2.526-.899-.993-1.076-1.835-.88-2.406.248-.718 1.287-1.439 3.244-1.491Z" fill="#F60" stroke="#fff" stroke-width="2"/></g><defs><linearGradient id="a" x1="117.266" y1="268.216" x2="208.626" y2="426.189" gradientUnits="userSpaceOnUse"><stop stop-color="#699AD7"/><stop offset=".243" stop-color="#7EB1DD"/><stop offset="1" stop-color="#7EBAE4"/></linearGradient><linearGradient id="b" x1="126.706" y1="262.842" x2="216.445" y2="421.429" gradientUnits="userSpaceOnUse"><stop stop-color="#415E9A"/><stop offset=".232" stop-color="#4A6BAF"/><stop offset="1" stop-color="#5277C3"/></linearGradient><clipPath id="c"><path fill="#fff" transform="translate(340 344)" d="M0 0h155v155H0z"/></clipPath></defs></svg>