<svg width="512" height="512" fill="none" xmlns="http://www.w3.org/2000/svg"><circle cx="256" cy="256" r="256" fill="#fff"/><mask id="a" style="mask-type:alpha" maskUnits="userSpaceOnUse" x="11" y="11" width="490" height="490"><circle cx="256" cy="256" r="245" fill="#fff"/></mask><g mask="url(#a)"><path d="M246.14 224.845c.671-18.105 8.266-34.909 21.522-47.234 13.265-12.367 30.573-18.756 48.726-18.181 37.42 1.335 66.82 32.876 65.555 70.2-.706 18.105-8.296 34.909-21.522 47.196-13.265 12.44-30.531 18.832-48.764 18.22-37.374-1.375-66.743-32.842-65.478-70.201h-.039Zm181.522 66.756c3.087-2.037 5.352-3.721 6.307-4.096l1.031-1.604c-2.611-16.383-27.065-95.808-45.543-114.908-5.095-5.206-9.178-10.335-17.44-15.162-66.935-38.927-225.647-62.43-233.084-63.501l-1.265.348-.476 1.148s-.613 32.842-.705 36.513C120.275 124.9 2.425 86.894-108.06 83.067c-93.694-3.288-230.133-15.388-410.965 95.616l-5.348 3.322c-85.068 52.976-143.799 118.315-174.507 194.219-9.63 23.885-22.58 77.779-9.745 128.496 5.528 22.166 15.837 44.44 29.734 64.382 31.413 45.053 84.11 74.947 140.886 80 80.123 7.157 140.809-28.781 162.392-96.076 14.84-46.43 0-114.564-56.891-149.319-46.272-28.291-96.032-21.86-124.899-2.795-25.042 16.578-39.218 42.335-38.988 70.622.579 50.181 43.856 76.86 74.985 76.937 9.044 0 18.126-1.569 28.365-4.9 3.646-1.11 7.073-2.484 10.853-4.819l1.185-.692.744-.498-.249.149c7.096-4.827 11.362-12.677 11.362-21.094 0-2.297-.322-4.624-.981-6.967-3.676-12.708-16.251-20.398-29.281-18.028l-1.76.417-2.381.727-3.454 1.187c-7.169 1.761-12.536 1.914-13.682 1.952-3.646-.234-21.564-5.592-21.564-25.186v-.268c0-7.197 2.891-12.245 4.485-15.005 5.574-8.727 20.836-17.294 41.442-15.502 27.061 2.338 46.578 16.195 59.498 42.334 11.995 24.302 8.855 54.201-8.089 76.095-16.83 21.7-46.77 30.92-86.64 26.637-40.177-4.436-74.143-27.521-93.157-63.463-18.616-35.131-19.632-76.784-2.626-108.784 40.674-76.669 117.5-75.865 159.632-68.593 62.335 10.798 133.257 68.21 158.405 134.506 4.064 10.569 6.134 18.944 7.944 26.607l2.714 11.445 70.424 34.33.92.693 1.709-.157.311-2.025c-.437-1.573-1.461-3.02-3.086-22.698-1.338-17.462-4.064-65.262 20.042-88.956 9.358-9.259 23.619-17.523 34.882-20.168 46.157-11.258 100.288-3.491 151.467 55.655 26.494 30.549 39.41 44.478 45.888 50.717l2.262 2.036 2.66 1.987c2.125 1.152 88.021 40.65 88.021 40.65l1.767-.421.035-1.833c-.572-.651-54.438-70.162-44.854-127.387 7.549-45.588 43.895-41.454 94.154-35.789 16.408 1.914 35.085 4.058 54.438 4.486 53.977.341 112.133-9.611 147.978-25.266 23.189-10.067 37.987-16.766 47.268-25.183 3.335-2.76 5.061-7.238 6.866-12.057l1.262-3.181c1.498-3.908 3.707-12.138 4.673-16.651.391-1.986.621-4.088-.801-5.202l-4.961.919c-15.741 9.458-55.09 27.368-91.854 28.134-45.658.922-137.627-45.856-147.211-50.832l-.924-1.068c-2.258-5.512-16.063-38.082-19.015-44.976 66.207 43.56 121.104 67.636 163.159 71.349 46.809 4.16 83.267-21.336 98.869-32.237h-.003l-.043.004Zm-104.083-60.478c-11.619 0-21.004-6.278-21.004-13.972 0-7.766 9.385-14.009 21.004-14.009 11.62 0 21.032 6.243 21.032 14.009-.008 7.694-9.419 13.972-21.032 13.972Zm-7.747-51.713c-12.693-.455-24.727 4.023-33.928 12.636-9.197 8.612-14.621 20.279-15.005 32.914-.881 26.109 19.594 48.076 45.697 49.033 12.686.383 24.781-4.096 34.035-12.708 9.235-8.654 14.549-20.329 14.951-32.914.882-26.102-19.586-48.038-45.735-48.957l-.015-.004Z" fill="#73BA25"/></g><g clip-path="url(#b)"><path d="M425.371 382.145c5.016 0 9.082-3.592 9.082-8.023 0-4.431-4.066-8.022-9.082-8.022-5.016 0-9.082 3.591-9.082 8.022s4.066 8.023 9.082 8.023Z" fill="#000"/><path d="m397.76 356.995.027-1.041-1.224.239-.282.055-2.034.397 1.201 1.024c-.328.145-.801.198-1.535.279l-.011.001c-.645.072-1.531.171-2.26.567a2.713 2.713 0 0 0-1.152 1.172 5.715 5.715 0 0 0-.817-.218c-.431-.075-1.155-.125-1.653.414-.504.546-.367 1.245-.282 1.557.106.387.305.796.508 1.164.219.395.494.831.761 1.245l-.375.299c-2.265 1.804-3.397 4.542-4.432 7.043l-.027.066c-1.081 2.614-2.084 5.018-3.993 6.72l-.155.138-.087.189c-1.423 3.082-2.302 6.275-3.073 9.44-.176.72-.346 1.436-.515 2.15-.579 2.449-1.15 4.862-1.923 7.255l-.023.07-.012.073c-.99 5.926-1.906 12.062-.393 18.23.097 1.103.097 2.307.097 3.598v.13c0 1.35.005 2.783.139 4.178.268 2.783 1.072 5.617 3.601 7.56 5.798 4.759 10.721 10.662 15.634 16.551.567.68 1.133 1.359 1.701 2.036 8.589 10.564 16.162 21.964 22.939 33.721l1.209 2.097c.264.865.577 1.824.938 2.636.208.466.449.925.731 1.303.269.359.662.764 1.21.93l1.52.46-.242-1.57c-.68-4.407-1.562-11.418-1.99-16.855l-.003-.037-.005-.036c-1.112-7.25-3.45-14.13-5.812-20.906l-.347-.994c-2.252-6.453-4.475-12.822-5.721-19.461-.04-.296-.084-.595-.127-.89l-.001-.004c-.041-.28-.082-.557-.12-.832v-2.708h-.329c-.776-6.729-.789-13.461 3.732-18.287 2.451-2.468 5.528-4.041 8.858-5.466.827-.355 1.676-.701 2.533-1.052 2.541-1.038 5.16-2.108 7.542-3.498l.005-.003a20.177 20.177 0 0 1 4.01-1.828c.045-.007.097-.018.154-.035 4.132-1.275 8.585-1.247 12.986-.531l.16-.987-.164.986.004.001.013.003.045.009c.032.007.093.021.154.031l.303.05c.32.052.633.104.928.161l.051.01.052.005c.502.045 1.125.119 1.814.201 1.401.168 3.078.368 4.577.419 1.138.038 2.282-.002 3.249-.226.939-.218 1.933-.662 2.435-1.62l.068-.13.268.232c.319.278.624.542.923.795.348.294.68.563.974.771.257.182.613.413.982.496l1.355.305-.141-1.382c-.343-3.347-2.195-5.741-4.533-7.49-2.3-1.72-5.129-2.863-7.607-3.74-1.512-.729-3.187-1.264-4.802-1.764a98.627 98.627 0 0 1-.399-.123c-1.516-.468-2.97-.917-4.296-1.489-1.435-.62-2.647-1.355-3.553-2.34-.891-.969-1.529-2.226-1.747-3.974l-.018-.15-.062-.137-.043-.096c-.228-.505-.475-1.055-.777-1.593l-.032-.057-.04-.053-1.529-2.038.154-.077-.823-.972c-3.207-3.784-7.704-6.532-12.508-7.603-4.566-1.58-9.758-3.167-14.715-3.802l-.812-.104-.263.775c-.12.354-.225.577-.303.711a2.416 2.416 0 0 1-.113-.094 11.667 11.667 0 0 1-.743-.757l-.003-.003-.029-.032c-.549-.589-1.309-1.405-2.235-1.866a3.431 3.431 0 0 0-1.698-.381c-.564.025-1.125.198-1.678.52-.799.104-1.39.232-1.845.335l-.004.001c-.531.12-.746.169-.929.171-.164.001-.356-.018-1.146-.643Zm47.344 31.21a36.598 36.598 0 0 0-3.062-.439l-5.348-1.197-.25-.064 12.242 2.265c.382.142.77.278 1.161.407l-.444-.075c-1.462-.248-2.874-.51-4.214-.878l-.042-.011-.043-.008Zm-9.701 8.093h-.001.001Zm-13.783-23.97c1.116-.03 2.423.176 3.769.639 1.785.617 3.211 1.563 4.089 2.544.903 1.01 1.079 1.865.884 2.428-.193.559-.862 1.121-2.206 1.352-1.305.225-3.019.081-4.805-.54-1.79-.623-3.218-1.558-4.095-2.526-.899-.993-1.076-1.835-.88-2.406.248-.718 1.287-1.439 3.244-1.491Z" fill="#F60" stroke="#fff" stroke-width="2"/></g><defs><clipPath id="b"><path fill="#fff" transform="translate(340 344)" d="M0 0h155v155H0z"/></clipPath></defs></svg>