<svg width="512" height="512" fill="none" xmlns="http://www.w3.org/2000/svg"><circle cx="256" cy="256" r="256" fill="#fff"/><g clip-path="url(#a)"><path d="M400.975 234.085c-.672 2.86-2.124 5.393-4.603 6.986-3.894 2.497-8.639 1.773-12.002-1.267-3.152-2.823-4.214-7.601-3.222-11.727 1.026-4.307 4.284-8.108 8.462-9.302 9.312-2.643 13.171 7.709 11.365 15.31Zm-5.7-29.39c-5.771-2.353-3.789-33.3 1.487-70.87 1.487-10.497 4.036-15.456 6.904-17.989 4.107-3.584 11.578-3.728 16.641-2.968 5.807.868 11.366 3.619 15.579 7.782 3.718 3.692 4.143 7.456 2.868 12.342-2.089 7.782-5.665 15.238-9.099 22.514-.815 1.773-7.931 15.563-8.887 17.265-17.173 30.91-20.607 33.914-25.493 31.924Z" fill="#6CC7D2"/><path d="M278.787 190.76c3.399 14.84 3.045 31.127.141 42.855-2.726 11.075-10.126 20.993-21.881 24.323-10.303 2.932-22.306.796-29.671-6.443-12.109-11.872-19.19-39.742-16.039-59.975 2.549-16.252 11.118-37.064 29.919-37.969a24.198 24.198 0 0 1 3.611.072c19.155 1.774 29.6 18.279 33.92 37.137Zm-34.628 33.77c1.062.181 2.124.181 3.187-.145 3.576-1.05 5.629-4.85 6.585-8.542 1.452-5.61 1.239-11.655-.637-17.157-.956-2.787-2.372-5.501-4.532-7.528-7.613-7.131-15.225.289-16.535 8.723-1.027 6.587.46 14.224 4.496 19.545 1.877 2.461 4.568 4.597 7.436 5.104Z" fill="#BBB5B3"/><path d="M320.248 222.213c-.035 27.4 2.656 48.357-9.135 50.854-9.56 1.991-9.241-6.587-9.984-13.79-2.833-27.906-5.418-74.272-6.515-102.324.779-12.053 8.674-19.436 16.889-21.246 12.675-2.787 26.201-1.991 37.425 5.103 22.2 14.044 23.97 39.815 10.515 60.844-7.364 11.474-29.635 19.799-39.195 19.075v1.484Zm2.833-61.423c-1.381.217-3.647.869-4.284 2.244-1.523 3.221-1.417 23.672 1.239 32.25.425 1.412 1.381 2.751 2.761 3.258 5.028 1.882 9.56-4.416 11.614-8.217 2.868-5.284 3.788-11.51 1.983-17.301-1.7-5.393-6.975-13.211-13.313-12.234Z" fill="#99918D"/><path d="M193.28 174.399c-8.321 17.989-22.13 32.286-41.249 39.344 5.488 14.66 11.082 29.138 16.535 43.76 3.045 7.891 5.948 16.542 3.293 24.324-2.762 7.962-13.526 10.17-21.351 1.701-15.048-16.361-65.927-120.023-69.68-127.805-3.187-6.696-7.967-13.863-7.825-21.609.248-11.655 17.88-23.454 26.343-29.499 11.825-8.433 25.492-14.188 40.115-14.224 11.401 0 21.138 3.185 29.777 8.831 13.243 8.687 22.448 22.55 25.847 38.222 2.975 13.79 2.337 27.907-1.805 36.955Zm-38.771-19.69c-2.974-11.039-9.701-21.21-18.163-28.341-1.842-1.556-3.824-3.004-6.126-3.8-15.862-5.321-8.993 21.789-6.408 28.63 3.576 9.592 8.993 21.717 16.251 28.956 1.594 1.593 3.47 3.005 5.63 3.439 3.293.688 6.338-1.665 8.002-4.416 1.381-2.28 1.912-4.995 2.231-7.637.601-5.61.07-11.329-1.417-16.831Z" fill="#48B9C7"/><path d="M382.966 312.184c-.071 15.89-9.56 31.779-30.485 31.779-20.926 0-30.663-15.636-30.663-31.598 0-19.907 13.561-32.214 31.087-32.214 20.324.181 30.238 15.6 30.061 32.033Zm-30.061-22.007c-13.135 0-20.5 9.339-20.571 22.079 0 11.076 6.055 21.464 20.324 21.464 14.268 0 19.721-11.257 19.721-21.572.177-10.714-5.382-21.717-19.474-21.971Zm38.842 45.642c0 2.353.07-11.184 0-13.247h9.63l.673 8.289c3.151 1.846 8.037 3.221 12.038 3.221 7.436 0 15.19-1.918 15.19-9.338-.248-6.733-8.887-8.108-15.863-8.832-11.861-1.231-21.421-4.199-21.421-17.808 0-12.125 13.42-18.17 23.404-18.17 8.038-.181 13.738 1.122 20.996 7.058 0 4.886-.07 7.782-.07 12.668h-9.312l-.602-8.035c-3.753-1.846-7.613-2.353-10.587-2.28-6.408.072-13.242 3.149-13.242 8.65 0 5.394 4.426 6.878 12.286 8.036 12.817 1.737 25.174 4.705 25.174 18.676-.071 15.275-14.092 19.292-26.13 19.292-9.17.037-14.906-1.701-22.164-8.18Z" fill="#554741"/><path d="M308.824 338.751c0 2.787-2.195 5.031-4.921 5.031h-56.899c-2.726 0-4.921-2.244-4.921-5.031v-.434c0-2.787 2.195-5.031 4.921-5.031h56.899c2.726 0 4.921 2.244 4.921 5.031v.434Z" fill="#FAA41A"/></g><g clip-path="url(#b)"><path d="M425.371 382.145c5.016 0 9.082-3.592 9.082-8.023 0-4.431-4.066-8.022-9.082-8.022-5.016 0-9.082 3.591-9.082 8.022s4.066 8.023 9.082 8.023Z" fill="#000"/><path d="m397.76 356.995.027-1.041-1.224.239-.282.055-2.034.397 1.201 1.024c-.328.145-.801.198-1.535.279l-.011.001c-.645.072-1.531.171-2.26.567a2.713 2.713 0 0 0-1.152 1.172 5.715 5.715 0 0 0-.817-.218c-.431-.075-1.155-.125-1.653.414-.504.546-.367 1.245-.282 1.557.106.387.305.796.508 1.164.219.395.494.831.761 1.245l-.375.299c-2.265 1.804-3.397 4.542-4.432 7.043l-.027.066c-1.081 2.614-2.084 5.018-3.993 6.72l-.155.138-.087.189c-1.423 3.082-2.302 6.275-3.073 9.44-.176.72-.346 1.436-.515 2.15-.579 2.449-1.15 4.862-1.923 7.255l-.023.07-.012.073c-.99 5.926-1.906 12.062-.393 18.23.097 1.103.097 2.307.097 3.598v.13c0 1.35.005 2.783.139 4.178.268 2.783 1.072 5.617 3.601 7.56 5.798 4.759 10.721 10.662 15.634 16.551.567.68 1.133 1.359 1.701 2.036 8.589 10.564 16.162 21.964 22.939 33.721l1.209 2.097c.264.865.577 1.824.938 2.636.208.466.449.925.731 1.303.269.359.662.764 1.21.93l1.52.46-.242-1.57c-.68-4.407-1.562-11.418-1.99-16.855l-.003-.037-.005-.036c-1.112-7.25-3.45-14.13-5.812-20.906l-.347-.994c-2.252-6.453-4.475-12.822-5.721-19.461-.04-.296-.084-.595-.127-.89l-.001-.004c-.041-.28-.082-.557-.12-.832v-2.708h-.329c-.776-6.729-.789-13.461 3.732-18.287 2.451-2.468 5.528-4.041 8.858-5.466.827-.355 1.676-.701 2.533-1.052 2.541-1.038 5.16-2.108 7.542-3.498l.005-.003a20.177 20.177 0 0 1 4.01-1.828c.045-.007.097-.018.154-.035 4.132-1.275 8.585-1.247 12.986-.531l.16-.987-.164.986.004.001.013.003.045.009c.032.007.093.021.154.031l.303.05c.32.052.633.104.928.161l.051.01.052.005c.502.045 1.125.119 1.814.201 1.401.168 3.078.368 4.577.419 1.138.038 2.282-.002 3.249-.226.939-.218 1.933-.662 2.435-1.62l.068-.13.268.232c.319.278.624.542.923.795.348.294.68.563.974.771.257.182.613.413.982.496l1.355.305-.141-1.382c-.343-3.347-2.195-5.741-4.533-7.49-2.3-1.72-5.129-2.863-7.607-3.74-1.512-.729-3.187-1.264-4.802-1.764a98.627 98.627 0 0 1-.399-.123c-1.516-.468-2.97-.917-4.296-1.489-1.435-.62-2.647-1.355-3.553-2.34-.891-.969-1.529-2.226-1.747-3.974l-.018-.15-.062-.137-.043-.096c-.228-.505-.475-1.055-.777-1.593l-.032-.057-.04-.053-1.529-2.038.154-.077-.823-.972c-3.207-3.784-7.704-6.532-12.508-7.603-4.566-1.58-9.758-3.167-14.715-3.802l-.812-.104-.263.775c-.12.354-.225.577-.303.711a2.416 2.416 0 0 1-.113-.094 11.667 11.667 0 0 1-.743-.757l-.003-.003-.029-.032c-.549-.589-1.309-1.405-2.235-1.866a3.431 3.431 0 0 0-1.698-.381c-.564.025-1.125.198-1.678.52-.799.104-1.39.232-1.845.335l-.004.001c-.531.12-.746.169-.929.171-.164.001-.356-.018-1.146-.643Zm47.344 31.21a36.598 36.598 0 0 0-3.062-.439l-5.348-1.197-.25-.064 12.242 2.265c.382.142.77.278 1.161.407l-.444-.075c-1.462-.248-2.874-.51-4.214-.878l-.042-.011-.043-.008Zm-9.701 8.093h-.001.001Zm-13.783-23.97c1.116-.03 2.423.176 3.769.639 1.785.617 3.211 1.563 4.089 2.544.903 1.01 1.079 1.865.884 2.428-.193.559-.862 1.121-2.206 1.352-1.305.225-3.019.081-4.805-.54-1.79-.623-3.218-1.558-4.095-2.526-.899-.993-1.076-1.835-.88-2.406.248-.718 1.287-1.439 3.244-1.491Z" fill="#F60" stroke="#fff" stroke-width="2"/></g><defs><clipPath id="a"><path fill="#fff" transform="translate(73 90)" d="M0 0h367v254H0z"/></clipPath><clipPath id="b"><path fill="#fff" transform="translate(340 344)" d="M0 0h155v155H0z"/></clipPath></defs></svg>