<svg width="512" height="512" fill="none" xmlns="http://www.w3.org/2000/svg"><circle cx="256" cy="256" r="256" fill="#fff"/><path fill-rule="evenodd" clip-rule="evenodd" d="M246.885 9.604c-48.043 2.392-90.77 16.419-128.638 42.23C-9.787 139.106-26.674 321.26 83.104 430.887c109.763 109.612 291.965 91.474 377.979-37.628 82.361-123.62 38.259-291.579-93.929-357.716-37.027-18.525-80.563-27.914-120.269-25.938Zm72.419 39.106c34.313 9.916 65.779 28.446 89.573 52.752 5.511 5.631 7.707 10.091 7.97 16.191.71 16.476-18.472 27.345-32.147 18.212-.836-.558-3.673-3.117-6.306-5.688-21.465-20.958-42.145-33.175-70.557-41.683-2.589-.776-5.291-1.703-6.004-2.06-17.321-8.695-13.156-35.639 5.956-38.532 5.193-.787 6.249-.713 11.515.808Zm-54.535 63.198c91.777 6.019 154.421 92.686 131.576 182.032-22.684 88.712-121.498 134.627-203.967 94.774-19.29-9.322-39.971-25.604-44.38-34.941-5.914-12.524 2.827-25.908 17.259-26.425 6.663-.24 10.362 1.298 16.066 6.68 46.785 44.137 117.996 39.533 157.651-10.196 47.394-59.434 18.645-148.932-54.532-169.766-37.194-10.589-74.315-.833-104.306 27.413-11.135 10.488-25.701 8.559-31.988-4.236-3.966-8.071-2.067-20.064 3.634-22.96.597-.302 2.411-1.826 4.033-3.389 28.056-27.007 68.88-41.615 108.954-38.986Zm-2.81 67.956c41.236 3.744 71.846 38.326 70.558 79.713-1.31 42.097-35.139 75.114-76.963 75.114-49.731 0-86.176-46.321-74.982-95.298 8.487-37.13 43.778-62.943 81.387-59.529ZM74.49 187.416c8.93 2.193 15.125 11.573 13.87 21.003-.162 1.21-.794 4.162-1.404 6.56-7.323 28.697-7.313 54.31.031 83.56 1.75 6.973 1.744 10.606-.029 15.018-5.761 14.325-25.604 17.066-35.473 4.901-5.643-6.956-11.155-37.487-11.161-61.819-.005-21.479 5.08-52.514 9.678-59.053 6.191-8.808 15.05-12.487 24.488-10.17Zm60.619 16.985c13.17 2.079 20.351 13.672 16.926 27.327-4.522 18.037-4.566 32.151-.152 50.438 2.307 9.564 1.047 15.374-4.624 21.315-11.092 11.625-28.733 6.241-32.937-10.052-5.618-21.777-6.227-43.47-1.813-64.539 2.435-11.621 4.118-16.225 6.972-19.079 4.094-4.094 10.315-6.248 15.628-5.41Zm116.247 13.281c-29.521 4.104-44.903 37.476-28.572 61.989 21.527 32.31 72.261 16.772 72.261-22.132 0-22.949-21.861-42.892-43.689-39.857Zm145.471 158.91c15.869 3.509 22.418 22.337 11.948 34.362-8.934 10.26-28.438 25.475-44.365 34.606-17.273 9.904-46.342 21.206-55.709 21.659-17.564.851-28.232-18.965-17.488-32.483 3.026-3.809 6.071-5.573 13.465-7.8 29.16-8.781 48.595-20.353 71.77-42.737 7.433-7.179 12.967-9.245 20.379-7.607Z" fill="#049CFC"/><g clip-path="url(#a)"><path d="M425.371 382.145c5.016 0 9.082-3.592 9.082-8.023 0-4.431-4.066-8.022-9.082-8.022-5.016 0-9.082 3.591-9.082 8.022s4.066 8.023 9.082 8.023Z" fill="#000"/><path d="m397.76 356.995.027-1.041-1.224.239-.282.055-2.034.397 1.201 1.024c-.328.145-.801.198-1.535.279l-.011.001c-.645.072-1.531.171-2.26.567a2.713 2.713 0 0 0-1.152 1.172 5.715 5.715 0 0 0-.817-.218c-.431-.075-1.155-.125-1.653.414-.504.546-.367 1.245-.282 1.557.106.387.305.796.508 1.164.219.395.494.831.761 1.245l-.375.299c-2.265 1.804-3.397 4.542-4.432 7.043l-.027.066c-1.081 2.614-2.084 5.018-3.993 6.72l-.155.138-.087.189c-1.423 3.082-2.302 6.275-3.073 9.44-.176.72-.346 1.436-.515 2.15-.579 2.449-1.15 4.862-1.923 7.255l-.023.07-.012.073c-.99 5.926-1.906 12.062-.393 18.23.097 1.103.097 2.307.097 3.598v.13c0 1.35.005 2.783.139 4.178.268 2.783 1.072 5.617 3.601 7.56 5.798 4.759 10.721 10.662 15.634 16.551.567.68 1.133 1.359 1.701 2.036 8.589 10.564 16.162 21.964 22.939 33.721l1.209 2.097c.264.865.577 1.824.938 2.636.208.466.449.925.731 1.303.269.359.662.764 1.21.93l1.52.46-.242-1.57c-.68-4.407-1.562-11.418-1.99-16.855l-.003-.037-.005-.036c-1.112-7.25-3.45-14.13-5.812-20.906l-.347-.994c-2.252-6.453-4.475-12.822-5.721-19.461-.04-.296-.084-.595-.127-.89l-.001-.004c-.041-.28-.082-.557-.12-.832v-2.708h-.329c-.776-6.729-.789-13.461 3.732-18.287 2.451-2.468 5.528-4.041 8.858-5.466.827-.355 1.676-.701 2.533-1.052 2.541-1.038 5.16-2.108 7.542-3.498l.005-.003a20.177 20.177 0 0 1 4.01-1.828c.045-.007.097-.018.154-.035 4.132-1.275 8.585-1.247 12.986-.531l.16-.987-.164.986.004.001.013.003.045.009c.032.007.093.021.154.031l.303.05c.32.052.633.104.928.161l.051.01.052.005c.502.045 1.125.119 1.814.201 1.401.168 3.078.368 4.577.419 1.138.038 2.282-.002 3.249-.226.939-.218 1.933-.662 2.435-1.62l.068-.13.268.232c.319.278.624.542.923.795.348.294.68.563.974.771.257.182.613.413.982.496l1.355.305-.141-1.382c-.343-3.347-2.195-5.741-4.533-7.49-2.3-1.72-5.129-2.863-7.607-3.74-1.512-.729-3.187-1.264-4.802-1.764a98.627 98.627 0 0 1-.399-.123c-1.516-.468-2.97-.917-4.296-1.489-1.435-.62-2.647-1.355-3.553-2.34-.891-.969-1.529-2.226-1.747-3.974l-.018-.15-.062-.137-.043-.096c-.228-.505-.475-1.055-.777-1.593l-.032-.057-.04-.053-1.529-2.038.154-.077-.823-.972c-3.207-3.784-7.704-6.532-12.508-7.603-4.566-1.58-9.758-3.167-14.715-3.802l-.812-.104-.263.775c-.12.354-.225.577-.303.711a2.416 2.416 0 0 1-.113-.094 11.667 11.667 0 0 1-.743-.757l-.003-.003-.029-.032c-.549-.589-1.309-1.405-2.235-1.866a3.431 3.431 0 0 0-1.698-.381c-.564.025-1.125.198-1.678.52-.799.104-1.39.232-1.845.335l-.004.001c-.531.12-.746.169-.929.171-.164.001-.356-.018-1.146-.643Zm47.344 31.21a36.598 36.598 0 0 0-3.062-.439l-5.348-1.197-.25-.064 12.242 2.265c.382.142.77.278 1.161.407l-.444-.075c-1.462-.248-2.874-.51-4.214-.878l-.042-.011-.043-.008Zm-9.701 8.093h-.001.001Zm-13.783-23.97c1.116-.03 2.423.176 3.769.639 1.785.617 3.211 1.563 4.089 2.544.903 1.01 1.079 1.865.884 2.428-.193.559-.862 1.121-2.206 1.352-1.305.225-3.019.081-4.805-.54-1.79-.623-3.218-1.558-4.095-2.526-.899-.993-1.076-1.835-.88-2.406.248-.718 1.287-1.439 3.244-1.491Z" fill="#F60" stroke="#fff" stroke-width="2"/></g><defs><clipPath id="a"><path fill="#fff" transform="translate(340 344)" d="M0 0h155v155H0z"/></clipPath></defs></svg>