<svg width="512" height="512" fill="none" xmlns="http://www.w3.org/2000/svg"><circle cx="256" cy="256" r="256" fill="#fff"/><path fill-rule="evenodd" clip-rule="evenodd" d="M248.81.07C110.489 3.376.109 116.526 0 255.124c-.145 181.654 181.527 305.291 350.496 238.532 117.602-46.465 183.621-173.67 154.26-297.228-1.774-7.467-3.09-12.182-5.844-20.944-16.9-53.753-57.66-105.548-107.646-136.79-5.919-3.699-8.899-5.368-21.046-11.786C336.412 9.048 291.216-.944 248.81.07Zm69.168 80.507a54021.586 54021.586 0 0 0 46.847 27.669c24.448 14.432 28.402 16.769 30.766 18.184 2.719 1.627 4.313.447-19.743 14.608a77638.73 77638.73 0 0 0-67.533 39.795c-4.103 2.422-8.009 4.7-8.68 5.06l-1.222.653V69.005l2.066 1.225c1.137.673 9.011 5.33 17.499 10.347Zm-48.044 19.46c8.132.74 7.519-.201 7.519 11.515 0 12.165.795 11.224-8.561 10.132-55.685-6.495-111.495 25.327-136 77.545l-2.855 6.083-4.959-2.975a857.407 857.407 0 0 0-8.956-5.293c-4.801-2.785-4.758-2.223-.768-10.333 7.304-14.84 23.339-36.921 31.382-43.218.82-.641 2.854-2.457 4.521-4.033 29.77-28.162 75.497-43.352 118.677-39.423Zm.646 53.662c2.728.475 5.27.975 5.649 1.112.519.186.689 2.913.689 11.079v10.834l-1.791-.368c-42.241-8.675-82.395 12.911-96.056 51.64-1.913 5.42-1.482 5.309-7.222 1.882a858.353 858.353 0 0 0-9.136-5.368c-4.865-2.807-4.748-2.515-2.863-7.154 17.887-44.023 65.697-71.508 110.73-63.657Zm113.453 12.554c32.939 46.243 37.397 108.792 11.401 159.956-6.418 12.633-14.254 24.354-15.867 23.735-4.726-1.813-17.75-10.448-17.105-11.341 20.191-27.937 27.743-50.628 27.694-83.203-.046-29.879-11.176-63.86-26.31-80.326-1.421-1.546-1.905-1.118 8.041-7.132 10.017-6.059 9.123-5.935 12.146-1.689Zm-47.477 25.628c2.109 2.244 7.076 9.752 9.96 15.05 19.125 35.14 15.975 78.451-8.038 110.513l-4.3 5.742-1.805-.963c-5.3-2.826-16.861-9.842-16.867-10.236-.004-.252 1.446-2.236 3.222-4.409 24.585-30.092 24.699-74.239.267-103.247-3.14-3.728-3.606-3.073 6.286-8.86 9.856-5.767 9.375-5.614 11.275-3.59ZM86.12 203.948c5.968 3.529 14.074 8.33 18.014 10.669a5131.664 5131.664 0 0 0 16.81 9.911c5.305 3.112 10.761 6.342 12.126 7.176 1.364.833 7.316 4.363 13.227 7.845 23.767 13.996 27.006 15.956 27.006 16.326 0 .212-2.294 1.734-5.098 3.38a3679.597 3679.597 0 0 0-10.334 6.099c-9.466 5.61-26.491 15.647-41.06 24.206-7.882 4.631-15.446 9.099-16.81 9.93-6.364 3.88-24.306 14.388-25.06 14.676-.885.34-1.36-115.385-.476-116.268.551-.553.072-.802 11.655 6.05Zm92.12 77.493c11.403 38.067 55.756 63.473 94.544 54.157 1.819-.437 3.493-.803 3.721-.814 1.005-.047.461 21.937-.552 22.251-6.312 1.954-24.188 2.541-34.321 1.127-36.45-5.083-68.215-29.77-81.572-63.394-2.124-5.347-2.798-4.405 7.467-10.444 10.243-6.025 9.806-5.907 10.713-2.883Zm-45.492 30.736c24.473 53.825 81.761 85.13 141.552 77.349l2.618-.34v10.782c0 9.789-.088 10.806-.965 11.071-.53.158-4.684.578-9.231.931-62.223 4.827-123.073-29.993-151.144-86.489-4.382-8.82-4.87-7.624 5.642-13.866 9.794-5.814 8.603-5.872 11.528.562Zm192.946 30.87a18592.274 18592.274 0 0 1 30.864 18.179 9212.582 9212.582 0 0 0 16.534 9.76c5.154 3.034 12.656 7.453 16.673 9.82 7.043 4.153 8.263 5.28 6.458 5.973-.465.177-5.735 3.217-11.712 6.753a41634.479 41634.479 0 0 1-24.37 14.404 38877.115 38877.115 0 0 0-23.975 14.168c-5.76 3.406-14.812 8.75-20.117 11.873a3378.074 3378.074 0 0 0-13.193 7.796c-1.951 1.164-3.749 2.118-3.996 2.118-.246 0-.447-26.31-.447-58.467v-58.465l1.791 1.076c.985.591 12.456 7.347 25.49 15.012Z" fill="#84A454"/><g clip-path="url(#a)"><path d="M425.371 382.145c5.016 0 9.082-3.592 9.082-8.023 0-4.431-4.066-8.022-9.082-8.022-5.016 0-9.082 3.591-9.082 8.022s4.066 8.023 9.082 8.023Z" fill="#000"/><path d="m397.76 356.995.027-1.041-1.224.239-.282.055-2.034.397 1.201 1.024c-.328.145-.801.198-1.535.279l-.011.001c-.645.072-1.531.171-2.26.567a2.713 2.713 0 0 0-1.152 1.172 5.715 5.715 0 0 0-.817-.218c-.431-.075-1.155-.125-1.653.414-.504.546-.367 1.245-.282 1.557.106.387.305.796.508 1.164.219.395.494.831.761 1.245l-.375.299c-2.265 1.804-3.397 4.542-4.432 7.043l-.027.066c-1.081 2.614-2.084 5.018-3.993 6.72l-.155.138-.087.189c-1.423 3.082-2.302 6.275-3.073 9.44-.176.72-.346 1.436-.515 2.15-.579 2.449-1.15 4.862-1.923 7.255l-.023.07-.012.073c-.99 5.926-1.906 12.062-.393 18.23.097 1.103.097 2.307.097 3.598v.13c0 1.35.005 2.783.139 4.178.268 2.783 1.072 5.617 3.601 7.56 5.798 4.759 10.721 10.662 15.634 16.551.567.68 1.133 1.359 1.701 2.036 8.589 10.564 16.162 21.964 22.939 33.721l1.209 2.097c.264.865.577 1.824.938 2.636.208.466.449.925.731 1.303.269.359.662.764 1.21.93l1.52.46-.242-1.57c-.68-4.407-1.562-11.418-1.99-16.855l-.003-.037-.005-.036c-1.112-7.25-3.45-14.13-5.812-20.906l-.347-.994c-2.252-6.453-4.475-12.822-5.721-19.461-.04-.296-.084-.595-.127-.89l-.001-.004c-.041-.28-.082-.557-.12-.832v-2.708h-.329c-.776-6.729-.789-13.461 3.732-18.287 2.451-2.468 5.528-4.041 8.858-5.466.827-.355 1.676-.701 2.533-1.052 2.541-1.038 5.16-2.108 7.542-3.498l.005-.003a20.177 20.177 0 0 1 4.01-1.828c.045-.007.097-.018.154-.035 4.132-1.275 8.585-1.247 12.986-.531l.16-.987-.164.986.004.001.013.003.045.009c.032.007.093.021.154.031l.303.05c.32.052.633.104.928.161l.051.01.052.005c.502.045 1.125.119 1.814.201 1.401.168 3.078.368 4.577.419 1.138.038 2.282-.002 3.249-.226.939-.218 1.933-.662 2.435-1.62l.068-.13.268.232c.319.278.624.542.923.795.348.294.68.563.974.771.257.182.613.413.982.496l1.355.305-.141-1.382c-.343-3.347-2.195-5.741-4.533-7.49-2.3-1.72-5.129-2.863-7.607-3.74-1.512-.729-3.187-1.264-4.802-1.764a98.627 98.627 0 0 1-.399-.123c-1.516-.468-2.97-.917-4.296-1.489-1.435-.62-2.647-1.355-3.553-2.34-.891-.969-1.529-2.226-1.747-3.974l-.018-.15-.062-.137-.043-.096c-.228-.505-.475-1.055-.777-1.593l-.032-.057-.04-.053-1.529-2.038.154-.077-.823-.972c-3.207-3.784-7.704-6.532-12.508-7.603-4.566-1.58-9.758-3.167-14.715-3.802l-.812-.104-.263.775c-.12.354-.225.577-.303.711a2.416 2.416 0 0 1-.113-.094 11.667 11.667 0 0 1-.743-.757l-.003-.003-.029-.032c-.549-.589-1.309-1.405-2.235-1.866a3.431 3.431 0 0 0-1.698-.381c-.564.025-1.125.198-1.678.52-.799.104-1.39.232-1.845.335l-.004.001c-.531.12-.746.169-.929.171-.164.001-.356-.018-1.146-.643Zm47.344 31.21a36.598 36.598 0 0 0-3.062-.439l-5.348-1.197-.25-.064 12.242 2.265c.382.142.77.278 1.161.407l-.444-.075c-1.462-.248-2.874-.51-4.214-.878l-.042-.011-.043-.008Zm-9.701 8.093h-.001.001Zm-13.783-23.97c1.116-.03 2.423.176 3.769.639 1.785.617 3.211 1.563 4.089 2.544.903 1.01 1.079 1.865.884 2.428-.193.559-.862 1.121-2.206 1.352-1.305.225-3.019.081-4.805-.54-1.79-.623-3.218-1.558-4.095-2.526-.899-.993-1.076-1.835-.88-2.406.248-.718 1.287-1.439 3.244-1.491Z" fill="#F60" stroke="#fff" stroke-width="2"/></g><defs><clipPath id="a"><path fill="#fff" transform="translate(340 344)" d="M0 0h155v155H0z"/></clipPath></defs></svg>