<svg width="512" height="512" fill="none" xmlns="http://www.w3.org/2000/svg"><circle cx="256" cy="256" r="256" fill="#fff"/><g clip-path="url(#a)" fill-rule="evenodd" clip-rule="evenodd"><path d="M329.42 97.193c-7.533 7.919-21.234 90.863-17.736 107.374 2.002 9.452 9.254 9.02 12.955-.771 7.456-19.724 15.703-83.947 12.887-100.367-1.225-7.147-4.698-9.819-8.106-6.236Zm72.286 13.266c-13.061 6.016-50.433 66.144-57.842 93.061-3.49 12.682 1.356 21.322 9.088 16.201 12.309-8.154 59.609-98.742 56.03-107.308-1.145-2.739-3.941-3.49-7.276-1.954Zm-198.773 10.986c-24.608 5.278-28.652 27.822-14.115 78.707 2.798 9.797 2.652 10.42-2.437 10.39-6.372-.037-6.92-.768-13.581-18.116-16.343-42.569-35.016-57.085-52.054-40.466-12.527 12.222-13.589 32.512-3.445 65.854l1.687 5.546-4.054 11.946c-12.281 36.186-16.35 55.519-17.64 83.762-4.575 100.241 67.894 123.959 197.106 64.508 88.465-40.702 123.978-69.272 118.008-94.936-6.252-26.879-29.347-44.823-79.608-61.856-32.109-10.881-57.345-16.069-87.319-17.949l-4.759-.3-.242-5.6c-.133-3.081-.346-10.67-.472-16.864-.995-48.476-13.197-69.746-37.075-64.626Z" fill="#FBFBFB"/><path d="M239.574.29C96.755 9.488-10.922 134.067.648 276.718 11.98 416.46 133.48 521.092 273.389 511.595c142.463-9.67 249.509-133.967 237.963-276.312C500.054 95.977 379.005-8.687 239.574.291Zm94.483 95.912c4.939 2.554 5.226 21.425.859 56.43-5.84 46.801-13.293 66.462-21.385 56.415-4.923-6.111-1.938-40.945 7.149-83.393 5.46-25.514 8.414-32.018 13.377-29.452Zm73.359 14.147c4.236 2.967.068 14.771-17.682 50.077-25.961 51.639-39.507 68.594-45.897 57.444-5.084-8.87 7.55-39.534 30.961-75.15 16.854-25.641 27.352-36.06 32.618-32.371Zm-192.347 11.078c16.442 4.83 24.119 24.731 24.939 64.644.126 6.194.339 13.783.472 16.864l.242 5.6 4.759.3c29.974 1.88 55.21 7.068 87.319 17.949 50.26 17.033 73.356 34.977 79.608 61.856 5.385 23.153-21.927 47.763-90.914 81.919-55.977 27.713-86.77 38.703-121.243 43.269-79.235 10.493-113.102-30.227-100.574-120.922 2.02-14.619 6.819-32.734 15.257-57.6l4.054-11.946-1.688-5.546c-12.341-40.571-7.422-65.745 14.084-72.067 13.494-3.965 28.439 12.878 41.416 46.679 6.661 17.348 7.209 18.079 13.581 18.116 5.089.03 5.235-.593 2.437-10.39-12.252-42.89-11.171-65.213 3.62-74.717 5.971-3.838 16.727-5.742 22.631-4.008Z" fill="#0444AC"/></g><g clip-path="url(#b)"><path d="M425.371 382.145c5.016 0 9.082-3.592 9.082-8.023 0-4.431-4.066-8.022-9.082-8.022-5.016 0-9.082 3.591-9.082 8.022s4.066 8.023 9.082 8.023Z" fill="#000"/><path d="m397.759 356.995.027-1.041-1.223.239-.282.055-2.034.397 1.2 1.024c-.327.145-.801.198-1.535.279l-.011.001c-.644.072-1.53.171-2.259.567a2.715 2.715 0 0 0-1.152 1.172 5.726 5.726 0 0 0-.818-.218c-.431-.075-1.154-.125-1.653.414-.504.546-.367 1.245-.281 1.557.105.387.304.796.508 1.164.218.395.493.831.76 1.245l-.375.299c-2.264 1.804-3.397 4.542-4.431 7.043l-.028.066c-1.081 2.614-2.084 5.018-3.992 6.72l-.156.138-.087.189c-1.423 3.082-2.301 6.275-3.073 9.44-.175.72-.345 1.436-.514 2.15-.58 2.449-1.151 4.862-1.924 7.255l-.022.07-.013.073c-.989 5.926-1.906 12.062-.392 18.23.096 1.103.096 2.307.097 3.598v.13c0 1.35.004 2.783.139 4.178.268 2.783 1.072 5.617 3.6 7.56 5.798 4.759 10.722 10.662 15.635 16.551.566.68 1.133 1.359 1.7 2.036 8.589 10.564 16.163 21.964 22.94 33.721l1.209 2.097c.264.865.576 1.824.938 2.636.207.466.449.925.731 1.303.268.359.661.764 1.209.93l1.52.46-.242-1.57c-.679-4.407-1.561-11.418-1.989-16.855l-.003-.037-.006-.036c-1.112-7.25-3.449-14.13-5.811-20.906l-.347-.994c-2.253-6.453-4.475-12.822-5.721-19.461-.041-.296-.085-.595-.128-.89v-.004c-.042-.28-.082-.557-.12-.832v-2.708h-.33c-.776-6.729-.788-13.461 3.732-18.287 2.452-2.468 5.529-4.041 8.858-5.466.828-.355 1.677-.701 2.534-1.052 2.541-1.038 5.159-2.108 7.542-3.498l.005-.003a20.169 20.169 0 0 1 4.009-1.828c.045-.007.097-.018.154-.035 4.133-1.275 8.585-1.247 12.986-.531l.161-.987-.165.986h.001l.003.001.013.003.046.009c.031.007.092.021.154.031l.302.05c.32.052.633.104.928.161l.051.01.052.005c.502.045 1.125.119 1.814.201 1.402.168 3.078.368 4.577.419 1.139.038 2.283-.002 3.249-.226.939-.218 1.934-.662 2.435-1.62l.069-.13.267.232c.319.278.624.542.924.795.348.294.679.563.973.771.258.182.613.413.982.496l1.356.305-.142-1.382c-.342-3.347-2.194-5.741-4.533-7.49-2.3-1.72-5.128-2.863-7.607-3.74-1.511-.729-3.186-1.264-4.801-1.764l-.4-.123c-1.516-.468-2.97-.917-4.296-1.489-1.435-.62-2.647-1.355-3.553-2.34-.891-.969-1.528-2.226-1.746-3.974l-.019-.15-.062-.137-.043-.096c-.227-.505-.474-1.055-.777-1.593l-.032-.057-.039-.053-1.529-2.038.154-.077-.824-.972c-3.206-3.784-7.703-6.532-12.507-7.603-4.567-1.58-9.759-3.167-14.716-3.802l-.811-.104-.263.775c-.12.354-.225.577-.304.711a2.007 2.007 0 0 1-.112-.094c-.212-.186-.444-.436-.744-.757l-.003-.003-.029-.032c-.549-.589-1.309-1.405-2.235-1.866a3.427 3.427 0 0 0-1.697-.381c-.565.025-1.126.198-1.678.52-.8.104-1.39.232-1.846.335l-.004.001c-.531.12-.746.169-.928.171-.165.001-.357-.018-1.147-.643Zm47.344 31.21a36.631 36.631 0 0 0-3.061-.439l-5.348-1.197-.25-.064 12.241 2.265c.383.142.771.278 1.162.407l-.444-.075c-1.463-.248-2.874-.51-4.214-.878l-.043-.011-.043-.008Zm-9.7 8.093h-.002.002Zm-13.783-23.97c1.116-.03 2.422.176 3.769.639 1.784.617 3.211 1.563 4.088 2.544.904 1.01 1.08 1.865.885 2.428-.194.559-.862 1.121-2.207 1.352-1.304.225-3.018.081-4.804-.54-1.791-.623-3.219-1.558-4.095-2.526-.899-.993-1.076-1.835-.88-2.406.248-.718 1.287-1.439 3.244-1.491Z" fill="#F60" stroke="#fff" stroke-width="2"/></g><defs><clipPath id="a"><path fill="#fff" d="M0 0h512v512H0z"/></clipPath><clipPath id="b"><path fill="#fff" transform="translate(340 344)" d="M0 0h155v155H0z"/></clipPath></defs></svg>